<?xml version="1.0" encoding="UTF-8"?>
<svg width="86px" height="86px" viewBox="0 0 86 86" version="1.1" xmlns="http://www.w3.org/2000/svg" xmlns:xlink="http://www.w3.org/1999/xlink">
    <!-- Generator: Sketch 55 (78076) - https://sketchapp.com -->
    <title>Logo</title>
    <desc>Created with Sketch.</desc>
    <defs>
        <circle id="path-1" cx="35" cy="35" r="35"></circle>
        <filter x="-16.4%" y="-16.4%" width="135.7%" height="135.7%" filterUnits="objectBoundingBox" id="filter-3">
            <feMorphology radius="1.5" operator="dilate" in="SourceAlpha" result="shadowSpreadOuter1"></feMorphology>
            <feOffset dx="1" dy="1" in="shadowSpreadOuter1" result="shadowOffsetOuter1"></feOffset>
            <feGaussianBlur stdDeviation="2.5" in="shadowOffsetOuter1" result="shadowBlurOuter1"></feGaussianBlur>
            <feColorMatrix values="0 0 0 0 0.196078431   0 0 0 0 0.149019608   0 0 0 0 0.450980392  0 0 0 0.25 0" type="matrix" in="shadowBlurOuter1"></feColorMatrix>
        </filter>
    </defs>
    <g id="Page-1" stroke="none" stroke-width="1" fill="none" fill-rule="evenodd">
        <g id="Strada" transform="translate(-163.000000, -4850.000000)">
            <g id="View-5" transform="translate(150.000000, 3878.000000)">
                <g id="Table" transform="translate(0.000000, 258.000000)">
                    <g id="List-Items" transform="translate(20.000000, 80.000000)">
                        <g id="Awwwards" transform="translate(0.000000, 641.000000)">
                            <g id="Logo">
                                <mask id="mask-2" fill="white">
                                    <use xlink:href="#path-1"></use>
                                </mask>
                                <g id="Oval">
                                    <use fill="black" fill-opacity="1" filter="url(#filter-3)" xlink:href="#path-1"></use>
                                    <use fill="#FFFFFF" fill-rule="evenodd" xlink:href="#path-1"></use>
                                </g>
                                <g id="Awwwards" mask="url(#mask-2)" fill="#000000" fill-rule="nonzero">
                                    <g transform="translate(12.000000, 22.000000)" id="Path">
                                        <path d="M3.10178962,0.0406761636 C6.41520623,0.0406761636 6.43297253,0.0406761636 7.28575536,3.22991115 C8.2540192,6.8715828 9.18230883,10.5221258 10.1505727,14.1637974 C10.3218103,14.6881389 10.5235038,15.2020676 10.7546272,15.7029692 C10.9189655,15.219483 11.1188365,14.7448681 11.2432007,14.2525105 C12.238114,10.31365 13.2952093,6.38809655 14.1657585,2.42262218 C14.5521757,0.648360715 15.3250101,-0.0258586413 17.1727063,0.000755280674 C21.1701258,0.0628544319 21.1701258,-0.0258586413 22.133948,3.87751658 C22.9689645,7.24861336 23.8128642,10.616753 24.665647,13.9819356 C24.8179727,14.4550472 25.0019727,14.9173975 25.2164026,15.3658596 C25.4686165,14.9597908 25.6813029,14.5305292 25.8515481,14.0839557 C26.8686693,10.3047787 27.8458163,6.51229486 28.8629375,2.73755359 C29.6046809,0.0451118173 29.6268888,0.0495474709 32.5050308,0.0406761636 C36.5335414,0.0406761636 36.5024503,0.0406761636 35.2676919,3.87751658 C33.1535011,10.4156701 31.0570766,16.9597378 28.9784185,23.5097197 C28.2055841,25.9271509 28.1389604,25.8561805 24.834427,25.9936857 C22.8179509,26.0779632 21.9163107,25.323902 21.472153,23.4121353 C20.6149286,19.7482854 19.5755995,16.1243563 18.5895694,12.4871203 C18.4382188,12.0994997 18.2430032,11.7304241 18.0077228,11.3870782 C17.7467811,11.7005835 17.5300891,12.0483207 17.3636941,12.4205855 C16.3865471,16.0578215 15.4049585,19.6950575 14.5033183,23.3500362 C14.1124596,24.9424358 13.5394961,25.9803788 11.5852021,25.9670718 C8.03194033,25.9404579 7.85427725,25.9892501 7.09476754,23.6560963 C4.90506997,16.9316453 2.71093082,10.2027587 0.587856912,3.42064425 C-0.451472158,0.0628544319 -0.393731654,0.0406761636 3.10178962,0.0406761636 Z"></path>
                                        <path d="M44.999967,21.6037005 C44.999967,24.4290305 43.3758452,26.0267411 40.538094,25.9996613 C37.9234364,25.9725814 35.969136,24.0363728 36.0003691,21.5134343 C36.1094424,19.0049298 38.1406462,17.0217075 40.6228696,17.0001275 C43.2062941,16.9820743 45.0088908,18.8821765 44.999967,21.6037005 Z"></path>
                                    </g>
                                </g>
                            </g>
                        </g>
                    </g>
                </g>
            </g>
        </g>
    </g>
</svg>