<?xml version="1.0" encoding="UTF-8"?>
<svg width="86px" height="86px" viewBox="0 0 86 86" version="1.1" xmlns="http://www.w3.org/2000/svg" xmlns:xlink="http://www.w3.org/1999/xlink">
    <!-- Generator: Sketch 55 (78076) - https://sketchapp.com -->
    <title>Logo</title>
    <desc>Created with Sketch.</desc>
    <defs>
        <circle id="path-1" cx="35" cy="35" r="35"></circle>
        <filter x="-16.4%" y="-16.4%" width="135.7%" height="135.7%" filterUnits="objectBoundingBox" id="filter-3">
            <feMorphology radius="1.5" operator="dilate" in="SourceAlpha" result="shadowSpreadOuter1"></feMorphology>
            <feOffset dx="1" dy="1" in="shadowSpreadOuter1" result="shadowOffsetOuter1"></feOffset>
            <feGaussianBlur stdDeviation="2.5" in="shadowOffsetOuter1" result="shadowBlurOuter1"></feGaussianBlur>
            <feColorMatrix values="0 0 0 0 0.196078431   0 0 0 0 0.149019608   0 0 0 0 0.450980392  0 0 0 0.25 0" type="matrix" in="shadowBlurOuter1"></feColorMatrix>
        </filter>
    </defs>
    <g id="Page-1" stroke="none" stroke-width="1" fill="none" fill-rule="evenodd">
        <g id="Strada" transform="translate(-163.000000, -4631.000000)">
            <g id="View-5" transform="translate(150.000000, 3878.000000)">
                <g id="Table" transform="translate(0.000000, 258.000000)">
                    <g id="List-Items" transform="translate(20.000000, 80.000000)">
                        <g id="Behance" transform="translate(0.000000, 422.000000)">
                            <g id="Logo">
                                <mask id="mask-2" fill="white">
                                    <use xlink:href="#path-1"></use>
                                </mask>
                                <g id="Oval">
                                    <use fill="black" fill-opacity="1" filter="url(#filter-3)" xlink:href="#path-1"></use>
                                    <use fill="#5E7EC2" fill-rule="evenodd" xlink:href="#path-1"></use>
                                </g>
                                <g id="Behance" mask="url(#mask-2)" fill-rule="nonzero">
                                    <path d="M69.9588719,34.9897089 C69.9588719,46.3922376 69.9588719,57.7970532 69.9588719,69.2041556 C69.9588719,69.8902284 69.828633,70 69.1637289,70 C46.3742003,70 23.5846716,70 0.795142969,70 C0.109674892,70 0,69.8696462 0,69.2041556 C0.0274187231,46.3945245 0.0411280846,23.5917541 0.0411280846,0.79584436 C0.0411280846,0.130353818 0.171367019,0 0.836271054,0 C23.6120904,0 46.401619,0 69.204857,0 C69.8903251,0 70,0.130353818 70,0.79584436 C69.9725813,12.198373 69.9588719,23.5963279 69.9588719,34.9897089 Z M12.2424599,34.5917867 L12.2424599,48.4230128 C12.2424599,49.7951583 12.2424599,49.8363227 13.5517039,49.8431834 L26.1300431,49.8431834 C27.2192378,49.8422946 28.3031899,49.6922541 29.351743,49.3972361 C31.4874164,48.8584273 33.3159871,47.4808431 34.4242068,45.575811 C36.2749706,42.4267372 36.1104583,36.6019798 31.0311398,34.3791042 C30.3456718,34.0840929 30.5650215,33.8782711 31.0311398,33.6450064 C31.8626416,33.220496 32.5815401,32.6044256 33.1286722,31.8474958 C34.5031624,29.9224111 34.9222364,27.4737592 34.2662609,25.2005575 C33.6102854,22.9273559 31.9513472,21.0794122 29.7630239,20.1842595 C28.2111298,19.5971562 26.5618449,19.3107797 24.9030552,19.3403901 L13.7093615,19.3403901 C12.2561692,19.3403901 12.2493145,19.3403901 12.2424599,20.7536999 L12.2424599,34.5917867 Z M50.88915,40.7184162 C53.1100666,40.7184162 55.3378378,40.7184162 57.5656091,40.7184162 C58.6486486,40.7184162 58.7103408,40.6635303 58.6829221,39.565814 C58.6763159,38.6861725 58.6075979,37.8080983 58.4772816,36.9381554 C57.8603604,32.9726551 55.9547591,29.8921886 52.027027,28.5406253 C47.9142186,27.1341762 44.0413239,27.6075664 40.7716412,30.7017544 C38.1188797,33.2196413 37.1455151,36.4167402 37.3854289,40.0117612 C38.070897,49.8980692 47.7017235,52.5257277 54.0491579,49.0198961 C56.0616877,47.9740586 57.5884073,46.1851629 58.3059146,44.0321474 C58.5184097,43.387239 58.3059146,43.1951387 57.7095574,43.2019994 C56.4688602,43.2019994 55.2213083,43.2431638 53.980611,43.2019994 C53.1591291,43.1069255 52.3492956,43.4572913 51.85566,44.1213369 C50.5327066,45.7061649 48.6956522,45.802215 46.8654524,45.3425463 C45.1516518,44.9306439 43.8424135,43.5449098 43.5272229,41.8092718 C43.2941637,40.8624914 43.3764199,40.7458591 44.404622,40.7389983 C46.5432824,40.7046947 48.7093615,40.7184162 50.88915,40.7184162 Z M47.9622013,24.8564148 C49.6690168,24.8564148 51.3895417,24.8564148 53.0826479,24.8564148 C55.7833921,24.8152504 55.3721112,25.3229442 55.39953,22.4414388 C55.39953,21.1722043 55.39953,21.1516221 54.1245593,21.1516221 C50.4504505,21.1516221 46.7763416,21.1516221 43.1090873,21.1516221 C40.1410106,21.1859257 40.6002742,20.5684603 40.5248727,23.8067235 C40.5248727,24.6162893 40.7922052,24.8907184 41.6010576,24.8701362 C43.7191539,24.8289719 45.844105,24.8564148 47.9622013,24.8564148 Z" id="Shape" fill="#0156FE"></path>
                                    <path d="M12.173913,34.9975808 L12.173913,20.9920528 C12.173913,19.5678796 12.173913,19.5609324 13.6461875,19.5609324 L24.8671201,19.5609324 C26.5319853,19.5309488 28.1873109,19.8209343 29.7448891,20.4154363 C31.9412274,21.3218697 33.6062417,23.1931013 34.2646198,25.49495 C34.9229979,27.7967987 34.502389,30.2763087 33.1228645,32.2256534 C32.5696869,32.9794555 31.8484808,33.5911084 31.0176497,34.0110804 C30.5635837,34.2472847 30.329671,34.4557003 31.0176497,34.7544293 C36.1155718,37.0053177 36.2806867,42.9034791 34.4231442,46.0922377 C33.3195978,48.0288528 31.4890255,49.4340179 29.3458614,49.9896093 C28.2934678,50.2883452 27.2055456,50.4402765 26.1123615,50.4411765 L13.4879524,50.4411765 C12.1876726,50.4411765 12.1807928,50.4411765 12.173913,49.0031089 L12.173913,34.9975808 Z M22.0670468,45.3419416 C23.0508563,45.3419416 24.0346658,45.3419416 25.0184754,45.3419416 C25.6925753,45.3469405 26.3618494,45.2268452 26.9929743,44.9876351 C28.4440105,44.5518181 29.4199227,43.1807253 29.3665008,41.6529855 C29.455938,39.138104 28.1212593,37.5333039 25.6307764,37.387413 C23.511802,37.2623636 21.3859479,37.387413 19.2600937,37.3109939 C18.4482788,37.3109939 18.1868469,37.5888814 18.2006065,38.394755 C18.2006065,40.5344885 18.2006065,42.6811691 18.1386884,44.8209026 C18.1386884,45.3141528 18.3313224,45.3141528 18.6477926,45.3141528 L22.0670468,45.3419416 Z M21.7918553,32.2256534 L21.7918553,32.1561816 C22.9374187,32.2268488 24.0861854,32.2268488 25.2317488,32.1561816 C26.1793303,32.1078322 27.0685079,31.6791881 27.7015717,30.9655587 C28.3346356,30.2519292 28.6591089,29.3124699 28.6028444,28.3560705 C28.6028444,26.3274921 27.4607998,25.1047872 25.1973499,24.833847 C23.1334138,24.5906954 21.0694776,24.7782695 19.0055415,24.7296392 C18.3794809,24.7296392 18.214366,25.0422626 18.2212458,25.6049847 C18.2212458,27.5432497 18.2212458,29.4745676 18.2212458,31.4128326 C18.2212458,31.9963963 18.4345192,32.2742837 19.0399405,32.2603893 C19.927433,32.211759 20.863084,32.2256534 21.7918553,32.2256534 L21.7918553,32.2256534 Z" id="Shape" fill="#F8F9FE"></path>
                                    <path d="M50.0426497,40.6759395 C47.8725972,40.6759395 45.7025448,40.6759395 43.5324924,40.6759395 C42.5056537,40.6759395 42.4235066,40.7990845 42.6562567,41.7431964 C42.9710294,43.4739426 44.2785316,44.855771 45.9900596,45.2665125 C47.8178325,45.7248857 49.652451,45.6291062 50.9736501,44.048745 C51.4760122,43.4019576 52.2831624,43.0688872 53.0957834,43.173047 C54.3348354,43.2277782 55.580733,43.173047 56.819785,43.173047 C57.4495794,43.173047 57.6275648,43.3577646 57.4153515,44.0008553 C56.7054856,46.1392585 55.1940287,47.9195254 53.1984672,48.9677048 C46.8594497,52.4636554 37.2277028,49.8434028 36.5568348,39.984959 C36.3172391,36.4000704 37.2893131,33.2119824 39.9385569,30.7011921 C43.203904,27.615725 47.0785086,27.143669 51.1790178,28.5461541 C55.1015416,29.9144322 57.004616,32.9656924 57.6207192,36.9200161 C57.7508627,37.7875071 57.8194896,38.6631064 57.826087,39.5402687 C57.826087,40.6348911 57.826087,40.6827809 56.7102556,40.6896223 C54.4854384,40.6896223 52.2606212,40.6759395 50.0426497,40.6759395 Z M46.9826704,36.6805674 L49.919429,36.6805674 C51.7608931,36.6805674 51.9731064,36.3590221 51.1447899,34.710247 C50.8513538,34.1041818 50.3966201,33.5905533 49.8304363,33.2256652 C48.1165002,32.2816286 46.0287594,32.3233578 44.3539633,33.3351275 C43.54553,33.9010231 42.9597222,34.7308115 42.6973302,35.6817244 C42.4440433,36.5642638 42.5056537,36.6668846 43.3818894,36.6805674 C44.6140958,36.6942502 45.8120743,36.6805674 46.9826704,36.6805674 L46.9826704,36.6805674 Z" id="Shape" fill="#F8F9FE"></path>
                                    <path d="M47.1648272,24.6991599 C45.0008113,24.6991599 42.8297921,24.6991599 40.6657762,24.6991599 C39.8393882,24.6991599 39.5452501,24.4204881 39.56626,23.5317512 C39.6432961,19.9768037 39.1740759,20.6546538 42.2064995,20.6169955 C45.9532584,20.6169955 49.7070206,20.6169955 53.4607829,20.6169955 C54.7493878,20.6169955 54.777401,20.6169955 54.7633944,22.0329492 C54.7633944,25.19625 55.1555785,24.6389065 52.3962831,24.6840965 C50.6524645,24.7217549 48.9086458,24.6991599 47.1648272,24.6991599 Z" id="Path" fill="#F8F9FE"></path>
                                    <path d="M21.1702627,45.2868221 L17.7528047,45.2868221 C17.4383986,45.2868221 17.2333511,45.2868221 17.247021,44.7797788 C17.3153701,42.5802103 17.32904,40.3735004 17.3085352,38.173932 C17.3085352,37.3455231 17.5545922,37.0384405 18.3611122,37.0598649 C20.4731013,37.1169965 22.5850903,37.0098747 24.6902443,37.1384209 C27.1644839,37.2883915 28.4904576,38.9380678 28.4016037,41.5232748 C28.4451966,43.0858862 27.4775517,44.483763 26.0435577,44.9297493 C25.4165491,45.1756487 24.7516401,45.2991024 24.0819368,45.2939636 C23.0977089,45.2653978 22.1476556,45.2868221 21.1702627,45.2868221 Z" id="Path" fill="#0156FE"></path>
                                    <path d="M21.7883874,31.9117647 C20.8813505,31.9117647 19.9675948,31.9117647 19.0605579,31.9117647 C18.4693043,31.9117647 18.2543029,31.6599504 18.2610217,31.1033084 C18.2610217,29.2544616 18.2610217,27.4122414 18.2610217,25.5633946 C18.2610217,25.0266326 18.4155539,24.7085514 19.026964,24.7284315 C21.0426015,24.7748183 23.058239,24.5958977 25.0738765,24.8278319 C27.2843589,25.0862728 28.3996783,26.2525705 28.3996783,28.1875643 C28.4546261,29.099842 28.137746,29.9959611 27.5194965,30.6766686 C26.9012471,31.3573761 26.0328774,31.7662455 25.1074704,31.8123643 C23.9887146,31.8797715 22.8668304,31.8797715 21.7480746,31.8123643 L21.7883874,31.9117647 Z" id="Path" fill="#0659FE"></path>
                                    <path d="M47.0417446,37.0588235 C45.8421411,37.0588235 44.6425376,37.0588235 43.4429341,37.0588235 C42.541498,37.0588235 42.4790908,36.9429994 42.7495217,36.0640987 C43.0153071,35.1171063 43.6086911,34.290739 44.4275797,33.7271765 C46.1240356,32.7195783 48.2387769,32.6780212 49.9748791,33.6181656 C50.5483852,33.9815493 51.009,34.4930601 51.306231,35.0966265 C52.0967211,36.7113511 51.8817633,37.0588235 50.0164839,37.0588235 L47.0417446,37.0588235 Z" id="Path" fill="#0659FE"></path>
                                </g>
                            </g>
                        </g>
                    </g>
                </g>
            </g>
        </g>
    </g>
</svg>