<?xml version="1.0" encoding="UTF-8"?>
<svg width="253px" height="148px" viewBox="0 0 253 148" version="1.1" xmlns="http://www.w3.org/2000/svg" xmlns:xlink="http://www.w3.org/1999/xlink">
    <!-- Generator: Sketch 55 (78076) - https://sketchapp.com -->
    <title>Dots</title>
    <desc>Created with Sketch.</desc>
    <g id="Page-1" stroke="none" stroke-width="1" fill="none" fill-rule="evenodd">
        <g id="Strada" transform="translate(-1037.000000, -1508.000000)" fill="#EBEBEB">
            <g id="View-3" transform="translate(150.000000, 1478.000000)">
                <g id="Title">
                    <g id="Dots" transform="translate(887.000000, 30.000000)">
                        <g id="Row-1">
                            <rect id="Rectangle" x="0" y="0" width="8.72413793" height="8"></rect>
                            <rect id="Rectangle-Copy" x="34.8965517" y="0" width="8.72413793" height="8"></rect>
                            <rect id="Rectangle-Copy-2" x="69.7931034" y="0" width="8.72413793" height="8"></rect>
                            <rect id="Rectangle-Copy-3" x="104.689655" y="0" width="8.72413793" height="8"></rect>
                            <rect id="Rectangle-Copy-4" x="139.586207" y="0" width="8.72413793" height="8"></rect>
                            <rect id="Rectangle-Copy-5" x="174.482759" y="0" width="8.72413793" height="8"></rect>
                            <rect id="Rectangle-Copy-6" x="209.37931" y="0" width="8.72413793" height="8"></rect>
                            <rect id="Rectangle-Copy-7" x="244.275862" y="0" width="8.72413793" height="8"></rect>
                        </g>
                        <g id="Row-2" transform="translate(0.000000, 35.000000)">
                            <rect id="Rectangle" x="0" y="0" width="8.72413793" height="8"></rect>
                            <rect id="Rectangle-Copy" x="34.8965517" y="0" width="8.72413793" height="8"></rect>
                            <rect id="Rectangle-Copy-2" x="69.7931034" y="0" width="8.72413793" height="8"></rect>
                            <rect id="Rectangle-Copy-3" x="104.689655" y="0" width="8.72413793" height="8"></rect>
                            <rect id="Rectangle-Copy-4" x="139.586207" y="0" width="8.72413793" height="8"></rect>
                            <rect id="Rectangle-Copy-5" x="174.482759" y="0" width="8.72413793" height="8"></rect>
                            <rect id="Rectangle-Copy-6" x="209.37931" y="0" width="8.72413793" height="8"></rect>
                            <rect id="Rectangle-Copy-7" x="244.275862" y="0" width="8.72413793" height="8"></rect>
                        </g>
                        <g id="Row-3" transform="translate(0.000000, 70.000000)">
                            <rect id="Rectangle" x="0" y="0" width="8.72413793" height="8"></rect>
                            <rect id="Rectangle-Copy" x="34.8965517" y="0" width="8.72413793" height="8"></rect>
                            <rect id="Rectangle-Copy-2" x="69.7931034" y="0" width="8.72413793" height="8"></rect>
                            <rect id="Rectangle-Copy-3" x="104.689655" y="0" width="8.72413793" height="8"></rect>
                            <rect id="Rectangle-Copy-4" x="139.586207" y="0" width="8.72413793" height="8"></rect>
                            <rect id="Rectangle-Copy-5" x="174.482759" y="0" width="8.72413793" height="8"></rect>
                            <rect id="Rectangle-Copy-6" x="209.37931" y="0" width="8.72413793" height="8"></rect>
                            <rect id="Rectangle-Copy-7" x="244.275862" y="0" width="8.72413793" height="8"></rect>
                        </g>
                        <g id="Row-4" transform="translate(0.000000, 105.000000)">
                            <rect id="Rectangle" x="0" y="0" width="8.72413793" height="8"></rect>
                            <rect id="Rectangle-Copy" x="34.8965517" y="0" width="8.72413793" height="8"></rect>
                            <rect id="Rectangle-Copy-2" x="69.7931034" y="0" width="8.72413793" height="8"></rect>
                            <rect id="Rectangle-Copy-3" x="104.689655" y="0" width="8.72413793" height="8"></rect>
                            <rect id="Rectangle-Copy-4" x="139.586207" y="0" width="8.72413793" height="8"></rect>
                            <rect id="Rectangle-Copy-5" x="174.482759" y="0" width="8.72413793" height="8"></rect>
                            <rect id="Rectangle-Copy-6" x="209.37931" y="0" width="8.72413793" height="8"></rect>
                            <rect id="Rectangle-Copy-7" x="244.275862" y="0" width="8.72413793" height="8"></rect>
                        </g>
                        <g id="Row-4-Copy" transform="translate(0.000000, 140.000000)">
                            <rect id="Rectangle" x="0" y="0" width="8.72413793" height="8"></rect>
                            <rect id="Rectangle-Copy" x="34.8965517" y="0" width="8.72413793" height="8"></rect>
                            <rect id="Rectangle-Copy-2" x="69.7931034" y="0" width="8.72413793" height="8"></rect>
                            <rect id="Rectangle-Copy-3" x="104.689655" y="0" width="8.72413793" height="8"></rect>
                            <rect id="Rectangle-Copy-4" x="139.586207" y="0" width="8.72413793" height="8"></rect>
                            <rect id="Rectangle-Copy-5" x="174.482759" y="0" width="8.72413793" height="8"></rect>
                            <rect id="Rectangle-Copy-6" x="209.37931" y="0" width="8.72413793" height="8"></rect>
                            <rect id="Rectangle-Copy-7" x="244.275862" y="0" width="8.72413793" height="8"></rect>
                        </g>
                    </g>
                </g>
            </g>
        </g>
    </g>
</svg>