<?xml version="1.0" encoding="UTF-8"?>
<svg width="86px" height="86px" viewBox="0 0 86 86" version="1.1" xmlns="http://www.w3.org/2000/svg" xmlns:xlink="http://www.w3.org/1999/xlink">
    <!-- Generator: Sketch 55 (78076) - https://sketchapp.com -->
    <title>Logo</title>
    <desc>Created with Sketch.</desc>
    <defs>
        <circle id="path-1" cx="35" cy="35" r="35"></circle>
        <filter x="-16.4%" y="-16.4%" width="135.7%" height="135.7%" filterUnits="objectBoundingBox" id="filter-3">
            <feMorphology radius="1.5" operator="dilate" in="SourceAlpha" result="shadowSpreadOuter1"></feMorphology>
            <feOffset dx="1" dy="1" in="shadowSpreadOuter1" result="shadowOffsetOuter1"></feOffset>
            <feGaussianBlur stdDeviation="2.5" in="shadowOffsetOuter1" result="shadowBlurOuter1"></feGaussianBlur>
            <feColorMatrix values="0 0 0 0 0.196078431   0 0 0 0 0.149019608   0 0 0 0 0.450980392  0 0 0 0.25 0" type="matrix" in="shadowBlurOuter1"></feColorMatrix>
        </filter>
    </defs>
    <g id="Page-1" stroke="none" stroke-width="1" fill="none" fill-rule="evenodd">
        <g id="Strada" transform="translate(-163.000000, -9000.000000)">
            <g id="View-7" transform="translate(0.000000, 6038.000000)">
                <g id="Design" transform="translate(150.000000, 2106.000000)">
                    <g id="Table" transform="translate(0.000000, 160.000000)">
                        <g id="List-Items" transform="translate(20.000000, 80.000000)">
                            <g id="Figma" transform="translate(0.000000, 623.000000)">
                                <g id="Logo">
                                    <mask id="mask-2" fill="white">
                                        <use xlink:href="#path-1"></use>
                                    </mask>
                                    <g id="Oval">
                                        <use fill="black" fill-opacity="1" filter="url(#filter-3)" xlink:href="#path-1"></use>
                                        <use fill="#FFFFFF" fill-rule="evenodd" xlink:href="#path-1"></use>
                                    </g>
                                    <g id="figma-1" mask="url(#mask-2)" fill-rule="nonzero">
                                        <g transform="translate(22.000000, 16.000000)">
                                            <path d="M7.16666667,40 C10.7546667,40 13.6666667,37.088 13.6666667,33.5 L13.6666667,27 L7.16666667,27 C3.57866667,27 0.666666667,29.912 0.666666667,33.5 C0.666666667,37.088 3.57866667,40 7.16666667,40 Z" id="path0_fill" fill="#0ACF83"></path>
                                            <path d="M0.666666667,20.5 C0.666666667,16.912 3.57866667,14 7.16666667,14 L13.6666667,14 L13.6666667,27 L7.16666667,27 C3.57866667,27 0.666666667,24.088 0.666666667,20.5 Z" id="path1_fill" fill="#A259FF"></path>
                                            <path d="M0.666666667,6.5 C0.666666667,2.912 3.57866667,0 7.16666667,0 L13.6666667,0 L13.6666667,13 L7.16666667,13 C3.57866667,13 0.666666667,10.088 0.666666667,6.5 Z" id="path1_fill_1_" fill="#F24E1E"></path>
                                            <path d="M13.6666667,0 L20.1666667,0 C23.7546667,0 26.6666667,2.912 26.6666667,6.5 C26.6666667,10.088 23.7546667,13 20.1666667,13 L13.6666667,13 L13.6666667,0 Z" id="path2_fill" fill="#FF7262"></path>
                                            <path d="M26.6666667,20.5 C26.6666667,24.088 23.7546667,27 20.1666667,27 C16.5786667,27 13.6666667,24.088 13.6666667,20.5 C13.6666667,16.912 16.5786667,14 20.1666667,14 C23.7546667,14 26.6666667,16.912 26.6666667,20.5 Z" id="path3_fill" fill="#1ABCFE"></path>
                                        </g>
                                    </g>
                                </g>
                            </g>
                        </g>
                    </g>
                </g>
            </g>
        </g>
    </g>
</svg>