<?xml version="1.0" encoding="UTF-8"?>
<svg width="50px" height="50px" viewBox="0 0 50 50" version="1.1" xmlns="http://www.w3.org/2000/svg" xmlns:xlink="http://www.w3.org/1999/xlink">
    <!-- Generator: Sketch 55 (78076) - https://sketchapp.com -->
    <title>edit</title>
    <desc>Created with Sketch.</desc>
    <g id="Page-1" stroke="none" stroke-width="1" fill="none" fill-rule="evenodd">
        <g id="Strada" transform="translate(-795.000000, -2485.000000)" fill="#4D0DB9" fill-rule="nonzero">
            <g id="View-3" transform="translate(150.000000, 1478.000000)">
                <g id="Digital" transform="translate(0.000000, 769.000000)">
                    <g id="Freehand" transform="translate(0.000000, 111.000000)">
                        <g id="Content" transform="translate(620.000000, 0.000000)">
                            <g id="Icons" transform="translate(0.000000, 127.000000)">
                                <g id="Draw">
                                    <g id="edit" transform="translate(25.000000, 0.000000)">
                                        <path d="M47.6184227,2.38095238 C44.4419306,-0.793650794 39.2753797,-0.793650794 36.0988875,2.38095238 L3.46337192,35.0156558 C3.4479872,35.0310402 3.43893737,35.0500443 3.42536261,35.0663336 C3.40635796,35.0880527 3.39006826,35.1115817 3.37287357,35.1351107 C3.32490944,35.2020778 3.28780512,35.2735697 3.25975063,35.3513964 C3.25160578,35.3749253 3.23984099,35.3957394 3.23350611,35.4192684 C3.23079116,35.428318 3.22536126,35.4373676 3.22264631,35.4464173 L0.0235295715,48.8850881 C0.00904983518,48.9457204 0.00542990111,49.0072578 0.00361993407,49.0678902 C0.00361993407,49.0796547 0,49.0905142 0,49.1022787 C0.000904983518,49.2054442 0.0235295715,49.3058949 0.0588239287,49.4027257 C0.0669687803,49.4253498 0.0760186155,49.4452589 0.0859734342,49.466978 C0.130317627,49.5638088 0.185521621,49.6570198 0.263350204,49.7348464 C0.349323638,49.8208177 0.450681792,49.8868799 0.560184797,49.9321279 C0.669687803,49.977376 0.786430677,50 0.903173551,50 C0.972857282,50 1.043446,49.9918554 1.11222474,49.9755661 L14.55123,46.7765289 C14.5756645,46.7710992 14.5973841,46.7575248 14.6209137,46.7493801 C14.6516832,46.7394255 14.6806426,46.727661 14.7105071,46.7140866 C14.7756659,46.6842229 14.8362998,46.6471195 14.8924088,46.6027764 C14.9141284,46.5855822 14.936753,46.5729127 14.9575676,46.5539085 C14.9648074,46.5466688 14.9738573,46.543049 14.9810972,46.5358093 L47.6175178,13.9002009 C50.7940099,10.7237878 50.7940099,5.55646052 47.6184227,2.38095238 Z M46.338776,3.66056723 C48.590375,5.91301515 48.7822315,9.44960272 46.9270153,11.9291959 L38.0699416,3.07234258 C40.5505015,1.21717254 44.0871771,1.40902427 46.338776,3.66056723 Z M41.8591076,17.099238 L32.8997708,8.14012416 L34.1794175,6.86050931 L43.1387543,15.8196232 L41.8591076,17.099238 Z M4.48962323,45.5086786 C4.13577468,45.1548388 3.56382509,45.1548388 3.20997654,45.5086786 L2.52490401,46.1937341 L4.83623192,36.4853125 L8.83806903,36.0409766 L8.32313341,40.6761869 C8.31951348,40.7105754 8.33218325,40.742249 8.33218325,40.7757326 C8.33218325,40.8101211 8.31951348,40.8408898 8.32313341,40.8752783 C8.32675335,40.905142 8.34213807,40.9295759 8.34847295,40.9585347 C8.35933275,41.0110224 8.37471747,41.0589854 8.39372213,41.1078533 C8.4172517,41.1666757 8.44530619,41.2200684 8.47969556,41.2716512 C8.50775005,41.3132794 8.53580454,41.3503828 8.57019391,41.3865812 C8.61363312,41.4327342 8.66069227,41.4716476 8.71227633,41.507846 C8.75300058,41.5358998 8.79191488,41.5621437 8.83716405,41.5838627 C8.89689296,41.6119165 8.95933683,41.6282058 9.02449564,41.6435902 C9.05888501,41.6517348 9.0869395,41.670739 9.12223386,41.6752638 C9.15481327,41.6788836 9.18739267,41.6806936 9.22087706,41.6806936 C9.22087706,41.6806936 9.22178205,41.6806936 9.22178205,41.6806936 C9.22178205,41.6806936 9.22268703,41.6806936 9.22268703,41.6806936 L9.22359201,41.6806936 C9.22359201,41.6806936 9.224497,41.6806936 9.224497,41.6806936 C9.2570764,41.6806936 9.29056079,41.6788836 9.3231402,41.6752638 L13.9584658,41.160341 L13.5141189,45.1620785 L3.80455071,47.4733489 L4.48962323,46.7882934 C4.8425668,46.4353586 4.8425668,45.8625183 4.48962323,45.5086786 Z M15.8471664,40.5503973 L36.0988875,20.2982751 C36.4527361,19.9444354 36.4527361,19.3725 36.0988875,19.0186603 C35.745039,18.6648205 35.1730894,18.6648205 34.8192408,19.0186603 L14.5675197,39.2707824 L10.2480334,39.7504118 L10.7276746,35.4310329 L30.9812057,15.1798157 C31.3350543,14.825976 31.3350543,14.2540407 30.9812057,13.9002009 C30.6273572,13.5463612 30.0554076,13.5463612 29.7015591,13.9002009 L9.44802793,34.1514181 L6.56746539,34.4717743 L31.6201241,9.41973901 L40.5794609,18.3788529 L15.5268022,43.4308881 L15.8471664,40.5503973 Z M44.418401,14.5400083 L35.4590642,5.58089446 L36.7396159,4.30037465 L45.6989527,13.2594885 L44.418401,14.5400083 Z" id="Shape"></path>
                                    </g>
                                </g>
                            </g>
                        </g>
                    </g>
                </g>
            </g>
        </g>
    </g>
</svg>