<?xml version="1.0" encoding="UTF-8"?>
<svg width="50px" height="44px" viewBox="0 0 50 44" version="1.1" xmlns="http://www.w3.org/2000/svg" xmlns:xlink="http://www.w3.org/1999/xlink">
    <!-- Generator: Sketch 55.1 (78136) - https://sketchapp.com -->
    <title>Free</title>
    <desc>Created with Sketch.</desc>
    <g id="Page-1" stroke="none" stroke-width="1" fill="none" fill-rule="evenodd">
        <g id="iPhone-XS" transform="translate(-132.000000, -939.000000)" fill="#4D0DB9" fill-rule="nonzero">
            <g id="Free" transform="translate(132.000000, 939.000000)">
                <path d="M47.2005742,19.3271687 L46.0110747,19.3271687 L46.0110747,12.1656394 C46.0110747,9.23732397 43.6320755,6.86384727 40.7198523,6.86384727 L39.6226415,6.86384727 L39.6328958,4.20267642 C39.6328958,2.22991656 38.033224,0.62704918 36.064397,0.62704918 L4.33757178,0.62704918 C1.96882691,0.62704918 0.0307629204,2.53816029 0,4.91163699 C0,4.93218658 0,4.95273616 0,4.97328574 L0,40.0514219 C0,42.0241818 1.59967186,43.6270492 3.56849877,43.6270492 L40.7301066,43.6270492 C43.6525841,43.6270492 46.021329,41.2432977 46.021329,38.3252571 L46.021329,31.153453 L47.2108285,31.153453 C48.7489746,31.153453 50,29.8999285 50,28.3587099 L50,22.1219118 C49.9897457,20.5806931 48.7387203,19.3271687 47.2005742,19.3271687 Z M4.33757178,3.092999 L36.064397,3.092999 C36.6694011,3.092999 37.1718622,3.58618897 37.1718622,4.19240163 L37.1616079,6.86384727 L4.33757178,6.86384727 C3.30188679,6.86384727 2.46103363,6.02131441 2.46103363,4.98356053 C2.46103363,3.94580665 3.30188679,3.092999 4.33757178,3.092999 Z M43.550041,38.3149823 C43.550041,39.8767505 42.278507,41.1508246 40.7198523,41.1508246 L3.55824446,41.1508246 C2.95324036,41.1508246 2.45077933,40.6576346 2.45077933,40.0411471 L2.45077933,8.89825587 C3.02502051,9.17567523 3.66078753,9.32979709 4.33757178,9.32979709 L40.7198523,9.32979709 C42.278507,9.32979709 43.550041,10.6038712 43.550041,12.1656394 L43.550041,19.3271687 L35.1517637,19.3271687 C33.6136177,19.3271687 32.3625923,20.5806931 32.3625923,22.1219118 L32.3625923,28.3587099 C32.3625923,29.8999285 33.6136177,31.153453 35.1517637,31.153453 L43.550041,31.153453 L43.550041,38.3149823 Z M47.5287121,28.3587099 C47.5287121,28.5436561 47.3851518,28.6875032 47.2005742,28.6875032 L35.162018,28.6875032 C34.9774405,28.6875032 34.8338802,28.5436561 34.8338802,28.3587099 L34.8338802,22.1219118 C34.8338802,21.9472403 34.9774405,21.7931185 35.162018,21.7931185 L47.2005742,21.7931185 C47.3748975,21.7931185 47.5287121,21.9369655 47.5287121,22.1219118 L47.5287121,28.3587099 L47.5287121,28.3587099 Z" id="Shape"></path>
            </g>
        </g>
    </g>
</svg>