<?xml version="1.0" encoding="UTF-8"?>
<svg width="50px" height="50px" viewBox="0 0 50 50" version="1.1" xmlns="http://www.w3.org/2000/svg" xmlns:xlink="http://www.w3.org/1999/xlink">
    <!-- Generator: Sketch 55 (78076) - https://sketchapp.com -->
    <title>blueprint</title>
    <desc>Created with Sketch.</desc>
    <g id="Page-1" stroke="none" stroke-width="1" fill="none" fill-rule="evenodd">
        <g id="Strada" transform="translate(-1215.000000, -2485.000000)" fill="#4D0DB9" fill-rule="nonzero">
            <g id="View-3" transform="translate(150.000000, 1478.000000)">
                <g id="Digital" transform="translate(0.000000, 769.000000)">
                    <g id="Freehand" transform="translate(0.000000, 111.000000)">
                        <g id="Content" transform="translate(620.000000, 0.000000)">
                            <g id="Icons" transform="translate(0.000000, 127.000000)">
                                <g id="Prototype" transform="translate(420.000000, 0.000000)">
                                    <g id="blueprint" transform="translate(25.000000, 0.000000)">
                                        <path d="M4.08186619,29.5918367 C4.64520432,29.5918367 5.10204082,29.2111469 5.10204082,28.7413181 L5.10204082,10.0338028 C5.10204082,9.56436318 4.64520432,9.18367347 4.08186619,9.18367347 C3.51806087,9.18367347 3.06122449,9.56436318 3.06122449,10.0338028 L3.06122449,28.7413181 C3.06122449,29.2111469 3.51806087,29.5918367 4.08186619,29.5918367 Z" id="Path"></path>
                                        <path d="M4.08186619,7.14285714 C4.64520432,7.14285714 5.10204082,6.80022986 5.10204082,6.37737586 L5.10204082,4.84676362 C5.10204082,4.42425994 4.64520432,4.08163265 4.08186619,4.08163265 C3.51806087,4.08163265 3.06122449,4.42425994 3.06122449,4.84676362 L3.06122449,6.37737586 C3.06122449,6.80022986 3.51806087,7.14285714 4.08186619,7.14285714 Z" id="Path"></path>
                                        <path d="M24.9999999,16.3265306 C23.0274989,16.3265306 21.4285714,17.9254581 21.4285714,19.8979591 C21.4285714,21.8704602 23.0274989,23.4693878 24.9999999,23.4693878 C26.9725011,23.4693878 28.5714286,21.8704602 28.5714286,19.8979591 C28.569385,17.9262755 26.9716836,16.3285742 24.9999999,16.3265306 Z M24.9999999,21.6836735 C24.0137494,21.6836735 23.2142857,20.8842096 23.2142857,19.8979591 C23.2142857,18.9117086 24.0137494,18.1122449 24.9999999,18.1122449 C25.9862506,18.1122449 26.7857142,18.9117086 26.7857142,19.8979591 C26.7848968,20.8838009 25.9858418,21.682856 24.9999999,21.6836735 L24.9999999,21.6836735 Z" id="Shape"></path>
                                        <path d="M34.0794299,17.1466426 L34.0688654,17.1466426 L32.5539921,17.1458967 C32.3068584,16.5902528 31.9989787,16.0629503 31.6352582,15.5736853 L32.3970339,14.2673627 C32.8384789,13.4864778 32.5649339,12.4997437 31.7824065,12.0503806 L28.9364067,10.4285715 C28.5609898,10.2089244 28.1119987,10.1473933 27.6901735,10.2577762 C27.2657072,10.3677863 26.9027412,10.6400146 26.6808868,11.0144216 L25.9179792,12.3151506 C25.3075023,12.2472799 24.6906111,12.2476528 24.0801342,12.3166422 L23.3221315,11.0181508 C22.8659717,10.2398763 21.8585716,9.97324183 21.0700074,10.421859 L18.2153296,12.0511265 C17.4278973,12.5016083 17.157748,13.4972924 17.6112667,14.2766856 L18.370024,15.5748041 C18.0047942,16.0633232 17.6961601,16.5909986 17.4501582,17.1473883 L15.9273616,17.1496259 C15.4889349,17.1526092 15.0693735,17.3275065 14.7607393,17.6355346 C14.4547462,17.9387149 14.2842051,18.3504135 14.2876008,18.7788933 L14.2857143,22.0314615 C14.2876008,22.9309333 15.0210787,23.6611017 15.9311345,23.6693059 L17.4463852,23.6704246 C17.5697634,23.9482466 17.7086111,24.2189832 17.8621736,24.4818885 C18.0153587,24.744421 18.1832588,24.9983763 18.3647418,25.242636 L17.6022114,26.5497044 C17.161521,27.3309622 17.4358207,28.3165777 18.2179707,28.7655678 L21.0628387,30.3866311 C21.4382555,30.6066511 21.8876239,30.6685551 22.3098265,30.5581722 C22.7342928,30.4481621 23.0976361,30.1759339 23.3194905,29.8015268 L24.0820207,28.5004249 C24.692875,28.5686685 25.3093888,28.5682956 25.9202431,28.4993063 L26.6778684,29.7977977 C26.8959497,30.1725776 27.2566519,30.4455517 27.6792317,30.5559346 C27.8195885,30.5932262 27.964473,30.6122449 28.1097349,30.6122449 C28.3979948,30.6122449 28.6809723,30.536916 28.9299925,30.3940894 L31.7846704,28.764822 C32.5721027,28.3139672 32.8422519,27.318656 32.3887332,26.5392629 L31.6307306,25.2411443 C31.995583,24.7526252 32.3042172,24.2253227 32.5498418,23.6685601 L34.0726384,23.6666955 C34.5114423,23.6637122 34.9310037,23.4888148 35.2392607,23.1804138 C35.5452538,22.8772335 35.7157948,22.4655349 35.7127764,22.0374281 L35.7142857,18.7848599 C35.7135311,17.8891171 34.9857128,17.1596946 34.0794299,17.1466426 L34.0794299,17.1466426 Z M31.9861504,22.0400385 C31.6356355,22.0407843 31.3236055,22.2608044 31.2089053,22.5882242 C30.9413972,23.3392757 30.5350414,24.0347629 30.0102123,24.638513 C29.7826983,24.9010454 29.7476091,25.2765713 29.9223006,25.5760224 L30.9606397,27.3537101 L28.1055846,28.9833504 L27.0672455,27.2052898 C26.9197198,26.9531989 26.6476841,26.7980661 26.3533874,26.7980661 C26.3024514,26.7980661 26.2518928,26.8025411 26.2017114,26.811864 C25.4097515,26.9584197 24.5974173,26.9587927 23.8050799,26.8126099 C23.4609792,26.7466038 23.1119736,26.9039741 22.9369048,27.204171 L21.8944153,28.9803671 L19.0352099,27.3537101 L20.0724171,25.5767682 C20.2474859,25.2769442 20.2116421,24.9006726 19.9833735,24.638513 C19.4611855,24.0321526 19.055207,23.3370383 18.785435,22.5867325 C18.6696029,22.2604315 18.3579503,22.0415301 18.0078127,22.0415301 L15.9349076,22.0355635 L15.9311345,18.7788933 L18.0138495,18.7759099 C18.3647418,18.7755371 18.6767716,18.5555169 18.7914719,18.2277243 C19.0586028,17.4766727 19.4649586,16.7815584 19.9897876,16.1778083 C20.2173016,15.9152758 20.2527682,15.5393771 20.0780766,15.240299 L19.0393603,13.4626113 L21.8944153,11.8329709 L22.9331318,13.6110315 C23.1070686,13.9108556 23.4545651,14.0689718 23.7982885,14.0044573 C24.5902485,13.8567828 25.40296,13.8564099 26.19492,14.0033386 C26.539398,14.0689718 26.8876491,13.9119743 27.0634725,13.6121503 L28.1059618,11.8352084 L30.9644127,13.4626113 L29.9272056,15.2395531 C29.752514,15.5390042 29.7879806,15.9152758 30.0162492,16.1778083 C30.5388144,16.7837959 30.9451703,17.4792831 31.2153194,18.2295889 C31.3311516,18.5558899 31.6428043,18.7744183 31.9929419,18.7747912 L34.0658469,18.7759099 L34.0688654,22.0374281 L31.9861504,22.0400385 Z" id="Shape"></path>
                                        <path d="M49.9969482,8.98539604 C49.9061585,6.29340609 47.6940163,4.15949776 45.000078,4.16674559 L11.6668829,4.16674559 L11.6668829,1.66663194 C11.6657386,0.746541302 10.9203469,0.000779639435 10.0002423,1.67118775e-05 L4.99993875,1.67118775e-05 C3.67280599,-0.00341645725 2.39907897,0.522240601 1.46066386,1.4606415 C0.522248545,2.39904239 -0.00341651421,3.67274997 1.67121805e-05,4.99986248 L1.67121805e-05,40.8357142 C0.0957655816,43.5280856 2.2419136,45.6959443 4.93356309,45.8187755 C4.95645117,45.8206829 4.97666913,45.8325082 4.99993875,45.8325082 L5.57519491,45.8325082 L6.8084861,48.5359421 C6.87066566,48.6698359 6.94505226,48.7980077 7.02973846,48.9185503 C7.05644138,48.9574595 7.08619596,48.9929356 7.11480621,49.0303191 C7.17698578,49.110045 7.24374298,49.1863378 7.31545917,49.258053 C7.35055447,49.2935292 7.38412379,49.3290053 7.42150777,49.3621926 C7.52412306,49.4545068 7.63398631,49.5388103 7.75071605,49.6131958 C7.77627444,49.6295987 7.80488469,49.6410426 7.83158761,49.6563012 C7.93191404,49.7146652 8.03643676,49.7657813 8.14401124,49.8092682 C8.16613642,49.8184233 8.1855914,49.8321559 8.20771659,49.8405482 C8.23556394,49.8508477 8.26417409,49.8546623 8.29202134,49.8638175 C8.37289299,49.89052 8.45490889,49.9130264 8.53806931,49.9313366 C8.58956773,49.9431619 8.63992162,49.9565132 8.69142004,49.9649054 C8.79746863,49.9813083 8.90389868,49.9908449 9.01109161,49.9935151 C9.03550566,49.9942781 9.05991972,50 9.08433377,50 C9.44177076,49.9996186 9.79501166,49.9225629 10.1200237,49.7734106 L18.7603101,45.8325082 L38.3335152,45.8325082 L38.3335152,48.3326219 C38.3342782,49.2527125 39.0800513,49.9984742 40.000156,49.9992371 L45.000078,49.9992371 C47.760392,49.9961854 49.9969482,47.7592818 50,44.9993913 L50,9.16659136 C50,9.15667326 49.9946595,9.14866254 49.9942779,9.13874444 C49.9942779,9.08762834 49.9984741,9.03689358 49.9969482,8.98539604 L49.9969482,8.98539604 Z M2.63597167,2.64241633 C3.26387058,2.01681573 4.11378485,1.66586906 4.99993875,1.66663194 L10.0002423,1.6666307 L10.0002423,35.8328168 L4.99993875,35.8328168 C3.76969932,35.8331982 2.58294737,36.2875216 1.66665453,37.1084317 L1.66665734,4.99986248 C1.66551301,4.11677381 2.01379473,3.26916125 2.63597167,2.64241633 Z M30.5027073,38.2341313 L28.738029,34.3653256 L34.0728813,34.0136161 L34.2414909,34.4603101 L30.5027073,38.2341313 Z M27.0668107,34.7170352 L27.758415,36.2337352 L22.4510285,38.6545043 C22.1756074,38.7750469 21.9863985,39.0348237 21.9562625,39.3338913 C21.9261264,39.6329589 22.0596407,39.9251602 22.3053071,40.0987263 C22.5509735,40.2719108 22.8710265,40.2993762 23.1426329,40.1704413 L28.4500194,37.7492908 L29.1416238,39.2659908 L18.2582961,44.2299789 L18.2430374,44.2368453 L13.9778258,46.182692 L13.2858399,44.6659921 L19.3519695,41.8992353 C19.7631937,41.7043073 19.942103,41.2148892 19.7528941,40.8006196 C19.5640666,40.3863499 19.0773114,40.200577 18.6603651,40.3832982 L12.594617,43.1496735 L11.9030126,41.633355 L27.0668107,34.7170352 Z M9.42880085,48.257092 C9.01032862,48.4478239 8.51632556,48.2635769 8.32520922,47.8451111 L6.94161906,44.8120926 C6.7512657,44.3932454 6.935134,43.8992498 7.35360623,43.707755 L10.3870525,42.3241859 L11.4238868,44.5980915 L11.4238868,44.5988544 L11.4246498,44.5999988 L12.4614841,46.873523 L9.42880085,48.257092 Z M22.4144074,44.165893 L30.5915898,40.4363217 C30.6335514,40.4115265 30.6732242,40.3829167 30.7094639,40.3508738 C30.7548588,40.3264601 30.7979648,40.2974689 30.8380191,40.2646629 L35.4019214,35.6569619 C35.927968,35.1686883 36.0813187,34.3981315 35.7830095,33.745447 L35.5899859,33.3227851 C35.3004505,32.6784927 34.6336417,32.2890182 33.9302117,32.3531042 L27.4246291,32.781488 C27.3346023,32.7891173 27.2461013,32.8116237 27.162941,32.8482442 C27.1534043,32.8520588 27.1431046,32.8509145 27.1339493,32.8551105 L6.66200177,42.1918179 C5.8719782,42.55459 5.32838405,43.3026405 5.22691319,44.165893 L5.20021026,44.165893 C3.31613199,44.1895437 1.75286952,42.7148048 1.66665734,40.8326625 L1.66665734,40.711357 C1.72731103,38.915807 3.20359843,37.4933286 4.99993875,37.499432 L10.0002423,37.499432 C10.9203469,37.4986691 11.6657386,36.7529074 11.6668829,35.8328168 L11.6668829,5.83336082 L45.000078,5.83336082 C46.7964184,5.82649442 48.2727057,7.24935436 48.3318335,9.04490439 C48.3554845,9.91960081 48.0197913,10.7656875 47.4033364,11.3867105 C46.7208873,12.0935629 45.7817092,12.4952442 44.7990435,12.4998218 L40.000156,12.4998218 C39.0800513,12.5005847 38.3342782,13.2463464 38.3335152,14.166437 L38.3335152,44.165893 L22.4144074,44.165893 Z M45.000078,48.3326219 L40.000156,48.3326219 L40.000156,14.166437 L44.7990435,14.166437 C46.1055769,14.1599522 47.3640451,13.6716785 48.3333593,12.7954563 L48.3333593,44.9993913 C48.331452,46.8395726 46.8402874,48.3307145 45.000078,48.3326219 L45.000078,48.3326219 Z" id="Shape"></path>
                                    </g>
                                </g>
                            </g>
                        </g>
                    </g>
                </g>
            </g>
        </g>
    </g>
</svg>