<?xml version="1.0" encoding="UTF-8"?>
<svg width="50px" height="50px" viewBox="0 0 50 50" version="1.1" xmlns="http://www.w3.org/2000/svg" xmlns:xlink="http://www.w3.org/1999/xlink">
    <!-- Generator: Sketch 55 (78076) - https://sketchapp.com -->
    <title>wireframe</title>
    <desc>Created with Sketch.</desc>
    <g id="Page-1" stroke="none" stroke-width="1" fill="none" fill-rule="evenodd">
        <g id="Strada" transform="translate(-1075.000000, -2485.000000)" fill="#4D0DB9" fill-rule="nonzero">
            <g id="View-3" transform="translate(150.000000, 1478.000000)">
                <g id="Digital" transform="translate(0.000000, 769.000000)">
                    <g id="Freehand" transform="translate(0.000000, 111.000000)">
                        <g id="Content" transform="translate(620.000000, 0.000000)">
                            <g id="Icons" transform="translate(0.000000, 127.000000)">
                                <g id="Wireframe" transform="translate(280.000000, 0.000000)">
                                    <g id="wireframe" transform="translate(25.000000, 0.000000)">
                                        <path d="M45,4 C44.448,4 44,4.448 44,5 C44,5.552 44.448,6 45,6 C45.552,6 46,5.552 46,5 C46,4.448 45.552,4 45,4 Z" id="Path"></path>
                                        <path d="M39,4 C38.448,4 38,4.448 38,5 C38,5.552 38.448,6 39,6 C39.552,6 40,5.552 40,5 C40,4.448 39.552,4 39,4 Z" id="Path"></path>
                                        <path d="M33,4 C32.448,4 32,4.448 32,5 C32,5.552 32.448,6 33,6 C33.552,6 34,5.552 34,5 C34,4.448 33.552,4 33,4 Z" id="Path"></path>
                                        <path d="M27,30 C26.448,30 26,30.448 26,31 C26,31.552 26.448,32 27,32 C27.552,32 28,31.552 28,31 C28,30.448 27.552,30 27,30 Z" id="Path"></path>
                                        <path d="M27,36 C26.448,36 26,36.448 26,37 C26,37.552 26.448,38 27,38 C27.552,38 28,37.552 28,37 C28,36.448 27.552,36 27,36 Z" id="Path"></path>
                                        <path d="M27,42 C26.448,42 26,42.448 26,43 C26,43.552 26.448,44 27,44 C27.552,44 28,43.552 28,43 C28,42.448 27.552,42 27,42 Z" id="Path"></path>
                                        <path d="M47.0703125,0 L2.9296875,0 C1.31425781,0 0,1.31425781 0,2.9296875 L0,47.0703125 C0,48.6857422 1.31425781,50 2.9296875,50 L47.0703125,50 C48.6857422,50 50,48.6857422 50,47.0703125 L50,2.9296875 C50,1.31425781 48.6857422,0 47.0703125,0 Z M48.046875,47.0703125 C48.046875,47.6087891 47.6087891,48.046875 47.0703125,48.046875 L2.9296875,48.046875 C2.39121094,48.046875 1.953125,47.6087891 1.953125,47.0703125 L1.953125,10.3515625 L48.046875,10.3515625 L48.046875,47.0703125 Z M48.046875,8.3984375 L1.953125,8.3984375 L1.953125,2.9296875 C1.953125,2.39121094 2.39121094,1.953125 2.9296875,1.953125 L47.0703125,1.953125 C47.6087891,1.953125 48.046875,2.39121094 48.046875,2.9296875 L48.046875,8.3984375 Z" id="Shape"></path>
                                        <path d="M43.0263158,14 L7.97368421,14 C7.97008158,14 7.96667368,14.0005 7.96307105,14.0005 C7.94087105,14.0007 7.91896316,14.0021999 7.89705526,14.0038999 C7.88634474,14.0047999 7.87553684,14.0052999 7.86492368,14.0064998 C7.84476842,14.0087998 7.82490526,14.0122997 7.80504211,14.0158996 C7.79257895,14.0180995 7.78011579,14.0200995 7.76784737,14.0227994 C7.75100263,14.0265993 7.73445,14.0312992 7.71789737,14.0359991 C7.70329211,14.040099 7.68849211,14.0438989 7.67417895,14.0486988 C7.66025526,14.0532987 7.64662368,14.0588985 7.63289474,14.0641984 C7.61692632,14.0703982 7.60076316,14.0762981 7.58518421,14.0832979 C7.57252632,14.0889978 7.56035526,14.0954976 7.54798947,14.1016975 C7.53231316,14.1094973 7.51653947,14.1171971 7.50135,14.1257969 C7.48830263,14.1331967 7.47574211,14.1415965 7.46308421,14.1496963 C7.44955,14.158296 7.43591842,14.1664958 7.42287105,14.1756956 C7.40846053,14.1858954 7.39463421,14.1970951 7.38080789,14.2080948 C7.37038947,14.2163946 7.35967895,14.2241944 7.34955263,14.2328942 C7.33416842,14.2460938 7.31966053,14.2602935 7.30505526,14.2744931 C7.29726579,14.2820929 7.28908684,14.2892928 7.28158947,14.2971926 C7.26678947,14.3125922 7.25286579,14.3288918 7.23894211,14.3453914 C7.23232105,14.3531912 7.22540789,14.360691 7.21907895,14.3686908 C7.20642105,14.3846904 7.19463947,14.40149 7.18295526,14.4183895 C7.17613947,14.4280893 7.16903158,14.4375891 7.16260526,14.4475888 C7.15286842,14.4625884 7.14410526,14.478288 7.13514737,14.4939877 C7.12765,14.5070873 7.11995789,14.519987 7.11304474,14.5334867 C7.10632632,14.5466863 7.10028947,14.560386 7.09405789,14.5738857 C7.08626842,14.5908852 7.07838158,14.6078848 7.07146842,14.6253844 C7.06689211,14.6368841 7.06309474,14.6487838 7.05890789,14.6605835 C7.05189737,14.680583 7.04508158,14.7006825 7.03923947,14.721282 C7.03816842,14.7250819 7.03661053,14.7286818 7.03563684,14.7324817 C7.0333,14.7410815 7.03213158,14.7496813 7.02998947,14.758281 C7.02521842,14.7777806 7.02073947,14.7972801 7.01713684,14.8171796 C7.01421579,14.8332792 7.01207368,14.8493788 7.00993158,14.8654784 C7.00788684,14.881278 7.00574474,14.8970776 7.00438158,14.9130772 C7.00262895,14.9335767 7.00185,14.9538762 7.00136316,14.9742756 C7.00107105,14.9827754 7,14.9912752 7,14.999975 L7,24.999725 C7,25.5519112 7.43591842,25.9997 7.97368421,25.9997 L43.0226158,25.9997 C43.0239789,25.9997 43.0254395,26 43.0268026,26 C43.05835,26 43.0896053,25.9979001 43.1206658,25.9948001 C43.1268974,25.9942001 43.1330316,25.9932002 43.1391658,25.9924002 C43.1625342,25.9896003 43.1856105,25.9860003 43.2085895,25.9815005 C43.2184237,25.9796005 43.2281605,25.9775006 43.2378974,25.9752006 C43.2568842,25.9709007 43.2756763,25.9658009 43.2942737,25.960301 C43.3050816,25.9571011 43.3158895,25.9541011 43.3265026,25.9506012 C43.3452947,25.9443014 43.3636974,25.9371016 43.3820026,25.9298018 C43.3909605,25.9262018 43.4002105,25.9231019 43.4090711,25.919202 C43.4343868,25.9081023 43.4591184,25.8957026 43.4834605,25.8824029 C43.4934895,25.8769031 43.5030316,25.8708032 43.5127684,25.8650034 C43.5284447,25.8557036 43.5440237,25.8462038 43.5591158,25.8360041 C43.5684632,25.8297043 43.5776158,25.8231044 43.5866711,25.8165046 C43.6021526,25.8053049 43.6173421,25.7937052 43.6321421,25.7816055 C43.6397368,25.7753056 43.6474289,25.7691058 43.6548289,25.7626059 C43.6716737,25.7480063 43.6879342,25.7326067 43.7038053,25.7168071 C43.7085763,25.7120072 43.7135421,25.7075073 43.7183132,25.7026074 C43.7600842,25.6593085 43.7982526,25.6120097 43.8320395,25.560911 C43.8348632,25.5567111 43.8372974,25.5522112 43.8400237,25.5480113 C43.8530711,25.5276118 43.8654368,25.5068123 43.8770237,25.4854129 C43.8821842,25.4759131 43.8868579,25.4661133 43.8917263,25.4564136 C43.8999053,25.440014 43.9077921,25.4234144 43.9151921,25.4064148 C43.9206447,25.3939152 43.9258053,25.3812155 43.9306737,25.3684158 C43.9363211,25.3536162 43.9416763,25.3386165 43.9467395,25.3234169 C43.9515105,25.3090173 43.9561842,25.2947176 43.9603711,25.280118 C43.9616368,25.2758181 43.9631947,25.2717182 43.9644605,25.2673183 C43.9667974,25.2587185 43.9679658,25.2501187 43.9701079,25.241519 C43.9748789,25.2220194 43.9793579,25.2025199 43.9829605,25.1826204 C43.9858816,25.1665208 43.9880237,25.1504212 43.9901658,25.1343216 C43.9922105,25.118522 43.9943526,25.1027224 43.9957158,25.0867228 C43.9974684,25.0662233 43.9982474,25.0459239 43.9987342,25.0255244 C43.9989289,25.0168246 44,25.0084248 44,24.999625 L44,14.999975 C44,14.4477888 43.5640816,14 43.0263158,14 Z M8.94736842,23.99975 L8.94736842,16.3155421 L35.8832711,23.99975 L8.94736842,23.99975 Z M42.0526316,23.6841579 L15.1167289,15.99995 L42.0526316,15.99995 L42.0526316,23.6841579 Z" id="Shape"></path>
                                        <path d="M21.0002874,30 L7.00011249,30 C6.98931236,30 6.97891223,30.0013 6.96821209,30.0016 C6.94901185,30.0022 6.92981161,30.0028 6.91061137,30.0045 C6.89461117,30.0059 6.87891098,30.0083001 6.86321078,30.0104001 C6.84701058,30.0126001 6.83081038,30.0148001 6.81471018,30.0178001 C6.79760996,30.0210002 6.78090975,30.0250002 6.76420955,30.0291002 C6.74950936,30.0327002 6.73480918,30.0362003 6.720209,30.0404003 C6.70360879,30.0452003 6.68730858,30.0508004 6.67100838,30.0565004 C6.6564082,30.0616004 6.64190802,30.0667005 6.62750784,30.0724005 C6.61240765,30.0785006 6.59760746,30.0852006 6.58280728,30.0920007 C6.56770709,30.0989007 6.5527069,30.1059008 6.53790672,30.1136008 C6.52450655,30.1206009 6.51150639,30.1281009 6.49850623,30.135701 C6.48320604,30.144601 6.46810585,30.1535011 6.45320566,30.1632012 C6.44100551,30.1712012 6.42920536,30.1798013 6.41730521,30.1883013 C6.40290503,30.1987014 6.38850485,30.2091015 6.37460468,30.2203016 C6.36240453,30.2301016 6.35070438,30.2406017 6.33900423,30.2509018 C6.32650408,30.2619019 6.31400392,30.2728019 6.30200377,30.284502 C6.28890361,30.2973021 6.27670346,30.3107022 6.2643033,30.3242023 C6.2565032,30.3327024 6.2482031,30.3403024 6.24070301,30.3491025 C6.23870298,30.3515025 6.23710296,30.3540025 6.23510294,30.3564025 C6.22240278,30.3715027 6.21060263,30.3875028 6.19880248,30.4033029 C6.19080238,30.414003 6.18230228,30.424503 6.17470218,30.4355031 C6.16410205,30.4510032 6.15470193,30.4672033 6.14500181,30.4833035 C6.13770172,30.4954035 6.12970162,30.5073036 6.12290154,30.5196037 C6.11480143,30.5344038 6.10780135,30.5500039 6.10040125,30.565304 C6.09360117,30.5794041 6.08610108,30.5934042 6.080001,30.6077043 C6.07400092,30.6218044 6.06920086,30.6366045 6.0638008,30.6510047 C6.05780072,30.6671048 6.05130064,30.6830049 6.04610058,30.699305 C6.04190052,30.7128051 6.03880048,30.7268052 6.03520044,30.7405053 C6.03040038,30.7583054 6.02520031,30.7761055 6.02140027,30.7941057 C6.01870023,30.8069058 6.01720021,30.8200059 6.01500019,30.833006 C6.01170015,30.8526061 6.0082001,30.8720062 6.00600007,30.8917064 C6.00470006,30.9042065 6.00440005,30.9169065 6.00350004,30.9295066 C6.00210003,30.9500068 6.00060001,30.9705069 6.0004,30.9910071 C6.0004,30.9940071 6,30.9969071 6,30.9999071 L6,43 C6,43.5521968 6.44770559,44 7.00001249,44 L21.0001874,44 C21.0354878,44 21.0703882,43.998 21.1047887,43.9945 C21.1068887,43.9943 21.1088887,43.9938 21.1109887,43.9935 C21.1435892,43.9898999 21.1757896,43.9848999 21.2073899,43.9781998 C21.21369,43.9768998 21.2198901,43.9747998 21.2261902,43.9732998 C21.2532905,43.9669998 21.2801909,43.9600997 21.3063912,43.9516997 C21.3164913,43.9484996 21.3262914,43.9442996 21.3362916,43.9406996 C21.3580918,43.9328995 21.3798921,43.9248995 21.4009924,43.9156994 C21.4136925,43.9101994 21.4258927,43.9037993 21.4383928,43.8976993 C21.4562931,43.8889992 21.4740933,43.8800991 21.4912935,43.8703991 C21.5047937,43.862799 21.5178938,43.854499 21.531094,43.8461989 C21.5468942,43.8362988 21.5623944,43.8260988 21.5774946,43.8153987 C21.5903947,43.8061986 21.6030949,43.7966985 21.615595,43.7868985 C21.6307952,43.7749984 21.6455954,43.7625983 21.6600956,43.7497982 C21.6712957,43.7398981 21.6823959,43.7300981 21.693196,43.719698 C21.7094962,43.7039979 21.7248964,43.6874978 21.7400966,43.6706976 C21.7462967,43.6637976 21.7531968,43.6577976 21.7592968,43.6506975 C21.7612969,43.6482975 21.7628969,43.6457975 21.7648969,43.6433975 C21.7775971,43.6282973 21.7893972,43.6122972 21.8011974,43.5964971 C21.8091975,43.585797 21.8176976,43.575297 21.8252977,43.5642969 C21.8358978,43.5487968 21.8452979,43.5325967 21.854998,43.5164965 C21.8622981,43.5043965 21.8702982,43.4924964 21.8770983,43.4801963 C21.8851984,43.4653962 21.8921985,43.4497961 21.8995986,43.434496 C21.9063987,43.4203959 21.9138988,43.4063958 21.9199989,43.3920957 C21.9259989,43.3779956 21.930799,43.3631955 21.9361991,43.3487953 C21.9421991,43.3326952 21.9486992,43.3167951 21.9538993,43.300495 C21.9580993,43.2869949 21.9611994,43.2729948 21.9647994,43.2592947 C21.9695995,43.2414946 21.9747995,43.2236945 21.9785996,43.2056943 C21.9812996,43.1928942 21.9827996,43.1797941 21.9849997,43.166794 C21.9882997,43.1471939 21.9917997,43.1277938 21.9939998,43.1080936 C21.9952998,43.0955935 21.9955998,43.0828934 21.9964998,43.0702934 C21.9978998,43.0497932 21.9993998,43.0292931 21.9995998,43.0087929 C21.9995998,43.0057929 21.9999998,43.0028929 21.9999998,42.9998929 L22,31 C22.0002999,30.4478032 21.5525943,30 21.0002874,30 Z M8.00012498,42.0000857 L8.00012498,33.1742227 L18.2969536,42.0000857 L8.00012498,42.0000857 Z M20.0002749,40.8258773 L9.70344626,32.0000143 L20.0002749,32.0000143 L20.0002749,40.8258773 Z" id="Shape"></path>
                                        <path d="M43,30 L31,30 C30.4477,30 30,30.4478 30,31 C30,31.5522 30.4477,32 31,32 L43,32 C43.5523,32 44,31.5522 44,31 C44,30.4478 43.5523,30 43,30 Z" id="Path"></path>
                                        <path d="M43,36 L31,36 C30.4477,36 30,36.4478 30,37 C30,37.5522 30.4477,38 31,38 L43,38 C43.5523,38 44,37.5522 44,37 C44,36.4478 43.5523,36 43,36 Z" id="Path"></path>
                                        <path d="M43,42 L31,42 C30.4477,42 30,42.4478 30,43 C30,43.5522 30.4477,44 31,44 L43,44 C43.5523,44 44,43.5522 44,43 C44,42.4478 43.5523,42 43,42 Z" id="Path"></path>
                                    </g>
                                </g>
                            </g>
                        </g>
                    </g>
                </g>
            </g>
        </g>
    </g>
</svg>