<?xml version="1.0" encoding="UTF-8"?>
<svg width="44px" height="50px" viewBox="0 0 44 50" version="1.1" xmlns="http://www.w3.org/2000/svg" xmlns:xlink="http://www.w3.org/1999/xlink">
    <!-- Generator: Sketch 55 (78076) - https://sketchapp.com -->
    <title>type</title>
    <desc>Created with Sketch.</desc>
    <g id="Page-1" stroke="none" stroke-width="1" fill="none" fill-rule="evenodd">
        <g id="Strada" transform="translate(-938.000000, -2485.000000)" fill="#4D0DB9" fill-rule="nonzero">
            <g id="View-3" transform="translate(150.000000, 1478.000000)">
                <g id="Digital" transform="translate(0.000000, 769.000000)">
                    <g id="Freehand" transform="translate(0.000000, 111.000000)">
                        <g id="Content" transform="translate(620.000000, 0.000000)">
                            <g id="Icons" transform="translate(0.000000, 127.000000)">
                                <g id="Text" transform="translate(140.000000, 0.000000)">
                                    <g id="type" transform="translate(28.000000, 0.000000)">
                                        <path d="M3,3.72977904 L3,13.9432648 C3,14.3461636 3.32426392,14.6730438 3.72478076,14.6730438 L5.52540802,14.6730438 C5.92592487,14.6730438 6.25018879,14.3461636 6.25018879,13.9432648 L6.25018879,12.7098622 C6.25018879,9.74513486 8.64574016,7.33306304 11.590162,7.33306304 L17.2325048,7.33306304 C18.4423602,7.33306304 19.426854,8.32434624 19.426854,9.54292515 L19.426854,41.5536185 C19.426854,42.7721974 18.4423602,43.7631005 17.2325048,43.7631005 L14.3099773,43.7631005 C13.9094605,43.7631005 13.5851965,44.0899807 13.5851965,44.4928796 L13.5851965,47.270221 C13.5851965,47.6731198 13.9094605,48 14.3099773,48 L30.6900226,48 C31.090162,48 31.4148034,47.6731198 31.4148034,47.270221 L31.4148034,44.4928796 C31.4148034,44.0899807 31.090162,43.7631005 30.6900226,43.7631005 L27.7674952,43.7631005 C26.5576397,43.7631005 25.5727684,42.7721974 25.5727684,41.5536185 L25.5727684,9.54292515 C25.5727684,8.32434624 26.5576397,7.33306304 27.7674952,7.33306304 L33.4094604,7.33306304 C36.3538823,7.33306304 38.7494337,9.74513486 38.7494337,12.7098622 L38.7494337,13.9432648 C38.7494337,14.3461636 39.0740751,14.6730438 39.4742145,14.6730438 L41.2752192,14.6730438 C41.6753585,14.6730438 42,14.3461636 42,13.9432648 L42,3.72977904 C42,3.32688019 41.6753585,3 41.2752192,3 L3.72478076,3 C3.32426392,3 3,3.32688019 3,3.72977904 Z M4.44956153,4.45955808 L40.5500609,4.45955808 L40.5500609,13.2134857 L40.1989953,13.2134857 L40.1989953,12.7098622 C40.1989953,8.94047737 37.1530286,5.87350497 33.4094604,5.87350497 L27.7671177,5.87350497 C25.7577385,5.87350497 24.1232069,7.51968885 24.1232069,9.54292515 L24.1232069,41.5536185 C24.1232069,43.5768549 25.7577385,45.2226586 27.7671177,45.2226586 L29.9648644,45.2226586 L29.9648644,46.5404419 L15.0343806,46.5404419 L15.0343806,45.2226586 L17.2321272,45.2226586 C19.2415064,45.2226586 20.8760381,43.5768549 20.8760381,41.5536185 L20.8760381,9.54292515 C20.8760381,7.51968885 19.2415064,5.87350497 17.2321272,5.87350497 L11.590162,5.87350497 C7.84621633,5.87350497 4.80062726,8.94047737 4.80062726,12.7098622 L4.80062726,13.2134857 L4.44918406,13.2134857 L4.44918406,4.45955808 L4.44956153,4.45955808 Z" id="Shape"></path>
                                        <path d="M38.72121,16.4310576 L41.2138142,16.4310576 C42.7502887,16.4310576 44,15.181811 44,13.6459079 L44,2.78514968 C44,1.24962527 42.7502887,0 41.2138142,0 L23.7273252,0 C23.3254023,0 23,0.325659919 23,0.727054702 C23,1.12844949 23.3254023,1.4541094 23.7273252,1.4541094 L41.2138142,1.4541094 C41.9483368,1.4541094 42.5453496,2.05127879 42.5453496,2.78514968 L42.5453496,13.6459079 C42.5453496,14.3797788 41.9483368,14.9769482 41.2138142,14.9769482 L38.72121,14.9769482 C37.9870662,14.9769482 37.3896746,14.3797788 37.3896746,13.6459079 L37.3896746,12.0744095 C37.3896746,9.64294163 35.410744,7.66436832 32.9779926,7.66436832 L27.3162206,7.66436832 C26.6241251,7.66436832 26.0612058,8.22745706 26.0612058,8.91929498 L26.0612058,23.2729453 C26.0612058,23.6747187 26.386608,24 26.788531,24 C27.190075,24 27.5158562,23.6747187 27.5158562,23.2729453 L27.5158562,9.11847772 L32.9779926,9.11847772 C34.6084133,9.11847772 35.9350242,10.4445953 35.9350242,12.0744095 L35.9350242,13.6459079 C35.9350242,15.181811 37.1847355,16.4310576 38.72121,16.4310576 Z" id="Path"></path>
                                        <path d="M20.0798276,0 L2.75963028,0 C1.23780019,0 0,1.2588501 0,2.80570986 L0,13.7466431 C0,15.2938843 1.23780019,16.5523529 2.75963028,16.5523529 L5.22847692,16.5523529 C6.75030701,16.5523529 7.9881071,15.2938843 7.9881071,13.7466431 L7.9881071,12.1635438 C7.9881071,10.521698 9.30207386,9.18579102 10.9169547,9.18579102 L16.3270307,9.18579102 L16.3270307,40.9107208 L13.2803689,40.9107208 C11.7585388,40.9107208 10.5207386,42.1695709 10.5207386,43.7164307 L10.5207386,47.1942901 C10.5207386,48.7411499 11.758914,50 13.2803689,50 L30.2403697,50 C31.7621998,50 33,48.7411499 33,47.1942901 L33,43.7164307 C33,42.1695709 31.7621998,40.9107208 30.2403697,40.9107208 L27.1937079,40.9107208 L27.1937079,26.8627167 C27.1937079,26.4583588 26.8714071,26.1302948 26.473315,26.1302948 C26.0752228,26.1302948 25.752922,26.4583588 25.752922,26.8627167 L25.752922,41.1117554 C25.752922,41.8087006 26.3104762,42.3755646 26.9959751,42.3755646 L30.2403697,42.3755646 C30.9675164,42.3755646 31.5592141,42.9771424 31.5592141,43.7164307 L31.5592141,47.1942901 C31.5592141,47.9335785 30.9675164,48.5351562 30.2403697,48.5351562 L13.2803689,48.5351562 C12.5532222,48.5351562 11.9615245,47.9335785 11.9615245,47.1942901 L11.9615245,43.7164307 C11.9615245,42.9771424 12.5532222,42.3759461 13.2803689,42.3759461 L16.5247635,42.3759461 C17.2102624,42.3759461 17.7678166,41.8087006 17.7678166,41.1117554 L17.7678166,8.98513789 C17.7678166,8.28819277 17.2102624,7.72094727 16.5247635,7.72094727 L10.9169547,7.72094727 C8.50739035,7.72094727 6.54732122,9.71412656 6.54732122,12.1635438 L6.54732122,13.7466431 C6.54732122,14.4863129 5.9556235,15.0875092 5.22847692,15.0875092 L2.75963028,15.0875092 C2.0324836,15.0875092 1.44078588,14.4859314 1.44078588,13.7466431 L1.44078588,2.80570986 C1.44078588,2.06642148 2.0324836,1.46484375 2.75963028,1.46484375 L20.0798276,1.46484375 C20.4775445,1.46484375 20.8002206,1.13677979 20.8002206,0.732421875 C20.8002206,0.328063965 20.4775445,0 20.0798276,0 Z" id="Path"></path>
                                    </g>
                                </g>
                            </g>
                        </g>
                    </g>
                </g>
            </g>
        </g>
    </g>
</svg>