<?xml version="1.0" encoding="UTF-8"?>
<svg width="86px" height="86px" viewBox="0 0 86 86" version="1.1" xmlns="http://www.w3.org/2000/svg" xmlns:xlink="http://www.w3.org/1999/xlink">
    <!-- Generator: Sketch 55 (78076) - https://sketchapp.com -->
    <title>Logo</title>
    <desc>Created with Sketch.</desc>
    <defs>
        <circle id="path-1" cx="35" cy="35" r="35"></circle>
        <filter x="-16.4%" y="-16.4%" width="135.7%" height="135.7%" filterUnits="objectBoundingBox" id="filter-3">
            <feMorphology radius="1.5" operator="dilate" in="SourceAlpha" result="shadowSpreadOuter1"></feMorphology>
            <feOffset dx="1" dy="1" in="shadowSpreadOuter1" result="shadowOffsetOuter1"></feOffset>
            <feGaussianBlur stdDeviation="2.5" in="shadowOffsetOuter1" result="shadowBlurOuter1"></feGaussianBlur>
            <feColorMatrix values="0 0 0 0 0.196078431   0 0 0 0 0.149019608   0 0 0 0 0.450980392  0 0 0 0.25 0" type="matrix" in="shadowBlurOuter1"></feColorMatrix>
        </filter>
    </defs>
    <g id="Page-1" stroke="none" stroke-width="1" fill="none" fill-rule="evenodd">
        <g id="Strada" transform="translate(-163.000000, -8599.000000)">
            <g id="View-7" transform="translate(0.000000, 6038.000000)">
                <g id="Design" transform="translate(150.000000, 2106.000000)">
                    <g id="Table" transform="translate(0.000000, 160.000000)">
                        <g id="List-Items" transform="translate(20.000000, 80.000000)">
                            <g id="Invision-Studio" transform="translate(0.000000, 222.000000)">
                                <g id="Logo">
                                    <mask id="mask-2" fill="white">
                                        <use xlink:href="#path-1"></use>
                                    </mask>
                                    <g id="Oval">
                                        <use fill="black" fill-opacity="1" filter="url(#filter-3)" xlink:href="#path-1"></use>
                                        <use fill="#2D2451" fill-rule="evenodd" xlink:href="#path-1"></use>
                                    </g>
                                    <g id="invision" mask="url(#mask-2)" fill-rule="nonzero">
                                        <g transform="translate(1.000000, 0.000000)">
                                            <path d="M63.6543359,0 L6.34566406,0 C2.84101563,0 0,2.84101563 0,6.34566406 L0,63.6543359 C0,67.1589844 2.84101563,70 6.34566406,70 L63.6543359,70 C67.1589844,70 70,67.1589844 70,63.6543359 L70,6.34566406 C70,2.84101563 67.1589844,0 63.6543359,0" id="Path" fill="#DC395F"></path>
                                            <path d="M23.3939453,22.0240234 C25.7208984,22.0240234 27.6702344,20.2001953 27.6702344,17.8098047 C27.6702344,15.4210547 25.7208984,13.5975 23.3939453,13.5975 C21.0669922,13.5975 19.1182031,15.4210547 19.1182031,17.8098047 C19.1182031,20.1999219 21.0669922,22.0240234 23.3939453,22.0240234 M14.5274609,44.5880859 C14.2761719,45.6572266 14.1501172,46.8116797 14.1501172,47.7533984 C14.1501172,51.4642188 16.1623438,53.9276172 20.4386328,53.9276172 C23.9851172,53.9276172 26.8603125,51.8216016 28.9305078,48.4208594 L27.6664063,53.4939453 L34.7087891,53.4939453 L38.7337891,37.3504688 C39.7400391,33.263125 41.689375,31.1415234 44.6452344,31.1415234 C46.9719141,31.1415234 48.418125,32.5885547 48.418125,34.9773047 C48.418125,35.669375 48.3552344,36.4232422 48.1036719,37.2410938 L46.0282813,44.6613672 C45.7138281,45.7305078 45.5885938,46.8001953 45.5885938,47.805625 C45.5885938,51.3283203 47.6631641,53.9049219 52.0023438,53.9049219 C55.7126172,53.9049219 58.6679297,51.5164453 60.3030859,45.7936719 L57.5364453,44.725625 C56.1528516,48.5594922 54.9579297,49.2526563 54.0145703,49.2526563 C53.0712109,49.2526563 52.5680859,48.6242969 52.5680859,47.3673047 C52.5680859,46.8012891 52.6944141,46.1732031 52.8825391,45.416875 L54.8953125,38.1877344 C55.3981641,36.4902344 55.5871094,34.9849609 55.5871094,33.6019141 C55.5871094,28.1938672 52.3167969,25.3714453 48.3552344,25.3714453 C44.6452344,25.3714453 40.8717969,28.7180469 38.985625,32.2401953 L40.3686719,25.9183203 L29.6160156,25.9183203 L28.1066406,31.4866016 L33.1376172,31.4866016 L30.0395703,43.8897266 C27.6067969,49.2977734 23.1380078,49.3855469 22.5771875,49.2600391 C21.65625,49.0522266 21.0672656,48.7025 21.0672656,47.5059375 C21.0672656,46.8155078 21.1930469,45.82375 21.5075,44.6280078 L26.2242969,25.9183203 L14.2761719,25.9183203 L12.7667969,31.4866016 L17.7343359,31.4866016 L14.5277344,44.5880859" id="Shape" fill="#FFFFFF"></path>
                                        </g>
                                    </g>
                                </g>
                            </g>
                        </g>
                    </g>
                </g>
            </g>
        </g>
    </g>
</svg>