<?xml version="1.0" encoding="UTF-8"?>
<svg width="86px" height="86px" viewBox="0 0 86 86" version="1.1" xmlns="http://www.w3.org/2000/svg" xmlns:xlink="http://www.w3.org/1999/xlink">
    <!-- Generator: Sketch 55 (78076) - https://sketchapp.com -->
    <title>Logo</title>
    <desc>Created with Sketch.</desc>
    <defs>
        <circle id="path-1" cx="35" cy="35" r="35"></circle>
        <filter x="-16.4%" y="-16.4%" width="135.7%" height="135.7%" filterUnits="objectBoundingBox" id="filter-3">
            <feMorphology radius="1.5" operator="dilate" in="SourceAlpha" result="shadowSpreadOuter1"></feMorphology>
            <feOffset dx="1" dy="1" in="shadowSpreadOuter1" result="shadowOffsetOuter1"></feOffset>
            <feGaussianBlur stdDeviation="2.5" in="shadowOffsetOuter1" result="shadowBlurOuter1"></feGaussianBlur>
            <feColorMatrix values="0 0 0 0 0.196078431   0 0 0 0 0.149019608   0 0 0 0 0.450980392  0 0 0 0.25 0" type="matrix" in="shadowBlurOuter1"></feColorMatrix>
        </filter>
    </defs>
    <g id="Page-1" stroke="none" stroke-width="1" fill="none" fill-rule="evenodd">
        <g id="Strada" transform="translate(-163.000000, -4320.000000)">
            <g id="View-5" transform="translate(150.000000, 3878.000000)">
                <g id="Table" transform="translate(0.000000, 258.000000)">
                    <g id="List-Items" transform="translate(20.000000, 80.000000)">
                        <g id="Lapa-Ninja" transform="translate(0.000000, 111.000000)">
                            <g id="Logo">
                                <mask id="mask-2" fill="white">
                                    <use xlink:href="#path-1"></use>
                                </mask>
                                <g id="Oval">
                                    <use fill="black" fill-opacity="1" filter="url(#filter-3)" xlink:href="#path-1"></use>
                                    <use fill="#2D2451" fill-rule="evenodd" xlink:href="#path-1"></use>
                                </g>
                                <g id="Lapa-Ninja" mask="url(#mask-2)" fill-rule="nonzero">
                                    <g transform="translate(14.000000, 13.000000)">
                                        <path d="M43,8.62 C42.54,10.14 42.52,11.69 42.07,13.13 C41.8542505,14.1942021 41.4477001,15.2105781 40.87,16.13 C40.735371,16.2761289 40.7000414,16.4881065 40.78,16.67 C41.2749353,18.258654 41.3744848,19.9441297 41.07,21.58 C41.07,21.78 41.07,22.04 40.87,22.11 C40.29,22.33 40.42,22.81 40.37,23.25 C40.1480419,26.1852538 39.5221398,29.075845 38.51,31.84 C37.2982997,35.1479799 35.3211103,38.1223307 32.74,40.52 C30.1533011,42.8656669 26.9122118,44.3658482 23.45,44.82 C16.77,45.69 11.57,43.12 7.51,37.95 C4.88192523,34.5084122 3.14077321,30.4731979 2.44,26.2 C2.18426196,24.8801815 2.02716092,23.5431513 1.97,22.2 C1.96984547,21.8968151 1.86372646,21.6032192 1.67,21.37 C1.17578136,20.6339461 0.940104944,19.7545564 1,18.87 C0.980437677,16.9475611 1.43010058,15.0493657 2.31,13.34 C2.37982663,13.1497558 2.52975584,12.9998266 2.72,12.93 C3.13,12.83 3.27,12.51 3.41,12.16 C5.47305544,6.87299985 10.0383444,2.96418216 15.58,1.74 C20.4715836,0.458802455 25.6504751,0.842293742 30.3,2.83 C32.3894212,3.70875961 34.2551944,5.0448719 35.76,6.74 C35.8952033,6.94958876 36.1081596,7.09685245 36.3519823,7.1493681 C36.5958049,7.20188375 36.8505031,7.15534563 37.06,7.02 C38.4043609,6.51946045 39.6970662,5.88985271 40.92,5.14 C41.03,5.05 41.19,4.94 41.3,5.02 C41.41,5.1 41.3,5.33 41.23,5.47 C40.5168241,6.84800849 40.0241721,8.32933879 39.77,9.86 C39.7,10.44 39.7,10.45 40.26,10.26 C41.0628532,9.91897015 41.816257,9.47163665 42.5,8.93 L43,8.62 Z M37.17,26.38 C37.17,23.58 36.42,22.45 34.58,21.69 C31.82,20.57 28.9,20.63 26.01,20.69 C23.47,20.69 20.94,20.82 18.4,20.69 C16.54,20.6 14.68,20.56 12.83,20.69 C11.4762742,20.7317175 10.1328344,20.9399507 8.83,21.31 C6.83,21.94 5.09,23.39 5.35,26.08 C5.50390493,28.1999409 6.15111548,30.2545776 7.24,32.08 C7.81358214,33.0731862 8.78589837,33.7723799 9.91,34 C10.689993,34.1449136 11.490007,34.1449136 12.27,34 C13.5959074,33.7621486 14.9027058,33.4279291 16.18,33 C19.6087019,31.818948 23.3195218,31.7315934 26.8,32.75 C28.067386,33.1351694 29.3562641,33.4457022 30.66,33.68 C32.3882883,34.104746 34.1956666,33.3858111 35.16,31.89 C36.2818945,30.2511735 36.9731386,28.3562705 37.17,26.38 L37.17,26.38 Z M40.55,19.66 C40.6208832,18.5955576 40.5092757,17.5268309 40.22,16.5 C39.9637503,15.1672954 39.0314706,14.0644766 37.76,13.59 C33.1579331,11.7341608 28.2605191,10.7180998 23.3,10.59 C19.4970746,10.4847518 15.6928508,10.7459573 11.94,11.37 C9.10672534,11.8070212 6.30432937,12.4249512 3.55,13.22 C3.13971937,13.309224 2.80164049,13.5984693 2.65,13.99 C2.14449809,15.1214263 1.80758308,16.3208437 1.65,17.55 C1.52123268,18.4754256 1.57903513,19.4172655 1.82,20.32 C2,20.95 2.02,20.96 2.61,20.74 L2.85,20.64 C7.33124818,18.8699589 12.0483253,17.7681845 16.85,17.37 C19.6870699,17.1366208 22.5399009,17.1734531 25.37,17.48 C28.8110872,17.82904 32.204224,18.5499139 35.49,19.63 C37.0309056,20.1351345 38.5374048,20.7397384 40,21.44 C40.52,21.69 40.56,21.66 40.6,21.1 C40.64,20.54 40.55,20.14 40.55,19.66 Z M35.05,12 C35.1706721,11.9827416 35.2884249,11.9490979 35.4,11.9 C36.4925876,11.2560385 37.6914128,10.8124055 38.94,10.59 C39.15,10.59 39.19,10.41 39.21,10.23 C39.350963,8.96863154 39.6883751,7.73707753 40.21,6.58 C40.21,6.48 40.3,6.35 40.21,6.28 C40.12,6.21 40.06,6.28 39.98,6.34 C38.56,6.94 37.12,7.51 35.72,8.16 C34.4982232,8.69469961 33.5257346,9.67433879 33,10.9 C32.92,11.09 32.76,11.34 33.1,11.45 C33.77,11.65 34.42,11.82 35.05,12 Z M42.25,9.74 C41.2051198,10.4961703 39.9886346,10.9807025 38.71,11.15 C37.9061139,11.2890097 37.1296384,11.5557122 36.41,11.94 C36.26,12.01 36.04,12.07 36.03,12.23 C36.02,12.39 36.26,12.43 36.41,12.49 L38.51,13.36 C39.3340464,13.640425 39.9855307,14.2808673 40.28,15.1 C40.34,15.27 40.45,15.57 40.54,15.57 C40.79,15.57 40.8,15.27 40.9,15.09 C40.9703203,14.9374832 41.0304521,14.7804722 41.08,14.62 C41.6147096,13.0314682 42.0062695,11.3982952 42.25,9.74 L42.25,9.74 Z" id="Shape" fill="#6D5EC7"></path>
                                        <path d="M37.17,26.38 C36.9550857,28.3103224 36.2682027,30.1580376 35.17,31.76 C34.2056666,33.2558111 32.3982883,33.974746 30.67,33.55 C29.3662641,33.3157022 28.077386,33.0051694 26.81,32.62 C23.3295218,31.6015934 19.6187019,31.688948 16.19,32.87 C14.9127058,33.2979291 13.6059074,33.6321486 12.28,33.87 C11.500007,34.0149136 10.699993,34.0149136 9.92,33.87 C8.80117141,33.6566565 7.82635186,32.9764652 7.24,32 C6.15111548,30.1745776 5.50390493,28.1199409 5.35,26 C5.09,23.31 6.78,21.86 8.83,21.23 C10.1328344,20.8599507 11.4762742,20.6517175 12.83,20.61 C14.68,20.52 16.54,20.56 18.4,20.61 C20.94,20.73 23.47,20.61 26.01,20.61 C28.9,20.61 31.82,20.53 34.58,21.61 C36.42,22.45 37.17,23.58 37.17,26.38 Z M31.87,28 C31.7150799,27.029409 30.8778769,26.315238 29.895,26.315238 C28.9121231,26.315238 28.0749201,27.029409 27.92,28 C27.92,28.39 28.15,28.61 28.53,28.45 C29.3885402,28.0802068 30.3614598,28.0802068 31.22,28.45 C31.64,28.64 31.86,28.43 31.87,28 Z M10.57,27.85 C10.57,28.45 10.68,28.65 11.12,28.49 C11.9884333,28.1348865 12.9615667,28.1348865 13.83,28.49 C14.24,28.66 14.45,28.49 14.46,27.98 C14.4264603,26.9273598 13.600752,26.0713899 12.55,26 C11.50102,25.9769845 10.6238317,26.7921494 10.57,27.84 L10.57,27.85 Z" id="Shape" fill="#FEFEFE"></path>
                                        <path d="M40.55,19.66 C40.55,20.14 40.55,20.66 40.55,21.1 C40.55,21.54 40.47,21.69 39.95,21.44 C38.4996607,20.7515434 37.0065851,20.1569853 35.48,19.66 C32.194224,18.5799139 28.8010872,17.85904 25.36,17.51 C22.5299009,17.2034531 19.6770699,17.1666208 16.84,17.4 C12.0383253,17.7981845 7.32124818,18.8999589 2.84,20.67 L2.6,20.77 C2,21 2,21 1.82,20.35 C1.57903513,19.4472655 1.52123268,18.5054256 1.65,17.58 C1.80758308,16.3508437 2.14449809,15.1514263 2.65,14.02 C2.80164049,13.6284693 3.13971937,13.339224 3.55,13.25 C6.30432937,12.4549512 9.10672534,11.8370212 11.94,11.4 C15.6928508,10.7759573 19.4970746,10.5147518 23.3,10.62 C28.2605191,10.7480998 33.1579331,11.7641608 37.76,13.62 C39.0314706,14.0944766 39.9637503,15.1972954 40.22,16.53 C40.505882,17.5472277 40.6174591,18.6055191 40.55,19.66 Z" id="Path" fill="#FEFEFE"></path>
                                        <path d="M35.05,12 C34.42,11.82 33.77,11.65 33.13,11.45 C32.79,11.34 32.95,11.09 33.03,10.9 C33.5340089,9.69045982 34.4721142,8.71311814 35.66,8.16 C37.06,7.51 38.5,6.94 39.92,6.34 C40,6.34 40.1,6.25 40.15,6.28 C40.2,6.31 40.22,6.48 40.15,6.58 C39.6283751,7.73707753 39.290963,8.96863154 39.15,10.23 C39.15,10.41 39.09,10.55 38.88,10.59 C37.6521553,10.8192168 36.4742048,11.2626407 35.4,11.9 C35.2884249,11.9490979 35.1706721,11.9827416 35.05,12 Z" id="Path" fill="#FEFEFE"></path>
                                        <path d="M42.25,9.74 C42.0062695,11.3982952 41.6147096,13.0314682 41.08,14.62 C41.0304521,14.7804722 40.9703203,14.9374832 40.9,15.09 C40.8,15.27 40.79,15.57 40.54,15.57 C40.45,15.57 40.34,15.27 40.28,15.1 C39.9855307,14.2808673 39.3340464,13.640425 38.51,13.36 L36.41,12.49 C36.26,12.43 36.02,12.43 36.03,12.23 C36.04,12.03 36.26,12.01 36.41,11.94 C37.1296384,11.5557122 37.9061139,11.2890097 38.71,11.15 C39.9886346,10.9807025 41.2051198,10.4961703 42.25,9.74 L42.25,9.74 Z" id="Path" fill="#FEFEFE"></path>
                                        <path d="M31.87,28 C31.87,28.44 31.64,28.65 31.22,28.48 C30.3614598,28.1102068 29.3885402,28.1102068 28.53,28.48 C28.15,28.64 27.94,28.42 27.92,28.03 C28.0749201,27.059409 28.9121231,26.345238 29.895,26.345238 C30.8778769,26.345238 31.7150799,27.059409 31.87,28.03 L31.87,28 Z" id="Path" fill="#6D5EC7"></path>
                                        <path d="M10.57,27.84 C10.6446564,26.8000448 11.5279535,26.0050774 12.57,26.04 C13.6055593,26.1201963 14.417501,26.9622099 14.46,28 C14.46,28.46 14.24,28.68 13.83,28.51 C12.9615667,28.1548865 11.9884333,28.1548865 11.12,28.51 C10.68,28.64 10.55,28.44 10.57,27.84 Z" id="Path" fill="#6D5EC7"></path>
                                    </g>
                                </g>
                            </g>
                        </g>
                    </g>
                </g>
            </g>
        </g>
    </g>
</svg>