<svg xmlns="http://www.w3.org/2000/svg" viewBox="0 0 800.67 427.89"><defs><style>.cls-1{fill:#2b2b2b;}.cls-2{fill:#3f3f3f;}.cls-3{fill:#373737;}.cls-4{fill:#3a3a3a;}.cls-5{fill:#393939;}.cls-6{fill:#282828;}.cls-7{fill:#2e2e2e;}.cls-8{fill:#4e4e4e;}.cls-9{fill:#3c3c3c;}.cls-10{fill:#333;}.cls-11{fill:#292929;}.cls-12{fill:#2c2c2c;}.cls-13{fill:#1f1f1f;}.cls-14{fill:#2f2f2f;}</style></defs><title>Laptop</title><g id="Layer_2" data-name="Layer 2"><g id="Layer_1-2" data-name="Layer 1"><path class="cls-1" d="M651,427.89H149.67a5.49,5.49,0,0,0-1.28-.33c-3.44,0-6.88,0-10.32,0h-7.28c-23.57-.53-47.1-1.75-70.55-4.26a375.14,375.14,0,0,1-42.84-6.69c-5.48-1.24-10.83-3-16.24-4.54a31.74,31.74,0,0,1,3.21-.33H333.11c2.42,0,4.86-.2,7.12,1a4.75,4.75,0,0,0,2.06.46c3.77.16,7.54.27,11.31.4h90.78c3.4,0,6.8.13,10.19,0a23.17,23.17,0,0,0,6.2-1.07,14.75,14.75,0,0,1,4.86-.81H662.42q67,0,134.08,0a28,28,0,0,1,3,.33c-5.53,1.55-11,3.38-16.61,4.61-24.2,5.32-48.8,7.7-73.48,9.21-13.16.81-26.35,1.13-39.54,1.67H662.6c-3,0-6,0-9,0A21.35,21.35,0,0,0,651,427.89Z"/><path class="cls-2" d="M93.17,287.41c0-.7-.06-1.4-.06-2.11q0-135.65,0-271.29a17.69,17.69,0,0,1,.56-4.93A12.19,12.19,0,0,1,101.56.75c.65-.24,1.29-.5,1.94-.75H450.16c.13,1,.26,2.05.38,3.07H111c-.83,0-1.67,0-2.5,0A11.73,11.73,0,0,0,102.17,5a12.82,12.82,0,0,0-6,11.36q0,135.14,0,270.27Z"/><path class="cls-3" d="M450.54,3.07c-.12-1-.25-2-.38-3.07H696.4c.65.25,1.29.51,1.94.75a12.68,12.68,0,0,1,8.45,11.72c0,.57,0,1.15,0,1.73v178c0,.83,0,1.66-.06,2.49-.65,1.31-2.69,1.8-2.24,3.78,0,.08-.5.29-.77.44q0-86.28,0-172.55c0-3.59,0-7.18,0-10.77a11.51,11.51,0,0,0-1.82-6.39,12.84,12.84,0,0,0-11.47-6.15Q570.48,3.09,450.54,3.07Z"/><path class="cls-4" d="M799.51,412.29a28,28,0,0,0-3-.33q-67.05,0-134.08,0H465.63a14.75,14.75,0,0,0-4.86.81,23.17,23.17,0,0,1-6.2,1.07c-3.39.17-6.79,0-10.19,0,.29-2.23-.2-4-2.69-4.59l4.23,0q126.85,0,253.71,0c1.27,0,2.54-.22,3.8-.34a16.43,16.43,0,0,0,2.38.34q47.43,0,94.86,0V412Z"/><path class="cls-5" d="M353.6,413.86c-3.77-.13-7.54-.24-11.31-.4a4.75,4.75,0,0,1-2.06-.46c-2.26-1.25-4.7-1.05-7.12-1.05H4.37a31.74,31.74,0,0,0-3.21.33L0,412v-2.7q47.06,0,94.1,0a16.14,16.14,0,0,0,2.37-.35c1.65.12,3.31.35,5,.35q118.59,0,237.17,0h16.54a3.41,3.41,0,0,0-1.55,4.4A.59.59,0,0,1,353.6,413.86Z"/><path class="cls-6" d="M354.63,409.39l-16.54,0q-118.59,0-237.17,0c-1.65,0-3.3-.23-5-.35l-1.84-2.69c.18-.19.32-.47.54-.54,1.52-.5,1.62-1.49,1.27-2.88a13.47,13.47,0,0,1-.24-3.24q0-56.9,0-113.8,0-135.13,0-270.27a12.82,12.82,0,0,1,6-11.36A11.64,11.64,0,0,1,108,2.31c.84,0,1.67,0,2.5,0H450q119.94,0,239.88,0a12.84,12.84,0,0,1,11.47,6.15,11.53,11.53,0,0,1,1.82,6.39q0,5.38,0,10.77V392c0,2.91.13,3,3,3.11-.1,2.76,0,5.54-.34,8.27a9.3,9.3,0,0,1-3,5.61c-1.27.12-2.54.34-3.81.34H445.41l-4.23,0c-2.41,0-4.83,0-7.24,0-10.12.11-20.23.27-30.34.32-3.9,0-7.8-.29-11.69-.3C379.48,409.37,367.06,409.39,354.63,409.39Zm45-380.93H125.88c-3.27,0-3.27,0-3.27,3.23V371.43c0,3.31,0,3.31,3.39,3.31H673.29c3.36,0,3.37,0,3.37-3.33V31.88c0-3.66.18-3.42-3.49-3.42ZM371.06,391.23l.26,0c.1,2,.17,4,.34,6,0,.41.47.78.72,1.17.22-.38.65-.76.64-1.12-.08-2.55-.23-5.11-.45-7.66a1.36,1.36,0,0,0-.9-.93,1.62,1.62,0,0,0-1.2.63,5.34,5.34,0,0,0-.57,1.41c-.64,1.67-1.29,3.33-2.06,5.31-.84-2.29-1.6-4.19-2.23-6.12-.37-1.14-.93-1.61-2.3-1.05-.22,3.08-.43,6.24-.65,9.39l.71.22c1.16-.68.68-2.1.81-3.2.15-1.29.16-2.59.23-3.88a50.84,50.84,0,0,1,2.22,5.29,7.64,7.64,0,0,0,1.16,1.55,9,9,0,0,0,1.14-1.59C369.69,394.88,370.36,393,371.06,391.23Zm22.66,2.28c.26-1.24.8-2.28.61-3.17-.29-1.38-1.68-1.62-2.92-1.69a26.86,26.86,0,0,0-2.82.13v9.69a29.26,29.26,0,0,0,3,0c1.36-.15,2.67-.47,3.19-2A2.45,2.45,0,0,0,393.72,393.51Zm18.63-5c0,3,0,6.06,0,9.11,0,.29.47.57.73.86.23-.31.58-.59.66-.94a13.86,13.86,0,0,0,.2-1.94l.48-.15c.55.66,1.1,1.31,1.64,2,.92,1.14.92,1.14,2.29.73l-3.26-4.33,3.08-2-.54-.66a14.89,14.89,0,0,0-1.93,1.15,21.57,21.57,0,0,0-1.9,2c0-2,0-3.56,0-5.09C413.84,388.26,413.38,388,412.35,388.47Zm-1.45,6.33a3.32,3.32,0,0,0-3.63-3.52,3.53,3.53,0,0,0-3.6,3.66,3.62,3.62,0,1,0,7.23-.14Zm-15.14.11a3.38,3.38,0,0,0,3.52,3.66A3.48,3.48,0,0,0,403,395a3.39,3.39,0,0,0-3.44-3.75A3.45,3.45,0,0,0,395.76,394.91ZM380,398.14c-.08-1.54-.05-3.26-.27-4.94-.19-1.44-1.32-2-2.68-1.91-.91,0-2-.11-2.4,1.27,1.35.22,3.11-1,3.7,1.17a22.31,22.31,0,0,0-2.68.67,2.14,2.14,0,0,0-1.51,2.71,2.31,2.31,0,0,0,2.79,1.43C377.8,398.39,378.67,398.31,380,398.14Zm20.08-385a3.05,3.05,0,1,0,3,3A3,3,0,0,0,400.06,13.1Zm22,385.09.55.31a8,8,0,0,0,.83-1.72c.32-1.55,1.31-1.73,2.68-1.71s2.21.2,2.53,1.64a8.65,8.65,0,0,0,.84,1.77l.53-.24a75.19,75.19,0,0,0-3.89-9.84,5.56,5.56,0,0,0-.68.87C424.32,392.24,423.2,395.21,422.07,398.19Zm-35.2-5.77c-.18-1-.49-1.23-1.93-1.14a3.61,3.61,0,0,0-3.62,3.51,3.34,3.34,0,0,0,2.88,3.71c1.52.29,2.28,0,2.62-1-3-.07-4-.72-4-2.55S383.79,392.53,386.87,392.42Zm47.48,5.87h.49c.75-2.25-1.15-5.48,2.51-6.79a5.06,5.06,0,0,0-1.63.16c-.5.08-1,.09-1.37.12Zm-3,0c1-1.6.9-5.41,0-6.69Z"/><path class="cls-7" d="M706.73,395.91c-2.88-.07-3-.2-3-3.11q0-96.94,0-193.88c.27-.15.79-.36.77-.44-.45-2,1.59-2.47,2.24-3.78,0,.77.06,1.54.06,2.31V393.8C706.79,394.51,706.75,395.21,706.73,395.91Z"/><path class="cls-5" d="M96.18,286.64q0,56.89,0,113.8a13.47,13.47,0,0,0,.25,3.24c.35,1.38.24,2.38-1.28,2.87-.21.07-.35.36-.53.54-.5-1.62-1-3.24-1.48-4.88a6.64,6.64,0,0,1,0-1.73q0-55.58,0-111.15c0-.64,0-1.28,0-1.92Z"/><path class="cls-8" d="M355,409.27c12.45,0,24.9,0,37.34,0,3.91,0,7.81.33,11.72.31,10.13-.05,20.26-.22,30.39-.33,2.42,0,4.84,0,7.26,0,2.49.6,3,2.36,2.69,4.59H353.42a.59.59,0,0,0,0-.19A3.41,3.41,0,0,1,355,409.27Z"/><path class="cls-9" d="M400.06,13.05a3.1,3.1,0,1,1-3.14,3A3,3,0,0,1,400.06,13.05Zm2.12,3c-1.05-.67-1.68-1.38-2.19-1.3s-1,.91-1.44,1.42c.51.47,1,1.27,1.53,1.32S401.17,16.81,402.18,16.08Z"/><path class="cls-10" d="M390,397.66v-3.29c1.3-.29,2.46-.29,3.21.8a1.73,1.73,0,0,1,.06,1.55C392.55,397.88,391.38,397.92,390,397.66Z"/><path class="cls-10" d="M389.88,392.85c0-.65,0-1.22,0-1.78a6.1,6.1,0,0,1,.18-.91c1.11-.3,2.14-.34,2.83.62a1.54,1.54,0,0,1,0,1.37C392.26,393.13,391.24,393.17,389.88,392.85Z"/><path class="cls-11" d="M409.49,395.28a2.25,2.25,0,0,1-2.08,2.47,2.44,2.44,0,0,1-2.16-2.65,2.33,2.33,0,0,1,2.16-2.45C408.71,392.64,409.53,393.68,409.49,395.28Z"/><path class="cls-11" d="M401.59,395.25a2.36,2.36,0,0,1-2.1,2.5c-1.25,0-2.17-1.1-2.14-2.62a2.25,2.25,0,0,1,2.08-2.48A2.32,2.32,0,0,1,401.59,395.25Z"/><path class="cls-12" d="M378.23,395.25c0,1.72-.5,2.53-1.57,2.33-.46-.08-1.21-.83-1.15-1.12C375.83,395.09,377,395.12,378.23,395.25Z"/><path class="cls-13" d="M402.18,16.08c-1,.73-1.59,1.49-2.1,1.44s-1-.85-1.53-1.32c.48-.51.9-1.35,1.44-1.42S401.13,15.41,402.18,16.08Z"/><path class="cls-14" d="M427.67,394.41h-3.2l1.58-4.22C426.66,391.76,427.14,393,427.67,394.41Z"/></g></g></svg>