<?xml version="1.0" encoding="UTF-8"?>
<svg width="50px" height="48px" viewBox="0 0 50 48" version="1.1" xmlns="http://www.w3.org/2000/svg" xmlns:xlink="http://www.w3.org/1999/xlink">
    <!-- Generator: Sketch 55.1 (78136) - https://sketchapp.com -->
    <title>Medium</title>
    <desc>Created with Sketch.</desc>
    <g id="Page-1" stroke="none" stroke-width="1" fill="none" fill-rule="evenodd">
        <g id="iPhone-XS" transform="translate(-132.000000, -821.000000)" fill="#4D0DB9">
            <g id="Medium" transform="translate(132.000000, 821.000000)">
                <circle id="Oval" cx="24.5" cy="23.5" r="5.5"></circle>
                <path d="M7.42857143,35.6266667 L7.42857143,0.888888889 C7.42857143,0.397333333 7.01257143,0 6.5,0 C5.98742857,0 5.57142857,0.397333333 5.57142857,0.888888889 L5.57142857,35.6266667 C2.42635714,36.0604444 0,38.6497778 0,41.7777778 C0,45.208 2.91571429,48 6.5,48 C10.0842857,48 13,45.208 13,41.7777778 C13,38.6497778 10.5736429,36.0604444 7.42857143,35.6266667 Z M6.5,46.2222222 C3.93992857,46.2222222 1.85714286,44.2284444 1.85714286,41.7777778 C1.85714286,39.3271111 3.93992857,37.3333333 6.5,37.3333333 C9.06007143,37.3333333 11.1428571,39.3271111 11.1428571,41.7777778 C11.1428571,44.2284444 9.06007143,46.2222222 6.5,46.2222222 Z" id="Shape" fill-rule="nonzero"></path>
                <path d="M25.5885944,17.5066667 L25.5885944,0.888888889 C25.5885944,0.397333333 25.1845428,0 24.6866935,0 C24.1888442,0 23.7847926,0.397333333 23.7847926,0.888888889 L23.7847926,17.4506667 C20.5361454,17.8026667 18,20.5226667 18,23.816 C18,27.1093333 20.5361454,29.8293333 23.7847926,30.1813333 L23.7847926,47.1111111 C23.7847926,47.6026667 24.1888442,48 24.6866935,48 C25.1845428,48 25.5885944,47.6026667 25.5885944,47.1111111 L25.5885944,30.1253333 C28.6550576,29.6124444 31,26.9822222 31,23.816 C31,20.6497778 28.6550576,18.0195556 25.5885944,17.5066667 Z M24.5,28.4444444 C21.9106424,28.4444444 19.8038019,26.368 19.8038019,23.816 C19.8038019,21.264 21.9097405,19.1875556 24.5,19.1875556 C27.0902595,19.1875556 29.1961981,21.264 29.1961981,23.816 C29.1961981,26.368 27.0893576,28.4444444 24.5,28.4444444 Z" id="Shape" fill-rule="nonzero"></path>
                <path d="M50,6.22222222 C50,2.792 47.0842857,0 43.5,0 C39.9157143,0 37,2.792 37,6.22222222 C37,9.35022222 39.4263571,11.9395556 42.5714286,12.3733333 L42.5714286,47.1111111 C42.5714286,47.6026667 42.9874286,48 43.5,48 C44.0125714,48 44.4285714,47.6026667 44.4285714,47.1111111 L44.4285714,12.3733333 C47.5736429,11.9395556 50,9.35022222 50,6.22222222 Z M43.5,10.6666667 C40.9399286,10.6666667 38.8571429,8.67288889 38.8571429,6.22222222 C38.8571429,3.77155556 40.9399286,1.77777778 43.5,1.77777778 C46.0600714,1.77777778 48.1428571,3.77155556 48.1428571,6.22222222 C48.1428571,8.67288889 46.0600714,10.6666667 43.5,10.6666667 Z" id="Shape" fill-rule="nonzero"></path>
            </g>
        </g>
    </g>
</svg>