<?xml version="1.0" encoding="UTF-8"?>
<svg width="106px" height="106px" viewBox="0 0 106 106" version="1.1" xmlns="http://www.w3.org/2000/svg" xmlns:xlink="http://www.w3.org/1999/xlink">
    <!-- Generator: Sketch 55 (78076) - https://sketchapp.com -->
    <title>Muzli</title>
    <desc>Created with Sketch.</desc>
    <defs>
        <circle id="path-1" cx="45" cy="45" r="45"></circle>
        <filter x="-12.8%" y="-12.8%" width="127.8%" height="127.8%" filterUnits="objectBoundingBox" id="filter-2">
            <feMorphology radius="1.5" operator="dilate" in="SourceAlpha" result="shadowSpreadOuter1"></feMorphology>
            <feOffset dx="1" dy="1" in="shadowSpreadOuter1" result="shadowOffsetOuter1"></feOffset>
            <feGaussianBlur stdDeviation="2.5" in="shadowOffsetOuter1" result="shadowBlurOuter1"></feGaussianBlur>
            <feColorMatrix values="0 0 0 0 0.196078431   0 0 0 0 0.149019608   0 0 0 0 0.450980392  0 0 0 0.25 0" type="matrix" in="shadowBlurOuter1"></feColorMatrix>
        </filter>
    </defs>
    <g id="Page-1" stroke="none" stroke-width="1" fill="none" fill-rule="evenodd">
        <g id="Strada" transform="translate(-328.000000, -5571.000000)" fill-rule="nonzero">
            <g id="View-6" transform="translate(0.000000, 5098.000000)">
                <g id="Ball" transform="translate(200.000000, 280.000000)">
                    <g id="Muzli" transform="translate(135.000000, 200.000000)">
                        <g id="Oval">
                            <use fill="black" fill-opacity="1" filter="url(#filter-2)" xlink:href="#path-1"></use>
                            <use fill="#F42979" xlink:href="#path-1"></use>
                        </g>
                        <path d="M42.144787,30.6015862 C52.3238486,26.0352021 54.1424403,26.3807663 58.1332386,33.7363472 C59.800281,33.2426841 61.5052107,32.600922 63.285915,32.2430162 C68.1228636,31.2433483 71.3180281,34.1683025 70.0803755,38.8334193 C69.0591682,41.9522093 67.7924744,44.9890794 66.2916429,47.9168213 C65.028732,50.9405081 63.4753516,53.8901454 62.3639901,56.9755401 C62.1250026,58.09622 62.3969994,59.2630553 63.1091075,60.172009 C63.4627225,60.6039643 65.0666193,60.320108 65.9759151,59.9992269 C66.885211,59.6783459 67.6808448,58.7280443 68.6659153,58.444188 C69.7772634,58.3201873 70.9014356,58.3618001 72,58.5676038 C71.8989671,59.7153706 72.1515493,61.0359195 71.6211267,61.9738795 C69.7646478,65.1580069 64.0436615,66.910511 60.4443655,65.5159126 C58.4249577,64.8410368 56.7705487,63.3969576 55.857221,61.5119449 C54.9438933,59.6269322 54.8492436,57.4611376 55.5947878,55.5068922 C56.7606787,52.2246413 58.174832,49.0317021 59.8255392,45.9545102 C61.2636157,43.3113383 62.5004081,40.5681927 63.5258681,37.7473604 C58.0448349,38.9815182 54.8496704,42.6839919 52.2354449,46.8924702 C49.8359142,50.7430428 47.7773695,54.8034222 45.5293881,58.7527275 C44.9802976,60.0808585 44.1545499,61.2828744 43.1045993,62.282419 C42.0057634,63.0441759 40.6152755,63.2842359 39.3158667,62.9365227 C38.1797654,62.1457017 37.5028572,60.8686451 37.497275,59.5055638 C37.8558101,57.6967521 38.5722283,55.9737334 39.6063362,54.4331749 C42.4984021,49.4224939 45.5799046,44.5599118 48.4467123,39.4998645 C49.5027721,37.3484992 50.442823,35.1445666 51.2630035,32.8971199 C46.4260549,33.1809762 44.0517824,35.6122672 42.1700452,38.1546325 C37.3204675,44.6092782 32.849763,51.323097 28.2527674,57.9381833 C27.0782603,59.6413211 26.1184481,61.4802164 24.8934245,63.1463295 C23.4158188,65.1333237 21.4709361,66.4662142 18.9830016,64.9111753 C16.4950672,63.3561363 16.8486823,61.0606027 17.9474147,58.8884848 C19.0924448,56.6968269 20.3571796,54.5668899 21.7361473,52.5078886 C25.1460067,47.3244255 28.7200445,42.239695 32.0541292,37.0192072 C33.241188,34.8822023 34.2955209,32.677299 35.2114063,30.4164625 C31.8520634,28.7256663 29.7303732,30.2807052 27.6339411,31.4778383 C26.1942227,32.2923825 24.8934245,33.3784415 23.5168517,34.3040599 C21.7614056,35.4765099 19.7912646,36.908133 17.9474147,34.8594309 C16.1035649,32.8107288 17.2528138,30.6015862 18.8314523,28.7750326 C24.5524386,22.11058 35.9060073,22.493169 41.0713128,29.4785026 C41.4029168,29.8760023 41.761554,30.2512135 42.144787,30.6015862 Z" id="Path" fill="#FFFFFF"></path>
                    </g>
                </g>
            </g>
        </g>
    </g>
</svg>