<?xml version="1.0" encoding="UTF-8"?>
<svg width="50px" height="57px" viewBox="0 0 50 57" version="1.1" xmlns="http://www.w3.org/2000/svg" xmlns:xlink="http://www.w3.org/1999/xlink">
    <!-- Generator: Sketch 55.1 (78136) - https://sketchapp.com -->
    <title>Paid</title>
    <desc>Created with Sketch.</desc>
    <g id="Page-1" stroke="none" stroke-width="1" fill="none" fill-rule="evenodd">
        <g id="iPhone-XS" transform="translate(-42.000000, -926.000000)" fill="#4D0DB9" fill-rule="nonzero">
            <g id="Paid" transform="translate(42.000000, 926.000000)">
                <path d="M48.1273257,9.8171319 L30.5316416,0.394314223 C28.8624858,-0.499821761 26.5673966,0.18797515 25.6632705,1.83868774 L15.370143,20.7531028 L2.8514745,20.7531028 C1.25186685,20.7531028 0,21.9911372 0,23.5730701 L0,28.5252079 L0,54.1800327 C0,55.7619656 1.25186685,57 2.8514745,57 L42.8416657,57 C44.4412733,57 45.6931402,55.7619656 45.6931402,54.1800327 L45.6931402,47.0269448 L46.8754589,47.0269448 C47.5013923,47.0269448 47.9882294,46.545487 47.9882294,45.9264697 L47.9882294,37.7416865 C47.9882294,37.1226693 47.5013923,36.6412114 46.8754589,36.6412114 L45.6931402,36.6412114 L45.6931402,28.5939876 C45.6931402,27.2871734 44.719466,26.1179187 43.4675991,25.8427999 L49.587837,14.6317103 C50.4919631,12.912218 49.8660297,10.7800476 48.1273257,9.8171319 Z M35.6086572,5.62157075 L24.6200481,25.7740202 L21.490381,25.7740202 L33.2440198,4.38353631 L35.6086572,5.62157075 Z M27.6801671,2.8703831 C28.0279079,2.25136588 28.8624858,1.97624712 29.4884192,2.32014557 L31.2271232,3.28306125 L18.9866473,25.7740202 L15.1614986,25.7740202 L27.6801671,2.8703831 Z M2.15599292,23.5042904 C2.15599292,23.2979514 2.43418555,22.9540529 2.78192634,22.9540529 L14.1182762,22.9540529 L12.5882167,25.7052405 L2.78192634,25.7052405 C2.57328187,25.7052405 2.36463739,25.7052405 2.15599292,25.7740202 L2.15599292,23.5042904 Z M43.3980509,54.1800327 C43.3980509,54.5239311 43.1198583,54.7990499 42.7721175,54.7990499 L2.78192634,54.7990499 C2.43418555,54.7990499 2.15599292,54.5239311 2.15599292,54.1800327 L2.15599292,28.5939876 C2.15599292,28.2500891 2.43418555,27.9749704 2.78192634,27.9749704 L13.2836983,27.9749704 L17.7347804,27.9749704 L25.871915,27.9749704 L41.5202507,27.9749704 L42.7025694,27.9749704 C43.0503101,27.9749704 43.3285028,28.2500891 43.3285028,28.5939876 L43.3285028,36.6412114 L39.0860651,36.6412114 L39.0860651,36.6412114 C37.2082648,36.6412114 35.7477535,38.1543646 35.7477535,39.9426366 L35.7477535,43.7255196 C35.7477535,45.5825713 37.277813,47.0269448 39.0860651,47.0269448 L43.3980509,47.0269448 L43.3980509,54.1800327 Z M45.623592,38.8421615 L45.6931402,38.8421615 L45.6931402,44.8259947 L45.623592,44.8259947 L39.0860651,44.8259947 C38.4601317,44.8259947 37.9732946,44.3445368 37.9732946,43.7255196 L37.9732946,39.9426366 C37.9732946,39.3236194 38.4601317,38.8421615 39.0860651,38.8421615 L45.623592,38.8421615 L45.623592,38.8421615 Z M47.5709405,13.5312352 L40.8943172,25.7740202 L27.1237818,25.7740202 L37.5560056,6.7220458 L47.0145552,11.8117429 C47.7100368,12.0868617 47.9186812,12.912218 47.5709405,13.5312352 Z" id="Shape"></path>
                <path d="M43.4904638,12.5810362 L42.9490506,12.3216841 C41.5955176,11.6084659 39.7682481,12.12717 39.0238049,13.4239304 L38.3470385,14.6558528 C38.0086552,15.3042329 37.8733019,16.0822892 38.1440085,16.7955074 C38.3470385,17.5087256 38.8884516,18.0922677 39.5652181,18.4164578 L40.1066313,18.6758099 C40.5126912,18.870324 40.9864278,19 41.4601643,19 C42.5429907,19 43.4904638,18.4164578 44.031877,17.5735636 L44.7086435,16.3416412 C45.38541,14.9800429 44.8439968,13.2942544 43.4904638,12.5810362 Z M42.7460206,15.369071 L42.0692541,16.6009933 C41.8662242,16.9251834 41.3924877,17.0548594 41.0541044,16.8603454 L40.5126912,16.5361553 C40.3773379,16.4713173 40.2419846,16.2768032 40.174308,16.1471272 C40.1066313,15.9526131 40.1066313,15.7580991 40.2419846,15.628423 L40.9187511,14.3965007 C41.0541044,14.2019866 41.324811,14.0074726 41.5955176,14.0074726 C41.7308709,14.0074726 41.7985476,14.0074726 41.9339009,14.0723106 L42.475314,14.3316627 C42.7460206,14.5910147 42.8813739,14.9800429 42.7460206,15.369071 Z" id="Shape"></path>
            </g>
        </g>
    </g>
</svg>