<?xml version="1.0" encoding="UTF-8"?>
<svg width="40px" height="40px" viewBox="0 0 40 40" version="1.1" xmlns="http://www.w3.org/2000/svg" xmlns:xlink="http://www.w3.org/1999/xlink">
    <!-- Generator: Sketch 55 (78076) - https://sketchapp.com -->
    <title>Coin-free</title>
    <desc>Created with Sketch.</desc>
    <g id="Page-1" stroke="none" stroke-width="1" fill="none" fill-rule="evenodd">
        <g id="Strada" transform="translate(-200.000000, -3038.000000)" fill="#FC5F45">
            <g id="View-3" transform="translate(150.000000, 1478.000000)">
                <g id="Digital" transform="translate(0.000000, 769.000000)">
                    <g id="More-tools" transform="translate(0.000000, 511.000000)">
                        <g id="Balls" transform="translate(0.000000, 150.000000)">
                            <g id="Balsamiq">
                                <g id="Icons" transform="translate(50.000000, 130.000000)">
                                    <g id="Coin-pay">
                                        <g id="coin-copy-2">
                                            <path d="M19.9769014,0 C8.96169014,0 0,8.96169014 0,19.9769014 C0,30.9921127 8.96169014,39.9538028 19.9769014,39.9538028 C30.9921127,39.9538028 39.9538028,30.9921127 39.9538028,19.9769014 C39.9538028,8.96169014 30.9923005,0 19.9769014,0 Z M19.9769014,37.3248826 C10.4112676,37.3248826 2.62910798,29.5425352 2.62910798,19.9769014 C2.62910798,10.4112676 10.4112676,2.62910798 19.9769014,2.62910798 C29.5425352,2.62910798 37.3246948,10.4112676 37.3246948,19.9769014 C37.3246948,29.5425352 29.5425352,37.3248826 19.9769014,37.3248826 Z" id="Shape" fill-rule="nonzero"></path>
                                            <path d="M21.2914554,18.7973709 L21.2914554,11.3337089 C22.0353052,11.6099531 22.6843192,12.1168075 23.1355869,12.8022535 C23.5350235,13.4086385 24.3502347,13.5765258 24.9564319,13.177277 C25.5628169,12.7780282 25.7307042,11.9628169 25.3312676,11.3564319 C24.3868545,9.92244131 22.9316432,8.94892019 21.2914554,8.6058216 L21.2914554,6.51755869 C21.2914554,5.7915493 20.7029108,5.20300469 19.9769014,5.20300469 C19.250892,5.20300469 18.6623474,5.7915493 18.6623474,6.51755869 L18.6623474,8.60187793 C15.7528638,9.2084507 13.5603756,11.7923005 13.5603756,14.879061 C13.5603756,17.9658216 15.7530516,20.5500469 18.6623474,21.1566197 L18.6623474,28.6202817 C17.9184977,28.3440376 17.2694836,27.8371831 16.818216,27.1517371 C16.4187793,26.5453521 15.6035681,26.377277 14.9973709,26.7767136 C14.3909859,27.1759624 14.2230986,27.9911737 14.6225352,28.5975587 C15.5669484,30.0315493 17.0221596,31.0050704 18.6623474,31.348169 L18.6623474,33.4362441 C18.6623474,34.1622535 19.250892,34.7507981 19.9769014,34.7507981 C20.7029108,34.7507981 21.2914554,34.1622535 21.2914554,33.4362441 L21.2914554,31.3521127 C24.200939,30.7455399 26.3934272,28.1616901 26.3934272,25.0749296 C26.3934272,21.988169 24.200939,19.4039437 21.2914554,18.7973709 Z M16.1894836,14.879061 C16.1894836,13.2540845 17.2212207,11.8692958 18.6623474,11.3346479 L18.6623474,18.4234742 C17.2212207,17.8888263 16.1894836,16.5040376 16.1894836,14.879061 L16.1894836,14.879061 Z M21.2914554,28.6191549 L21.2914554,21.5303286 C22.7325822,22.0649765 23.7643192,23.4497653 23.7643192,25.0747418 C23.7643192,26.6997183 22.73277,28.084507 21.2914554,28.6191549 Z" id="Shape" fill-rule="nonzero"></path>
                                        </g>
                                    </g>
                                </g>
                            </g>
                        </g>
                    </g>
                </g>
            </g>
        </g>
    </g>
</svg>