<svg id="Layer_1" data-name="Layer 1" xmlns="http://www.w3.org/2000/svg" viewBox="0 0 700 500"><defs><style>.cls-1{fill:#4d0db9;}.cls-12,.cls-13,.cls-14,.cls-17,.cls-18,.cls-2,.cls-20,.cls-21,.cls-24,.cls-25,.cls-29,.cls-30,.cls-31,.cls-32,.cls-34,.cls-36,.cls-38,.cls-39,.cls-41{fill:none;}.cls-3{fill:#b51d2d;}.cls-4{fill:#9dc4f1;}.cls-5{fill:#b0d1e9;}.cls-6{fill:#f7bc50;}.cls-7{fill:#1d2540;}.cls-8{fill:#75aee4;}.cls-9{fill:#490a15;}.cls-10{fill:#f2a899;}.cls-11{fill:#da772a;}.cls-12{stroke:#75aee4;}.cls-12,.cls-13,.cls-14,.cls-17,.cls-18,.cls-20,.cls-21,.cls-24,.cls-25,.cls-29,.cls-30,.cls-31,.cls-32,.cls-34,.cls-36,.cls-38,.cls-39,.cls-41{stroke-linecap:round;stroke-linejoin:round;stroke-width:0;}.cls-13{stroke:#017bc5;}.cls-14{stroke:#5d87b6;}.cls-15{fill:#fff;}.cls-16{fill:#76ade2;}.cls-17{stroke:#28689c;}.cls-18{stroke:#0182cc;}.cls-19{fill:#28689c;}.cls-20{stroke:#c5dcec;}.cls-21{stroke:#b0d1e9;}.cls-22{fill:#fafbfb;}.cls-23{fill:#5d87b6;}.cls-24{stroke:#0153a2;}.cls-25{stroke:#0157a6;}.cls-26{fill:#f7f9fa;}.cls-27{fill:#0182cc;}.cls-28{fill:#eff5f7;}.cls-29{stroke:#f7f9fa;}.cls-30{stroke:#76ade2;}.cls-31{stroke:#0172c0;}.cls-32{stroke:#eff5f7;}.cls-33{fill:#c5dcec;}.cls-34{stroke:#9dc4f1;}.cls-35{fill:#322673;}.cls-36{stroke:#015daa;}.cls-37{fill:#0d508b;}.cls-38{stroke:#0064b1;}.cls-39{stroke:#f2a899;}.cls-40{fill:#246cab;}.cls-41{stroke:#0d508b;}.cls-42{fill:#fbe70c;}.cls-43{fill:#0089d3;}</style></defs><title>Process-Prototyping-IMG</title><rect class="cls-1" width="700" height="500"/><path class="cls-2" d="M292.75,112.65h0a3.83,3.83,0,0,0,.8.23A3.58,3.58,0,0,1,292.75,112.65Z"/><path class="cls-2" d="M75.91,258.94a13.43,13.43,0,0,1-2.1-2.47A13.43,13.43,0,0,0,75.91,258.94Z"/><path class="cls-2" d="M118.69,96.64l1.8,1.72-.06,2,.06-2Z"/><path class="cls-2" d="M75.91,258.94a16.18,16.18,0,0,0,1.84,1.46h0A16.18,16.18,0,0,1,75.91,258.94Z"/><path class="cls-2" d="M324.4,178.92h0c.14.21.27.41.4.57-.13-.16-.26-.36-.4-.57Z"/><path class="cls-2" d="M155.24,446.58a13.4,13.4,0,0,1-.5-1.48A13.4,13.4,0,0,0,155.24,446.58Z"/><path class="cls-2" d="M450.93,119.22h0c0,.25.07.49.11.76C451,119.71,451,119.47,450.93,119.22Z"/><path class="cls-2" d="M552.72,205.44a8.21,8.21,0,0,1-.08-1.32A8.21,8.21,0,0,0,552.72,205.44Z"/><path class="cls-2" d="M478.58,143.43h0l-6.39,3.69-2.65,1.46,2.65-1.46Z"/><path class="cls-2" d="M326.5,180.54a1.19,1.19,0,0,1-.63-.1A1.19,1.19,0,0,0,326.5,180.54Z"/><path class="cls-2" d="M350.94,142.83V121.71h0Z"/><path class="cls-2" d="M554,209.21a17.51,17.51,0,0,1-.8-1.85A17.51,17.51,0,0,0,554,209.21Z"/><path class="cls-2" d="M632.43,349.09l.87-1.81q.3-13.3.61-26.6-.3,13.31-.61,26.6Z"/><path class="cls-2" d="M250.08,398.15a17.21,17.21,0,0,1-.55,2,17.21,17.21,0,0,0,.55-2c-.11-.44-.22-.87-.35-1.28C249.86,397.28,250,397.71,250.08,398.15Z"/><path class="cls-2" d="M248.82,394.47a18,18,0,0,1,.91,2.4A18,18,0,0,0,248.82,394.47Z"/><path class="cls-2" d="M159.31,449.61a9.46,9.46,0,0,1-1.47-.46A9.46,9.46,0,0,0,159.31,449.61Z"/><path class="cls-2" d="M554,209.21c.41.81.88,1.61,1.34,2.41l2.85-3-2.85,3C554.88,210.82,554.41,210,554,209.21Z"/><path class="cls-2" d="M247.64,392.31a18.76,18.76,0,0,1,1.18,2.16A18.76,18.76,0,0,0,247.64,392.31Z"/><path class="cls-2" d="M615.57,228.05,612,225.77c-.1-.71-.2-1.29-.3-1.77.1.48.2,1.06.3,1.77Z"/><path class="cls-2" d="M99,326.82c.37,3.06.75,6.11,1.12,9.17a2.81,2.81,0,0,1,.12.91,2.81,2.81,0,0,0-.12-.91C99.72,332.93,99.34,329.88,99,326.82Z"/><path class="cls-2" d="M611.37,222.91a3.3,3.3,0,0,1,.24.66A3.3,3.3,0,0,0,611.37,222.91Z"/><path class="cls-2" d="M160.19,449.8c.63.13,1.33.24,2.12.36q.48,0,1,.06-.48,0-1-.06C161.52,450,160.82,449.93,160.19,449.8Z"/><path class="cls-2" d="M473.85,160.58h0q-.06,5.59-.11,11.2Q473.79,166.17,473.85,160.58Z"/><path class="cls-2" d="M152.62,78a18.93,18.93,0,0,1,3.27,2A18.93,18.93,0,0,0,152.62,78Z"/><path class="cls-2" d="M467.75,394.2h0l-6.52,3.35Z"/><path class="cls-2" d="M236.42,247.27h0l-.75,2.19Z"/><path class="cls-2" d="M185.77,258.48l0,6c2.82,1.71,5.63,3.44,8.44,5.15-2.81-1.71-5.62-3.44-8.44-5.15Z"/><path class="cls-2" d="M185.7,241.12l-4.25,2.93-14.12,7.28,14.12-7.28Z"/><path class="cls-2" d="M291.79,227.8l0,0Z"/><path class="cls-2" d="M354,227.35c-2.74,1.68-5.48,3.37-8.24,5C348.54,230.72,351.28,229,354,227.35Z"/><path class="cls-2" d="M190.85,197.29h0l-2.12,0Z"/><path class="cls-2" d="M223.46,182.59c3.76-1.85,7.45-3.84,11.16-5.78h0C230.91,178.75,227.22,180.74,223.46,182.59Z"/><path class="cls-2" d="M461.12,162.64l-.93-2.6c-.12-1.66-.23-3.32-.34-5l.34,5Z"/><path class="cls-2" d="M237.38,175.44l1.37-.68,11.26-7-11.26,7Z"/><path class="cls-2" d="M508,371.13l-4.5-27.19-.76-15.69q.39,7.85.76,15.69Z"/><path class="cls-2" d="M369,396.45a4,4,0,0,1-.75-.28,4,4,0,0,0,.75.28l2.42,1.57,2.68,1.5-2.68-1.5Z"/><path class="cls-2" d="M413.93,223.48h0l-3.57,1.87Z"/><path class="cls-2" d="M611.37,222.91a1.1,1.1,0,0,0-.3-.38A1.1,1.1,0,0,1,611.37,222.91Z"/><path class="cls-2" d="M272.38,157.49l1.16-.21-1.16.21Z"/><path class="cls-2" d="M537.34,254.5l3.28,1.87-3.28-1.87-2.88-.74Z"/><path class="cls-2" d="M517.44,244h0l1.43.89Z"/><path class="cls-2" d="M354,227.35l4.12-2.52.84-.43-.84.43Z"/><path class="cls-2" d="M334.61,215.64h0c.76-.29,1.54-.53,2.3-.8C336.15,215.11,335.37,215.35,334.61,215.64Z"/><path class="cls-2" d="M229.17,268.75c-1.53.83-3.09,1.63-4.63,2.44,1.54-.81,3.1-1.61,4.63-2.44Z"/><path class="cls-2" d="M229.41,226l-2.48.43Z"/><path class="cls-2" d="M371.06,158.86c-1-.55-2-1.1-2.93-1.66l-2.31-1.3,2.31,1.3Z"/><path class="cls-2" d="M499.55,239.08q.34-2.72.71-5.44-.36,2.73-.71,5.44c1.15,1.64,2.31,3.26,3.45,4.9C501.86,242.34,500.7,240.72,499.55,239.08Z"/><path class="cls-2" d="M414.72,363.72a16.25,16.25,0,0,1,1.14-1.58A16.25,16.25,0,0,0,414.72,363.72Z"/><path class="cls-2" d="M562.27,294.7a1.62,1.62,0,0,0,.43-.38A1.62,1.62,0,0,1,562.27,294.7Z"/><path class="cls-2" d="M500,379.12h0l-1.14-5.62Z"/><path class="cls-2" d="M562,294.85a4.68,4.68,0,0,1-1.65.37l-3.65-6.05,3.65,6.05A4.68,4.68,0,0,0,562,294.85Z"/><path class="cls-2" d="M233.64,224.81l-3.06,1-1.17.21,1.17-.21h0l3.06-1Z"/><path class="cls-2" d="M486.5,302h0c-5,2.73-10,5.33-15,8C476.48,307.35,481.53,304.75,486.5,302Z"/><path class="cls-2" d="M270.67,160.26l1.67-2.71h0Z"/><path class="cls-2" d="M413.61,385.1c.12,1,.24,2.1.39,3.15C413.85,387.2,413.73,386.15,413.61,385.1Z"/><path class="cls-2" d="M413.05,380.36c0-.41,0-.84-.07-1.26,0,.42,0,.85.07,1.26.15,1.05.27,2.11.38,3.16C413.32,382.47,413.2,381.41,413.05,380.36Z"/><path class="cls-2" d="M329.48,134.88l-2.31-1.31-.32-.22.32.22Z"/><path class="cls-2" d="M173.52,142.15l-13.29-2.58h0Z"/><path class="cls-2" d="M418.55,359.32a23.17,23.17,0,0,1,2.31-1.77A23.17,23.17,0,0,0,418.55,359.32Z"/><path class="cls-2" d="M107.18,191.16l.11,4.38h0Z"/><path class="cls-2" d="M428.45,354.1a24.38,24.38,0,0,0-6.79,2.93,24.38,24.38,0,0,1,6.79-2.93Z"/><path class="cls-2" d="M417.14,360.67q.67-.71,1.41-1.35Q417.82,360,417.14,360.67Z"/><path class="cls-2" d="M468.3,55.35a4.05,4.05,0,0,0,.83-.35l-1.34-1.62L469.13,55A4.05,4.05,0,0,1,468.3,55.35Z"/><path class="cls-2" d="M578.3,141c.59.56,1.21,1.09,1.78,1.66,0,.6-.07,1.2-.11,1.81,0-.61.07-1.21.11-1.81C579.51,142.05,578.89,141.52,578.3,141Z"/><path class="cls-2" d="M475.34,146.31c-.7.38-1.4.76-2.11,1.13h0c.71-.37,1.41-.75,2.11-1.13l3.24-2.88h0Z"/><path class="cls-2" d="M579.75,148.11c.08-1.26.15-2.48.22-3.68C579.9,145.63,579.83,146.85,579.75,148.11Z"/><path class="cls-2" d="M573.62,133.52,567,145l-.09.15L567,145Z"/><path class="cls-2" d="M544.42,173l-4.81,4.17,4.81-4.17Z"/><path class="cls-2" d="M599.55,177.92a5.85,5.85,0,0,0-.85,0h0A5.85,5.85,0,0,1,599.55,177.92Z"/><path class="cls-2" d="M586.94,124.8l1.68,6.16c.11.88.23,1.76.35,2.64-.12-.88-.24-1.76-.35-2.64l-1.68-6.16-.48-2c-.31-1-.63-2-1-3,.32,1,.64,2,1,3Z"/><path class="cls-2" d="M562.35,151.58l-2.51,1.09,2.51-1.09Z"/><path class="cls-2" d="M152.62,78a26.56,26.56,0,0,0-3.72-1.43h0A26.56,26.56,0,0,1,152.62,78Z"/><path class="cls-2" d="M79.59,319.17a3.65,3.65,0,0,0-.46.65,3.65,3.65,0,0,1,.46-.65Z"/><path class="cls-3" d="M121.83,94.12l-1.17,1.56.33,0-.5,2.65-.06,2v3.06c.53,3.46,1,6.92,1.58,10.39a.34.34,0,0,1,.13.56c.7,2.81,1.4,5.63,2.11,8.44.12.67.25,1.35.38,2a43.91,43.91,0,0,1,.08,6.38c-.62,4.69-1.52,9.35-2.31,14,7.56,5.62,15.3,5.19,23.09.57,3.32-2,6.46-4.29,9.89-6,1.31-.67,3.21-.19,4.84-.23l13.29,2.58q1.51-2.4,3-4.82a2.73,2.73,0,0,0,.32-.77c-4.08-2.1-8-4.72-12.26-6.16-8.19-2.76-9.22-9.54-5.77-18.65q16.34,8.18,32.55,16.26l8.1-4.44a53,53,0,0,0-4.78-3.73c-13.67-8.4-26.35-17.78-33.3-33-.13-.3-.45-.52-.6-.82a16.37,16.37,0,0,0-4.9-6,18.93,18.93,0,0,0-3.27-2,26.56,26.56,0,0,0-3.72-1.43L145.72,82c-.94,4.9-1.88,5.59-6.17,4.13a39.21,39.21,0,0,1-4.91-2.42l-12.37,9.92C122.32,93.93,122.17,94.1,121.83,94.12Z"/><path class="cls-4" d="M385.87,124.51c.41,1.91,1.32,4.42,2.81,5.29,18.11,10.63,36.37,21,54.61,31.42a5,5,0,0,0,1.47.32l.63-6.81.39-21.54q.62-8,1.21-16.1l-3.37-2.29-7.11-4a1.82,1.82,0,0,0-.77-.36l-6.37-3.72a1.86,1.86,0,0,0-.78-.36l-6.35-3.75a1.8,1.8,0,0,0-.8-.32L410,95.59l-2.78-1.45-2.34-1.52L402,91.17l-6.28-3.71L402,91.17l-6.28-3.71L392.92,86l-2.33-1.56L389,83.78l-3.08.41h0q0,13.25-.1,26.48c-.44,1-.87,2-1.31,3C385,117.32,385.12,121,385.87,124.51Zm21.77-20.06,5.75,7.45-.79,1.33h-9.43Z"/><path class="cls-3" d="M478.21,109.27c.12-.59.24-1.17.35-1.75-.49-2.33-1-4.66-1.48-7l-.48-3.14-.3-2.07c-.08-.36-.17-.71-.25-1.07,0-.63-.05-1.26-.07-1.9L477.09,87,476,92.34,477.09,87l.87-4.74c.29-1.58.58-3.16.91-4.73C480,72,480.53,66.5,477,61.48l-3.05-2.76-5.63-3.37c-1.57.58-3.11,1.28-4.72,1.72-3.05.83-5.49.5-5.55-3.5q-1.48-2.3-3-4.59l-.13,0-.27.22.24-.21-4.57,1.72c-.77,1.45-1.46,3-2.34,4.33-1.34,2.1-3,2.49-4.8.49q-3.9,9.6-7.82,19.21L440,76.53l.58-1,2.69,4.08L445.73,75l2.2,6.71-4.45-.41-1.05,3.18,4.66,6.05c-.18,1.08-.47,2.89-.77,4.69q-.54,3.14-1.07,6.27c4.3,2.55,8.69,5,12.89,7.68C464.86,113.48,471.5,112.65,478.21,109.27Z"/><path class="cls-5" d="M389.05,76.12c11.7,6.55,23.3,13.27,35,19.86,4.08,2.31,5.85,1.22,5.89-3.61.08-7.81-.08-15.63.12-23.43a6.45,6.45,0,0,0-3.73-6.51c-12-6.74-23.84-13.69-35.83-20.42-1.35-.76-3.21-.63-5.61-1,0,10.3.18,19.12-.09,27.93C384.66,72.49,386.08,74.46,389.05,76.12Z"/><path class="cls-6" d="M176.85,136.56a2.73,2.73,0,0,1-.32.77c5.45,3.53,10.88,7.08,16.35,10.56,2.27,1.45,4.6,2.82,7,4.09,2.56,1.36,3.67,3.33,3.13,6.2a21.75,21.75,0,0,0,4.13-1.37c6.88-3.88,13.69-7.88,20.53-11.85,4.82-2.8,4.79-5.94.13-9a63.81,63.81,0,0,1-5.9-4.92l-5.8-1.9-1.31-.7-2.54-1.37-3.36-2-2.34-1.39-7.06-.13-8.1,4.44Zm31.42,6.4c-.28-2.6-.53-5-.85-8,6.42-1,12.39-3.73,18.21,3.13L203.57,150.7c-.14-2.8-.24-4.64-.34-6.68Zm-17.45-5.65h8.47C196.13,142.08,194.39,142.08,190.82,137.31Z"/><path class="cls-7" d="M447,117.09l.06.1.88.4,3,1.63h0l2.16,1.34,5.28,3,11.85,6.69,2.41,1.45,1.56.72,1.84-.18q1.1-11.52,2.18-23c-6.71,3.38-13.35,4.21-20.07-.12-4.2-2.7-8.59-5.13-12.89-7.68q-1,5.93-1.94,11.84c.1.5.2,1,.31,1.49Z"/><path class="cls-8" d="M350.94,121.71h0L378,137l27.64,15.67-20.2,12-.84.53-.16.26.16.25,3.11,2.88c1-1.36,1.73-3.16,3.06-4,5-3.13,10.3-5.87,15.38-8.92,1.32-.8,2.28-2.21,3.66-3.6L354.63,120.5c7.48-4.06,13.8-7.68,20.34-10.85,1-.5,3.06,1,4.58,1.63,1.69.74,3.32,1.62,5,2.43.44-1,.87-2,1.31-3L374.59,106l-16.86,9.6-5.67,3.22C351.69,119.81,351.32,120.76,350.94,121.71Z"/><path class="cls-9" d="M135.68,76c0-.84.1-1.68.18-2.79h3.89c.53-1.39,1-2.62,1.72-4.55h8.23c.66-5.15-.64-7.06-5.31-7.82-8.85-1.43-12.83,3.25-10.11,11.87.3,1,.62,1.93.93,2.9A1,1,0,0,1,135.68,76Z"/><path class="cls-10" d="M139.75,73.23h-3.89c-.08,1.11-.13,2-.18,2.79,3.19,2.23,4.68,7.36,10,5.94l3.18-5.38h0c.27-2.63.53-5.27.8-7.9h-8.23C140.74,70.61,140.28,71.84,139.75,73.23Z"/><path class="cls-9" d="M466.42,47.77a.69.69,0,0,1,.32-.49c.52-2.72,1.64-5.5,1.42-8.16-.3-3.77-4-5.25-9.32-4.24-3.67.69-6,2.47-4.39,6.69C459.89,40.83,464.23,42.22,466.42,47.77Z"/><path class="cls-10" d="M458,53.57c4.29.22,6.47-2.61,8.39-5.8-2.19-5.55-6.53-6.94-12-6.2l.72,7.23-.12.18Q456.55,51.28,458,53.57Z"/><path class="cls-10" d="M443.24,79.64l-2.69-4.08-.58,1-4.61-1.75c-2.08,6.52-1.1,7.87,7.07,9.68l1.05-3.18Z"/><path class="cls-11" d="M145.72,82c-5.36,1.42-6.85-3.71-10-5.94a1,1,0,0,0-.47-.39l-.57,8a39.21,39.21,0,0,0,4.91,2.42C143.84,87.55,144.78,86.86,145.72,82Z"/><path class="cls-10" d="M448,55.08c.88-1.38,1.57-2.88,2.34-4.33l-2.87-4.38-1.73,0c-.85,3.05-1.69,6.11-2.54,9.16C445,57.57,446.64,57.18,448,55.08Z"/><path class="cls-11" d="M466.42,47.77c-1.92,3.19-4.1,6-8.39,5.8.06,4,2.5,4.33,5.55,3.5,1.61-.44,3.15-1.14,4.72-1.72a4.05,4.05,0,0,0,.83-.35l-1.34-1.62-1.05-6.1A.69.69,0,0,0,466.42,47.77Z"/><path class="cls-12" d="M410,95.59l11.46,6.73"/><path class="cls-12" d="M435.74,110.47l-6.37-3.72"/><path class="cls-12" d="M422.24,102.64l6.35,3.75"/><path class="cls-12" d="M402,91.17l-6.28-3.71"/><path class="cls-13" d="M477.09,87,476,92.34"/><path class="cls-14" d="M228.63,64.05l1.58,2.62"/><path class="cls-14" d="M299.52,44.31l1.25-1.68"/><path class="cls-12" d="M390.59,84.42,392.92,86"/><path class="cls-12" d="M404.86,92.62l2.34,1.52"/><path class="cls-13" d="M477.08,100.52l-.48-3.14"/><path class="cls-14" d="M206.53,123.7l2.34,1.39"/><path class="cls-14" d="M212.23,127.09l2.54,1.37"/><path class="cls-11" d="M454.92,49l.13,0,.12-.18-.28.23-.24.21Z"/><path class="cls-13" d="M476.3,95.31c-.08-.36-.17-.71-.25-1.07"/><path class="cls-13" d="M469.13,55l-1.34-1.62"/><line class="cls-14" x1="301.64" y1="40.88" x2="301.73" y2="40.76"/><path class="cls-4" d="M495.3,187c.05.74.09,1.47.14,2.21-.56,4.65,2.8,6,6.18,7.28l2.07,1.24,5,2.82,4.39,2.75c.9.46,1.8.92,2.69,1.39l3.32,1.93,5.8,3.21,2.48,1.54c5.77,3.4,11.5,6.86,17.35,10.13.83.46,2.19,0,3.3,0-.44-1.78-.89-3.56-1.33-5.34q0-9.44-.08-18.89l.06-11.11c0-1,.07-2,.1-3-.86-1.07-1.73-2.14-2.59-3.22l-4.61-2.72a22.52,22.52,0,0,1-4.3-1.39c-7.68-4.29-15.29-8.71-22.93-13.06-5.37-3-10.76-6-16.13-9.08l-1.53.73V182l.06,2.84C495,185.54,495.13,186.25,495.3,187Z"/><path class="cls-3" d="M562.35,151.58l-.81,2.43,14.84,9.4v21.08c6.53,1.42,13.11,4,19.59.13,1.55-.94,2.58-2.74,3.85-4.14-.37-.86-.74-1.72-1.12-2.58h0c-.6-1.42-1.73-2.85-1.71-4.26.11-8.45.49-16.88.78-25.32-.23-1-.46-2.1-.68-3.15-.12-.64-.25-1.29-.37-1.93l-6.64-4.4c-.75,3.6-1.49,7.19-2.32,11.18h-8.12c0-.65.07-1.28.11-1.91.08-1.26.15-2.48.22-3.68,0-.61.07-1.21.11-1.81-.57-.57-1.19-1.1-1.78-1.66a10.73,10.73,0,0,1-1.59-1.79,58.16,58.16,0,0,1-3.09-5.65L567,145l-.09.15,0,.05-.75,1.09-3.77,5.28Z"/><path class="cls-7" d="M596,184.62c-6.48,3.89-13.06,1.29-19.59-.13-.12.27-.23.55-.35.82-.67,5.35,2,8.49,6.77,10.21,7.27,2.6,9.69,7.64,8.74,15.27-.74,6-.24,12.12-.3,18.19q2.87,9.06,5.72,18.14,2.49,7,5,14.08c2.81,3.35-.53,3.73-2.35,4.84v3.49c3.38-3.45,8.58-3.74,7.92-9.21s-1.79-10.64-2.52-16c-.61-4.39-.93-8.81-1.44-13.85l5.52.83,4.92-1.45c-.56,2.72-.94,4.55-1.32,6.38l2.67,2.48L616,236l-.39-8L612,225.77l-3.37-2.5c-5-1.42-7-5-6.87-10,.12-4.74.54-9.48.56-14.21,0-5.58-.23-11.15-.37-16.73-.11-.34-.22-.69-.34-1l-1.81-.87C598.55,181.88,597.52,183.68,596,184.62Z"/><path class="cls-15" d="M472.63,131.75l-2.41-1.45-11.85-6.69-3.51.82,5.35,4.91-9.94,5.31,15.46,9.4-17.92,10.59L448,161l2.89-1.71,4.46-2.6,2.24-.48.38-1h0l4.53-2.6,2.67-1.55,4.41-2.53-4.41,2.53,4.41-2.53,2.65-1.46,6.39-3.69h0a33.39,33.39,0,0,1,2.27-3.14,28.72,28.72,0,0,1,2.75-2.39.45.45,0,0,0-.54-.26l-1.6-.6a1.44,1.44,0,0,0-1,0c-.37-.22-.75-.43-1.13-.64.38.21.76.42,1.13.64-.37-.22-.75-.43-1.13-.64l-1.5-2-1.34-.66h0l-2.37-1.36Z"/><polygon class="cls-15" points="478.58 143.43 478.58 143.44 478.58 143.44 478.58 143.44 478.58 143.43"/><path class="cls-7" d="M473.23,147.44h0l-1-.32-2.65,1.46-4.41,2.53-2.67,1.55-2.61,2.39c.11,1.67.22,3.33.34,5l.93,2.6,1.2,9c.21,1.06.41,2.13.61,3.19.1.66.2,1.33.31,2l.42,2.11.52,4-1.08,2.09-1.47.06-1.54,1.07.15,0c-.61,1.36-1.21,2.73-1.86,4.22,2.76,2.84,5.32,1.13,7.91.06,2-.81,4-1.56,6-2.33a.85.85,0,0,1,.65-.26c.21-2,.43-4,.64-6,.06-3.39.11-6.78.17-10.17q0-5.61.11-11.2v-6.15l-.63-7Z"/><path class="cls-8" d="M545.58,172.79c3.38-4.14,6.81-8.24,10.14-12.42,1.57-2,3-4.06,4.45-6.1l-.33-1.6-19.67-10.55-1.4.78c0,6.67.17,13.34,0,20a16.4,16.4,0,0,0,.3,4,8.43,8.43,0,0,0,1.07,2.7,7.22,7.22,0,0,0,2,2.14,9.92,9.92,0,0,0,2.3,1.19h0Z"/><path class="cls-16" d="M474.23,193l-3.33,3,55.31,31.89L516,234.1l1.09,2.25,13.37-7.57c0-.55-.07-1.1-.1-1.64l-54.69-31.48,19.15-10.82-.06-2.84-10.27,5.08q-4.54,2.59-9.1,5.18Z"/><path class="cls-9" d="M572.16,118.8l-.45,6.29c8.6-2,10.49-.5,9.7,8.07-.3,3.17-.88,6.31-1.33,9.46,0,.6-.07,1.2-.11,1.81-.07,1.2-.14,2.42-.22,3.68,0,.63-.08,1.26-.11,1.91h8.12c.83-4,1.57-7.58,2.32-11.18l-.75-2.6L589,133.6c-.12-.88-.24-1.76-.35-2.64l-1.68-6.16-.48-2c-.31-1-.63-2-1-3L583.33,118l-5-.55-2.09.21-3.93,1.1Z"/><path class="cls-11" d="M549.65,175.54l-4.07-2.75-1.16.19-4.81,4.17,4.61,2.72Z"/><path class="cls-15" d="M478.59,143.43h0l8.35-4-3.32-1.54a28.72,28.72,0,0,0-2.75,2.39A33.39,33.39,0,0,0,478.59,143.43Z"/><path class="cls-15" d="M473.23,147.44h0c.71-.37,1.41-.75,2.11-1.13l3.24-2.88h0l-6.39,3.69Z"/><path class="cls-17" d="M586.94,124.8l1.68,6.16"/><path class="cls-17" d="M597.09,145.17c.22,1.05.45,2.1.68,3.15"/><path class="cls-17" d="M586.46,122.79c-.31-1-.63-2-1-3"/><path class="cls-18" d="M569.33,138.19c-.35.7-.69,1.4-1,2.09"/><path class="cls-15" d="M476.56,133.83c-.18-.52-.35-1-.53-1.54l-1.84.18Z"/><path class="cls-19" d="M561.54,154l.81-2.43h0l-2.51,1.09.33,1.6Z"/><path class="cls-17" d="M566.87,145.21l-.75,1.09"/><path class="cls-20" d="M481.47,137l1.6.6"/><path class="cls-20" d="M479.38,136.43c.38.21.76.42,1.13.64"/><path class="cls-21" d="M477.88,134.48l-1.34-.66"/><path class="cls-22" d="M545.5,260.21l-8.63-1.62-2.41-4.83-1-1.35-1.69-.19c-2.41-.78-5.67-.06-6.47-3.67L524,248l-2.82-1.67h0l-4,1h0l-.08,4.56.25.07-.22.09c.32.95.64,1.89,1,2.84a1.18,1.18,0,0,1,.7-.26l3.72.18.43,1-2.64,1.94-1.05,10.89,1.23,0,2.77,1.85,1.54.43,5.6,3.62L532,275l2.53,1.68a.86.86,0,0,0,.7.3l2.37,1.58,2.82,1.44,2.28,1.56,1,.39,3.08,1.81,6,3.32,3.14,1.81a1.16,1.16,0,0,0,.77.3c1.77.83,3.89,1.29,5.22,2.57,1.06,1,1.29,1.94.8,2.58a1.62,1.62,0,0,1-.43.38,1.57,1.57,0,0,1-.29.15,4.68,4.68,0,0,1-1.65.37c-.79.45-1.58.9-2.38,1.34l-2.26,1.58-2.83,1.41-7.63,4.62-6.66,3.48-4.33,2.72-2.81,1.39L529,313.37l-3.89,1.95-.2.22a1.68,1.68,0,0,0-.61.44l-1.31.69c.21,4.94-3.12,7.15-6.93,9l-2.82,11.89c8.08-1.88,16.1-2.79,23.71,1.7,6.73,4,7.33,9.79.84,14-7.53,4.86-15.59,8.9-23.42,13.29L513.79,377c.46,3-1,4.59-3.93,4.49-3.32-.12-6.62-.52-9.93-.8l-2.4.94c-6,2.52-11.85,2.12-14.1-1.23l4.13-1.6,4.08-5c-5.66-1.24-11.43-2.29-14.51-8.14-2.1-1-2.07-2.12-.24-3.38,1.46-6.29,7.37-7.42,11.84-10.21q-1.11-7.24-2.21-14.49l-32.15,17.92c2,7,3.81,14.05,6,21a10.46,10.46,0,0,0,3.32,4.29c3.86,3.31,7.89,6.41,11.85,9.6l21.92,7q39.72-22.65,79.45-45.3,24.48-14,48.89-28.13c2.47-1.43,4.82-3.07,7.22-4.62.19-1.61.39-3.23.58-4.84l-2.32-4.87-.09-.09-1-.93-.05-.05-6.25-3.82,0,0-28.44-16.39a1.27,1.27,0,0,1-.8-.45L578,278.32l-.14-.1-17-9.77-7-4.25-4.39-2.55Z"/><path class="cls-8" d="M576.9,352.12q-39.71,22.68-79.45,45.3c-2.94,2.89-5.93,5.74-8.8,8.7-2.07,2.14-4,4.43-6,6.66q1,11,2,22a10,10,0,0,0,1.91-.65l125.37-71.89,2.31-1.51,3.73-1.9,2.84-1.52,2.36-1.41,6-3.6-6,3.6,6-3.6,3.29-3.19.87-1.81q.3-13.3.61-26.6l-.9-1.31c-2.4,1.55-4.75,3.19-7.22,4.62Q601.37,338.09,576.9,352.12Zm35,10.1,2.31-1.51Z"/><path class="cls-14" d="M623.91,304.77l6.25,3.82"/><path class="cls-23" d="M631.27,309.66l2.32,4.87C634.76,312,633.78,310.46,631.27,309.66Z"/><path class="cls-14" d="M630.21,308.64l1,.93"/><path class="cls-14" d="M629.14,352.28l-6,3.6"/><path class="cls-23" d="M620.89,358.92c0-.55-.07-1.09-.1-1.63L618,358.81Z"/><path class="cls-14" d="M633.3,347.28l-.87,1.81"/><path class="cls-24" d="M589.51,432.82l4.12-3"/><path class="cls-25" d="M574.19,442l3.13-3"/><path class="cls-24" d="M595.64,428.76l2.09-2"/><path class="cls-26" d="M102.28,237.76,103,237l-.13,0,0-.12h0c1.3-4.63,3.52-9.24,3.61-13.89.14-6.43,1.83-11.41,7.71-14.09,5.72-2.61,10.46-.16,14.51,4q33.39-19,66.76-38,38.21-21.83,76.36-43.77c.88-.5,1.68-1.12,2.52-1.69q1.54-3.18,3.07,0l4.27,2.44c7.95,4.36,15.92,8.7,23.83,13.13.63.35.92,1.29,1.37,2l21.17,11.6.3,1.58L307,171.65l-78.41,45-1.21.75,1.21-.75-1.21.75-14.36,8.32c1.26,1.27,2.31,2.88,3.79,3.77,6.2,3.69,12.52,7.16,18.79,10.72,7.33-3.78,14.77-7.35,21.95-11.38,17.25-9.7,34.38-19.62,51.57-29.44,13.5-7.71,27-15.38,40.5-23.13,1-.57,1.5-2.07,2.49-2.42.83-.3,2,.44,3.07.72q32.27,18.42,64.52,36.86,33.57,19.22,67.1,38.51a44.11,44.11,0,0,1,4.39,3.26l3.24-.42,2.23-.51,4-.26a20.49,20.49,0,0,0-1.3-4.06c-1.69-3.05-2-5.94.2-8.85q.34-2.72.71-5.44-4.85-2.89-9.67-5.81l-1.16-.7L487.38,226l-1.24-.66-3.9-2.28-1.28-.71-2.59-1.61-1.28-.7-1.93-1.09-2-1.16-4-2.3-2.41-1.35a1.11,1.11,0,0,1-.71-.42l-3.18-1.85-.08-.05-4.87-2.75L456,207.94l-.77-.52-1.44-.84-3.21-1.82a1.67,1.67,0,0,1-.85-.47l-6.28-3.58-6.56-4.27-.3-.05-2-1.23c-4.16-2.21-8.39-4.33-12.48-6.67-11.49-6.57-22.92-13.23-34.38-19.86l-3.11-2.88-3.09-.28-.91-.68-4.46-3-5.06-2.95-2.93-1.66-2.31-1.3L363,154.31l-11.34-6.69L363,154.31l-11.34-6.69a1.38,1.38,0,0,1-.79-.55q-2.16-1.14-4.34-2.26l-3-1.75-6.11-3.54-.93-.59-4.26-2.4-.18-.13-1-.55-1.64-1-2.31-1.31-.32-.22-.89-.51-.9-.58-8.95-5.07h0l-1-.54-9.25-5.35-1-.63-13.83-7.92-2.42-1.39-2.48-1.2c-10.39-5.17-20.62-4.63-30.7.88-2.12,1.37-4.2,2.82-6.38,4.1-9,5.34-18.13,10.62-27.19,15.92a63.81,63.81,0,0,0,5.9,4.92c4.66,3,4.69,6.18-.13,9-6.84,4-13.65,8-20.53,11.85a21.75,21.75,0,0,1-4.13,1.37c-2.93-1.37-5.88-2.71-8.79-4.13-2.53-1.23-5-2.54-7.52-3.81q-11.91,6.78-23.83,13.55l-38.17,21.88-8.26,4.61-2,1.12-7.12,4.14h0l-2,1.15-2.11.78L98,200.34l-11.11,6.49-2,1-.91.74-8.39,5,.25.11-.09.25-1.11.71-1.76,2.45,0,.32-.28.15-.24,7.24,24,15Zm185-32.8-2.81-4.63-3.94,3.06,1.05,1.84,2.51,1.35c-5.22,3.2-9.86,6.12-14.58,8.9-4.25,2.5-8.58,4.83-12.87,7.25-1.88,1.06-3.75,2.19-4.76-1l-3-.05-3,1.11c.34.65.67,1.31,1,2l2.63.74.36,1.14c-3.73,2-7.36,4.32-11.23,6.06-2.12.95-3-.66-2.85-2.75l-1.2-.08-4-2.08,0-2h0l-1.17.21-2.48.43-1.4.24c1.66-3.4,58.49-36.56,66.65-39.27l.61,2.72v1.08l4.12.88c1,1.37,2,2.74,3,4.12C297.4,201.57,291.68,201.89,287.3,205Zm40.34-25.09a3.59,3.59,0,0,1-.56.44,1.5,1.5,0,0,1-.58.23,1.19,1.19,0,0,1-.63-.1,2.88,2.88,0,0,1-1.06-.94c-.13-.16-.26-.36-.4-.57h0c-.45.47-.9.94-1.38,1.46l-2.91,3.07-6.28-3c-.12,1.15-.24,2.21-.44,4.08l-5.94-3.65,16.66-9.62,5.31,6.93A20.71,20.71,0,0,0,327.64,179.87Z"/><path class="cls-7" d="M160.23,139.57h0c-1.63,0-3.53-.44-4.84.23-3.43,1.75-6.57,4.06-9.89,6-7.79,4.62-15.53,5-23.09-.57q1.14,20.21,2.27,40.4l38.17-21.88Q161.54,151.69,160.23,139.57Z"/><path class="cls-18" d="M120.44,103.46V100.4"/><path class="cls-18" d="M121.83,94.12l-1.17,1.56"/><path class="cls-11" d="M194.2,154.05c2.91,1.42,5.86,2.76,8.79,4.13.54-2.87-.57-4.84-3.13-6.2-2.38-1.27-4.71-2.64-7-4.09-5.47-3.48-10.9-7-16.35-10.56q-1.5,2.41-3,4.82l13.16,8.09C189.19,151.51,191.67,152.82,194.2,154.05Z"/><path class="cls-15" d="M465.73,144.05l-15.46-9.4-4.49-1.46-.39,21.54,2.42-.09Z"/><path class="cls-15" d="M460.21,129.34l-5.35-4.91,3.51-.82-5.28-3-1.58,2.73c-.22-1.56-.36-2.51-.47-3.31,0-.27-.08-.51-.11-.76l-3-1.63-.88-.4-.06-.1q-.6,8.05-1.21,16.1l4.49,1.46Z"/><path class="cls-4" d="M413.39,111.9l-5.75-7.45-4.47,8.78h9.43Z"/><path class="cls-15" d="M448,161l-.15-6.4-2.42.09-.63,6.81,2.38.78Z"/><path class="cls-14" d="M363,154.31l-11.34-6.69"/><path class="cls-14" d="M315.11,126.65l-9.25-5.35"/><path class="cls-14" d="M337.5,139.52l6.11,3.54"/><path class="cls-14" d="M371.06,158.86l5.06,2.95"/><path class="cls-14" d="M350.91,147.07q-2.16-1.14-4.34-2.26"/><path class="cls-14" d="M336.57,138.93l-4.26-2.4"/><path class="cls-18" d="M320.19,126.86l2.07,2.39"/><path class="cls-14" d="M368.13,157.2l-2.31-1.3"/><path class="cls-27" d="M330,128l-.57-.57-1,1.52h0Z"/><path class="cls-14" d="M327.17,133.57l2.31,1.31"/><path class="cls-23" d="M384.58,165.24l.84-.53A1.78,1.78,0,0,0,384.58,165.24Z"/><path class="cls-14" d="M381.49,165.47l-.91-.68"/><path class="cls-14" d="M332.13,136.4l-1-.55"/><path class="cls-23" d="M326.85,133.35l.5-1.11-1.39.6Z"/><path class="cls-28" d="M225.63,138.08c-5.82-6.86-11.79-4.09-18.21-3.13.32,3,.57,5.41.85,8l-5,1.06c.1,2,.2,3.88.34,6.68Z"/><path class="cls-28" d="M199.29,137.31h-8.47C194.39,142.08,196.13,142.08,199.29,137.31Z"/><path class="cls-26" d="M451.51,123.29l1.58-2.73-2.16-1.34h0c0,.25.07.49.11.76C451.15,120.78,451.29,121.73,451.51,123.29Z"/><path class="cls-21" d="M472.63,131.75l-2.41-1.45"/><path class="cls-29" d="M447.05,117.19l.88.4"/><path class="cls-8" d="M433.47,429.7l-10.53-2.37-5.66-2.77-4.39-2.68L407,418.57l-6.4-3.76c-.91-.48-1.81-1-2.71-1.46l-2.45-1.5-2.72-1.43-4.35-2.75a3.54,3.54,0,0,1-.76-.3l-4.39-2.67-5.68-2.82-1-.72-.05-.08-2.43-1.56-2.68-1.5L369,396.45a4,4,0,0,1-.75-.28l-1.23-.79-5.92-3.29-6.36-3.8Q329.11,373.65,303.5,359q-51.6-29.64-103.16-59.36c-19.23-11.1-38.37-22.37-57.6-33.46-2.13-1.23-4.62-1.81-7-2.68v.07h0c-.13,4.2-1.44,8-5.09,10.27-4.85,3-4.53,6.84-2.4,11.18.82,1.65,1.67,3.28,2.5,4.92,12.56,7.06,25.18,14,37.67,21.2q60.24,34.65,120.39,69.44c2.18,1.25,4.15,2.86,6.22,4.3l3.85,2,7.76,4.93a25.76,25.76,0,0,1,4.2,1.58c34.57,19.88,69.26,39.56,103.58,59.86,10.77,6.37,21.28,8.26,32.91,3.7-2.44-7.36-4.54-14.87-7.51-22C438.93,432.71,435.66,431.43,433.47,429.7Z"/><path class="cls-28" d="M242,369.49a129.16,129.16,0,0,0-26.93-6.71c-15.74-2.06-31,1-45.66,7.06-2.74,1.91-5.55,3.73-8.22,5.74-8.59,6.47-12.16,15-10.25,25.67,6.13,12.06,16.67,18.54,29.12,21.94,25.4,6.95,50.06,6.17,72.4-9.61,4.11-2.9,6.88-7.69,10.27-11.6.17-1.62.33-3.23.5-4.84a7.28,7.28,0,0,1-.31-.71,2,2,0,0,1,.39-.19c0-1.73.07-3.46.11-5.19C260,380.23,252.27,373.17,242,369.49Zm8,28.66a17.21,17.21,0,0,1-.55,2c-1.54,4.46-4.84,7.63-8.7,10.29-17.23,11.91-48.42,12.5-66,1.11-5.91-3.82-11.5-8.15-10.82-16.45-1.47-6.19,2.18-10.46,6.15-14,8.31-7.31,18.57-10.51,29.4-11.35,11.94-.93,23.71.09,34.8,5.3,7.84,3.68,14.36,8.52,16,17.7C250.67,394.51,250.19,396.36,250.08,398.15Z"/><path class="cls-16" d="M252.5,413.58c-22.34,15.78-47,16.56-72.4,9.61-12.45-3.4-23-9.88-29.12-21.94l-.87,10.66v1.69l.09.08a.57.57,0,0,1-.12.5l.9,1.35.14,1.43c2.06,2.39,4,4.9,6.2,7.17,8.78,9.08,20.11,13.19,32.07,15.42,14.17,2.65,28.45,2.36,42.33-1.86,5.58-1.7,10.78-4.63,16.14-7-3-7.19-2.66-8.65,4.06-14.09l7.63,4a.65.65,0,0,0,.63-.43l2.85-7.81a1.14,1.14,0,0,1,.19-.93l-.45-9.46C259.38,405.89,256.61,410.68,252.5,413.58Z"/><path class="cls-7" d="M449.64,413.87l-5.32-4.3c-6-1.94-11.9-4-17.89-5.81-2.57-.79-5.24-1.21-7.87-1.81.18,2.84.35,5.67.52,8.51a5.05,5.05,0,0,1,.26.59c0,.1,0,.23-.07.34l3.3,6.81,1.76,2.4,1.29,1.6,1.06,1.31,3.77,4,3,2.16c2.19,1.73,5.46,3,6.4,5.26,3,7.15,5.07,14.66,7.51,22a17.57,17.57,0,0,1,1.37,2.7c1.81,5.95,3.35,12,5.36,17.88s6.15,7.37,12.35,4.51c-.52-2.28-.61-5-1.75-7.23-4-7.75-5.5-16.11-6.72-24.58l-5.76-26.76Q450.94,418.69,449.64,413.87Z"/><path class="cls-6" d="M259.55,420.61,253,430.92c-.82,5.05,1.35,8.08,5.89,10.41,10,5.15,19.82,10.77,29.71,16.2-2.19-8.17,3.36-16.23,10.9-18.75-10.82-6.23-21.57-12.58-32.54-18.54-1.74-.95-4.47-.08-6.74-.06A.65.65,0,0,1,259.55,420.61Z"/><path class="cls-7" d="M480.76,412.46c-5.9,5.16-11.53,1.47-17.26-.35a47.5,47.5,0,0,0-5.87-1.11l0,2.66L459,414l.77.33a.67.67,0,0,0,.36.49l.4.06.13.42L464,416l5.45,1.25c1,8.45,1.89,16.61,2.81,24.76,1.05,4.72,2.43,9.39,3,14.15.38,3.13,1.8,4.45,4.54,5.16,3.06.79,6,2,9.14,2.56,2.53.48,5.18.33,9,.51-.63-2.83-.47-5.17-1.56-6.27-1.7-1.72-4.37-2.45-6.41-3.91-1.67-1.19-4-2.68-4.31-4.33-.82-5-.76-10.05-1.05-15.1q-1-11-2-22C482,412.65,481.07,412.19,480.76,412.46Z"/><path class="cls-16" d="M464,416l-11.81,7.52L458,450.26,472.3,442c-.92-8.15-1.85-16.31-2.81-24.76Z"/><path class="cls-11" d="M288.56,457.53c4.23,3.21,5.53,3,11.21-1.52l4.35-7.86c-.12-3.84,1-8.27-4.66-9.37C291.92,441.3,286.37,449.36,288.56,457.53Z"/><path class="cls-14" d="M611.91,362.22l2.31-1.51"/><path class="cls-16" d="M263.27,397.14a.58.58,0,0,0,.08-.9,2,2,0,0,0-.39.19A7.28,7.28,0,0,0,263.27,397.14Z"/><path class="cls-19" d="M263,412.37c.14-.06.41-.14.4-.18a3.79,3.79,0,0,0-.21-.75A1.14,1.14,0,0,0,263,412.37Z"/><path class="cls-15" d="M552.26,219.23l10.66-5.31,18.15-11.15-12-8.46-15.21-8.22-4-.1v0a8.83,8.83,0,0,0,1.18,2.11c4,4.06,3.85,6.39-.62,10.33l2.87,2.86,1.73,1,6.91,3.13.05,1.4-3.77,1.79-2.85,3-8.61,4.46c.44,1.78.89,3.56,1.33,5.34L551,220Z"/><path class="cls-15" d="M554,209.21a17.51,17.51,0,0,1-.8-1.85,9.81,9.81,0,0,1-.48-1.92,8.21,8.21,0,0,1-.08-1.32,7.88,7.88,0,0,1,.63-2.81l-2.87-2.86-3.75-1.26q0,9.45.08,18.89l8.61-4.46C554.88,210.82,554.41,210,554,209.21Z"/><path class="cls-15" d="M551,188.12a8.83,8.83,0,0,1-1.18-2.11l-3.13.07-.06,11.11,3.75,1.26C554.87,194.51,555,192.18,551,188.12Z"/><path class="cls-15" d="M549.85,186l-.24-1.84-2.8-1.06c0,1-.07,2-.1,3l3.13-.07Z"/><path class="cls-30" d="M513.12,203.26l-4.39-2.75"/><path class="cls-30" d="M519.13,206.58l-3.32-1.93"/><path class="cls-30" d="M495.44,189.17c-.05-.74-.09-1.47-.14-2.21"/><path class="cls-30" d="M527.41,211.33l-2.48-1.54"/><path class="cls-30" d="M503.69,197.69l-2.07-1.24"/><path class="cls-10" d="M568.66,162.25l5.66,9.42c-2.7,5.48-5.12,10.4-7.55,15.32l2.48,3.15,1.94.44,4.84-5.27c.12-.27.23-.55.35-.82V163.41L561.54,154l-1.37.26c-1.48,2-2.88,4.14-4.45,6.1-3.33,4.18-6.76,8.28-10.14,12.42l4.07,2.75,1.38.18Z"/><path class="cls-10" d="M581.41,133.16c.79-8.57-1.1-10.1-9.7-8.07.64,2.81,1.27,5.62,1.91,8.43a58.16,58.16,0,0,0,3.09,5.65A10.73,10.73,0,0,0,578.3,141c.59.56,1.21,1.09,1.78,1.66C580.53,139.47,581.11,136.33,581.41,133.16Z"/><path class="cls-23" d="M585.37,199.17c2.83,1.53,4.31,3.2,4.18,6.63-.29,7.57-.18,15.16-.23,22.74l1.92.44c.06-6.07-.44-12.21.3-18.19,1-7.63-1.47-12.67-8.74-15.27-4.8-1.72-7.44-4.86-6.77-10.21l-4.84,5.27C575.9,193.47,580.51,196.55,585.37,199.17Z"/><path class="cls-7" d="M449,172.18c-2.28,2.8-7.11,2.91-5.35,7.91,5.62,1.55,9.16-3.37,13.86-4.2V156.25l-2.24.48-4.46,2.6L448,161l-.82,1.28C447.8,165.76,448.46,169.2,449,172.18Z"/><path class="cls-20" d="M469.54,148.58l-4.41,2.53"/><path class="cls-15" d="M459.85,155.05l2.61-2.39-4.53,2.6h0Z"/><path class="cls-20" d="M450.85,159.33l4.46-2.6"/><path class="cls-31" d="M461.12,162.64l-.93-2.6"/><path class="cls-31" d="M464.18,183l-1.08,2.09"/><path class="cls-31" d="M460.09,186.2l1.54-1.07"/><path class="cls-9" d="M500.26,233.64q-.36,2.73-.71,5.44c1.15,1.64,2.31,3.26,3.45,4.9,2.22,3.22,2.32,6.18-1.1,8.7a56.77,56.77,0,0,0-3.6,7.19,11.28,11.28,0,0,0,3.1,12.55,10.18,10.18,0,0,0,7.75,1.87c5.62-1.15,10.77-10.34,9.69-16-.21-1.16-.48-2.3-.72-3.45-.33-1-.65-1.89-1-2.84l0-.16.08-4.56h0l.24-3.29h0l.2-4.85c-.2-.92-.4-1.83-.59-2.75L516,234.1C510,228.73,507.21,228.65,500.26,233.64Z"/><path class="cls-16" d="M482.61,317.73c.63-2.62,1.28-5.24,1.93-7.86s1.31-5.23,2-7.85c-5,2.73-10,5.33-15,8s-10,5.45-14.7,8.51c-6.51,4.19-11.56,4.2-17.94-.07-8.57-5.74-17.8-10.5-26.73-15.7-1-.57-1.84-1.33-3.57-2.6,4.09-2.43,7.6-4.57,11.16-6.62,8.24-4.72,16.56-9.29,24.71-14.17,2.56-1.53,4.39-1.41,6.93.07,10,5.8,20.06,11.36,30.15,16.93,1.92,1.05,4,1.75,6.05,2.61,3.27-7.18,5.73-14.46,2.44-23.43-1.65,2.7-2.84,4.83-4.21,6.83-2.87,4.2-5.28,4.51-8.36.53-3.31-4.27-6.1-8.93-9.12-13.43-3.86-2.32-4.87-5.92-4.52-10.12-.44-1-.87-1.95-1.31-2.92l-1.42-2h0l-3.14-2.35c4.82-3.71,10.76-3.76,13.37-.42l.89.7,1.29,2-.32,1.16,4.27,4,1,1,.05,0,3.86,1.46,1.26.6a1.57,1.57,0,0,1,.91,0l.13-.1.87-1.7,5.78-7.6a44.11,44.11,0,0,0-4.39-3.26q-33.52-19.3-67.1-38.51-32.25-18.47-64.52-36.86c-.69.66-2,1.42-2,2,.77,4.89-2.27,7.58-5.52,10.2l4.48,5.82,3.83-1.19h0l2-1.2.92-.65,1.64-.55c4-3.75,4.95-3.78,8.92-.35l4.83,2.55,5.36,3.35,5,2.31a.54.54,0,0,1,.72.46q2.64,1.59,5.26,3.2l4.42,2.8a.94.94,0,0,1,.68.25l2.51,1.74,6.65,3.45c3.64,1.34,7.32,2.61,8.88,6.7q0,4,.11,8.08h0l3.45,2,3.37,2c1.5,8.37,1.39,8.7-5.51,12.6-21.92,12.39-44.3,24-65.59,37.42-9.91,6.23-14.8-.75-21.56-4.08l-5.17,3.85a37,37,0,0,1,4.05,4.47c1.72,2.6.43,8.15-2.36,9.78-13.12,7.67-26.33,15.18-39.44,22.86-1.76,1-3.12,2.72-4.67,4.11,5.41,3.39,10.73,7,16.26,10.14,32.77,18.87,65.6,37.61,98.36,56.49,2.84,1.64,5.06,1.75,7.92,0,3.11-1.94,6.66-3.19,10-4.75,0-.41,0-.84-.07-1.26a5.53,5.53,0,0,0-.18-1.23,16.78,16.78,0,0,1,1.92-14.15,16.25,16.25,0,0,1,1.14-1.58c.4-.51.83-1,1.28-1.47s.92-.92,1.41-1.35a23.17,23.17,0,0,1,2.31-1.77c.26-.18.53-.35.8-.52a24.38,24.38,0,0,1,6.79-2.93l1.72-3.66a34.61,34.61,0,0,0-3.36-4c-1.63-1.47-3-2.77-1.15-4.95-.14-1.88-.29-3.77-.44-5.65l-8.5,3.4q-17.27,10.17-34.55,20.34c-3.06,1.8-6.21,3.43-9.73,5.36l-9.37-5.29c2.79-1.7,4.85-3,7-4.24q17.13-9.94,34.31-19.82a12.83,12.83,0,0,1,2.07-.93c.71-.27,1.44-.51,2.14-.79h0a95.4,95.4,0,0,1,9.09-6c1.15-.59,3.15.07,4.62.57a60.93,60.93,0,0,1,5.89,2.68c2-.07,4-.22,6-.19,6.08.09,8.05,2.4,7.41,8.59l.06,10.77c4.92.1,10.06-.35,12.72,5.24l32.15-17.92q-.3-6.21-.58-12.41C482.51,323.74,481.82,321,482.61,317.73ZM309,326.2c6.39-3.79,12.69-7.63,19.09-11.3q43.68-25,87.42-50c6.17-3.52,7-3.37,13.52,2.67-4.31,2.59-8.15,5-12.06,7.23q-47.62,27.36-95.27,54.69C316.18,332.71,313.41,332.12,309,326.2Zm14.47,9.34c7.65-4.54,14.41-8.67,21.27-12.61q29.13-16.73,58.35-33.32c2.73-1.56,5.49-2.92,8.54,1.42l-83.32,47.83Zm12.25,7.76c3.54-2.18,6.37-4.14,9.4-5.73,4.57-2.39,9.26-4.53,13.91-6.77.48-.67.82-1.6,1.48-2,9.53-5.55,19-11.14,28.69-16.46,4.84-2.66,7.53,2.16,12.39,3.57a36.86,36.86,0,0,1-3.79,3.09c-9,5.19-17.91,10.38-27,15.39-1.31.72-3.14.5-4.73.72-.42.88-.6,2.15-1.3,2.57-6.07,3.64-12,7.57-18.44,10.5C342.23,350.09,339.56,346.06,335.73,343.3Zm56.9-5.78L359,357.22l-10.28-5.69c4.34-2.55,7.57-4.54,10.89-6.37,8.11-4.48,16.27-8.88,24.41-13.31,6.6-4,13.11-8.19,19.87-11.89,2.63-1.43,6.17.57,10.7,5.3Z"/><path class="cls-3" d="M509.15,274.29a10.18,10.18,0,0,1-7.75-1.87,11.28,11.28,0,0,1-3.1-12.55,56.77,56.77,0,0,1,3.6-7.19l-1.25-.69-4,.26-2.23.51-3.24.42-5.78,7.6-.87,1.7-.13.1h-.91l-1.26-.6-2,3.71c3.22,3.48,3.23,4.16-.33,10.3l-8.71-8.71-2.93,2.2c3,4.5,5.81,9.16,9.12,13.43,3.08,4,5.49,3.67,8.36-.53,1.37-2,2.56-4.13,4.21-6.83,3.29,9,.83,16.25-2.44,23.43-.34,1-.69,2-1,3h0c-.65,2.62-1.31,5.24-2,7.85s-1.3,5.24-1.93,7.86c-.79,3.3-.1,6,3.33,7.46l14.55,3,2.22,0,13.34-2.59c3.81-1.84,7.14-4.05,6.93-9l-.21-.95c-1.71-9.54-4.14-18.77-9.14-27.29-2.9-4.94-.09-9.92,1.89-14.56a12.87,12.87,0,0,1,1.72-2.75c.67-.87,1.4-1.71,2-2.6h0l1.05-10.89-1.51-3.09a1.18,1.18,0,0,0-.7.26c.24,1.15.51,2.29.72,3.45C519.92,264,514.77,273.14,509.15,274.29Z"/><path class="cls-3" d="M441.65,350.28l-1.07,1.09c.35,3.33-.31,6.31-4.19,6.68a16.55,16.55,0,0,1-3.65.07,6,6,0,0,1-1.13-.25,4.59,4.59,0,0,1-1-.47,5,5,0,0,1-2.13-3.3,24.38,24.38,0,0,0-6.79,2.93c-.27.17-.54.34-.8.52a23.17,23.17,0,0,0-2.31,1.77q-.74.65-1.41,1.35c-.45.47-.88,1-1.28,1.47a16.25,16.25,0,0,0-1.14,1.58,16.78,16.78,0,0,0-1.92,14.15,5.53,5.53,0,0,1,.18,1.23c0,.42,0,.85.07,1.26.15,1.05.27,2.11.38,3.16l.18,1.58c.12,1,.24,2.1.39,3.15a45.48,45.48,0,0,0,.85,4.66c.75,3.13,2.44,6,3.71,9,2.63.6,5.3,1,7.87,1.81,6,1.85,11.93,3.87,17.89,5.81l2.12-4-8-5.82,6.54-6.44q.39-8.26.77-16.53l1.14-.69c2.28,5.41,6.07,8.95,10.36,11.86,3.35,2.27,7,4.15,10.5,6.22h0l7.78-3.8c-4-3.19-8-6.29-11.85-9.6a10.46,10.46,0,0,1-3.32-4.29c-2.18-6.94-4-14-6-21C451.71,349.93,446.57,350.38,441.65,350.28Z"/><path class="cls-16" d="M517.24,271.12a12.87,12.87,0,0,0-1.72,2.75c-2,4.64-4.79,9.62-1.89,14.56,5,8.52,7.43,17.75,9.14,27.29l1.52.26a1.68,1.68,0,0,1,.61-.44l0-.25.23,0,3.89-1.95,2.44-1.61,2.81-1.39,4.33-2.72-4.33,2.72,4.33-2.72,6.66-3.48,7.63-4.62,2.83-1.41,2.26-1.58-2.26,1.58,2.26-1.58c.8-.44,1.59-.89,2.38-1.34l-3.65-6.05a1.16,1.16,0,0,1-.77-.3l-3.14-1.81-6-3.32-3.08-1.81,3.08,1.81-3.08-1.81-1-.39L540.38,280l2.28,1.56L540.38,280l-2.82-1.44L535.19,277a.86.86,0,0,1-.7-.3L532,275l-1.54-.52-5.6-3.62-1.54-.43-2.77-1.85-1.23,0h0C518.64,269.41,517.91,270.25,517.24,271.12Z"/><path class="cls-16" d="M537.78,353.23c6.49-4.19,5.89-10-.84-14-7.61-4.49-15.63-3.58-23.71-1.7q.57,14.49,1.13,29C522.19,362.13,530.25,358.09,537.78,353.23Z"/><path class="cls-10" d="M498.83,373.5l.09-27.78c-1.59-6-3.21-12.05,1.57-17.5l-14.55-3q.29,6.19.58,12.41,1.1,7.25,2.21,14.49l3.84,21.34-.82,5.54,5.5-.54c.1,1.12.19,2.18.28,3.23l2.4-.94c0-.53,0-1.06,0-1.6Z"/><path class="cls-10" d="M503.47,343.94l4.5,27.19c.35,1.37.7,2.74,1.09,4.22l-5.25,2.58c1.71,0,3.44.1,5.14-.05s3.23-.56,4.84-.85l.57-10.51q-.57-14.49-1.13-29l2.82-11.89-13.34,2.59Z"/><path class="cls-19" d="M461.23,397.55c-.19,5-4.3,5.57-7.74,6.92-1.68,4.12,2.32,4.63,4.14,6.53a47.5,47.5,0,0,1,5.87,1.11c5.73,1.82,11.36,5.51,17.26.35.31-.27,1.26.19,1.91.32,2-2.23,3.91-4.52,6-6.66,2.87-3,5.86-5.81,8.8-8.7l-21.92-7-7.78,3.8Zm11.69-2.7h3.83l1.73.33,2.17.65,9,2.5,1.8,1.15L489.59,401l-15,12.44-15.83-5.92.24-2.09,7-5.4,5.33-3.87Z"/><path class="cls-16" d="M488.73,352.09c-4.47,2.79-10.38,3.92-11.84,10.21l.24,3.38c3.08,5.85,8.85,6.9,14.51,8.14a3.17,3.17,0,0,1,.93-.39Z"/><path class="cls-11" d="M491.75,379l-4.19-.14-4.13,1.6c2.25,3.35,8.07,3.75,14.1,1.23-.09-1.05-.18-2.11-.28-3.23Z"/><path class="cls-11" d="M503.81,377.93,500,379.12h0c0,.54,0,1.07,0,1.6,3.31.28,6.61.68,9.93.8,3,.1,4.39-1.45,3.93-4.49-1.61.29-3.21.71-4.84.85S505.52,377.92,503.81,377.93Z"/><path class="cls-28" d="M534.46,253.76l2.41,4.83,8.63,1.62-4.88-3.84-3.28-1.87Z"/><path class="cls-28" d="M562,294.85a1.57,1.57,0,0,0,.29-.15,1.62,1.62,0,0,0,.43-.38c.49-.64.26-1.55-.8-2.58-1.33-1.28-3.45-1.74-5.22-2.57l3.65,6.05A4.68,4.68,0,0,0,562,294.85Z"/><path class="cls-32" d="M545.23,304.17l7.63-4.62"/><path class="cls-28" d="M492.57,373.43a3.17,3.17,0,0,0-.93.39l-4.08,5,4.19.14Z"/><path class="cls-32" d="M524.82,270.84l5.6,3.62"/><path class="cls-28" d="M531.75,252.22l-1.43-1.68-5-2C526.08,252.16,529.34,251.44,531.75,252.22Z"/><path class="cls-28" d="M523,255.69l-.43-1-3.72-.18,1.51,3.09Z"/><path class="cls-32" d="M538.57,307.65l-4.33,2.72"/><path class="cls-28" d="M518.87,244.84l-1.43-.89h0l-.24,3.29h0l4-1h0Z"/><path class="cls-33" d="M477.13,365.68l-.24-3.38C475.06,363.56,475,364.7,477.13,365.68Z"/><path class="cls-32" d="M523.28,270.41l-2.77-1.85"/><path class="cls-32" d="M543.65,281.93l3.08,1.81"/><path class="cls-32" d="M555.91,288.87l-3.14-1.81"/><path class="cls-32" d="M555.69,298.14l2.26-1.58"/><path class="cls-32" d="M542.66,281.54,540.38,280"/><path class="cls-32" d="M529,313.37l2.44-1.61"/><path class="cls-32" d="M537.56,278.54,535.19,277"/><path class="cls-32" d="M532,275l2.53,1.68"/><path class="cls-32" d="M524,248l-2.82-1.67"/><polygon class="cls-3" points="517.37 251.87 517.12 251.8 517.14 251.96 517.37 251.87"/><path class="cls-28" d="M523,316.67l1.31-.69-1.52-.26Z"/><polygon class="cls-28" points="524.9 315.54 525.1 315.32 524.87 315.29 524.9 315.54"/><path class="cls-5" d="M585.37,199.17c-4.86-2.62-9.47-5.7-14.18-8.59l-1.94-.44-.18,4.17,12,8.46-18.15,11.15c2.27,1.44,4.46,3,6.82,4.29,6.49,3.51,13,6.9,19.58,10.33,0-7.58-.06-15.17.23-22.74C589.68,202.37,588.2,200.7,585.37,199.17Z"/><path class="cls-34" d="M551,220l1.26-.75"/><path class="cls-7" d="M122.51,399.85c-2.57-.28-3.13-1.63-1.58-3.76q.87-5.07,1.75-10.14l.72-3.11,1.11-8.11.91-1.44c.13-2.91.27-5.83.4-8.74l.72-2.07.57-3.91.48-2.19,1.41-7h0c.84-5,1.72-10.09,2.57-15.13s1.69-10.09,2.44-15.15c.79-5.29,1.05-10.65,1.55-16a14,14,0,0,1-11.47,2.44c-9.33-1.69-18.66-3.23-26.27-9.58-3.52,5.3-1.85,10.93-1,16.5L99,326.82c.37,3.06.75,6.11,1.12,9.17a2.81,2.81,0,0,1,.12.91q.36,5.16.74,10.34l-.75,8.51v17.89c.22,1.38.43,2.77.65,4.15l.06,2.09.15,4c.3,2,.63,3.94.88,5.92.33,2.64,1,5,4.22,5.25l7-.9c2.79,10.06,4.15,7.94,11.87,7.37.84-.06,1.68,0,2.52,0l1.42-1.42C126.85,400.06,124.67,400.09,122.51,399.85Zm-13.19-8.09a13.14,13.14,0,0,1-1-1.93q1-9.18,2.08-18.37l1.23-.13a25.78,25.78,0,0,1,1.08,4.41c.3,4.75.42,9.51.62,14.26C112,390.62,110.68,391.28,109.32,391.76Z"/><path class="cls-24" d="M153,438c-.66-1.36-1.33-2.73-2-4.09"/><path class="cls-25" d="M163.27,450.22l3.12,3"/><path class="cls-24" d="M150.08,414.18l.9,1.35"/><path class="cls-35" d="M300.56,389.7a6,6,0,0,1-.76-.95A6,6,0,0,0,300.56,389.7Z"/><path class="cls-35" d="M299.18,387.58a7.17,7.17,0,0,0,.62,1.17A7.17,7.17,0,0,1,299.18,387.58Z"/><path class="cls-35" d="M300.56,389.7a5.8,5.8,0,0,0,.89.75,6.1,6.1,0,0,0,1,.56,9.15,9.15,0,0,0,2.93.75c.43,0,.87.07,1.31.08l-7.76-4.93a6.63,6.63,0,0,0,.25.67,7.17,7.17,0,0,0,.62,1.17A6,6,0,0,0,300.56,389.7Z"/><path class="cls-35" d="M633.47,369.62c-1.49-1.45-2.89-3-4.48-4.34-2.63-2.2-5.39-4.25-8.1-6.36l-2.94-.11-3.73,1.9-2.31,1.51L486.54,434.11a10,10,0,0,1-1.91.65c.29,5.05.23,10.14,1.05,15.1.28,1.65,2.64,3.14,4.31,4.33,2,1.46,4.71,2.19,6.41,3.91,1.09,1.1.93,3.44,1.56,6.27-3.78-.18-6.43,0-9-.51-3.1-.58-6.08-1.77-9.14-2.56-2.74-.71-4.16-2-4.54-5.16-.59-4.76-2-9.43-3-14.15L458,450.26c1.22,8.47,2.74,16.83,6.72,24.58,1.14,2.21,1.23,5,1.75,7.23-6.2,2.86-10.4,1.22-12.35-4.51s-3.55-11.93-5.36-17.88a17.57,17.57,0,0,0-1.37-2.7c-11.63,4.56-22.14,2.67-32.91-3.7-34.32-20.3-69-40-103.58-59.86a25.76,25.76,0,0,0-4.2-1.58c-.44,0-.88,0-1.31-.08a9.15,9.15,0,0,1-2.93-.75,6.1,6.1,0,0,1-1-.56,5.8,5.8,0,0,1-.89-.75,6,6,0,0,1-.76-.95,7.17,7.17,0,0,1-.62-1.17,6.63,6.63,0,0,1-.25-.67l-3.85-2c-2.07-1.44-4-3.05-6.22-4.3q-60.17-34.77-120.39-69.44C156,304,143.36,297,130.8,289.94q2.38,6.57,4.76,13.15c-.5,5.33-.76,10.69-1.55,16-.75,5.06-1.58,10.11-2.44,15.15s-1.73,10.09-2.57,15.13l2.36-2.72c9.39,5.36,18.47,10.42,27.4,15.73,3.73,2.21,7.14,5,10.69,7.48,14.66-6,29.92-9.12,45.66-7.06A129.16,129.16,0,0,1,242,369.49c10.23,3.68,17.94,10.74,21.42,21.56,0,1.73-.08,3.46-.11,5.19a.58.58,0,0,1-.08.9l-.5,4.84.45,9.46a3.79,3.79,0,0,1,.21.75s-.26.12-.4.18l-2.85,7.81c2.27,0,5-.89,6.74.06,11,6,21.72,12.31,32.54,18.54,5.62,1.1,4.54,5.53,4.66,9.37,4.72-1.19,7.77,2.56,11.18,4.37,14,7.42,27.63,15.38,41.26,23.4,7.2,4.24,14,9.13,21.13,13.5,3.56,2.18,7.52,3.73,11.15,5.81A80.12,80.12,0,0,1,395.6,500h76.29l1.41-.85c2.81-1.79,5.57-3.69,8.46-5.36,8.47-4.9,17-9.67,25.49-14.57,5.23-3,10.33-6.26,15.57-9.27q13.54-7.81,27.21-15.44c5.28-2.94,10.7-5.63,16.06-8.43l8.1-4.08,3.13-3,12.19-6.17,4.12-3,2-1,2.09-2c2.1-1,4.26-1.82,6.28-2.92,8.79-4.81,17.53-9.69,26.29-14.55q1.59-2.5,3.16-5,.45-6.63.91-13.28c0-3.39,0-6.77,0-10.16Q633.92,375.25,633.47,369.62Z"/><path class="cls-35" d="M299.77,456c-5.68,4.56-7,4.73-11.21,1.52-9.89-5.43-19.68-11-29.71-16.2-4.54-2.33-6.71-5.36-5.89-10.41l-5.1-.23c-5.36,2.37-10.56,5.3-16.14,7-13.88,4.22-28.16,4.51-42.33,1.86-12-2.23-23.29-6.34-32.07-15.42-2.19-2.27-4.14-4.78-6.2-7.17-.06,1.21-.11,2.43-.16,3.64v10.23c0,1,0,2,0,3.06.67,1.36,1.34,2.73,2,4.09.37,1.36.73,2.71,1.09,4.06l8.22,8.12q.48,0,1,.06l3.12,3,1,0c9,2.51,17.91,6,27.11,7.32,17.88,2.58,35.42.91,51.71-8,1.67-.92,3.85-.89,6.82-1.52-1,6.63,2.95,8.92,6.78,11.18,8.59,5.06,17.18,10.11,25.87,15,7,4,9.74,3.52,15.35-1.84,3.68-3.52,3.92-10.47.71-14.8C300.75,459.25,300.4,457.53,299.77,456Z"/><path class="cls-35" d="M90,266.09a42.75,42.75,0,0,0-5.14-1.79l-6.2,4.39-2.11,1.95-5,5.14-.06,6.15q0,13.77,0,27.53c7.59,8.26,17.33,13.11,27.46,17.36l-2.16-14.37c-.84-5.57-2.51-11.2,1-16.5.37-1.28.38-2.86,1.16-3.79,5.47-6.52,4.28-13.46,1.59-20.55C97.06,269.76,93.59,267.83,90,266.09Z"/><path class="cls-36" d="M100.2,355.75l.75-8.51"/><path class="cls-36" d="M101.06,383.91l-.15-4"/><path class="cls-37" d="M99.77,336.28a5,5,0,0,0,.44.62,2.81,2.81,0,0,0-.12-.91C100,336.09,99.75,336.25,99.77,336.28Z"/><path class="cls-8" d="M100.57,271.61l-1.26-6.95-2-7c-2.77-5.81-2.68-11.77-1-17.81l-24-15a40,40,0,0,0-.73,4.83c-.15,5.18-.16,10.37-.23,15.56-.27,4.19.27,8.05,2.38,11.25a13.43,13.43,0,0,0,2.1,2.47,16.18,16.18,0,0,0,1.84,1.46h0l0,0,0,0h0l7.13,3.9A42.75,42.75,0,0,1,90,266.09C93.59,267.83,97.06,269.76,100.57,271.61Z"/><path class="cls-38" d="M71.56,275.78l-.06,6.15"/><path class="cls-38" d="M78.68,268.69l-2.11,1.95"/><path class="cls-12" d="M74.62,214.67l1.11-.71"/><path class="cls-8" d="M72.86,217.12l-.55.27.32.2.28-.15Z"/><path class="cls-23" d="M307.08,165.19c.14-3.1-1.17-5.06-4.23-5.79-8,4.34-16.14,8.51-24.06,13q-34,19.4-67.87,39c-3.81,2.19-7.51,4.6-11.4,6.67-2.8,1.49-5.82,2.59-8.75,3.87-4.2,2.76-8.36,5.59-12.61,8.26-3.29,2.06-6.71,3.92-10.07,5.87L163.17,240l-4.44,7.77,2.61,2.47a.52.52,0,0,0,.49.26l5.5.8,14.12-7.28,4.25-2.93,27.35-15.41,14.36-8.32,1.21-.75,78.41-45C307,169.5,307,167.34,307.08,165.19Z"/><path class="cls-16" d="M128.66,223.61l.42,4.57,8.45-2.73q2.49-5.59,5-11.18L167,200.35c12.59-7.32,25.16-14.68,37.78-21.95q36.36-20.94,72.77-41.79c1.16-.66,2.43-1.15,3.65-1.72l.54-2.88-4.27-2.44h-3.07c-.84.57-1.64,1.19-2.52,1.69q-38.17,21.9-76.36,43.77-33.34,19-66.76,38C131,216.57,130.62,220.1,128.66,223.61Z"/><path class="cls-9" d="M122.92,257c-1.38-4.63-2.27-9.41-3.38-14.12.23-2.32-.21-5,.83-6.9,2.38-4.32,5.49-8.24,8.29-12.33,2-3.51,2.32-7,.12-10.59-4-4.2-8.79-6.65-14.51-4-5.88,2.68-7.57,7.66-7.71,14.09-.09,4.65-2.31,9.26-3.61,13.89l.09.07-.76.73-4.92,19.86,2,7c3.68,2.74,7,7.12,11.09,7.9C120.51,274.5,125.92,267.05,122.92,257Z"/><path class="cls-5" d="M236.42,247.27h0l1.55.55c9.63-5.29,19.33-10.45,28.87-15.9,25.7-14.68,51.31-29.5,77-44.2a14.94,14.94,0,0,1,3.88-1c3.25-2.62,6.29-5.31,5.52-10.2-.08-.54,1.28-1.3,2-2-1-.28-2.24-1-3.07-.72-1,.35-1.51,1.85-2.49,2.42-13.47,7.75-27,15.42-40.5,23.13-17.19,9.82-34.32,19.74-51.57,29.44-7.18,4-14.62,7.6-21.95,11.38l.74,3.18Z"/><path class="cls-8" d="M185,249.8l-1.46,0c-.7-1.9-1.39-3.81-2.08-5.71l-14.12,7.28c0,.77,0,1.55,0,2.32l.24.12.18-.21,11.2,4.92h6.81c0-.63,0-1.26,0-1.89.07-2,0-4.21,3-2.16l2.57-1.47c-2.82-2.87-5.15-5.88-2.56-11.1,4.19,2.26,8.46,4.38,12.57,6.79,11.18,6.58,11.13,6.61,22.14-.27a85.44,85.44,0,0,1,8.81-5c1.1-.52,2.68,0,4.05,0l-.74-3.18c-6.27-3.56-12.59-7-18.79-10.72-1.48-.89-2.53-2.5-3.79-3.77L185.7,241.12C185.46,244,185.23,246.91,185,249.8Z"/><path class="cls-16" d="M302.85,159.4c3.06.73,4.37,2.69,4.23,5.79-.11,2.15,0,4.31-.05,6.46l21.4-11.38-.3-1.58L307,147.09l.25.4C307.48,152.09,306.32,156.17,302.85,159.4Z"/><path class="cls-28" d="M265.08,209a28.67,28.67,0,0,1,3.85-3.17c7.18-4.09,14.44-8,21.61-12.11a10.6,10.6,0,0,0,2.26-2.48v-1.08c-6.26,3.32-12.61,6.47-18.77,10-12.5,7.11-24.91,14.38-37.31,21.67a17.51,17.51,0,0,0-3.07,3h0c4.83-2.3,9.68-4.55,14.46-6.93,3.47-1.73,6.83-3.7,10.3-5.44a3.91,3.91,0,0,1,3.3.11l-12.83,9.14,3,.05,29.7-16.52-1.05-1.84-14.62,6.91C265.64,209.87,265.36,209.43,265.08,209Z"/><path class="cls-33" d="M233.64,224.81a17.51,17.51,0,0,1,3.07-3c12.4-7.29,24.81-14.56,37.31-21.67,6.16-3.5,12.51-6.65,18.77-10l-.61-2.72c-8.16,2.71-65,35.87-66.65,39.27l1.4-.24,2.48-.43,1.17-.21Z"/><polygon class="cls-33" points="233.64 224.81 233.64 224.81 233.64 224.81 233.64 224.81"/><path class="cls-33" d="M258.39,212.45c-3.47,1.74-6.83,3.71-10.3,5.44-4.78,2.38-9.63,4.63-14.46,6.93l-3.08,3,4,2.08,5.16-4,1.18,2.09-5.14,2c-.17,2.09.73,3.7,2.85,2.75,3.87-1.74,7.5-4,11.23-6.06l-.36-1.14-2.63-.74-3.46-.26,2.46-1.7,3-1.11,12.83-9.14A3.91,3.91,0,0,0,258.39,212.45Z"/><path class="cls-33" d="M288.65,198.92l8.27-6.81-4.12-.88a10.6,10.6,0,0,1-2.26,2.48c-7.17,4.09-14.43,8-21.61,12.11a28.67,28.67,0,0,0-3.85,3.17c.28.44.56.88.85,1.31l14.62-6.91,3.94-3.06L287.3,205c4.38-3.07,10.1-3.39,12.63-8.73l-10.64,3.45C289.07,199.43,288.86,199.17,288.65,198.92Z"/><path class="cls-33" d="M307.45,180.85l5.94,3.65c.2-1.87.32-2.93.44-4.08l6.28,3,2.91-3.07c.48-.52.93-1,1.38-1.46h0l.19-.35-.18.36c.14.21.27.41.4.57a2.88,2.88,0,0,0,1.06.94,1.19,1.19,0,0,0,.63.1,1.5,1.5,0,0,0,.58-.23,3.59,3.59,0,0,0,.56-.44,20.71,20.71,0,0,1,1.78-1.71l-5.31-6.93Z"/><path class="cls-33" d="M256.66,222.73c4.29-2.42,8.62-4.75,12.87-7.25,4.72-2.78,9.36-5.7,14.58-8.9l-2.51-1.35-29.7,16.52C252.91,224.92,254.78,223.79,256.66,222.73Z"/><path class="cls-3" d="M96.41,239.81c-1.73,6-1.82,12,1,17.81l4.92-19.86Z"/><path class="cls-28" d="M296.92,142.72a89.18,89.18,0,0,1,8.09,5.55l2.2-.78-.25-.4c-.45-.66-.74-1.6-1.37-2-7.91-4.43-15.88-8.77-23.83-13.13l-.54,2.88C286.46,137.48,291.78,139.93,296.92,142.72Z"/><path class="cls-10" d="M503,244c-1.14-1.64-2.3-3.26-3.45-4.9-2.16,2.91-1.89,5.8-.2,8.85a20.49,20.49,0,0,1,1.3,4.06l1.25.69C505.32,250.16,505.22,247.2,503,244Z"/><path class="cls-28" d="M288.65,198.92c.21.25.42.51.64.76l10.64-3.45c-1-1.38-2-2.75-3-4.12Z"/><path class="cls-28" d="M239.76,225.83l-5.16,4,1.2.08,5.14-2Z"/><path class="cls-28" d="M233.64,224.81h0l-3.06,1h0l0,2,3.08-3Z"/><path class="cls-28" d="M274.42,129.57h3.07Q276,126.39,274.42,129.57Z"/><path class="cls-28" d="M246.89,224.77c-.33-.65-.66-1.31-1-2l-2.46,1.7Z"/><path class="cls-14" d="M466.06,213.71l-3.18-1.85"/><path class="cls-39" d="M494.46,252.76l2.23-.51"/><path class="cls-14" d="M469.18,215.48l-2.41-1.35"/><path class="cls-14" d="M475.16,218.94l-2-1.16"/><path class="cls-12" d="M227.41,217.39l1.21-.75"/><path class="cls-14" d="M478.37,220.73l-1.28-.7"/><path class="cls-14" d="M482.24,223.05l-1.28-.71"/><path class="cls-14" d="M487.38,226l-1.24-.66"/><path class="cls-14" d="M490.59,227.83l-1.16-.7"/><polygon class="cls-3" points="102.94 236.95 102.91 237.07 103.04 237.03 102.95 236.96 102.94 236.95"/><path class="cls-22" d="M414,388.25c-.15-1.05-.27-2.1-.39-3.15l-.18-1.58c-.11-1-.23-2.11-.38-3.16-3.35,1.56-6.9,2.81-10,4.75-2.86,1.78-5.08,1.67-7.92,0-32.76-18.88-65.59-37.62-98.36-56.49-5.53-3.18-10.85-6.75-16.26-10.14-4-2-8.19-3.74-12.11-5.94-12.34-6.91-24.6-14-36.87-21a12.85,12.85,0,0,1-1.91-1.64l-17.55-10.47c-3.14-1.58-6.36-3-9.39-4.77-2.85-1.66-5.67-3.36-8.49-5.08s-5.62-3.44-8.44-5.15l-18-10.91-.18.21-.24-.12-5.51-3.12a.52.52,0,0,1-.49-.26L158,248.71c-5.18,6.77-12.42,9.5-20.56,10.48-1.8.21-3.54.58-2.41,3.12l.8,1.26v-.07c2.33.87,4.82,1.45,7,2.68,19.23,11.09,38.37,22.36,57.6,33.46Q251.88,329.39,303.5,359q25.59,14.7,51.23,29.29l6.36,3.8,5.92,3.29,1.23.79a4,4,0,0,0,.75.28l2.42,1.57,2.68,1.5,2.43,1.56.05.08,1,.72,5.68,2.82,4.39,2.67a3.54,3.54,0,0,0,.76.3l4.35,2.75,2.72,1.43,2.45,1.5c.9.49,1.8,1,2.71,1.46l6.4,3.76,5.88,3.31,4.39,2.68,5.66,2.77,7.51.21-3.77-4-1.06-1.31-1.29-1.6-1.76-2.4-3.3-6.81a7.31,7.31,0,0,1-.48-.62s.19-.21.29-.31c-.17-2.84-.34-5.67-.52-8.51-1.27-3-3-5.91-3.71-9A45.48,45.48,0,0,1,414,388.25Z"/><path class="cls-3" d="M137.4,259.19c8.14-1,15.38-3.71,20.56-10.48l.77-.91,4.44-7.77-1.47-1.8-10.51,6.32c-2.35,1.07-4.65,2.87-7.08,3.07-6.54.55-13.19.67-18.94-3.5l-.27,0-.15-.23-2.19-1-3,0c1.11,4.71,2,9.49,3.38,14.12,3,10.09-2.41,17.54-12.52,15.6-4.05-.78-7.41-5.16-11.09-7.9l1.26,6.95c2.69,7.09,3.88,14-1.59,20.55-.78.93-.79,2.51-1.16,3.79,7.61,6.35,16.94,7.89,26.27,9.58a14,14,0,0,0,11.47-2.44q-2.38-6.57-4.76-13.15c-.83-1.64-1.68-3.27-2.5-4.92-2.13-4.34-2.45-8.15,2.4-11.18,3.65-2.29,5-6.07,5.09-10.27l-.8-1.26C133.86,259.77,135.6,259.4,137.4,259.19Z"/><path class="cls-3" d="M135.79,263.57v0Z"/><path class="cls-33" d="M433.47,429.7l-3-2.16-7.51-.21Z"/><path class="cls-20" d="M407,418.57l-6.4-3.76"/><path class="cls-20" d="M354.73,388.29l6.36,3.8"/><path class="cls-20" d="M387.62,407.37l-4.39-2.67"/><path class="cls-20" d="M392.73,410.42l-4.35-2.75"/><path class="cls-20" d="M417.28,424.56l-4.39-2.68"/><path class="cls-20" d="M371.41,398,369,396.45"/><path class="cls-20" d="M376.52,401.08l-2.43-1.56"/><path class="cls-20" d="M397.9,413.35l-2.45-1.5"/><path class="cls-20" d="M368.24,396.17l-1.23-.79"/><path class="cls-20" d="M377.55,401.88l-1-.72"/><path class="cls-19" d="M249.73,396.87a18,18,0,0,0-.91-2.4,18.76,18.76,0,0,0-1.18-2.16c-2.4-3.77-6-6.47-10.12-8.59-14.87-7.72-30.56-9-46.76-5.12.86,1.37,1.71,2.75,3.27,5.27l-24.42,5.2-5.6,6c-.68,8.3,4.91,12.63,10.82,16.45,17.58,11.39,48.77,10.8,66-1.11,3.86-2.66,7.16-5.83,8.7-10.29a17.21,17.21,0,0,0,.55-2C250,397.71,249.86,397.28,249.73,396.87Z"/><path class="cls-4" d="M234.36,375.1c-11.09-5.21-22.86-6.23-34.8-5.3-10.83.84-21.09,4-29.4,11.35-4,3.49-7.62,7.76-6.15,14l5.6-6c5.7-6.22,13.08-9.05,21.15-10.47,16.2-3.9,31.89-2.6,46.76,5.12,4.09,2.12,7.72,4.82,10.12,8.59a18.76,18.76,0,0,1,1.18,2.16,18,18,0,0,1,.91,2.4c.13.41.24.84.35,1.28.11-1.79.59-3.64.28-5.35C248.72,383.62,242.2,378.78,234.36,375.1Z"/><path class="cls-23" d="M259.55,420.61l-7.63-4c-6.72,5.44-7.1,6.9-4.06,14.09l5.1.23Z"/><path class="cls-36" d="M150.11,411.91v1.69"/><path class="cls-28" d="M452.23,423.5,464,416l-3.41-.65-.44-.05-.09-.43a.67.67,0,0,1-.36-.49L459,414l-1.37-.37-8,.21Q450.93,418.68,452.23,423.5Z"/><path class="cls-10" d="M453.49,404.47l-7.05,1.13-2.12,4,5.32,4.3,8-.21,0-2.66C455.81,409.1,451.81,408.59,453.49,404.47Z"/><path class="cls-20" d="M424.33,420.6l-1.76-2.4"/><path class="cls-33" d="M418.79,410.77a7.31,7.31,0,0,0,.48.62c0-.11.1-.24.07-.34a5.05,5.05,0,0,0-.26-.59C419,410.56,418.77,410.73,418.79,410.77Z"/><path class="cls-20" d="M425.62,422.2l1.06,1.31"/><path class="cls-17" d="M459.74,414.36,459,414"/><polygon class="cls-19" points="460.63 415.33 460.5 414.91 460.1 414.85 460.19 415.28 460.63 415.33"/><path class="cls-16" d="M566.77,187c2.43-4.92,4.85-9.84,7.55-15.32l-5.66-9.42L551,175.72l4.57,3.6-6,4.83.24,1.84,4,.1c.15-1.13.31-2.25.48-3.53Z"/><path class="cls-33" d="M566.77,187l-12.43-4.43c-.17,1.28-.33,2.4-.48,3.53l15.21,8.22.18-4.17Z"/><path class="cls-15" d="M558.19,208.59,562,206.8l-.05-1.4L555,202.27C554.94,204.94,554.13,208,558.19,208.59Z"/><path class="cls-15" d="M552.72,205.44a9.81,9.81,0,0,0,.48,1.92,17.51,17.51,0,0,0,.8,1.85c.41.81.88,1.61,1.34,2.41l2.85-3c-4.06-.6-3.25-3.65-3.19-6.32l-1.73-1a7.88,7.88,0,0,0-.63,2.81A8.21,8.21,0,0,0,552.72,205.44Z"/><path class="cls-22" d="M354,194.36a6.71,6.71,0,0,1-5.48,1.54l0,0v3.59l-2.7-2.2-2,1.06-1.46.89-.31-.08-.26.18c-2.14,3.82-5.6,5.47-9.78,5.92l-3.58,1.87-2.27,1.28,2.27-1.28-2.27,1.28-3.75,2.13-4.75,2.82-6.51,3.54-1.24.73-1.83,1-2,1.19-2,1.08c-1.67,6.19-6.73,6.54-11.8,6.86l-.28-.06-.14.15,0,0,0,0q-1,2.58-2,5.15l3.31,2a2.59,2.59,0,0,1,.63.47l2.62,1,5.38.31-2.8-3.65c4.35-3.1,8.62-6.32,13.07-9.27,1.68-1.11,3.41-2.13,5.16-3.13s3.52-2,5.26-3c0-.1.05-.21.07-.31l.15-.62a4.71,4.71,0,0,1,.27-.85,1.2,1.2,0,0,1,.85-.79,1.35,1.35,0,0,1,.56,0,4.15,4.15,0,0,1,1.17.54c6.42-3.54,12.85-7.06,19.25-10.63,3.35-1.86,6.55-4,10-5.66,1.72-.84,4.12-2.55,5.37.88,0,.63.07,1.26.11,1.9l2.05,1.24,2.25,3c-2.23,5-6.82,6.09-11.48,7.12l-1,5,2,0,1.22-2.13c.4,1.28.58,1.85.75,2.41l2.09,3.94,2.26.93-1.29.68-.84.43L354,227.35c-2.74,1.68-5.48,3.37-8.24,5q-2.07,1.23-4.17,2.43c-3.57,2-7.39,3.62-11.09,5.41l-2.06,1.94-6.12,4c1,2.43,2,4.85,3.05,7.28l2.54,1.15,2.59,1.86,2.87,1.39,8.51-3.38,10-5.3,2.25-1.82L389.08,228c1.91-1.06,3.78-2.16,5.68-3.24l4.26-2.93,2.89-1.11,4.33-2.92,2.89-1-4.19-8.09-6.65-3.45-2.51-1.74a.94.94,0,0,0-.68-.25l-4.42-2.8q-2.62-1.61-5.26-3.2a2,2,0,0,1-.72-.46l-5-2.31-1.92,3.34-3.44-6.69-4.83-2.55-8.92.35-1.64.55-.92.65-2,1.2h0A8.07,8.07,0,0,1,354,194.36Z"/><path class="cls-6" d="M301.35,249.39c-6.06-3.62-12.1-7.27-18.15-10.9a8.3,8.3,0,0,0-8.55.5c-13.87,8.18-27.91,16.08-41.85,24.14a12.36,12.36,0,0,0-2.34,2.39c14.53,8.31,29,16.81,43.63,24.84,4.78,2.61,4.62,6.47,4.62,10.69,6.18-3.26,12.4-6.46,18.55-9.77,8.58-4.62,17.11-9.32,25.66-14l5.17-3.85.09-8.06Q314.77,257.39,301.35,249.39Zm-33.22,20.48a6.52,6.52,0,0,1-3.45.55c-3.07-.18-7-.54-6.65-4.33.18-1.92,3.9-3.52,6-5.27l.86.86c1.15.23,2.57.1,3.38.75a30.58,30.58,0,0,1,3.77,4.16A28.17,28.17,0,0,1,268.13,269.87Zm11.2,17.89v-13.3h10c-1.21-5.11-2.28-9.6-3.33-14,10.78-5.78,25.67-3.93,33.25,4.5Z"/><path class="cls-23" d="M266.84,231.92c-9.54,5.45-19.24,10.61-28.87,15.9l-2.3,1.64L212.15,263.4,191.36,253l-2.57,1.47-3,2.16c0,.63,0,1.26,0,1.89l0,6c2.82,1.71,5.63,3.44,8.44,5.15s5.64,3.42,8.49,5.08c3,1.76,6.25,3.19,9.39,4.77,2.63-1.91,5.17-4,7.92-5.69,1.48-.93,3-1.77,4.56-2.59s3.1-1.61,4.63-2.44l1.29-3.23a12.36,12.36,0,0,1,2.34-2.39c13.94-8.06,28-16,41.85-24.14a8.3,8.3,0,0,1,8.55-.5q1.71-3.19,3.4-6.41l5.16-4.26,0,0,0,0,.14-.15.28.06,11.8-6.86,2-1.08,2-1.19,1.83-1,1.24-.73-1.24.73,1.24-.73,6.51-3.54,4.75-2.82,3.75-2.13,2.27-1.28,3.58-1.87,9.78-5.92.26-.18.31.08,1.46-.89,2-1.06,2.7-1.39,0,0,3.66-3.37-4.48-5.82a14.94,14.94,0,0,0-3.88,1C318.15,202.42,292.54,217.24,266.84,231.92Z"/><path class="cls-23" d="M399.71,231c-20.3,11.45-40.55,23-60.85,34.42a21,21,0,0,1-4.28,1.37l-6.4-1.44-.09,8.06c6.76,3.33,11.65,10.31,21.56,4.08,21.29-13.38,43.67-25,65.59-37.42,6.9-3.9,7-4.23,5.51-12.6l-3.37-2-3.45-2h0l-3.57,1.87C406.79,227.21,403.21,229.05,399.71,231Z"/><path class="cls-23" d="M278.71,301.05c-5.95-3-12-5.88-17.82-9.07-8.71-4.74-17.3-9.71-25.94-14.58-5,2.81-6.32,7.19-5.34,12.54a12.85,12.85,0,0,0,1.91,1.64c12.27,7,24.53,14.08,36.87,21,3.92,2.2,8.07,4,12.11,5.94,1.55-1.39,2.91-3.08,4.67-4.11,13.11-7.68,26.32-15.19,39.44-22.86,2.79-1.63,4.08-7.18,2.36-9.78a37,37,0,0,0-4.05-4.47c-8.55,4.67-17.08,9.37-25.66,14C291.11,294.59,284.89,297.79,278.71,301.05Z"/><path class="cls-40" d="M451.34,279.45c-2.54-1.48-4.37-1.6-6.93-.07-8.15,4.88-16.47,9.45-24.71,14.17-3.56,2.05-7.07,4.19-11.16,6.62,1.73,1.27,2.59,2,3.57,2.6,8.93,5.2,18.16,10,26.73,15.7,6.38,4.27,11.43,4.26,17.94.07,4.75-3.06,9.7-5.83,14.7-8.51s10-5.28,15-8h0c.35-1,.7-2,1-3-2-.86-4.13-1.56-6.05-2.61C471.4,290.81,461.3,285.25,451.34,279.45Zm-23.23,21.72c3.54-4.61,7.84-4.69,12.13,0C436.44,306.79,431.15,306.67,428.11,301.17Zm18.5,18.18V308.68h7.94c-1-4.34-1.8-8.15-2.62-11.89,11.14-5,19.17-4.09,27.56,3.58Z"/><path class="cls-40" d="M429,267.61c-6.5-6-7.35-6.19-13.52-2.67q-43.72,25-87.42,50c-6.4,3.67-12.7,7.51-19.09,11.3,4.4,5.92,7.17,6.51,12.7,3.33q47.63-27.36,95.27-54.69C420.89,272.59,424.73,270.2,429,267.61Z"/><path class="cls-5" d="M406.24,217.82l-4.33,2.92,4.33-2.92-4.33,2.92L399,221.85l-4.26,2.93c-1.9,1.08-3.77,2.18-5.68,3.24l-34.91,19.34-2.25,1.82-10,5.3-7.47,4.36.15,8a21,21,0,0,0,4.28-1.37c20.3-11.44,40.55-23,60.85-34.42,3.5-2,7.08-3.82,10.65-5.68l3.57-1.87q-.06-4-.11-8.08l-4.69,1.39Z"/><path class="cls-3" d="M408.56,333.83h0c-.7.28-1.43.52-2.14.79a12.83,12.83,0,0,0-2.07.93q-17.19,9.85-34.31,19.82c-2.12,1.23-4.18,2.54-7,4.24l9.37,5.29c3.52-1.93,6.67-3.56,9.73-5.36q17.31-10.12,34.55-20.34l-8.16-5.37Z"/><path class="cls-40" d="M403.1,289.61q-29.19,16.65-58.35,33.32c-6.86,3.94-13.62,8.07-21.27,12.61l4.84,3.32L411.64,291C408.59,286.69,405.83,288.05,403.1,289.61Z"/><path class="cls-11" d="M359.63,345.16c-3.32,1.83-6.55,3.82-10.89,6.37L359,357.22l33.61-19.7L384,331.85C375.9,336.28,367.74,340.68,359.63,345.16Z"/><path class="cls-28" d="M370.85,334.41c9-5,18-10.2,27-15.39a36.86,36.86,0,0,0,3.79-3.09c-4.86-1.41-7.55-6.23-12.39-3.57-9.66,5.32-19.16,10.91-28.69,16.46-.66.38-1,1.31-1.48,2l7.08,4.33C367.71,334.91,369.54,335.13,370.85,334.41Z"/><path class="cls-40" d="M366.12,335.13,359,330.8c-4.65,2.24-9.34,4.38-13.91,6.77-3,1.59-5.86,3.55-9.4,5.73,3.83,2.76,6.5,6.79,10.65,4.9,6.41-2.93,12.37-6.86,18.44-10.5C365.52,337.28,365.7,336,366.12,335.13Z"/><path class="cls-28" d="M403.91,320c-6.76,3.7-13.27,7.9-19.87,11.89l8.59,5.67,22-12.26C410.08,320.53,406.54,318.53,403.91,320Z"/><path class="cls-9" d="M441.59,339.51c.64-6.19-1.33-8.5-7.41-8.59-2,0-4,.12-6,.19l-2.94,4.69c.15,1.88.3,3.77.44,5.65l4.19,1.59C432.61,338,438,341.61,441.59,339.51Z"/><path class="cls-10" d="M440.58,351.37l1.07-1.09-.06-10.77c-3.63,2.1-9-1.52-11.74,3.53l-4.19-1.59c-1.85,2.18-.48,3.48,1.15,4.95a34.61,34.61,0,0,1,3.36,4C433.57,351.55,436.91,353.34,440.58,351.37Z"/><path class="cls-28" d="M422.27,328.43c-1.47-.5-3.47-1.16-4.62-.57a95.4,95.4,0,0,0-9.09,6h0l8.16,5.37,8.5-3.4,2.94-4.69A60.93,60.93,0,0,0,422.27,328.43Z"/><path class="cls-33" d="M478.41,260.53l-.05,0-1-1-4.27-4,.32-1.16-1.29-2-.89-.7c-2.77.17-5.56.19-8.3.6-.74.11-1.29,1.41-1.93,2.17h0l1.42,2c.44,1,.87,1.95,1.31,2.92l6.1,4.09ZM465.65,255l7.38.51,0-.07.06.07H473c-.32.84-.64,1.71-1.29,3.42l-6.47-2C465.4,256.29,465.52,255.65,465.65,255Z"/><path class="cls-11" d="M430.58,357.4a4.59,4.59,0,0,0,1,.47,6,6,0,0,0,1.13.25,16.55,16.55,0,0,0,3.65-.07c3.88-.37,4.54-3.35,4.19-6.68-3.67,2-7,.18-10.41-.93l-1.72,3.66h0A5,5,0,0,0,430.58,357.4Z"/><path class="cls-10" d="M469.87,263.46l-6.1-4.09c-.35,4.2.66,7.8,4.52,10.12l2.93-2.2-.12-1.2Z"/><path class="cls-28" d="M413.82,215.4c-1.56-4.09-5.24-5.36-8.88-6.7l4.19,8.09Z"/><path class="cls-23" d="M463,252.23c2.74-.41,5.53-.43,8.3-.6-2.61-3.34-8.55-3.29-13.37.42L461,254.4C461.67,253.64,462.22,252.34,463,252.23Z"/><path class="cls-23" d="M469.87,263.46l1.23,2.63,9.16-.39,2-3.71-3.86-1.46Z"/><path class="cls-28" d="M360.63,188.94l8.92-.35C365.58,185.16,364.64,185.19,360.63,188.94Z"/><path class="cls-28" d="M379.74,194.49l-5.36-3.35,3.44,6.69Z"/><path class="cls-28" d="M354,194.36a8.07,8.07,0,0,0,2-3h0l-3.83,1.19-3.66,3.37A6.71,6.71,0,0,0,354,194.36Z"/><path class="cls-32" d="M390.68,200.46l4.42,2.8"/><path class="cls-32" d="M398.29,205.25l-2.51-1.74"/><path class="cls-14" d="M472.15,252.33l1.29,2"/><path class="cls-14" d="M462.46,256.45l-1.42-2"/><path class="cls-14" d="M484.57,262.48l.87-1.7"/><path class="cls-32" d="M358.07,190.14l.92-.65"/><path class="cls-28" d="M384.7,196.8a2,2,0,0,0,.72.46A.54.54,0,0,0,384.7,196.8Z"/><path class="cls-14" d="M477.39,259.53l1,1"/><path class="cls-23" d="M483.53,262.59h.91A1.57,1.57,0,0,0,483.53,262.59Z"/><path class="cls-16" d="M471.22,267.29l8.71,8.71c3.56-6.14,3.55-6.82.33-10.3l-9.16.39Z"/><path class="cls-28" d="M498.92,345.72l4.55-1.78q-.37-7.85-.76-15.69l-2.22,0C495.71,333.67,497.33,339.7,498.92,345.72Z"/><path class="cls-28" d="M467.75,394.2h0c-3.5-2.07-7.15-3.95-10.5-6.22-4.29-2.91-8.08-6.45-10.36-11.86l-1.14.69q-.39,8.26-.77,16.53l16.25,4.21Z"/><path class="cls-7" d="M461.23,397.55,445,393.34l-6.54,6.44,8,5.82,7.05-1.13C456.93,403.12,461,402.52,461.23,397.55Z"/><path class="cls-16" d="M498.92,345.72l-.09,27.78,9.14-2.37-4.5-27.19Z"/><path class="cls-22" d="M500,379.12l3.84-1.19,5.25-2.58c-.39-1.48-.74-2.85-1.09-4.22l-9.14,2.37Z"/><path class="cls-28" d="M482.06,402.06c-.49,3.44-2.82,4.69-6.18,4.66v.3l0-.29-2.35,0c-5.15.35-7.08-1.32-6.24-5.39L466,400l-7,5.4-.24,2.09,15.83,5.92,15-12.44c0-.89,0-1.78,0-2.67l-9-2.5-2.17-.65,2.17.65-2.17-.65-1.73-.33h-3.83l-1.64,1.31,1,2.09C475.87,398.42,479.72,397.94,482.06,402.06Z"/><path class="cls-33" d="M467.25,401.37a1,1,0,0,1,.66.25l4.35-3.37-1-2.09L466,400Z"/><path class="cls-5" d="M491.41,399.48l-1.8-1.15c0,.89,0,1.78,0,2.67Z"/><path class="cls-20" d="M472.92,394.85h3.83"/><path class="cls-21" d="M459,405.43l-.24,2.09"/><path class="cls-21" d="M480.65,395.83l-2.17-.65"/><path class="cls-36" d="M122.68,386l.72-3.11"/><path class="cls-41" d="M127.11,358.57l.48-2.19"/><path class="cls-41" d="M125.82,364.55l.72-2.07"/><path class="cls-36" d="M124.51,374.73l.91-1.44"/><path class="cls-5" d="M229.82,192c-13.08,7.45-26.3,14.68-39.45,22l.4,8c2.93-1.28,5.95-2.38,8.75-3.87,3.89-2.07,7.59-4.48,11.4-6.67q33.92-19.55,67.87-39c7.92-4.52,16-8.69,24.06-13,3.47-3.23,4.63-7.31,4.36-11.91l-2.2.78c-7.68,4.56-15.31,9.17-23,13.65C264.62,172,247.26,182.07,229.82,192Z"/><path class="cls-42" d="M168.09,236.11c3.36-2,6.78-3.81,10.07-5.87,4.25-2.67,8.41-5.5,12.61-8.26l-.4-8L167,200.35l-24.5,13.92c7.55,5,15.1,10.09,22.83,15.24Z"/><path class="cls-11" d="M165.35,229.51c-7.73-5.15-15.28-10.2-22.83-15.24q-2.49,5.59-5,11.18l1.15,1.1c2.49-1.08,5-2.94,7.44.06,4.86,2.61,9.79,5.1,14.52,7.93.8.48.73,2.42,1.06,3.69l1.47,1.8,4.92-3.92Z"/><path class="cls-16" d="M183.53,249.76l1.46,0c.24-2.89.47-5.79.71-8.68l-4.25,2.93C182.14,246,182.83,247.86,183.53,249.76Z"/><path class="cls-16" d="M161.83,250.53l5.51,3.12c0-.77,0-1.55,0-2.32Z"/><path class="cls-16" d="M158,248.71l3.38,1.56-2.61-2.47Z"/><path class="cls-26" d="M229.82,192c17.44-9.93,34.8-20,52.16-30.08,7.72-4.48,15.35-9.09,23-13.65a89.18,89.18,0,0,0-8.09-5.55c-5.14-2.79-10.46-5.24-15.7-7.83-1.22.57-2.49,1.06-3.65,1.72q-36.4,20.88-72.77,41.79C192.18,185.67,179.61,193,167,200.35L190.37,214C203.52,206.68,216.74,199.45,229.82,192ZM278,144.71l6,6.59-3.28,3-6-2.39,2.66,4.66-3.84.7-1.16.21,0,0-.07,0-1.67,2.71L269.46,159l2.88-1.46,0-.06h0L268.19,153c-.3,2.18-.48,3.46-.79,5.63l-6.32-4Zm-88.26,58.53c-2-.06-4.44,1.23-5.16-2.32-.14-.65-2.92-.75-4.77-1.79,21.32-13.82,43.78-25.57,66-39,.48,1.54.79,2.53,1.09,3.52l0,1.1,3.1,3,1,1.9,3.54.68c-4.67,3.87-8.6,6.84-13.85,7.62l-1.93-3.17-1.37.68-2.76,1.37h0c0,.69,0,1.38,0,2.06l4.05,1.1c-3.53,2.21-6,3.83-8.52,5.32-6.12,3.6-12.23,7.23-18.45,10.64-1.84,1-4.27,3.12-5.72-.69l-1-1.1-8.11,4.19,1.07,1,5-.84.79,1.76L191,207.87l-1.16-3.41C189.78,204.05,189.76,203.65,189.73,203.24Z"/><path class="cls-3" d="M122.81,237.46l2.27.72,7.07-4.77,6.53-6.86-1.15-1.1-8.45,2.73a46.57,46.57,0,0,1-2.55,4.91A48.47,48.47,0,0,1,122.81,237.46Z"/><path class="cls-11" d="M122.81,237.46a48.47,48.47,0,0,0,3.72-4.37,46.57,46.57,0,0,0,2.55-4.91l-.42-4.57c-2.8,4.09-5.91,8-8.29,12.33-1,1.88-.6,4.58-.83,6.9l3,0,2.52-4.71Z"/><path class="cls-43" d="M235.67,249.46l.75-2.19,0-3.89c-1.37,0-3-.55-4.05,0a85.44,85.44,0,0,0-8.81,5c-11,6.88-11,6.85-22.14.27-4.11-2.41-8.38-4.53-12.57-6.79-2.59,5.22-.26,8.23,2.56,11.1l20.79,10.44Z"/><path class="cls-8" d="M238,247.82l-1.55-.55h0l-.75,2.19Z"/><path class="cls-16" d="M179,258.48l-11.2-4.92,18,10.91,0-6Z"/><path class="cls-16" d="M185.78,256.59l3-2.16C185.81,252.38,185.85,254.56,185.78,256.59Z"/><path class="cls-26" d="M324.59,178.57l-.19.35h0Z"/><path class="cls-16" d="M235,277.4c-1.72-1.46-3.79-2.68-4.94-4.51a5.91,5.91,0,0,1-.84-4.14c-1.53.83-3.09,1.63-4.63,2.44s-3.08,1.66-4.56,2.59c-2.75,1.72-5.29,3.78-7.92,5.69l17.55,10.47C228.63,284.59,230,280.21,235,277.4Z"/><path class="cls-12" d="M135,262.31l.8,1.26"/><path class="cls-12" d="M135.79,263.57h0"/><path class="cls-28" d="M132.15,233.41l-7.07,4.77-2.52,4.71,2.19,1,.32-.15.1.34c5.75,4.17,12.4,4,18.94,3.5,2.43-.2,4.73-2,7.08-3.07a.55.55,0,0,1-.62-.28Z"/><path class="cls-23" d="M160.64,234.54c-4.73-2.83-9.66-5.32-14.52-7.93L142.49,229c-1.46,7.25-1,8.33,4.9,12.15a21.42,21.42,0,0,1,3.18,3.14.55.55,0,0,0,.62.28l10.51-6.32C161.37,237,161.44,235,160.64,234.54Z"/><polygon class="cls-11" points="124.75 243.93 124.9 244.16 125.17 244.12 125.07 243.78 124.75 243.93"/><path class="cls-40" d="M190.76,378.6c-8.07,1.42-15.45,4.25-21.15,10.47l24.42-5.2C192.47,381.35,191.62,380,190.76,378.6Z"/><path class="cls-28" d="M322.34,246.18l-8.66-5.29L352,218.61l1-5c2.29-4.85,6.66-6.35,11.48-7.12l-2.25-3c-8.56,4.94-17.12,9.9-25.71,14.8a8.55,8.55,0,0,1-2.4.41c.21-1.23.37-2.1.52-3h0c-5.58,2.7-11.21,5.3-16.72,8.13-4.66,2.4-9.13,5.17-13.77,7.6a31.76,31.76,0,0,1-5.24,1.7l2.8,3.65-5.38-.31,29.1,17.05C324.38,251,323.36,248.61,322.34,246.18Zm26.24-32,1.28,2.21-26.17,14.87-1.17-2.05Zm-45.1,20.3,26.72-15.19,1,1.74q-13.11,8.25-26.89,15.28Zm16.69-1-11.86,6.13C310.69,234.68,316.76,231.76,320.17,233.48Z"/><path class="cls-16" d="M328.18,265.38l6.4,1.44-.15-8-1-1-2.87-1.39-2.59-1.86-2.54-1.15-29.1-17.05-2.62-1A.47.47,0,0,1,293,235l-3.31-2-3.13-.89q-1.69,3.21-3.4,6.41c6.05,3.63,12.09,7.28,18.15,10.9Q314.76,257.4,328.18,265.38Z"/><path class="cls-33" d="M322.34,246.18l6.12-4c.29-1.06-.56-3.34,2.06-1.94,3.7-1.79,7.52-3.39,11.09-5.41q2.1-1.2,4.17-2.43c2.76-1.64,5.5-3.33,8.24-5l4.12-2.52c0-.68-.09-1.36-.13-2l-2.09-3.94-2-.28-2,0-38.27,22.28Z"/><path class="cls-33" d="M317.88,223.77c5.51-2.83,11.14-5.43,16.72-8.13.54-.79.91-1.9,1.66-2.32,7.89-4.42,15.85-8.72,23.78-13.06-1.25-3.43-3.65-1.72-5.37-.88-3.44,1.66-6.64,3.8-10,5.66-6.4,3.57-12.83,7.09-19.25,10.63l-3.07,2c-1.74,1-3.51,2-5.26,3s-3.48,2-5.16,3.13c-4.45,2.95-8.72,6.17-13.07,9.27a31.76,31.76,0,0,0,5.24-1.7C308.75,228.94,313.22,226.17,317.88,223.77Z"/><path class="cls-33" d="M336.91,214.84c-.76.27-1.54.51-2.3.8-.15.87-.31,1.74-.52,3a8.55,8.55,0,0,0,2.4-.41c8.59-4.9,17.15-9.86,25.71-14.8l-2.05-1.24c-7,3.91-14,7.87-21,11.72A14.81,14.81,0,0,1,336.91,214.84Z"/><path class="cls-33" d="M334.59,215.65Z"/><path class="cls-28" d="M334.6,215.64h0c.76-.29,1.54-.53,2.3-.8a14.81,14.81,0,0,0,2.24-1c7-3.85,14-7.81,21-11.72,0-.64-.07-1.27-.11-1.9-7.93,4.34-15.89,8.64-23.78,13.06C335.51,213.74,335.14,214.85,334.6,215.64Z"/><path class="cls-33" d="M353,213.57c4.66-1,9.25-2.17,11.48-7.12C359.63,207.22,355.26,208.72,353,213.57Z"/><path class="cls-28" d="M304,220.82l-11.8,6.86C297.3,227.36,302.36,227,304,220.82Z"/><path class="cls-28" d="M341.74,199.3,332,205.22C336.14,204.77,339.6,203.12,341.74,199.3Z"/><path class="cls-28" d="M341.9,254.48l-8.51,3.38,1,1Z"/><path class="cls-28" d="M291.76,227.82l-5.16,4.26,3.13.89Q290.75,230.4,291.76,227.82Z"/><path class="cls-32" d="M322.36,210.5l-4.75,2.82"/><path class="cls-28" d="M348.51,195.86l-2.7,1.39,2.7,2.2Z"/><path class="cls-32" d="M406.24,217.82l-4.33,2.92"/><path class="cls-32" d="M399,221.85l-4.26,2.93"/><path class="cls-28" d="M325.43,215.67a4.15,4.15,0,0,0-1.17-.54,1.35,1.35,0,0,0-.56,0,1.2,1.2,0,0,0-.85.79,4.71,4.71,0,0,0-.27.85l-.15.62c0,.1,0,.21-.07.31Z"/><path class="cls-28" d="M328.46,242.14l2.06-1.94C327.9,238.8,328.75,241.08,328.46,242.14Z"/><path class="cls-32" d="M327.93,254.61l2.59,1.86"/><path class="cls-32" d="M354.17,247.36l-2.25,1.82"/><path class="cls-28" d="M359,224.4l1.29-.68-2.26-.93c0,.68.09,1.36.13,2Z"/><path class="cls-32" d="M306.05,219.74l2-1.19"/><path class="cls-28" d="M355.17,216.44,354,218.57l2,.28C355.75,218.29,355.57,217.72,355.17,216.44Z"/><path class="cls-32" d="M328.38,207.09l-2.27,1.28"/><path class="cls-32" d="M342.31,199.2l1.46-.89"/><path class="cls-28" d="M293.67,235.45A2.59,2.59,0,0,0,293,235,.47.47,0,0,0,293.67,235.45Z"/><path class="cls-32" d="M311.1,216.86l-1.24.73"/><path class="cls-26" d="M286,260.45c1.05,4.41,2.12,8.9,3.33,14h-10v13.3L319.25,265C311.67,256.52,296.78,254.67,286,260.45Z"/><path class="cls-11" d="M230,272.89c1.15,1.83,3.22,3.05,4.94,4.51,8.64,4.87,17.23,9.84,25.94,14.58,5.85,3.19,11.87,6.06,17.82,9.07,0-4.22.16-8.08-4.62-10.69-14.68-8-29.1-16.53-43.63-24.84l-1.29,3.23h0A5.91,5.91,0,0,0,230,272.89Z"/><path class="cls-28" d="M268.28,262.43c-.81-.65-2.23-.52-3.38-.75l-.86-.86c-2.11,1.75-5.83,3.35-6,5.27-.35,3.79,3.58,4.15,6.65,4.33a6.52,6.52,0,0,0,3.45-.55,28.17,28.17,0,0,0,3.92-3.28A30.58,30.58,0,0,0,268.28,262.43Z"/><path class="cls-28" d="M451.93,296.79c.82,3.74,1.66,7.55,2.62,11.89h-7.94v10.67l32.88-19C471.1,292.7,463.07,291.77,451.93,296.79Z"/><path class="cls-33" d="M428.11,301.17c3,5.5,8.33,5.62,12.13,0C436,296.48,431.65,296.56,428.11,301.17Z"/><path class="cls-3" d="M473,255.52l-7.38-.51c-.13.64-.25,1.28-.38,1.91l6.47,2C472.39,257.23,472.71,256.36,473,255.52Z"/><path class="cls-3" d="M473.06,255.45l0,.07h.09Z"/><path class="cls-3" d="M473.49,406.76l2.35,0h0c3.36,0,5.69-1.22,6.18-4.66-2.34-4.12-6.19-3.64-9.8-3.81l-4.35,3.37,5.47,2.94C473.38,404.64,473.44,405.7,473.49,406.76Z"/><path class="cls-6" d="M473.49,406.76c-.05-1.06-.11-2.12-.11-2.2l-5.47-2.94a1,1,0,0,0-.66-.25C466.41,405.44,468.34,407.11,473.49,406.76Z"/><polygon class="cls-6" points="475.88 407.02 475.88 406.72 475.84 406.73 475.88 407.02"/><path class="cls-16" d="M150.57,244.27a21.42,21.42,0,0,0-3.18-3.14c-5.87-3.82-6.36-4.9-4.9-12.15l3.63-2.37c-2.45-3-5-1.14-7.44-.06l-6.53,6.86Z"/><path class="cls-33" d="M205.05,194.14c1.66-1.29,3.25-2.68,5-3.85,2-1.33,4.09-2.46,6.15-3.68l-.66-1.45a18.72,18.72,0,0,0-3.79,1.14c-5.61,3.08-11.13,6.33-16.74,9.43a29,29,0,0,1-4.15,1.56h0l-2.71,2.22-.73-.78,1.32-1.47c11.28-6.74,22.5-13.6,33.87-20.2,8-4.65,16.19-9,24.29-13.43-.3-1-.61-2-1.09-3.52-22.22,13.45-44.68,25.2-66,39,1.85,1,4.63,1.14,4.77,1.79.72,3.55,3.16,2.26,5.16,2.32l7.21-4.91Z"/><path class="cls-28" d="M188.73,197.26l2.12,0a29,29,0,0,0,4.15-1.56c5.61-3.1,11.13-6.35,16.74-9.43a18.72,18.72,0,0,1,3.79-1.14l.66,1.45c-2.06,1.22-4.17,2.35-6.15,3.68-1.74,1.17-3.33,2.56-5,3.85l1,1.1,28.64-16.37c0-.68,0-1.37,0-2.06h0c-3.71,1.94-7.4,3.93-11.16,5.78a32,32,0,0,1-4.27,1.44l-.78-1.57c4.34-2.52,8.76-4.93,13-7.59,5.23-3.27,10.33-6.75,15.49-10.14l0-1.1c-8.1,4.46-16.29,8.78-24.29,13.43C211.23,183.66,200,190.52,188.73,197.26Z"/><path class="cls-33" d="M268.19,153l4.19,4.46,1.16-.21,3.84-.7-2.66-4.66,6,2.39,3.28-3-6-6.59-16.91,10,6.32,4C267.71,156.49,267.89,155.21,268.19,153Z"/><path class="cls-33" d="M272.38,157.49l0,0,0,0Z"/><path class="cls-33" d="M211.74,195.93c6.22-3.41,12.33-7,18.45-10.64,2.53-1.49,5-3.11,8.52-5.32l-4.05-1.1L206,195.24C207.47,199.05,209.9,196.93,211.74,195.93Z"/><path class="cls-33" d="M231.42,174.87c-4.25,2.66-8.67,5.07-13,7.59l.78,1.57a32,32,0,0,0,4.27-1.44c3.76-1.85,7.45-3.84,11.16-5.78h0l2.76-1.37,1.37-.68,11.26-7-3.1-3C241.75,168.12,236.65,171.6,231.42,174.87Z"/><path class="cls-33" d="M203.82,200.3l-.79-1.76-5,.84-8.2,5.08,1.16,3.41Z"/><path class="cls-33" d="M240.68,177.93c5.25-.78,9.18-3.75,13.85-7.62l-3.54-.68c-2.42,1.53-4.93,2.94-7.21,4.66A21.5,21.5,0,0,0,240.68,177.93Z"/><path class="cls-28" d="M240.68,177.93a21.5,21.5,0,0,1,3.1-3.64c2.28-1.72,4.79-3.13,7.21-4.66l-1-1.9-11.26,7Z"/><path class="cls-28" d="M196.94,198.33l-7.21,4.91c0,.41.05.81.08,1.22l8.2-5.08Z"/><path class="cls-33" d="M269.46,159l1.21,1.25,1.67-2.71Z"/><path class="cls-33" d="M272.38,157.49l0,.06h0l.07,0Z"/><path class="cls-33" d="M323.69,231.28l26.17-14.87-1.28-2.21-26.06,15Z"/><path class="cls-33" d="M330.2,219.31,303.48,234.5l.79,1.83q13.8-7,26.89-15.28Z"/><path class="cls-33" d="M308.31,239.61l11.86-6.13C316.76,231.76,310.69,234.68,308.31,239.61Z"/><path class="cls-26" d="M187.41,198.73l.73.78,2.71-2.22h0l-2.12,0Z"/></svg>