<svg id="Layer_1" data-name="Layer 1" xmlns="http://www.w3.org/2000/svg" viewBox="0 0 700 500"><defs><style>.cls-1{fill:#4d0db9;}.cls-2{fill:#efeeec;}.cls-3{fill:#3e3c3c;}.cls-4{fill:#ea924a;}.cls-5{fill:#a8a7a4;}.cls-6{fill:#817f80;}.cls-7{fill:#b51d2d;}.cls-8{fill:#c7c5c7;}.cls-9{fill:#784927;}.cls-10{fill:#b66234;}.cls-11{fill:#1d2540;}.cls-12{fill:#dfa64c;}.cls-13{fill:#3e484c;}.cls-14{fill:#ea7f25;}.cls-15{fill:#4c4e4f;}.cls-16{fill:#c67b3e;}.cls-17{fill:#594d3f;}.cls-18{fill:#89512e;}.cls-19{fill:#e2b9a3;}.cls-20{fill:#315784;}.cls-21{fill:#694b2a;}.cls-22{fill:#ac6736;}.cls-23{fill:#3085b0;}.cls-24{fill:#4dbfe7;}.cls-25{fill:#2fabcf;}.cls-26{fill:#36aa45;}.cls-27{fill:#e1d51e;}.cls-28{fill:#da4d25;}.cls-29{fill:#5b7236;}.cls-30{fill:#fff;}.cls-31{fill:none;}.cls-32{fill:#322673;}</style></defs><title>Process-Concepting-IMG</title><rect class="cls-1" width="700" height="500"/><path class="cls-2" d="M453.78,464.55a19.71,19.71,0,0,0,.9,3.71c2.72,6,1.43,8.49-5.16,9.79-.48.09-1,.09-1.47.14-27.47,1.85-48.88-10.64-67.92-28.71-4.21-5.28-6.06-11.42-6.61-18l.36-2.17c.11-.61.22-1.21.34-1.81,3.4-10.27,11.21-15.7,21-18.6,24.37-7.19,47.5-3.31,69.33,8.87,5.83,3.25,11,7.77,16.12,12.16,7.64,6.6,11.79,15,11.27,25.34-3.29,10.45-9.12,13.24-19.14,9.23-3-1.22-6.1-2.41-9.24-3.34C459.59,460,456.09,460.68,453.78,464.55Zm1.06-17.27-1.06,1.26c1,4.35,3.14,5.88,8.54,6,5.6.09,8.08-1.5,9.13-5.86-3.77-5.7-11.57-6.34-16.64-1.35Zm.9-20.24.37-.65a19.16,19.16,0,0,0,3.89-.46c2.8-.94,3-2.73,1.14-4.85-2.38-2.67-9.58-4.45-12.91-3.26-2.86,1-3.57,3.38-1.12,5.07S452.84,425.69,455.74,427Zm-62.92,23c2.3-.15,4.87-.82,5-4.25.11-2.93-4.42-6.25-8.41-6.28-2.77,0-5.48.49-5.78,4C383.38,446.57,388,450,392.82,450Zm14.68,14.16,5.43-2.85c-1.2-1.75-2-4.19-3.69-5.09a17.75,17.75,0,0,0-8-1.87,5.48,5.48,0,0,0-4.05,2.69c-.38.72,1.08,3.07,2.26,3.77C401.8,462.23,404.52,463,407.5,464.18Zm-18.8-41.46c-3.73-.1-7.48,2.84-7.2,5.91.33,3.65,3,4.79,6.23,4.87,3.74.09,6.93-2.49,7-5.48C394.71,425.22,392,422.81,388.7,422.72Zm14.15-11.89c-2.37.88-5.76,1.7-8.69,3.32-2.58,1.44-2.15,3.67.7,4.53a15.74,15.74,0,0,0,13.66-2.29c2.45-1.62,2.05-3.65-.74-4.66A34.51,34.51,0,0,0,402.85,410.83Zm16.66,2.47c3.73,4.06,12.3,5.88,16.42,3.72,2.19-1.15,2.35-2.54.54-4.2C432.73,409.39,423.62,409.53,419.51,413.3Zm50.74,15.37c-2.49.95-4.38,1.39-5.89,2.41-.41.28,0,2.52.63,3.45,2,3,8.87,4.83,12.23,3.56,2.86-1.07,3.43-3.82.88-5.5A68.37,68.37,0,0,0,470.25,428.67Zm-40,37.67.07-1.16c-3.94-1.19-7.87-2.24-12.05,1.16Z"/><path class="cls-3" d="M439,186.46l1.53-.89c4.8,2.36,9.6,4.71,14.69,7.19l4.17-6.07c5.59,3.46,11.21,6.89,16.77,10.4,5,3.14,9.88,6.38,14.82,9.58l-7.29-1.94-1-1c-1.77-1.93-4-4.29-6.34-1.88-1.78,1.84-.57,4.22,2.29,4.93l2,1,8.95,5,2.93,1.51c.3-1,1-2.09.83-3a23.62,23.62,0,0,0-1.77-4.44l21.86,12.11c.64.48,1.28,1,1.91,1.45l.5-1.47.3-37c.43-1.51,1.21-3,1.21-4.54q.14-25.23,0-50.45c0-4.21-.59-8.41-.91-12.61l0-4c1.23-1.72,1.34-3.16-1-4l-15.32-8.91,1.16-.2c4.83-.78,2.63-4.71,3.31-7.36a72.42,72.42,0,0,0,7.42,4c6.13,2.47,7.76,6.86,7.71,13.3-.36,43-.36,85.92-.47,128.87-4.18,1.8-7-1.57-9.93-3.15-11.5-6.21-22.69-13-34-19.52-7.71-4.45-15.46-8.85-23.44-13.42l-2.33,3.58-1.16,2.17L447,207.8c-5.6,6.72-10.81,13.82-16.89,20.08-9.89,10.18-20.31,19.83-30.56,29.65-5.23,5-10.59,9.89-15.9,14.83,2.25-3.15,4.17-6.63,6.81-9.41,11.49-12.09,23-24.13,34.87-35.87,4.22-4.17,4.64-8.39,2.63-13.43L429,212.5l3.25,7.22c6.41-7.75,12.57-15.1,18.55-22.61.48-.6.05-2.52-.59-3.34-2.81-3.67-6.39-6.13-11.29-6Z"/><path class="cls-4" d="M183.21,207.33q14.14-8.34,28.28-16.72c1.39-.82,2.67-1.83,4-2.76l2.83-.71a53.71,53.71,0,0,1-1.33,5.21c-1.58,4.33-3.41,8.58-4.89,12.94-.33,1-.05,2.89.64,3.35a47.37,47.37,0,0,0,6.56,3.19c4.92,3.13,9.75,6.43,14.8,9.35,7,4.1,14.27,7.91,21.42,11.85q.51,8.28,1,16.56c-1.8-.83-3.66-1.55-5.37-2.53q-21.27-12.18-42.48-24.48C200.14,217.6,191.7,212.42,183.21,207.33Z"/><path class="cls-5" d="M107.18,369.61c.23-9.31.44-18.61.7-27.92.06-2.11.28-4.22.42-6.33l31.62,18q-.06,17.6-.13,35.21c-3.32-1.74-6.72-3.34-9.95-5.24C122.24,378.8,114.73,374.18,107.18,369.61Z"/><path class="cls-6" d="M624.37,412.82c.35,3.4.91,6.8,1,10.22.18,7.73.13,15.48.17,23.22a18.37,18.37,0,0,1-3.12,3c-9.15,5.36-18.37,10.62-27.56,15.91-.25-9.06-.6-18.11-.69-27.17a61.55,61.55,0,0,1,1-8.27Z"/><path class="cls-7" d="M526.84,328.94c.91.62,2.46,1.1,2.63,1.88,1.36,6.32,3.22,12.69,3.39,19.08.14,5.28-1.82,10.61-2.85,15.92-.79,1.7-2,3.34-2.3,5.13-.63,3.35-.81,6.79-1.12,10.2q-1.1,11.7-2.14,23.4c-.7,1-1.39,2-2.09,3l-8-2.07-.6-4.95c1.12-19.91,1.92-39.83,0-59.74,6.52-.13,7.47-1.5,5.07-7.29a4.77,4.77,0,0,1-.12-1.43l5-3.09Z"/><path class="cls-8" d="M519.32,236c.11-43,.11-85.91.47-128.87.05-6.44-1.58-10.83-7.71-13.3a72.42,72.42,0,0,1-7.42-4l-9-5.2-2.44-4,2.93-2.83,4.39,1.72,3.95,2.09,9.57,5.44L520.3,91l5.1,3.93.85,10.68c-.25,2.91-.51,5.81-.76,8.72-4.82,2.19-2.81,6.53-2.88,10,0,.93,1.93,1.9,3,2.85,0,.68,0,1.36,0,2-.87.39-2.47.74-2.5,1.19-.24,3.89-.28,7.8-.14,11.7,0,.37,1.64.69,2.52,1l.7,13.73c-.14,1.47-.4,2.94-.41,4.41q-.07,27-.08,54l.09,16.6c-.17.5-.34,1-.5,1.5Z"/><path class="cls-9" d="M525.62,129.26c0-.69,0-1.37,0-2,.13-3.63.25-7.26.38-10.89q.33-3.22.68-6.46,1.64,14.72,3.25,29.41c.18,3.6.09,7.24.62,10.79.64,4.38,1,9.07,2.88,13,9.46,19.86,19.43,39.47,29.07,59.24,3.1,6.37,5.71,13,8.54,19.46l-7.44-5.17-3.41-3.1.18-1.18c3.83-.53,1-2.66.56-3.51-8.38-17.78-16.9-35.49-25.41-53.2a34.65,34.65,0,0,0-1.89-3.07A255.8,255.8,0,0,0,535,199.66q1.68,19,3.32,38l-5.26-2.81c-.59-9.68-1-19.37-1.83-29-1.08-12.94-2.42-25.86-3.72-38.78-.33-3.38-.89-6.73-1.35-10.09l-.7-13.73c.15-.36.29-.72.43-1.08.09-.09.26-.19.25-.27a3.87,3.87,0,0,0-.23-.65Z"/><path class="cls-7" d="M339.93,322.88l-.39-1.05a.65.65,0,0,0-.49-.63c-.46-2.21-1.28-4.41-1.33-6.63-.11-5.77.12-11.54.22-17.3,1.81-.18,4,.22,5.35-.65,3.19-2.07,6-4.75,9.08-7.29l-2.9-2L352,283.1c5.17.71,9-1.54,12.3-5.3,1.2-1.36,3-2.15,4.6-3.21a34.87,34.87,0,0,0-2.6,5.23c-.39,1.19,0,2.64.07,4,1.43-.33,3.19-.24,4.22-1.06a50.27,50.27,0,0,0,5.26-5.54q1.29,2.18,2.6,4.34a7,7,0,0,0-1.2,1.57c-3.58,8.95-9.33,15-19.71,15.26-.92,0-2.52,2.1-2.56,3.27-.21,5.9,0,11.82,0,17.73a45.38,45.38,0,0,1-.62,5.29Z"/><path class="cls-10" d="M571,241.73c-2.83-6.49-5.44-13.09-8.54-19.46-9.64-19.77-19.61-39.38-29.07-59.24-1.86-3.9-2.24-8.59-2.88-13-.53-3.55-.44-7.19-.62-10.79q13.77,28.51,27.52,57c6.08,12.64,12.18,25.27,18.07,38,.67,1.45,0,3.52,0,5.29L574,241.12l-1.19,1.17Z"/><path class="cls-11" d="M339.93,322.88l14.43,1.78q-1,17.63-1.93,35.26c-.26,2.86-.51,5.72-.77,8.59l-7.19,1.88c-.82-4.49-5.83-3.1-8-5.7Q338.21,343.78,339.93,322.88Z"/><path class="cls-12" d="M321.79,56c10.73-.63,21.47-1.16,32.2-1.91,25.26-1.77,50.51-3.65,75.77-5.46a17.94,17.94,0,0,1,2.91.24l.1,0-4.86,2.58q-16.55,1.19-33.1,2.39c-21.22,1.57-42.45,3.2-63.68,4.72-11.52.83-23.07,1.43-34.59,2.25q-33.82,2.41-67.62,5l0-.35c5.53-3.78,12-3.12,18.16-3.65,17.08-1.48,34.17-2.71,51.26-4l11-.81,6.35-.37Z"/><path class="cls-7" d="M248.55,413.92a1.57,1.57,0,0,0-.49-.47l-.14-1.61c.89-3.52,1.46-6.71-.79-10.34-3.56-5.73-.19-17.05,5.09-19.26l6.55,1.44,6.4,9.4,0,.22c.58,3.16-1.65,6.93,2.06,9.41l5.15,3.53a26.43,26.43,0,0,0-4.68,2.67,50.51,50.51,0,0,0-4.57,5.09l-13.82.13Q248.93,414,248.55,413.92Z"/><path class="cls-13" d="M450.23,177.06c-.08-5.79-.22-11.57-.22-17.36q.06-46.93.23-93.87c0-2.28-1.1-5.19,2.3-6.34l12.54,8.07-3.49,3L461,74.87l-7-3.11v5.9c0,17.7-.07,35.4,0,53.11,0,14.55.12,29.11.18,43.66Z"/><path class="cls-11" d="M248.55,413.92q.38.09.72.21c3.59,4.25,8.42,2.81,12.94,2.81q-1.15,12.19-2.3,24.38l-.26.87c-.15.73-.29,1.46-.44,2.19l-.36,6v3l.22,1.15c-1,6.52-4.31,8.69-9.34,6.16-.72-.36-1.44-.74-2.15-1.12l-.13-6.35q-.12-18.35-.23-36.69l.42-1Z"/><path class="cls-11" d="M170.42,337.87q0,6.54,0,13.07c-.33,3.61-.65,7.22-1,10.84l-6.59,3-2.43,3.92-6.09,1.54c-.57-5-1.54-9.94-1.59-14.92,0-3.78-.89-6.41-4.6-7.66-3.56-2.27-7.36-4.24-10.55-6.94-1.29-1.1-1.23-3.78-1.79-5.74l9,4c1.47,3.61,4.6,4,7.88,4,0,2.55,1.37,2.14,2.9,1.26,3.29-1.88,6.5-3.91,9.9-5.56C166.89,338.06,168.75,338.15,170.42,337.87Z"/><path class="cls-2" d="M135.76,335c.56,2,.5,4.64,1.79,5.74,3.19,2.7,7,4.67,10.55,6.94l-8.18,5.65-31.62-18,24-14A16.14,16.14,0,0,0,135.76,335Z"/><path class="cls-11" d="M195.28,172.59c-.45-4.25-2.84-6.45-6.88-8s-9-3.12-9.75-8.75c5.16.73,10,.4,13.22-4.47l5.53,2.95-.41,5.48,1.27.29c.64-1,1.29-2,1.94-2.94,4.17,1.69,6.27,4.81,7,9.23.59,3.69,1.72,7.28,2.62,10.92l-6.48,6.81c-2.5,1.5-4,.39-5-1.93-.7-1.66-1.2-3.4-1.79-5.11Z"/><path class="cls-2" d="M624.37,412.82l-29.22,16.91-6.07-4.24,1.58-.74,2.49-1.18,1.85-1,2.18-1.83L599,415,601,398.47c7,4,14,7.9,21,11.93A11.89,11.89,0,0,1,624.37,412.82Z"/><path class="cls-7" d="M191.87,151.36c-3.26,4.87-8.06,5.2-13.22,4.47-2.8-6-2.13-12.28-.53-18.35.46-1.74,3-2.95,4.54-4.4l6.71-1.82L199.58,124l5,1.3-.25,1-1.49,2.54-4.08,9a19,19,0,0,1-2.17,1.18C189.38,141.94,188.41,144.44,191.87,151.36Z"/><path class="cls-11" d="M562.59,317.92c-.23,1.23-.45,2.45-.68,3.73-4.42.07-3.43-3.45-4.22-5.72-.06-1.62-.07-3.25-.18-4.87-.72-9.94-.73-9.94-10.65-7.19l-3-2.73a1.73,1.73,0,0,1,.55-.71l10.91-5.19-5.68-14.72a23.32,23.32,0,0,0,14.47-4.6l.57,4.73Q563.62,299.28,562.59,317.92Z"/><path class="cls-14" d="M446.07,307.1c1.32-2.26,5.77-.9,5.62-4.86a34.67,34.67,0,0,0,5-1.85c4.1-2.29,8.08-4.77,12.11-7.18,3.53-.07,5.33,2.17,6.67,5-1.76,4.15,3.44,2,3.68,5.22-1.13,3-8.87-.25-7.59,5.61-2.9-.42-5.52-.9-8.17-1.17-2.28-.23-3.22.8-4,3.18-.56,1.71-3.17,3.86-4.86,3.87-3.24,0-6.53-1.26-9.64-2.43C444.65,312.41,445.65,309,446.07,307.1Z"/><path class="cls-11" d="M268.14,273.2q-1,9-2,18c-.23,2.11-.44,4.23-.66,6.34.07,3.66-2.79,4.05-5.34,4.78-3.25-1.34-3.09-4.33-3.43-7.08q.17-16.33.34-32.66L268,263.77Z"/><path class="cls-7" d="M136.85,308.33l2-1.1,3.76-1,2.14,3.05L148.32,326c.43-6,.8-11.13,1.16-16.22l2.4-5.42,2.59,5.8L154.41,321l.06,2.08c-1.15,3.13.33,5.53,2.16,7.83-2.71,3-5.52,5.83-10,5.76-.83-1.3-1.37-3-2.54-3.85-6.3-4.55-6.45-4.5-4.69-12.21C140.44,316.06,140.37,311.88,136.85,308.33Z"/><path class="cls-11" d="M268.14,273.2l-.12-9.43,8.63-2.76.47,1.26,1.71,6.51,1.8,7.4-.21,13.08c-.13,1.22-.26,2.45-.38,3.68l-3.3,4.51h7.49c-3.69,0-7.39.12-11.05-.19-.67-.06-1.61-1.9-1.71-3-.4-4.08-.23-8.23-.8-12.28C270.25,279,269,276.13,268.14,273.2Z"/><path class="cls-7" d="M601,398.47,599,415l-13.29,7.59-3.62-2.44c.34-.77.68-1.53,1-2.29l2.36-3.87c1.82-1.71,5.1-3.36,5.18-5.16.3-6.56,4.37-13.83-2.4-19.54,3.42.4,4.48-1.71,4.88-4.55C599.56,387.11,600.14,392.88,601,398.47Z"/><path class="cls-15" d="M439,186.46l-.11,1.35-4.16,0a10.7,10.7,0,0,1-.19-1.48q0-63.83,0-127.67a1.42,1.42,0,0,1,.53-.44l1.55.41c.08,7.77.22,15.55.22,23.32,0,33.11,0,66.23.07,99.34C437,183.12,435.58,185.88,439,186.46Z"/><path class="cls-7" d="M276.65,261,268,263.77l-10.94-1.22-.54-3.12c.22-.71.43-1.42.65-2.14.08-.06.25-.15.24-.2a4,4,0,0,0-.2-.58l-.38-1.07.46-5c4-.39,8-.67,12-1.21a49.88,49.88,0,0,0,6-1.58Z"/><path class="cls-7" d="M518.64,332.09a4.77,4.77,0,0,0,.12,1.43c2.4,5.79,1.45,7.16-5.07,7.29-7.24-4.15-14.81-7.95-18.5-16.15-.66-1.46-1.14-3-1.7-4.51l3.38-2a47.9,47.9,0,0,1,5.22,5c4,5.18,9.35,7.64,15.49,8.88Z"/><path class="cls-7" d="M588.23,389.28c6.77,5.71,2.7,13,2.4,19.54-.08,1.8-3.36,3.45-5.18,5.16l-5.39-2.16c3-5.65,2.89-11.37.33-17.13.15-.76.31-1.52.46-2.28,0-.41.07-.83.1-1.24.64-1.29,1.27-2.57,1.9-3.86Z"/><path class="cls-8" d="M450.23,177.06l3.92-2.63L464.88,169c.38.54.75,1.08,1.13,1.61l-6.59,16.13-4.17,6.07c-5.09-2.48-9.89-4.83-14.69-7.19Q445.41,181.33,450.23,177.06Zm1.65,10.28c1.46-3.5,2.72-6.51,4-9.52C447.05,181.47,446.27,183.23,451.88,187.34Z"/><path class="cls-7" d="M136.85,308.33c3.52,3.55,3.59,7.73,2.55,12.29-1.76,7.71-1.61,7.66,4.69,12.21,1.17.84,1.71,2.55,2.54,3.85L144.75,339l-9-4a16.14,16.14,0,0,1-3.44-13.59,66.56,66.56,0,0,1,1.51-8.48C134.35,311.24,135.81,309.85,136.85,308.33Z"/><path class="cls-7" d="M524.45,404.55q1.06-11.7,2.14-23.4c.31-3.41.49-6.85,1.12-10.2.34-1.79,1.51-3.43,2.3-5.13.43,9.85.81,19.7,1.33,29.54a47.07,47.07,0,0,0,1.13,6.15C531.12,406,527.59,404.77,524.45,404.55Z"/><path class="cls-16" d="M485.41,68.73c3-.8,4.78-2.4,4.39-5.86-.47-4,3.51-4,5.55-5.76-.67,3.58,1,5.55,4.36,6.38l4.84-.9-5.47,6.81c-1.93.13-3.39-.17-4.42.36-4.06,2.12-8,4.5-12,6.77a38.87,38.87,0,0,1-5.25-2.11,43.16,43.16,0,0,1-4.72-3.52,17.44,17.44,0,0,1,4.37.43c2.38.85,4.35,1,5.67-1.57Z"/><path class="cls-8" d="M482.75,69.76c-1.32,2.6-3.29,2.42-5.67,1.57a17.44,17.44,0,0,0-4.37-.43l-2.95-.2-4.68-3.14-12.54-8.07c3.45-3.77,7-4,11.32-1.06,3.35,2.33,7.2,3.94,10.83,5.86l7,5.11Z"/><path class="cls-6" d="M380.13,449.48c19,18.07,40.45,30.56,67.92,28.71-1.72.64-3.41,1.75-5.16,1.86-12.23.8-23.59-2.67-34.33-8-10.36-5.18-20.08-11.46-28.33-19.75Z"/><path class="cls-17" d="M252.11,382.26c-.23-1.62-.39-3.25-.7-4.85-.75-3.8-.52-7.68,3.05-9.61,3.81-2.07,7.26.24,10.17,2.87a10.54,10.54,0,0,1,1.4,2.07l-2.73,4.11c-2.07.92-4.15,1.81-6.19,2.79C255.42,380.45,253.78,381.38,252.11,382.26Z"/><path class="cls-18" d="M482.68,76.53c4-2.27,7.92-4.65,12-6.77,1-.53,2.49-.23,4.42-.36l5.47-6.81,0,0,5.05-1.89c2.18,5.25-.93,7.81-5,9.87-4.84,1.45-3.72,5.54-4,9l-4.39-1.72c-.42-1.38-.85-2.77-1.67-5.42l-7.93,4.85a3.22,3.22,0,0,0-.92.2Z"/><path class="cls-5" d="M170.42,337.87c-1.67.28-3.53.19-5,.9-3.4,1.65-6.61,3.68-9.9,5.56-1.53.88-2.86,1.29-2.9-1.26l11.06-12.17,9-5.08C171.76,330.67,171.09,334.27,170.42,337.87Z"/><path class="cls-17" d="M526.84,328.94l-3.16.06q-2.92-6.58-5.87-13.15c2.07-4.28,5.75-2.66,8.44-1.57,1.77.72,3.81,3.52,3.77,5.35-.06,2.5-2,4.95-3.11,7.42C526.89,327.68,526.87,328.31,526.84,328.94Z"/><path class="cls-9" d="M564.84,452.53a20.61,20.61,0,0,0-4.31-1.87,68,68,0,0,0-7.67-.53c3.18-4.34,9.72-3,9.79-8.62l1-.26c1.72,1,3.42,2,5.16,3,1.33.74,2.7,1.4,4.06,2.09a36.5,36.5,0,0,1-4.11,4.79C567.79,452,566.18,452.08,564.84,452.53Z"/><path class="cls-19" d="M144.74,309.31l-2.14-3.05a2.17,2.17,0,0,0,0-.95l1-9.95c3.22,1.85,7.57-1.52,10.39,2.24l-2.16,6.8-2.4,5.42Z"/><path class="cls-7" d="M337.4,296.12l.92-6,1.22-6.37a1,1,0,0,1,.8-.5l4.34,2.27,4.79,1.76,2.9,2c-3.09,2.54-5.89,5.22-9.08,7.29-1.36.87-3.54.47-5.35.65Z"/><path class="cls-20" d="M268.83,391.13l0-1.56c.58-1.85,1.15-3.7,1.73-5.55,10.48,3.38,12.6,5.73,12.41,13.5l-.11.21-.19.24Z"/><path class="cls-18" d="M499.71,63.49c-3.34-.83-5-2.8-4.36-6.38l.3-18.43,5,2.33Q500.18,52.25,499.71,63.49Z"/><path class="cls-8" d="M163.69,330.9l-11.06,12.17c-3.28-.08-6.41-.43-7.88-4l1.88-2.35c4.48.07,7.29-2.76,10-5.76l2.63-1.53Z"/><path class="cls-18" d="M481.72,69.4l-7-5.11L476.28,52a30.13,30.13,0,0,1,3.44.34c1.68.36,3.32.9,5,1.36C481.45,58.51,482.2,64.07,481.72,69.4Z"/><path class="cls-6" d="M453.78,464.55c2.31-3.87,5.81-4.6,9.79-3.42,3.14.93,6.2,2.12,9.24,3.34,10,4,15.85,1.22,19.14-9.23-.38,9.22-6.66,14.26-15.49,12.32a24.44,24.44,0,0,1-5.6-1.94C465.29,462.81,459.69,461.59,453.78,464.55Z"/><path class="cls-5" d="M563.67,441.25l-1,.26c-.09-8.86-.16-17.72-.29-26.58,0-2.63.87-4.46,3.6-5.06l.46,1.14c.66,3.21,1.31,6.41,2,9.62-.78,1.39-2,2.7-2.26,4.18C565.14,430.26,564.47,435.77,563.67,441.25Z"/><path class="cls-18" d="M520.3,91l-6.22-3.84-.45-9.1a1,1,0,0,1-.07-.71c-.13-1.64-.25-3.27-.37-4.9l6.31,2.23Q519.91,82.82,520.3,91Z"/><path class="cls-17" d="M210.89,91.8c2.19-4.56,4.47-9.08,6.53-13.7a18.78,18.78,0,0,0,.83-4.43l1.92-.2,2.71-.93,3.85,1.07c-4.62,6.77-11.58,11.83-14.52,19.84Z"/><path class="cls-21" d="M499.71,63.49q.48-11.25,1-22.48L504,38.83l.84,18.47c-.11,1.77-.22,3.54-.34,5.31l0,0Z"/><path class="cls-7" d="M580.39,394.69c2.56,5.76,2.63,11.48-.33,17.13l-1.47,2.59-5-.79,4.3-10.35Q579.17,399,580.39,394.69Z"/><path class="cls-9" d="M520.3,91q-.4-8.16-.8-16.32l3.42-2.32q1.23,11.3,2.48,22.57Z"/><path class="cls-5" d="M267.19,402.71c-3.71-2.48-1.48-6.25-2.06-9.41,2.7,1,5.47,1.85,8.08,3,3,1.34,5.76,3,8.63,4.48l-1.76.82-2.15,1H278c-1.2-.38-2.61-.49-3.58-1.21C271.47,399.29,269.15,399.69,267.19,402.71Z"/><path class="cls-19" d="M189.37,131.26l-6.71,1.82-2-5.43,6.82-6.87Z"/><path class="cls-7" d="M564.64,280.65l-.57-4.73q-.18-10.38-.35-20.77l2.16-1.07c.81,8.88,1.61,17.77,2.35,25.89Z"/><path class="cls-19" d="M583.31,385.65q-1.51-4.35-3-8.7l5.83-.06.91.7,3.84.32c-.69,2-1.26,4-2.09,5.87C587.68,386.3,585.87,387.18,583.31,385.65Z"/><path class="cls-19" d="M517.81,315.85q2.94,6.57,5.87,13.15l-5,3.09h-1.06c-.21-1.24-.49-2.47-.63-3.71-.33-3-.59-6-.88-8.94Z"/><path class="cls-17" d="M154,297.6c-2.82-3.76-7.17-.39-10.39-2.24-2.11-2.51.54-4.18,1.71-4.36a13.74,13.74,0,0,1,7.64.84A3.52,3.52,0,0,1,154,297.6Z"/><path class="cls-15" d="M173,183.92c4.16-.38,8.33-.65,12.48-1.19,4-.52,7.95-1.34,7.83-6.76l2-3.38,1.24,4.47c-2.23,6.17-7,8.28-13.13,8.19-2.95,0-5.91.1-8.87.16Z"/><path class="cls-9" d="M481.72,69.4c.48-5.33-.27-10.89,3-15.69l1.83-1.07c.05,1,.11,1.9.16,2.84l0-.18-1.29,13.43-2.66,1Z"/><path class="cls-6" d="M590.87,377.91l-3.84-.32-.91-.7-5.83.06c0-4.25,2.64-6.06,6.29-6,4,.1,4.87,3.28,5,6.68A2.21,2.21,0,0,0,590.87,377.91Z"/><path class="cls-18" d="M564.84,452.53c1.34-.45,2.95-.57,3.94-1.42a36.5,36.5,0,0,0,4.11-4.79H574l-1.29,6.56c-2.68,2.57-5.12,5.87-9.54,3.14Z"/><path class="cls-2" d="M577.94,403.27l-4.3,10.35-.52.89-6.7-3.5-.46-1.14Z"/><path class="cls-10" d="M220.17,73.47l-1.92.2c-5.2.9-4.88-3.09-5.51-6.22l9.65-.81Z"/><path class="cls-22" d="M315.74,56.6l-6.35.37,1.89-3.54-5.19-1.54,2.53-5.43L314.84,49Z"/><path class="cls-9" d="M315.74,56.6l-.9-7.59,3.71-2.26L321.79,56Z"/><path class="cls-17" d="M306.09,51.89l5.19,1.54L309.39,57l-11,.81Z"/><path class="cls-13" d="M187.48,120.78l-6.82,6.87c-2.27-2.36-3.39-5.13-.67-7.6C182.38,117.87,185.28,117.55,187.48,120.78Z"/><path class="cls-7" d="M204.6,125.34l-5-1.3,2.4-9.67,3-1.22Q204.81,119.24,204.6,125.34Z"/><path class="cls-22" d="M432.67,48.89l7.12-.37c-5.43,1.75-3.64,5.64-2.75,9.26l.06-.05-2,.52a1.42,1.42,0,0,0-.53.44l-3.53-.3.11-4.67q.79-2.4,1.6-4.8Z"/><path class="cls-15" d="M210.89,91.8l1.32,1.65-6.37,13.94-2.69-.14Z"/><path class="cls-19" d="M496.87,318.17l-3.38,2c-2.68-2.37-4.53-5-2.79-9.09C494.85,311.78,495.87,315,496.87,318.17Z"/><path class="cls-5" d="M590.87,377.91a2.21,2.21,0,0,1,.71-.24l1.53,7.06c-.4,2.84-1.46,4.95-4.88,4.55l-5.38-2,.46-1.66c2.56,1.53,4.37.65,5.47-1.87C589.61,381.88,590.18,379.87,590.87,377.91Z"/><path class="cls-18" d="M437,57.78c-.89-3.62-2.68-7.51,2.75-9.26C443.56,54.66,443.41,55.15,437,57.78Z"/><path class="cls-16" d="M486.52,52.64l-1.83,1.07c-1.65-.46-3.29-1-5-1.36a30.13,30.13,0,0,0-3.44-.34c1.23-4.34,3.5-5.3,6.78-2.76A41,41,0,0,1,486.52,52.64Z"/><path class="cls-19" d="M562.16,246.58l3.35,1.5c0,2,3.84,3.78.37,6l-2.16,1.07-1.37.28c-2.41-.45-2-1.73-1.29-3.51a30.17,30.17,0,0,0,1.16-5.42Z"/><path class="cls-8" d="M267.19,402.71c2-3,4.28-3.42,7.24-1.25,1,.72,2.38.83,3.58,1.21l-5.67,3.57Z"/><path class="cls-19" d="M252.11,382.26c1.67-.88,3.31-1.81,5-2.62,2-1,4.12-1.87,6.19-2.79l-4.53,6.83-6.55-1.44Z"/><path class="cls-8" d="M281.84,400.82c-2.87-1.51-5.68-3.14-8.63-4.48-2.61-1.19-5.38-2-8.08-3l0-.22,3.66-1.95,13.8,6.84.23-.14Z"/><path class="cls-9" d="M500.56,79.61c.26-3.48-.86-7.57,4-9l0,11.11Z"/><path class="cls-21" d="M162.81,364.79l6.59-3,.69,1.71.54.55a.39.39,0,0,0,0,.59l-.24,2.39c-2.09,3-4.12.63-6.18-.06Z"/><path class="cls-12" d="M318.55,46.75,314.84,49l-6.22-2.55C313.18,42.66,313.49,42.67,318.55,46.75Z"/><path class="cls-21" d="M522.36,407.57l-11.78,2.51-.83-.55c-1-4.16,3-2.78,4.57-4Z"/><path class="cls-7" d="M262.21,416.94c-4.52,0-9.35,1.44-12.94-2.81l13.82-.13.07,1.43a1,1,0,0,0-.06.72Z"/><path class="cls-16" d="M522.92,72.34l-3.42,2.32-6.31-2.23C516.39,67.7,519.66,70.44,522.92,72.34Z"/><path class="cls-19" d="M203.15,107.25l2.69.14-.84,5.76-3,1.22Z"/><path class="cls-21" d="M220.17,73.47l2.22-6.83,2.81-2.37,3.76,1.2,0,.35-6,6.72Z"/><path class="cls-12" d="M225.2,64.27l-2.81,2.37-9.65.81C216.18,63.6,220.45,63,225.2,64.27Z"/><path class="cls-16" d="M504,38.83,500.66,41l-5-2.33C498.84,34.92,499.54,34.93,504,38.83Z"/><path class="cls-15" d="M154.41,321l.06-10.81Z"/><path class="cls-7" d="M159.26,329.39l-2.63,1.53c-1.83-2.3-3.31-4.7-2.16-7.83Z"/><path class="cls-16" d="M504.52,62.61c.12-1.77.23-3.54.34-5.31l4.71,3.42Z"/><path class="cls-15" d="M164.25,367c2.06.69,4.09,3,6.18.06l.22,2c-.27.55-.55,1.1-.83,1.65C167.09,370.72,164.84,370.11,164.25,367Z"/><path class="cls-15" d="M170.09,363.49l-.69-1.71c.33-3.62.65-7.23,1-10.84Q170.23,357.21,170.09,363.49Z"/><path class="cls-22" d="M526.64,109.86l-.68,6.46-.47-2c.25-2.91.51-5.81.76-8.72Z"/><path class="cls-15" d="M142.63,305.31a2.17,2.17,0,0,1,0,.95l-3.76,1Z"/><path class="cls-23" d="M574,241.12l1.48-1.51Z"/><path class="cls-16" d="M513.56,77.33a1,1,0,0,0,.07.71,1.83,1.83,0,0,1-.21-.42C513.41,77.53,513.51,77.42,513.56,77.33Z"/><path class="cls-18" d="M435.12,58.25l2-.52-.43.93Z"/><path class="cls-8" d="M277.93,402.66l2.15-1Z"/><path class="cls-24" d="M374.22,427.47c-.12.6-.23,1.2-.34,1.81C374,428.67,374.1,428.07,374.22,427.47Z"/><path class="cls-16" d="M486.7,55.3l0,.18Z"/><path class="cls-25" d="M247.64,415.44l-.42,1Z"/><polygon class="cls-24" points="282.86 397.83 282.63 397.97 282.82 397.73 282.86 397.83"/><path class="cls-16" d="M581,391.17c0,.41-.07.83-.1,1.24C580.88,392,580.92,391.58,581,391.17Z"/><path class="cls-10" d="M339.05,321.2a.65.65,0,0,1,.49.63C339.14,321.8,339,321.59,339.05,321.2Z"/><path class="cls-14" d="M455.74,427c-2.9-1.35-6-2.36-8.63-4.15s-1.74-4.05,1.12-5.07c3.33-1.19,10.53.59,12.91,3.26,1.9,2.12,1.66,3.91-1.14,4.85a19.16,19.16,0,0,1-3.89.46Z"/><path class="cls-25" d="M392.82,450c-4.79,0-9.44-3.45-9.18-6.56.3-3.48,3-4,5.78-4,4,0,8.52,3.35,8.41,6.28C397.69,449.2,395.12,449.87,392.82,450Z"/><path class="cls-20" d="M407.5,464.18c-3-1.19-5.7-1.95-8-3.35-1.18-.7-2.64-3.05-2.26-3.77a5.48,5.48,0,0,1,4.05-2.69,17.75,17.75,0,0,1,8,1.87c1.66.9,2.49,3.34,3.69,5.09Z"/><path class="cls-13" d="M388.7,422.72c3.29.09,6,2.5,6,5.3,0,3-3.22,5.57-7,5.48-3.23-.08-5.9-1.22-6.23-4.87C381.22,425.56,385,422.62,388.7,422.72Z"/><path class="cls-26" d="M402.85,410.83a34.51,34.51,0,0,1,4.93.9c2.79,1,3.19,3,.74,4.66a15.74,15.74,0,0,1-13.66,2.29c-2.85-.86-3.28-3.09-.7-4.53C397.09,412.53,400.48,411.71,402.85,410.83Z"/><path class="cls-27" d="M419.51,413.3c4.11-3.77,13.22-3.91,17-.48,1.81,1.66,1.65,3.05-.54,4.2C431.81,419.18,423.24,417.36,419.51,413.3Z"/><path class="cls-28" d="M470.25,428.67a68.37,68.37,0,0,1,7.85,3.92c2.55,1.68,2,4.43-.88,5.5-3.36,1.27-10.23-.6-12.23-3.56-.63-.93-1-3.17-.63-3.45C465.87,430.06,467.76,429.62,470.25,428.67Z"/><path class="cls-24" d="M471.45,448.64c-1.05,4.36-3.53,5.95-9.13,5.86-5.4-.08-7.59-1.61-8.54-6l1.06-1.26h0C460.56,445.24,466.16,445.07,471.45,448.64Z"/><path class="cls-5" d="M471.45,448.64c-5.29-3.57-10.89-3.4-16.64-1.35C459.88,442.3,467.68,442.94,471.45,448.64Z"/><path class="cls-5" d="M430.22,466.34h-12c4.18-3.4,8.11-2.35,12.05-1.16Z"/><path class="cls-5" d="M454.84,447.28l-1.06,1.26Z"/><path class="cls-1" d="M445.22,294.34c-4.32-.36-4.36,3.79-6.26,6-5.64-1.77-7.4-1.19-8.91,2.91-10.73-5.93-21.51-11.77-32.15-17.84-5.12-2.92-10-6.3-14.94-9.47l.41-3.07a.82.82,0,0,0,.26-.48c5.31-4.94,10.67-9.82,15.9-14.83,10.25-9.82,20.67-19.47,30.56-29.65,6.08-6.26,11.29-13.36,16.89-20.08,4.22,2.56,9.53,3.7,11.69,8.95-.28,1.28-.66,2.54-.81,3.83q-2.58,22.41-5.11,44.82l-15.45,7.07V274L462,288.63l-7.28,1.62-.22-1c.59-3.21-2.1-3-3.71-3-1.43,0-2.87,1.11-4.3,1.73q1.25,2.07,2.51,4.13Z"/><path class="cls-18" d="M452.75,265.4q2.55-22.41,5.11-44.82c.15-1.29.53-2.55.81-3.83q2.56,4,5.15,8c-.21,3.45-.35,6.9-.65,10.33-1.07,12.11-2.2,24.22-3.3,36.32C456.14,271,453.06,269.85,452.75,265.4Z"/><path class="cls-1" d="M494.38,264.43l-30.19.95q1-9.88,2-19.77c1.77.84,3.61,1.58,5.32,2.54,7.07,3.94,14.1,8,21.14,11.94l2.32,4.35A1.27,1.27,0,0,0,494.38,264.43Z"/><path class="cls-9" d="M544.37,300.43a1.73,1.73,0,0,0-.55.71c-.35,1.56-1.21,3.23-.9,4.65.35,1.67,1.72,3.12,2.65,4.67l0,1.69-.22,6-3.95,1L539.23,289c-.25-3.55-2.4-5.22-5.69-5.78.25-.93.49-1.87.74-2.8l3.09-2.65c0-2,.18-4.45,0-6.87-.57-6.49-1.3-13-2-19.45l4-2,.9,2.1.66,7.89Q542.64,280,544.37,300.43Z"/><path class="cls-22" d="M534.28,280.43c-.25.93-.49,1.87-.74,2.8l-.41.26-8.61-4.28,0,.09-.83-.59-19.33-11.28-7-4.91,1.23-5.06c4.52,2.36,9,4.74,13.58,7.08q9.62,4.95,19.25,9.85C531.57,276.78,530.86,279.58,534.28,280.43Z"/><path class="cls-1" d="M523.81,299.41l-25-14.71c4.28-2.65,7.37-5.33,10.94-6.46,1.71-.54,5.3,1.25,6.39,3,3.37,5.4,6,11.3,8.83,17Z"/><path class="cls-18" d="M533.54,283.23c3.29.56,5.44,2.23,5.69,5.78l2.13,30.07c-4.86-1.16-7-4.07-6.94-9.21,0-4.24-.83-8.5-1.3-12.75-.07-1.76-.21-3.52-.2-5.28,0-2.78.14-5.57.21-8.35Z"/><path class="cls-9" d="M466.15,245.61q-1,9.88-2,19.77c-.85,2.43-.39,5.81-4.32,6,1.1-12.1,2.23-24.21,3.3-36.32.3-3.43.44-6.88.65-10.33l4.24,2.26c-.35,2.84-.69,5.68-1,8.52Z"/><path class="cls-16" d="M445.22,294.34l3.81-2.18,5.5-2.88.22,1c3.08,4.85,7.51,1.23,11.27,1.84a13.37,13.37,0,0,1,2.78,1.12c-4,2.41-8,4.89-12.11,7.18a34.67,34.67,0,0,1-5,1.85l-1.92-3.66C448.7,296.78,444.13,299,445.22,294.34Z"/><path class="cls-1" d="M501.51,271.3c.2.63.74,1.38.55,1.85-1.52,3.84-10.42,7.23-14,5.33-3.32-1.74-6.54-3.67-9.81-5.52.08-.41.15-.82.23-1.24,2.34-.13,4.69-.21,7-.4,3.73-.31,7.45-.7,11.17-1.06Z"/><path class="cls-1" d="M545.53,312.15l0-1.69c3.31-1.64,1-4.35,1.29-6.59,9.92-2.75,9.93-2.75,10.65,7.19.11,1.62.12,3.25.18,4.87l-6.62-1.67Z"/><path class="cls-1" d="M533.13,283.49c-.07,2.78-.19,5.57-.21,8.35,0,1.76.13,3.52.2,5.28l-8.6-17.91Z"/><path class="cls-9" d="M501.51,271.3l-4.88-1-1.08-1.61c-.22-.73-.44-1.47-.67-2.21l-.5-2a1.27,1.27,0,0,1,.55,0l2.44-1.92,7,4.91Z"/><path class="cls-28" d="M476.14,289c2.3-1.66,4.54-2.47,7.51,1.72h-7.56Z"/><path class="cls-12" d="M488.84,303.13c2.81-4.74,4-4.86,8.11-.84Z"/><path class="cls-18" d="M494.88,266.44c.23.74.45,1.48.67,2.21C495.33,267.92,495.11,267.18,494.88,266.44Z"/><path class="cls-24" d="M523.71,278.71l.83.59Z"/><path class="cls-23" d="M464.88,169l-10.73,5.48c-.06-14.55-.17-29.11-.18-43.66,0-17.71,0-35.41,0-53.11v-5.9l7,3.11,37.35,21.5,1.56.93.28.15,15.32,8.91,1,4,0,4a54.71,54.71,0,0,0-.65,5.83q-.12,27.94-.12,55.89c0,2,.3,3.92.46,5.88l-.3,37-2.41,0L491.62,206.8a.88.88,0,0,0-.61-.13c-4.94-3.2-9.85-6.44-14.82-9.58-5.56-3.51-11.18-6.94-16.77-10.4L466,170.56c7.19-.93,14.16-2.31,18.39-9.19,4-2.44,7.84-5.44,12.16-7.16s9.16-2.18,13.78-3.19c0-.72.05-1.44.08-2.16l-18.7-5c0-5.44,0-10.88-.12-16.32,0-1.38-.22-3.45-1.1-4-5.32-3.4-10.87-6.45-16.34-9.62l-1.39.77c0,5.35.45,10.75-.11,16-.75,7.05,1,12.22,8.12,14.66l-4.88,2.33-4.26,2.31,0,0-1.74-1.49c0-1.82,0-3.64,0-5.46.08-.08.23-.2.22-.22a5.63,5.63,0,0,0-.36-.46l-12.42-7.82c-1.25,11.86-1.25,11.86,8,16.87.72.38,1.51.64,2.26.95-.32,1.54-.73,3.06-1,4.61C466,161,465.44,165,464.88,169Zm-7.59-77.14a13.61,13.61,0,0,0,2.6,12.6c-1,1-2.8,1.88-2.84,2.87-.27,7.25-.23,14.5-.16,21.75a4.11,4.11,0,0,0,1.21,3c3.63,2.36,7.43,4.47,12,7.15,0-9.47.12-17.67-.14-25.85,0-1.2-1.78-2.49-3-3.47-2.32-1.94-4.8-3.69-7.21-5.52,1.84.49,3.86.66,5.49,1.54,4.77,2.55,9.35,5.48,14.11,8.06,1,.56,2.5.29,3.77.4v-2q-.25-3-.52-6l.91-1.83L500.83,115l-13.46-4.8c-1.37,7.13-1.21,7.4,4.55,10.71,5,2.88,9.91,5.93,14.92,8.78a62.42,62.42,0,0,0,5.81,2.54c1.39-4.82,1.39-8.25-3.32-10.48-1.88-.89-3.17-3-4.73-4.57l8.84,3.92c-.85-4.22,1.75-8.13-2.93-10.79-16.62-9.44-33.11-19.1-49.68-28.64a26.74,26.74,0,0,0-4-1.5c.18,3.87.33,7,.48,10.07Z"/><path class="cls-21" d="M375.84,277.2a50.27,50.27,0,0,1-5.26,5.54c-1,.82-2.79.73-4.22,1.06-.05-1.34-.46-2.79-.07-4a34.87,34.87,0,0,1,2.6-5.23l.42-2.16c5.36-1.16,6.05-5.64,7.05-9.9a.6.6,0,0,1,.56-.19l1.39-.94,14.48-19.62c1.29-1.48,2.66-2.9,3.85-4.46q15.87-20.74,31.66-41.54l.31,0,.29-.07.14.12-.08,12a54.1,54.1,0,0,0-5.6,5.18c-4.73,5.73-9.25,11.64-13.86,17.47l1.05,1c1.81-1.91,3.61-3.84,5.45-5.72,4-4,8-8.07,11.94-12.11,2,5,1.59,9.26-2.63,13.43-11.84,11.74-23.38,23.78-34.87,35.87-2.64,2.78-4.56,6.26-6.81,9.41a.82.82,0,0,1-.26.48C379.38,271.73,376.83,273.13,375.84,277.2Zm29.34-40.59,1.28-1-.3-.31-1,1.29-.21.26Z"/><path class="cls-22" d="M468.06,227l-4.24-2.26q-2.58-4-5.15-8c-2.16-5.25-7.47-6.39-11.69-8.95l1.46-2.12,1.57-.05c19.48,11.26,38.93,22.59,58.46,33.75,6.88,3.93,14,7.45,21,11.16l-1.23,3.55-4.8-2.53-18.74-9.93-5.05,1.94-4.76-1Z"/><path class="cls-17" d="M434.76,187.84l4.16,0c4.9-.17,8.48,2.29,11.29,6,.64.82,1.07,2.74.59,3.34-6,7.51-12.14,14.86-18.55,22.61L429,212.5c0-1.24.07-2.48.11-3.71l1.83-.86q5-5.88,10-11.77l-1-.83q-4.42,3.16-8.83,6.35c-.05-1.87-.09-3.74-.13-5.62l-.45-5.11c2.52,3.05,2.8-.8,4.15-1.34.07-.4.13-.81.19-1.21A.39.39,0,0,1,434.76,187.84Z"/><path class="cls-16" d="M519.32,236l6-2.6c.86,1.26,2.69,2.84,2.4,3.72-1,2.9-9.26,5.19-11.83,3.7Q486.74,224,457.56,207.21a73,73,0,0,0-7.56-3.32l-.4-.38,2.33-3.58c8,4.57,15.73,9,23.44,13.42,11.33,6.54,22.52,13.31,34,19.52C512.33,234.45,515.14,237.82,519.32,236Z"/><path class="cls-22" d="M500.19,97.45l-.28-.15-1.56-.93L461,74.87l.59-4.36c1.41.77,2.79,1.59,4.23,2.3,2.26,1.13,3.8.78,3.94-2.11l2.95.2a43.16,43.16,0,0,0,4.72,3.52,38.87,38.87,0,0,0,5.25,2.11l3,1c1.89,2.46,4.07,4.76,5.62,7.43a15.49,15.49,0,0,0,10.62,7.71l-.54,4.59Z"/><path class="cls-13" d="M516.19,181.92c-.16-2-.46-3.92-.46-5.88q0-27.94.12-55.89a54.71,54.71,0,0,1,.65-5.83c.32,4.2.89,8.4.91,12.61q.17,25.22,0,50.45C517.4,178.89,516.62,180.41,516.19,181.92Z"/><path class="cls-18" d="M429.11,208.79c0,1.23-.07,2.47-.11,3.71l-1.06,1.15c-4,4-8,8.06-11.94,12.11-1.84,1.88-3.64,3.81-5.45,5.72l-1.05-1c4.61-5.83,9.13-11.74,13.86-17.47a54.1,54.1,0,0,1,5.6-5.18Z"/><path class="cls-17" d="M501.35,97.25l.54-4.59A19.48,19.48,0,0,0,500,89.1c-1.3-1.58-2.86-2.95-4.32-4.41l9,5.2C504,92.54,506.18,96.47,501.35,97.25Z"/><path class="cls-15" d="M491,206.67a.88.88,0,0,1,.61.13,23.62,23.62,0,0,1,1.77,4.44c.17.92-.53,2-.83,3l-2.93-1.51,0,0c2.85-.1,3.37-1.12,1-2.94s-4.68-3.32-7-5l.06-.06Z"/><path class="cls-15" d="M478.7,206.78c-2.86-.71-4.07-3.09-2.29-4.93,2.32-2.41,4.57,0,6.34,1.88l-.1.11-4.58-.67.67,3.56Z"/><path class="cls-15" d="M489.63,212.74l-8.95-5,0,0,9,5Z"/><path class="cls-13" d="M516.52,110.33l-1-4C517.86,107.17,517.75,108.61,516.52,110.33Z"/><path class="cls-13" d="M513.48,218.91l2.41,0-.5,1.47C514.76,219.87,514.12,219.39,513.48,218.91Z"/><path class="cls-15" d="M480.68,207.78l-2-1,0-.05,2,1Z"/><path class="cls-16" d="M450,205.63l-1.57.05,1.16-2.17.4.38C450,204.47,450,205.05,450,205.63Z"/><path class="cls-15" d="M482.75,203.73l1,1-.06.06-1-.95Z"/><path class="cls-1" d="M352.43,359.92q1-17.62,1.93-35.26a45.38,45.38,0,0,0,.62-5.29c0-5.91-.22-11.83,0-17.73,0-1.17,1.64-3.25,2.56-3.27,10.38-.3,16.13-6.31,19.71-15.26a7,7,0,0,1,1.2-1.57l.3.08.33-.12c3.13,1.47,6.37,2.72,9.36,4.43,12.62,7.21,25.17,14.56,37.73,21.87a15.7,15.7,0,0,1,1.88,1.71c-1.47,1-2.57,1.85-3.78,2.51-10.9,5.86-19.74,14.24-28.34,22.94-5.8,5.87-11.34,12.11-17.79,17.17C370.78,357.89,361.42,358.68,352.43,359.92Z"/><path class="cls-26" d="M430.05,303.22c1.51-4.1,3.27-4.68,8.91-2.91,1.11,3.7,0,5.52-3.86,5.21C433.36,305.38,431.73,304,430.05,303.22Z"/><path class="cls-19" d="M379.07,281.5l-.33.12-.3-.08q-1.31-2.16-2.6-4.34c1-4.07,3.54-5.47,7.53-4.36l-.41,3.07Z"/><path class="cls-20" d="M344.47,370.39l7.19-1.88,4.12,1.06C354.08,373.51,351.31,373.62,344.47,370.39Z"/><path class="cls-22" d="M218.31,187.14l2.9-6c.76-1.66,1.56-3.29,2.27-5q4.78-11.42,9.54-22.86c1.27.8,2.52,1.63,3.84,2.32.06,0,1.23-1.54,1.08-1.72a38,38,0,0,0-3.39-3.45c-.08-.08-.31,0-.47,0q9-23.08,18-46.18c4.36-11.23,8.63-22.5,12.94-33.75l1.2-.1,5.89,2.42c.52,2.75.87,5.54,1.6,8.23,3,10.86,6,21.68,9.05,32.52,3.37,12.07,6.81,24.13,10.12,36.22,3.1,11.32,6.06,22.69,9.08,34l-3.12,6c-.68-1.71-1.45-3.39-2-5.14-.75-2.39-1.33-4.83-2-7.25-2.42-9-4.77-18.1-7.32-27.11-1-3.44-2.4-6.75-3.62-10.12a31.44,31.44,0,0,0-.7-4.36c-.89-3-2.64-3.32-5.28-1.36l2.1,4L269.8,163.1l-6.7-4c.26-.75.52-1.51.8-2.26Q268,146.05,272,135.2c.73-2.28,5.21-4.09.87-7a6,6,0,0,1,.08-1c3.44-1.8,6.8-4.13,5.64-8.47C276,109.11,272.91,99.57,270,90c-.18-1.65-.36-3.3-.55-4.94l-1.35-.17c-1.65,3.86-3.39,7.69-4.95,11.58q-21.74,54.29-43.36,108.62c-.66,1.65-.43,3.65-.62,5.49l.11,1.28a47.37,47.37,0,0,1-6.56-3.19c-.69-.46-1-2.37-.64-3.35,1.48-4.36,3.31-8.61,4.89-12.94A53.71,53.71,0,0,0,218.31,187.14Z"/><path class="cls-16" d="M219.29,211.83l-.11-1.28,3.66-1.89c2.49,1.27,5,2.44,7.47,3.82,7.15,4,16.07,1.88,21.16-5.45-3.66-2.21-7.42-4.25-10.91-6.66-2.58-1.79-4.73-1.49-7.3-.07a85.48,85.48,0,0,1-8,3.48l4-9.95,5.84-3.07c2.19,2.41,4.46,2.09,7,.5,3.62-2.24,7.39-4.26,11.1-6.37l1.85,1.9c-2.8,1.94-5.58,3.92-8.41,5.8-3.08,2-3.18,3.51-.1,5.38a76.14,76.14,0,0,0,8.62,4.75c1.52.67,3.78,1.17,5.11.53,4.21-2.05,8.13-4.67,12.72-7.41-2.15-1.44-3.82-2.4-5.31-3.59-2-1.58-3.82-3.34-5.73-5l3.41-2.35c2.06,1,4.18,1.92,6.17,3.05q15.62,8.83,31.18,17.77,1.07,4.44,2.12,8.86l-13.37,7.55.22,1.8,19.08,10.68q1.51,5.9,3,11.79l-12.72,7.47,17.63,8.57c.63,2.69,1.25,5.37,1.88,8.06a21.35,21.35,0,0,1-4.2-1.4c-9.28-5.41-18.54-10.86-27.72-16.44-2.48-1.5-4.68-3.46-7-5.21l.86-4.13c3.52,1.79,7,3.64,10.58,5.32,1.41.66,3.4,1.75,4.43,1.24,4.49-2.22,8.73-5,13.61-7.84a36.49,36.49,0,0,0-3-2.3c-6.13-3.55-12.35-7-18.41-10.64-5.25-3.18-5.38-3.29-10.17,1l-2.87-1.81c1-1.44,2-2.87,3.52-5L273,220.56c-.22-1.68-.45-3.37-.68-5.05l.23-1.7c3.7,1.75,7.37,3.55,11.1,5.23,1.16.53,2.8,1.43,3.64,1,4.34-2.18,8.49-4.74,12.65-7.14-.5-1.21-.56-1.87-.9-2.07-6.36-3.81-12.73-7.61-19.17-11.29a3.27,3.27,0,0,0-2.77,0c-4.08,2.37-8.06,4.92-12.3,7.56l3.38,4.7-5.7,1.14c-5.15-1.82-14.62,1.66-18.91,7.18,1.42.82,2.86,1.53,4.16,2.43,3.81,2.66,7.55,5.39,11.32,8.09L255.51,233c-7.15-3.94-14.37-7.75-21.42-11.85C229,218.26,224.21,215,219.29,211.83Z"/><path class="cls-7" d="M255.51,233l3.53-2.42a2.29,2.29,0,0,1,.06.78c2.76,3.14,5,6.46,4,11L258.48,244l.08,1.75,6.17.74c2.18,1.24,3.53,1.09,4.24-1.77.3-1.22,1.75-2.94,2.83-3.05,3.63-.38,4.18-2.56,4.07-5.47-.1-2.46-.16-4.91-.24-7.37l1-.57,2.87,1.81q1.49,6.6,3,13.2l-.86,4.13-6.33.26a49.88,49.88,0,0,1-6,1.58c-4,.54-8,.82-12,1.21l-.77-.89Q256,241.31,255.51,233Z"/><path class="cls-6" d="M164.25,367c.59,3.15,2.84,3.76,5.57,3.66a50.68,50.68,0,0,1-5.06,3.77c-8.29,4.77-16.64,9.43-25,14.14q.06-17.61.13-35.21l8.18-5.65c3.71,1.25,4.56,3.88,4.6,7.66.05,5,1,9.95,1.59,14.92.52,2.58,1.1,5.09,4.63,5.41.51-2.41,1-4.68,1.46-7l2.43-3.92Z"/><path class="cls-5" d="M572.7,452.89l1.29-6.56c1.5-3.62,3.69-7.12,4.32-10.88,1.09-6.43,5.1-8.89,10.77-10l6.07,4.24a61.55,61.55,0,0,0-1,8.27c.09,9.06.44,18.11.69,27.17Z"/><path class="cls-4" d="M450,205.63c0-.58,0-1.16,0-1.74a73,73,0,0,1,7.56,3.32q29.2,16.74,58.31,33.63c2.57,1.49,10.88-.8,11.83-3.7.29-.88-1.54-2.46-2.4-3.72.16-.5.33-1,.5-1.5l1.39,0,5.91,2.95,5.26,2.81,5.83,4.42-14.75,8.49c-7-3.71-14.09-7.23-21-11.16C488.94,228.22,469.49,216.89,450,205.63Z"/><path class="cls-22" d="M533.1,234.82l-5.91-2.95-1.48-16.55q0-27,.08-54c0-1.47.27-2.94.41-4.41.46,3.36,1,6.71,1.35,10.09,1.3,12.92,2.64,25.84,3.72,38.78C532.08,215.45,532.51,225.14,533.1,234.82Z"/><path class="cls-16" d="M495.68,84.69c1.46,1.46,3,2.83,4.32,4.41a19.48,19.48,0,0,1,1.89,3.56A15.49,15.49,0,0,1,491.27,85c-1.55-2.67-3.73-5-5.62-7.43a3.22,3.22,0,0,1,.92-.2l6.67,3.4Z"/><path class="cls-5" d="M493.24,80.72l-6.67-3.4,7.93-4.85c.82,2.65,1.25,4,1.67,5.42Z"/><path class="cls-2" d="M525.62,129.26l.33,11.92c0,.31,0,.62,0,.93s-.28.72-.43,1.08c-.88-.35-2.5-.67-2.52-1-.14-3.9-.1-7.81.14-11.7C523.15,130,524.75,129.65,525.62,129.26Z"/><path class="cls-2" d="M525.49,114.31c.16.67.31,1.34.47,2-.13,3.63-.25,7.26-.38,10.89-1-.95-3-1.92-3-2.85C522.68,120.84,520.67,116.5,525.49,114.31Z"/><path class="cls-5" d="M525.71,215.32l1.48,16.55-1.39,0Z"/><path class="cls-1" d="M544.19,242.05l-5.83-4.42q-1.65-19-3.32-38a255.8,255.8,0,0,1-1.45-27.16,34.65,34.65,0,0,1,1.89,3.07c8.51,17.71,17,35.42,25.41,53.2.4.85,3.27,3-.56,3.51-5.26-1.4-8.31.92-8.9,6.76l-.87,8.6-10.32,4-.9-2.1c1.08-.91,2.44-1.63,3.15-2.77A22.37,22.37,0,0,0,544.19,242.05Z"/><path class="cls-3" d="M550.56,247.64l.87-8.6c.59-5.84,3.64-8.16,8.9-6.76l-.18,1.18c-1.1,1.88-2.8,3.65-3.17,5.67-.62,3.36-.39,6.88-.51,10.33-1.14,1-2.13,2.31-3.44,2.87a26.24,26.24,0,0,1-5.38,1.15Z"/><path class="cls-19" d="M556.47,249.46c.12-3.45-.11-7,.51-10.33.37-2,2.07-3.79,3.17-5.67l3.41,3.1q-.69,5-1.4,10l.06-.08Z"/><path class="cls-22" d="M525.93,142.11c0-.31,0-.62,0-.93a4.32,4.32,0,0,1,.23.66C526.19,141.92,526,142,525.93,142.11Z"/><path class="cls-19" d="M352.11,281.09l-.12,2-2.52,4.19-4.79-1.76q3-7,6-14L352,276Z"/><polygon class="cls-1" points="574.13 459.26 573.9 458.99 574.16 459.23 574.13 459.26"/><path class="cls-10" d="M266.22,70.47l-1.2.1c-2.63.11-5.26.13-7.88.35-10.14.86-20.27,1.79-30.41,2.69l-3.85-1.07,6-6.72q33.81-2.49,67.62-5c11.52-.82,23.07-1.42,34.59-2.25,21.23-1.52,42.46-3.15,63.68-4.72q16.54-1.23,33.1-2.39l.78,2.24,0,3.67-1.14.86a13.33,13.33,0,0,1-1.93.42l-99.57,7.18,0-.05-1.19.67-6.19,2.1-4.73,0-.3-1c-1.92-3.31-3.93-.5-5.91-.08l-1,1.09-3.77,2.91-4.74-3.79-5.49.36,0-1.49c.32-3.25-1.1-5.09-4.2-3.5-4.14,2.13-7.91,5-11.84,7.48a6.51,6.51,0,0,1-.76-.07C271.51,66.73,270.34,66.72,266.22,70.47Z"/><path class="cls-18" d="M428.69,53.74l-.78-2.24,4.86-2.58q-.81,2.4-1.6,4.8Z"/><path class="cls-16" d="M469.76,70.7c-.14,2.89-1.68,3.24-3.94,2.11-1.44-.71-2.82-1.53-4.23-2.3l3.49-3Z"/><path class="cls-22" d="M259.07,454.48l5.47,4.7c-3.44,3.83-7.85,4.94-12.24,4.82-1.61,0-3.15-2.9-4.72-4.48.71.38,1.43.76,2.15,1.12C254.76,463.17,258.06,461,259.07,454.48Z"/><path class="cls-21" d="M160.38,368.71c-.47,2.27-.95,4.54-1.46,7-3.53-.32-4.11-2.83-4.63-5.41Z"/><path class="cls-18" d="M260.17,302.29c2.55-.73,5.41-1.12,5.34-4.78.69,1.4,1.46,2.77,2.07,4.2.52,1.22.86,2.51,1.29,3.77-1.53.31-3.37,1.29-4.52.77C262.7,305.5,261.54,303.66,260.17,302.29Z"/><path class="cls-18" d="M284.23,297.45h-7.49l3.3-4.51c1.13.18,2.27.3,3.39.53C286.8,294.16,286.88,295.54,284.23,297.45Z"/><path class="cls-1" d="M226.73,73.61c10.14-.9,20.27-1.83,30.41-2.69,2.62-.22,5.25-.24,7.88-.35-4.31,11.25-8.58,22.52-12.94,33.75q-9,23.12-18,46.18c-.35.95-.7,1.9-1.06,2.85q-4.77,11.43-9.54,22.86c-.71,1.68-1.51,3.31-2.27,5-1.34-.49-2.71-.91-4-1.49a29.91,29.91,0,0,1-3-1.75l-4.42-.65c-.9-3.64-2-7.23-2.62-10.92-.71-4.42-2.81-7.54-7-9.23.53-9.75.44-19.6,4.19-28.89l0-2,.25-1q.19-6.09.4-12.19l.84-5.76,6.37-13.94C215.15,85.44,222.11,80.38,226.73,73.61Z"/><path class="cls-1" d="M191.87,151.36c-3.46-6.92-2.49-9.42,4.74-12.3a19,19,0,0,0,2.17-1.18l-1.38,16.43Z"/><path class="cls-15" d="M197.4,154.31l1.38-16.43,4.08-9,1.53-.59c-3.75,9.29-3.66,19.14-4.19,28.89-.65,1-1.3,2-1.94,2.94l-1.27-.29Z"/><path class="cls-9" d="M209.8,177.29l4.42.65c.12.48.47,1,.32,1.41-1.31,3.33-7.58,6-11.22,4.75Z"/><path class="cls-11" d="M589.08,425.49c-5.67,1.07-9.68,3.53-10.77,10-.63,3.76-2.82,7.26-4.32,10.88h-1.1c-1.36-.69-2.73-1.35-4.06-2.09-1.74-1-3.44-2-5.16-3,.8-5.48,1.47-11,2.46-16.44.27-1.48,1.48-2.79,2.26-4.18l11,3.55c2.93,2.77,4.41-.2,6.28-1.6L599,415q-.88,2.85-1.79,5.71L595,422.53l-1.85,1-2.49,1.18Z"/><path class="cls-5" d="M590.66,424.75l2.49-1.18Z"/><path class="cls-5" d="M595,422.53l2.18-1.83Z"/><path class="cls-29" d="M204.39,128.25l-1.53.59c.5-.84,1-1.69,1.49-2.54Z"/><path class="cls-8" d="M257.23,256.51a4,4,0,0,1,.2.58c0,.05-.16.14-.24.2A.68.68,0,0,1,257.23,256.51Z"/><path class="cls-1" d="M544.37,300.43q-1.74-20.48-3.47-40.95l6.75-4.3q1.35,5.64,2.69,11.28a2.08,2.08,0,0,0,0,1l0,1.83q-.39,5.64-.79,11.27l5.68,14.72Z"/><path class="cls-7" d="M549.6,280.52l.79-11.27c2.29-.81,5.55-.94,6.69-2.56,2.36-3.33,3.58-7.46,5.27-11.26l1.37-.28q.18,10.39.35,20.77A23.32,23.32,0,0,1,549.6,280.52Z"/><path class="cls-5" d="M546.86,303.87c-.24,2.24,2,4.95-1.29,6.59-.93-1.55-2.3-3-2.65-4.67-.31-1.42.55-3.09.9-4.65Z"/><path class="cls-30" d="M144.74,309.31l4.74.51c-.36,5.09-.73,10.18-1.16,16.22Z"/><path class="cls-4" d="M352,276l-1.35-4.47c-3.54-2.57-7.35-2.49-10.48.21s-1.82,6-.28,9.12a8.58,8.58,0,0,1,.43,2.36,1,1,0,0,0-.8.5l-12.63,7.09c-.87-.49-1.74-1-2.6-1.45l-47.19-27.13-.47-1.26-1.35-13.32,6.33-.26c2.33,1.75,4.53,3.71,7,5.21,9.18,5.58,18.44,11,27.72,16.44a21.35,21.35,0,0,0,4.2,1.4l5.89,3c3.54,1.93,5.39.36,6.34-3.06,3.41-1.94,7-3.59,10.18-5.89s5.42-1.61,8.4.15c3.32,2,7.05,3.23,10.6,4.79Z"/><path class="cls-22" d="M277.12,262.27l47.19,27.13c.86.49,1.73,1,2.6,1.45-.05,1.49-.09,3-.14,4.49-3.21-1.64-6.49-3.14-9.62-4.93-11.31-6.47-22.56-13.05-33.86-19.55-1.42-.81-3-1.39-4.46-2.08Z"/><path class="cls-9" d="M326.77,295.34c.05-1.5.09-3,.14-4.49l12.63-7.09-1.22,6.37Z"/><path class="cls-5" d="M573.12,414.51l.52-.89,5,.79,4.5,3.44c-.35.76-.69,1.52-1,2.29l-2.94,1.37Z"/><path class="cls-11" d="M583.09,417.85l-4.5-3.44,1.47-2.59,5.39,2.16Z"/><path class="cls-19" d="M579.12,421.51l2.94-1.37,3.62,2.44c-1.87,1.4-3.35,4.37-6.28,1.6Z"/><path class="cls-1" d="M434.76,187.84a.39.39,0,0,0,.07.56c-.06.4-.12.81-.19,1.21-1.35.54-1.63,4.39-4.15,1.34l.12-8.08a.83.83,0,0,0,0-.92q0-59.7.05-119.39c-.05-.92-.09-1.85-.14-2.77l.56-1.4,3.53.3q0,63.84,0,127.67A10.7,10.7,0,0,0,434.76,187.84Z"/><path class="cls-12" d="M464.88,169c.56-4,1.08-8,1.68-11.93.24-1.55.65-3.07,1-4.61l1.78.37v4.83l9.54-5.54.85.05c-.2,4,1.85,6.82,4.7,9.25-4.23,6.88-11.2,8.26-18.39,9.19C465.63,170,465.26,169.49,464.88,169Z"/><path class="cls-2" d="M451.88,187.34c-5.61-4.11-4.83-5.87,4-9.52C454.6,180.83,453.34,183.84,451.88,187.34Z"/><path class="cls-21" d="M340.34,283.26a8.58,8.58,0,0,0-.43-2.36c-1.54-3.13-2.72-6.54.28-9.12s6.94-2.78,10.48-.21q-3,7-6,14Z"/><path class="cls-6" d="M579.12,421.51l.28,2.67-11-3.55c-.66-3.21-1.31-6.41-2-9.62l6.7,3.5Z"/><path class="cls-5" d="M586.12,376.89l.91.7Z"/><path class="cls-21" d="M430.64,62.56q0,59.7-.05,119.39c-.06.1-.19.2-.17.29a3.51,3.51,0,0,0,.19.63l-.12,8.08.45,5.11-1.9-.21-.14-.12c-.13-2-.27-3.91-.4-5.87q0-63.3.07-126.6l.21-4.64c0-.4,0-.81-.07-1.21l0-3.67,2.48,0-.11,4.67-.56,1.4C430.55,60.71,430.59,61.64,430.64,62.56Z"/><path class="cls-7" d="M562.35,255.43c-1.69,3.8-2.91,7.93-5.27,11.26-1.14,1.62-4.4,1.75-6.69,2.56l0-1.83c.07-.1.22-.22.2-.31a4.15,4.15,0,0,0-.22-.65q-1.35-5.64-2.69-11.28v-1.7a26.24,26.24,0,0,0,5.38-1.15c1.31-.56,2.3-1.88,3.44-2.87l5.75-3a30.17,30.17,0,0,1-1.16,5.42C560.34,253.7,559.94,255,562.35,255.43Z"/><path class="cls-14" d="M454.53,289.28l-5.5,2.88q-1.26-2.06-2.51-4.13c1.43-.62,2.87-1.75,4.3-1.73C452.43,286.32,455.12,286.07,454.53,289.28Z"/><path class="cls-1" d="M466.15,245.61l.87-10.07.7,1c.87,1.26,1.48,2.94,2.67,3.72,3.86,2.53,8,4.63,11.92,7.07,4.17,2.59,8.21,5.36,12.3,8.06-.67,1.55-1.33,3.11-2,4.66-7-4-14.07-8-21.14-11.94C469.76,247.19,467.92,246.45,466.15,245.61Z"/><path class="cls-18" d="M492.61,260.09c.67-1.55,1.33-3.11,2-4.66l4,2-1.23,5.06-2.44,1.92Z"/><path class="cls-18" d="M534.28,280.43c-3.42-.85-2.71-3.65-2.85-6l-.16-2.52q-.71-8.16-1.4-16.32l5.51-4.09c.66,6.48,1.39,13,2,19.45.21,2.42,0,4.88,0,6.87Z"/><path class="cls-21" d="M535.38,251.46l-5.51,4.09-1.22-.81a5.7,5.7,0,0,1-.44-.65l1.23-3.55,14.75-8.49a22.37,22.37,0,0,1-1.7,4.67c-.71,1.14-2.07,1.86-3.15,2.77Z"/><path class="cls-16" d="M531.27,271.87l.16,2.52q-9.63-4.92-19.25-9.85c-4.54-2.34-9.06-4.72-13.58-7.08l-4-2c-4.09-2.7-8.13-5.47-12.3-8.06-3.92-2.44-8.06-4.54-11.92-7.07-1.19-.78-1.8-2.46-2.67-3.72,2.33,1.22,4.66,2.42,7,3.66l20,10.71,4.72,2.81,4.39,2.72,13.65,8.1Z"/><path class="cls-1" d="M494.68,251l-20-10.71c-2.32-1.24-4.65-2.44-7-3.66l-.7-1c.35-2.84.69-5.68,1-8.52l26.8,15.54Z"/><path class="cls-27" d="M457.3,90.2c-.15-3.1-.3-6.2-.48-10.07a26.74,26.74,0,0,1,4,1.5c16.57,9.54,33.06,19.2,49.68,28.64,4.68,2.66,2.08,6.57,2.93,10.79l-8.84-3.92,0,.1-3.88-2.2.08-.08L483.54,104.5c-6.93-4.1-13.82-8.27-20.81-12.27A33.89,33.89,0,0,0,457.3,90.2Z"/><path class="cls-26" d="M480.78,145.42c-7.13-2.44-8.87-7.61-8.12-14.66.56-5.29.11-10.69.11-16l1.39-.77c5.47,3.17,11,6.22,16.34,9.62.88.56,1.06,2.63,1.1,4,.14,5.44.1,10.88.12,16.32Z"/><path class="cls-14" d="M459.78,104.31c2.41,1.83,4.89,3.58,7.21,5.52,1.18,1,2.92,2.27,3,3.47.26,8.18.14,16.38.14,25.85-4.56-2.68-8.36-4.79-12-7.15a4.11,4.11,0,0,1-1.21-3c-.07-7.25-.11-14.5.16-21.75,0-1,1.85-1.91,2.84-2.87Z"/><path class="cls-20" d="M504.6,117.14c1.56,1.56,2.85,3.68,4.73,4.57,4.71,2.23,4.71,5.66,3.32,10.48a62.42,62.42,0,0,1-5.81-2.54c-5-2.85-9.92-5.9-14.92-8.78-5.76-3.31-5.92-3.58-4.55-10.71l13.46,4.8-.08.08,3.88,2.2Z"/><path class="cls-28" d="M483.15,114.31c-1.27-.11-2.74.16-3.77-.4-4.76-2.58-9.34-5.51-14.11-8.06-1.63-.88-3.65-1-5.49-1.54l.11.1a13.61,13.61,0,0,1-2.6-12.6l25.34,14.52q.27,3,.52,6Z"/><path class="cls-28" d="M480.78,145.42l10.94-1.52,18.7,5c0,.72-.06,1.44-.08,2.16-4.62,1-9.45,1.46-13.78,3.19s-8.13,4.72-12.16,7.16c-2.85-2.43-4.9-5.27-4.7-9.25L500.24,147c-6.95-1.45-14.48-2.24-21.58,2.3l-2.74-.34,0-1.24Z"/><path class="cls-27" d="M469.31,152.78l-1.78-.37c-.75-.31-1.54-.57-2.26-.95-9.21-5-9.21-5-8-16.87l12.42,7.82a1,1,0,0,0,.14.68c0,1.82,0,3.64,0,5.46v3.75A2.24,2.24,0,0,0,469.31,152.78Z"/><path class="cls-6" d="M482.63,106.33,457.29,91.81c0-.53,0-1.07,0-1.61a33.89,33.89,0,0,1,5.43,2c7,4,13.88,8.17,20.81,12.27Z"/><path class="cls-12" d="M475.9,147.75l0,1.24-4,1.29-.21-.22h-.06Z"/><path class="cls-12" d="M469.85,152.3v-3.75L471.6,150l.1,0,.21.22Z"/><path class="cls-6" d="M483.15,114.31v0Z"/><path class="cls-17" d="M498.35,96.37l1.56.93Z"/><polygon class="cls-19" points="471.7 150.06 471.6 150.04 471.64 150.06 471.7 150.06"/><path class="cls-12" d="M469.87,143.09a1,1,0,0,1-.14-.68,5.63,5.63,0,0,1,.36.46S470,143,469.87,143.09Z"/><path class="cls-1" d="M326.07,65.87l99.57-7.18a13.33,13.33,0,0,0,1.93-.42.47.47,0,0,0,.36.42c0,.32-.05.64-.09,1a42.92,42.92,0,0,0-.78,5.8q-.07,62.25,0,124.49a44.41,44.41,0,0,0,.75,5.81l.24.08.25,0q-15.82,20.78-31.66,41.54c-1.19,1.56-2.56,3-3.85,4.46L371.34,229.4c-.38-.62-.76-1.24-1.13-1.86l-.7-.94-.11-.14c-.66-2.2-1.35-4.39-2-6.6q-6.68-23.45-13.33-46.91-1.89-7-3.77-13.91c-.15-.8-.24-1.62-.46-2.4q-12.47-45.07-24.94-90.15l1.19-.67Z"/><path class="cls-4" d="M371.34,229.4l21.45,12.38L378.31,261.4l-1.39.94a.6.6,0,0,0-.56.19l-10.92,5.24-11.63-8.84,12.57-8.53,3,0c5.46-.78,6-1.48,4.81-6.23-.48-1.87-1.09-3.71-1.64-5.56Z"/><path class="cls-9" d="M365.44,267.77l10.92-5.24c-1,4.26-1.69,8.74-7.05,9.9l-12,6-5.17,2.62-.09-5,10-6.54Z"/><path class="cls-3" d="M429,195.85l1.9.21c0,1.88.08,3.75.13,5.62,0,2.08-.08,4.17-.13,6.25l-1.83.86-.15-1Z"/><path class="cls-6" d="M428.5,189.86c.13,2,.27,3.91.4,5.87l-.29.07-.31,0-.25,0-.24-.08Z"/><path class="cls-18" d="M405.13,236.56l1-1.29.3.31-1.28,1Z"/><path class="cls-9" d="M376.92,262.34l1.39-.94Z"/><polygon class="cls-18" points="405.18 236.61 404.92 236.82 405.13 236.56 405.18 236.61"/><path class="cls-1" d="M517.44,264.58l-13.65-8.1q.45-7.43.88-14.85l18.74,9.93,4.8,2.53a5.7,5.7,0,0,0,.44.65c-1.17,1.79-2,4-3.59,5.28C522.8,261.88,520,263.09,517.44,264.58Z"/><path class="cls-21" d="M504.67,241.63q-.44,7.43-.88,14.85l-4.39-2.72c.07-3.4.15-6.79.22-10.19Z"/><path class="cls-18" d="M499.62,243.57c-.07,3.4-.15,6.79-.22,10.19L494.68,251l.18-8.39Z"/><path class="cls-18" d="M430.94,207.93c.05-2.08.09-4.17.13-6.25q4.41-3.18,8.83-6.35l1,.83Q435.93,202,430.94,207.93Z"/><path class="cls-15" d="M434.64,189.61c.07-.4.13-.81.19-1.21C434.77,188.8,434.71,189.21,434.64,189.61Z"/><path class="cls-3" d="M482.65,203.84l1,.95c2.35,1.66,4.76,3.23,7,5s1.82,2.84-1,2.94l-9-5-2-1-.67-3.56Z"/><path class="cls-16" d="M263.1,159.14l6.7,4,3.05,1.46,22,12.92c.65,2.42,1.23,4.86,2,7.25.55,1.75,1.32,3.43,2,5.14v0c-.1.09-.29.21-.27.27a3.15,3.15,0,0,0,.29.65l.94,1q.48,3,1,6c-5.55-3.15-11-6.43-16.65-9.41s-11.33-5.64-17-8.44L263,177.8l-5.84-4.91-3.16-1-5-3-8-5.19q2.67-6.87,5.33-13.72Z"/><path class="cls-18" d="M299.79,191.85l-.94-1c0-.31,0-.62,0-.92v0l3.12-6c2.1,1.92,4.11,2.24,5.94-.35a37.43,37.43,0,0,0,4.47-1.84c6.76-3.76,13.46-7.61,20.18-11.43,2.54-1.23,7.35-.53,4.95-6-.21-.49,1.36-2.07,2.37-2.73a18.49,18.49,0,0,1,3.89-1.47l6.56-1q1.88,7,3.77,13.91l-4.71,2.14-5,2.93c-.66,0-1.46-.2-2,.1q-14.42,8.65-28.78,17.43l-1.7,1.34-5.21,1.93c-.57-1.51-1.22-3-1.7-4.52C304.14,191.54,302.41,190.79,299.79,191.85ZM341.73,165l0-.39c-.24,0-.49,0-.72.1a2.33,2.33,0,0,0,0,.39Z"/><path class="cls-9" d="M307.9,183.54c-1.83,2.59-3.84,2.27-5.94.35-3-11.34-6-22.71-9.08-34-3.31-12.09-6.75-24.15-10.12-36.22-3-10.84-6.1-21.66-9.05-32.52-.73-2.69-1.08-5.48-1.6-8.23l3.9-2.37a6.51,6.51,0,0,0,.76.07c.57,1.29,1.15,2.57,1.73,3.85l7.26,27q2.08,5.1,4.16,10.22.46,3.79.94,7.61,1.31,5.37,2.63,10.73l5.77,20c.52,2.07,1,4.16,1.56,6.23Z"/><path class="cls-1" d="M270,90c2.9,9.6,6,19.14,8.6,28.82,1.16,4.34-2.2,6.67-5.64,8.47-2.2,1.06-4.44,2-6.59,3.21-5.35,2.87-10.65,5.82-16,8.74Z"/><path class="cls-9" d="M270,90l-19.6,49.24-.36,2,.09-.06a5.23,5.23,0,0,1-.64.5q-1.2,3.76-2.42,7.53l-.74.82q-2.67,6.85-5.33,13.72-2.59,6.19-5.2,12.4c-1,2.62-2.05,5.23-3.07,7.85l-3.52,9.89-4,9.95-2.4,4.88-3.66,1.89c.19-1.84,0-3.84.62-5.49q21.58-54.34,43.36-108.62c1.56-3.89,3.3-7.72,4.95-11.58l1.35.17C269.65,86.67,269.83,88.32,270,90Z"/><path class="cls-1" d="M294.86,177.48l-22-12.92q4.88-12,9.76-24l1.31-.27c1.22,3.37,2.65,6.68,3.62,10.12C290.09,159.38,292.44,168.44,294.86,177.48Z"/><path class="cls-1" d="M246.34,150l.74-.82c1.78-.82,3.62-1.51,5.31-2.48C259,142.89,265.48,139,272,135.2Q268,146,263.9,156.88c-.28.75-.54,1.51-.8,2.26Z"/><path class="cls-1" d="M272,135.2c-6.54,3.83-13.06,7.69-19.63,11.47-1.69,1-3.53,1.66-5.31,2.48q1.21-3.77,2.42-7.53a2.57,2.57,0,0,1,.64-.5l-.09.06,22.84-13C277.23,131.11,272.75,132.92,272,135.2Z"/><path class="cls-21" d="M282.61,140.52q-4.87,12-9.76,24l-3.05-1.46L280,138.56Z"/><path class="cls-12" d="M272.89,128.21l-22.84,13,.36-2c5.32-2.92,10.62-5.87,16-8.74,2.15-1.16,4.39-2.15,6.59-3.21A6,6,0,0,0,272.89,128.21Z"/><path class="cls-12" d="M276,70.52l-3.9,2.37-5.89-2.42C270.34,66.72,271.51,66.73,276,70.52Z"/><path class="cls-16" d="M282.61,140.52l-2.57-2-2.1-4c2.64-2,4.39-1.62,5.28,1.36a31.44,31.44,0,0,1,.7,4.36Z"/><path class="cls-15" d="M233,153.35l1.05-2.85c.16,0,.39-.08.47,0a38,38,0,0,1,3.39,3.45c.15.18-1,1.75-1.08,1.72C235.54,155,234.29,154.15,233,153.35Z"/><path class="cls-22" d="M299.79,191.85c2.62-1.06,4.35-.31,5.21,2.45.48,1.53,1.13,3,1.7,4.52q7.43,26.9,14.83,53.79,2,5.89,3.94,11.8l1,9.1-5.89-3c-.63-2.69-1.25-5.37-1.88-8.06l-4.91-16q-1.5-5.9-3-11.79-3-10-5.93-20-1.05-4.42-2.12-8.86-1-3.93-1.94-7.88Q300.27,194.84,299.79,191.85Z"/><path class="cls-4" d="M268.17,211.77l-3.38-4.7c4.24-2.64,8.22-5.19,12.3-7.56a3.27,3.27,0,0,1,2.77,0c6.44,3.68,12.81,7.48,19.17,11.29.34.2.4.86.9,2.07-4.16,2.4-8.31,5-12.65,7.14-.84.43-2.48-.47-3.64-1-3.73-1.68-7.4-3.48-11.1-5.23Z"/><path class="cls-4" d="M282.49,243.3q-1.49-6.6-3-13.2c4.79-4.31,4.92-4.2,10.17-1,6.06,3.68,12.28,7.09,18.41,10.64a36.49,36.49,0,0,1,3,2.3c-4.88,2.88-9.12,5.62-13.61,7.84-1,.51-3-.58-4.43-1.24C289.5,246.94,286,245.09,282.49,243.3Z"/><path class="cls-4" d="M262,187.23c1.91,1.68,3.75,3.44,5.73,5,1.49,1.19,3.16,2.15,5.31,3.59-4.59,2.74-8.51,5.36-12.72,7.41-1.33.64-3.59.14-5.11-.53a76.14,76.14,0,0,1-8.62-4.75c-3.08-1.87-3-3.34.1-5.38,2.83-1.88,5.61-3.86,8.41-5.8l4.9.16Z"/><path class="cls-4" d="M222.84,208.66l2.4-4.88a85.48,85.48,0,0,0,8-3.48c2.57-1.42,4.72-1.72,7.3.07,3.49,2.41,7.25,4.45,10.91,6.66-5.09,7.33-14,9.48-21.16,5.45C227.88,211.1,225.33,209.93,222.84,208.66Z"/><path class="cls-4" d="M300.77,197.82q1,3.94,1.94,7.88-15.58-8.89-31.18-17.77c-2-1.13-4.11-2-6.17-3.05l1.75-4.91c5.68,2.8,11.42,5.47,17,8.44S295.22,194.67,300.77,197.82Z"/><path class="cls-4" d="M259,230.61c-3.77-2.7-7.51-5.43-11.32-8.09-1.3-.9-2.74-1.61-4.16-2.43,4.29-5.52,13.76-9,18.91-7.18-1.39,3-3.57,6-.46,9.22.42,1.57.84,3.13,1.25,4.69l-4.16,4.57A2.29,2.29,0,0,0,259,230.61Z"/><path class="cls-4" d="M304.83,214.56q3,10,5.93,20l-19.08-10.68-.22-1.8Z"/><path class="cls-18" d="M229.22,193.83q1.75-4.94,3.52-9.89l21.27-12,3.16,1L255,179.14l-19.94,11.62Z"/><path class="cls-19" d="M263.26,226.82c-.41-1.56-.83-3.12-1.25-4.69a11.07,11.07,0,0,0,1.38-2.89c.74-4.83,3.86-4.74,7.48-3.83a7.63,7.63,0,0,0,1.44.1c.23,1.68.46,3.37.68,5.05l-.93,5.85c-1.2,2.26-2.39,4.52-3.5,6.6Z"/><path class="cls-4" d="M313.77,246.38l4.91,16-17.63-8.57Z"/><path class="cls-4" d="M235.06,190.76,255,179.14l-1.8,5.75c-3.71,2.11-7.48,4.13-11.1,6.37C239.52,192.85,237.25,193.17,235.06,190.76Z"/><path class="cls-10" d="M253.2,184.89l1.8-5.75,2.17-6.25L263,177.8,260,187l-4.9-.16Z"/><path class="cls-6" d="M272.31,215.51a7.63,7.63,0,0,1-1.44-.1c-3.62-.91-6.74-1-7.48,3.83a11.07,11.07,0,0,1-1.38,2.89c-3.11-3.23-.93-6.21.46-9.22l5.7-1.14,4.37,2Z"/><path class="cls-4" d="M272.06,226.41l.93-5.85,7.17,2.72c-1.51,2.14-2.52,3.57-3.52,5l-1,.57Z"/><path class="cls-9" d="M260,187,263,177.8l4.1,2.17-1.75,4.91L262,187.23Z"/><path class="cls-7" d="M272.06,226.41l3.57,2.45c.08,2.46.14,4.91.24,7.37.11,2.91-.44,5.09-4.07,5.47-1.08.11-2.53,1.83-2.83,3.05-.71,2.86-2.06,3-4.24,1.77l-1.58-4.14c1-4.53-1.29-7.85-4-11l4.16-4.57,5.3,6.19C269.67,230.93,270.86,228.67,272.06,226.41Z"/><path class="cls-19" d="M263.15,242.38l1.58,4.14-6.17-.74-.08-1.75Z"/><path class="cls-1" d="M293.49,130q-1.32-5.37-2.63-10.73,10.41-25.83,20.84-51.67h2l.3,1q7.94,29.1,15.86,58.2c2.54,9.37,5,18.77,7.47,28.16-8.7-5.06-17.37-10.16-26.1-15.15C305.37,136.43,299.41,133.27,293.49,130Z"/><path class="cls-9" d="M350.32,159l-6.56,1c-.13-1-.25-1.94-.37-2.91-.64-2.89-1.15-5.81-1.92-8.66-4.34-16.08-8.65-32.17-13.18-48.2-3-10.61-6.36-21.12-9.56-31.68l6.19-2.1q12.48,45.08,24.94,90.15C350.08,157.42,350.17,158.24,350.32,159Z"/><path class="cls-22" d="M318.73,68.59c3.2,10.56,6.56,21.07,9.56,31.68,4.53,16,8.84,32.12,13.18,48.2.77,2.85,1.28,5.77,1.92,8.66l-6.06-2.21c-2.49-9.39-4.93-18.79-7.47-28.16Q322,97.66,314,68.56Z"/><path class="cls-1" d="M285.76,101.46l-7.26-27,11.25-6.08,3.08-.26,5.49-.36c.13.63.55,1.37.36,1.87Q292.28,85.56,285.76,101.46Z"/><path class="cls-22" d="M285.76,101.46q6.48-15.93,12.92-31.85c.19-.5-.23-1.24-.36-1.87l4.74,3.79,3.77-2.91q-8.46,21.52-16.91,43.06Q287.83,106.57,285.76,101.46Z"/><path class="cls-21" d="M289.92,111.68q8.46-21.54,16.91-43.06l1-1.09,3.91.09q-10.43,25.83-20.84,51.67Q290.38,115.48,289.92,111.68Z"/><path class="cls-17" d="M289.75,68.36,278.5,74.44c-.58-1.28-1.16-2.56-1.73-3.85,3.93-2.52,7.7-5.35,11.84-7.48,3.1-1.59,4.52.25,4.2,3.5Z"/><path class="cls-22" d="M311.7,67.62l-3.91-.09c2-.42,4-3.23,5.91.08Z"/><path class="cls-22" d="M289.75,68.36l3.06-1.75,0,1.49Z"/><path class="cls-18" d="M427.93,58.69a.47.47,0,0,1-.36-.42l1.14-.86c0,.4.05.81.07,1.21A2.22,2.22,0,0,0,427.93,58.69Z"/><path class="cls-9" d="M326.07,65.87l0-.05Z"/><path class="cls-5" d="M550.34,266.46a4.15,4.15,0,0,1,.22.65c0,.09-.13.21-.2.31A2.08,2.08,0,0,1,550.34,266.46Z"/><path class="cls-16" d="M365.44,267.77,362,269.5c-3.55-1.56-7.28-2.83-10.6-4.79-3-1.76-5.32-2.38-8.4-.15s-6.77,3.95-10.18,5.89l-1.36-3.91c2.63-1.34,5.18-2.87,7.9-4,3.11-1.25,3.09-2.9,1.21-5.15l5.93-4c.63,3.1,2.55,3.64,5,2.24,4.1-2.3,8.09-4.81,12.12-7.23l2.75,2-12.57,8.53Z"/><path class="cls-9" d="M331.43,266.54l1.36,3.91c-1,3.42-2.8,5-6.34,3.06l-1-9.1,4.83-1Z"/><path class="cls-17" d="M430.64,62.56l-.14-2.77Z"/><path class="cls-17" d="M430.61,182.87a3.51,3.51,0,0,1-.19-.63c0-.09.11-.19.17-.29A.83.83,0,0,1,430.61,182.87Z"/><path class="cls-4" d="M478.66,149.33c7.1-4.54,14.63-3.75,21.58-2.3l-20.54,5.09-.85-.05Z"/><path class="cls-19" d="M478.66,149.33l.19,2.74-9.54,5.54v-4.83a2.24,2.24,0,0,1,.54-.48l2.06-2,4-1.29Z"/><path class="cls-1" d="M428.5,189.86l-.69,5.88a44.41,44.41,0,0,1-.75-5.81q-.07-62.24,0-124.49a42.92,42.92,0,0,1,.78-5.8c.24,1.21.48,2.42.73,3.62Q428.53,126.56,428.5,189.86Z"/><path class="cls-6" d="M428.57,63.26c-.25-1.2-.49-2.41-.73-3.62,0-.31.07-.63.09-1a2.22,2.22,0,0,1,.85-.07Z"/><path class="cls-31" d="M547.75,317.87c-.3.06-.61.11-.94.15C547.14,318,547.45,317.93,547.75,317.87Z"/><path class="cls-31" d="M549,317.42a5.61,5.61,0,0,1-1.27.45A5.61,5.61,0,0,0,549,317.42Z"/><path class="cls-31" d="M488.84,303.13l8.11-.84C492.85,298.27,491.65,298.39,488.84,303.13Z"/><path class="cls-31" d="M476.14,289l-.05,1.72h7.56C480.68,286.51,478.44,287.32,476.14,289Z"/><path class="cls-31" d="M509.76,278.24c-3.57,1.13-6.66,3.81-10.94,6.46l25,14.71,1.17-1.15c-2.88-5.71-5.46-11.61-8.83-17C515.06,279.49,511.47,277.7,509.76,278.24Z"/><path class="cls-32" d="M568.62,325.62c.55-1.63-.86-4.24-2-6-.68-1-2.61-1.17-4-1.71-.23,1.23-.45,2.45-.68,3.73-4.42.07-3.43-3.45-4.22-5.72l-6.62-1.67a3.92,3.92,0,0,1-2.05,3.16,5.61,5.61,0,0,1-1.27.45c-.3.06-.61.11-.94.15.33,0,.64-.09.94-.15a5.61,5.61,0,0,0,1.27-.45,3.92,3.92,0,0,0,2.05-3.16l-5.54-2.11c-.07,2-.15,4-.22,6l-3.95,1c-4.86-1.16-7-4.07-6.94-9.21,0-4.24-.83-8.5-1.3-12.75l-8.6-17.91,0,.09-.83-.59-19.33-11.28-2.87,3.87c.2.63.74,1.38.55,1.85-1.52,3.84-10.42,7.23-14,5.33-3.32-1.74-6.54-3.67-9.81-5.52.08-.41.15-.82.23-1.24,2.34-.13,4.69-.21,7-.4,3.73-.31,7.45-.7,11.17-1.06l-1.08-1.61c-.22-.73-.44-1.47-.67-2.21s-.33-1.34-.5-2l-30.19.95c-.85,2.43-.39,5.8-4.32,6-3.73-.4-6.81-1.56-7.12-6l-15.45,7.07V274L462,288.63l-7.28,1.62c3.08,4.85,7.51,1.23,11.27,1.84a13.37,13.37,0,0,1,2.78,1.12c3.53-.07,5.33,2.17,6.67,5,5.18-.23,8.56,1.8,8.75,6,3.5,1,6.43,1.3,8.86,2.57,7.76,4,15.34,8.41,23,12.66l1.74-3.59c2.07-4.28,5.75-2.66,8.44-1.57,1.77.72,3.81,3.52,3.77,5.35-.06,2.5-2,4.95-3.11,7.42,5.25,1.86,8.66-2.07,12.56-4.17,2.14-1.15,3.39-.91,5.67.06a108,108,0,0,0,18.22,5.73C564.91,329,568.12,327.13,568.62,325.62ZM476.09,290.7l.05-1.72c2.3-1.66,4.54-2.47,7.51,1.72Zm12.75,12.43c2.81-4.74,4-4.86,8.11-.84Zm35-3.72-25-14.71c4.28-2.65,7.37-5.33,10.94-6.46,1.71-.54,5.3,1.25,6.39,3,3.37,5.4,6,11.3,8.83,17Z"/><path class="cls-32" d="M445.22,294.34c-4.32-.36-4.36,3.79-6.26,6,1.11,3.7,0,5.52-3.86,5.21-1.74-.14-3.37-1.5-5.05-2.3-10.73-5.93-21.51-11.77-32.15-17.84-5.12-2.92-10-6.3-14.94-9.47l-3.89,5.59c3.13,1.47,6.37,2.72,9.36,4.43,12.62,7.21,25.17,14.56,37.73,21.87a15.7,15.7,0,0,1,1.88,1.71c-1.47,1-2.57,1.85-3.78,2.51-10.9,5.86-19.74,14.24-28.34,22.94-5.8,5.87-11.34,12.11-17.79,17.17-7.35,5.76-16.71,6.55-25.7,7.79-.26,2.86-.51,5.72-.77,8.59l4.12,1.06c-1.7,3.94-4.47,4.05-11.31.82-.82-4.49-5.83-3.1-8-5.7-4,2.85-3.78,7,1.11,8.68s10.33,3.33,15.35,2.91c9.89-.84,20.45-1.64,24.55-13.61a9.31,9.31,0,0,1,3.4-4q11.24-8.11,22.68-15.94c14.86-10.19,30.1-19.95,39.76-35.92.2-.33,1.8.2,2.75.33,1.32-2.26,5.77-.9,5.62-4.86l-1.92-3.66C448.7,296.78,444.13,299,445.22,294.34Z"/><path class="cls-32" d="M625.53,446.26a18.37,18.37,0,0,1-3.12,3c-9.15,5.36-18.37,10.62-27.56,15.91L572.7,452.89c-2.68,2.57-5.12,5.87-9.54,3.14-2,.1-4.23-.37-5.87.42-2.48,1.2-5.24,2.85-6.57,5.09-1.59,2.69.22,5.61,2.78,7.17,4.83,2.94,9.94,5.2,15.89,4.11,3.56-.65,7.51-1.82,8.05-5.46.37-2.48-2.11-5.39-3.31-8.1l-.23-.27.26.24c3.88,2,7.85,3.86,11.61,6.08,4.63,2.73,8.84,5.37,14.51,1.78,8.44-5.36,17.29-10.09,25.94-15.14a32,32,0,0,0,3.52-2.86Z"/><path class="cls-32" d="M289.4,292.61c-2.51-1.79-6-2.28-9-3.35-.13,1.22-.26,2.45-.38,3.68,1.13.18,2.27.3,3.39.53,3.37.69,3.45,2.07.8,4-3.69,0-7.39.12-11.05-.19-.67-.06-1.61-1.9-1.71-3-.4-4.08-.23-8.23-.8-12.28-.42-3-1.66-5.87-2.53-8.8q-1,9-2,18c-.23,2.11-.44,4.23-.66,6.34.7,1.4,1.46,2.77,2.07,4.2.52,1.22.86,2.51,1.28,3.77-1.52.31-3.36,1.29-4.51.77-1.65-.75-2.81-2.59-4.18-4-3.25-1.34-3.09-4.33-3.43-7.08-2.15,2.32-5,4.36-6.11,7.11-.45,1.16,2.8,3.89,4.57,5.72.61.64,1.81.71,2.75,1,11.55,3.64,20.35-4.59,30.48-7.09.42-.1.75-.63,1.1-1C292.59,297.89,292.88,295.1,289.4,292.61Z"/><path class="cls-32" d="M256.54,259.43c.22-.71.43-1.42.65-2.14a.68.68,0,0,1,0-.78c-.13-.35-.26-.71-.38-1.07.15-1.65.31-3.31.46-5l-.77-.89c-1.8-.83-3.66-1.55-5.37-2.53q-21.27-12.18-42.48-24.48c-8.55-5-17-10.16-25.48-15.25-.31,1.14-.63,2.27-.94,3.41l-5.59,3.52c2.84,1.82,4.84,3.2,6.93,4.41,19.28,11.18,38.54,22.39,57.9,33.43C246.35,254.86,251.52,257,256.54,259.43Z"/><path class="cls-32" d="M169.82,370.62a50.68,50.68,0,0,1-5.06,3.77c-8.29,4.77-16.64,9.43-25,14.14-3.32-1.74-6.73-3.34-9.95-5.24-7.6-4.49-15.11-9.11-22.66-13.68l-3.53,2.13a39.91,39.91,0,0,0,3.3,2.48c9.29,5.35,18.71,10.48,27.85,16.08,3.77,2.32,6.65,2.45,10.34-.12,4-2.81,8.35-4.88,13.74-4.76,2.74.06,6-1.91,8.19-3.92,2.8-2.6,4.71-6.14,7.22-9.56-1.39-1.14-2.51-2.06-3.64-3C170.38,369.52,170.1,370.07,169.82,370.62Z"/><path class="cls-32" d="M338.32,290.13l-11.55,5.21c-3.21-1.64-6.49-3.14-9.62-4.93-11.31-6.47-22.56-13.05-33.86-19.55-1.42-.81-3-1.39-4.46-2.08l1.8,7.4c1.86.57,3.9.81,5.55,1.75Q304,288.12,321.7,298.57c3.54,2.1,6.75,2.88,10.32,0,1.49-1.2,3.57-1.66,5.38-2.46C337.71,294.12,338,292.13,338.32,290.13Z"/><path class="cls-32" d="M191.13,187.7c4-1.14,7.68-2.12,12-.44,2.5,1,5.78-.17,8.72-.18a17.43,17.43,0,0,1,3.63.77l2.83-.71c1-2,1.93-4,2.9-6-1.34-.49-2.71-.91-4-1.49a29.91,29.91,0,0,1-3-1.75c.12.48.47,1,.32,1.41-1.31,3.33-7.58,6-11.22,4.75-2.5,1.5-4,.39-5-1.93-.7-1.66-1.2-3.4-1.79-5.11-2.23,6.17-7,8.28-13.13,8.19-2.95,0-5.91.1-8.87.16C179.43,190.62,185.37,189.34,191.13,187.7Z"/><path class="cls-32" d="M258.85,453.33c.08.38.15.77.22,1.15l5.47,4.7c-3.44,3.83-7.85,4.94-12.24,4.82-1.61,0-3.15-2.9-4.72-4.48l-.13-6.35c-3.47,1.75-7,3.54-6.12,8.38.59,3.39,4.7,6.43,9.54,6.47a39.13,39.13,0,0,0,11.64-1.36c5.41-1.67,6.23-4.76,3.91-9.88C264.82,453.27,261.58,454,258.85,453.33Z"/><path class="cls-32" d="M524.45,404.55c-.7,1-1.39,2-2.09,3l-11.78,2.51c.11.48.06,1.08.34,1.42,3.87,4.71,9.09,3.18,13.82,2.54,4.51-.62,7.7-3.82,9.31-8,.44-1.14-1-3-1.58-4.53C531.12,406,527.59,404.77,524.45,404.55Z"/><path class="cls-32" d="M173,183.92c4.16-.38,8.33-.65,12.48-1.19,4-.52,7.95-1.34,7.83-6.76a25.31,25.31,0,0,0-4.32-.83c-5.46-.13-11.28-1.69-15.58,3.42C172,180.22,170.46,181.93,173,183.92Z"/><path class="cls-32" d="M284.5,389.58c-4.14-3.46-9.39-5.59-14.18-8.25l-1.53.94v7.3c.58-1.85,1.15-3.7,1.73-5.55,10.48,3.38,12.6,5.73,12.41,13.5C286.08,395.35,286.38,391.14,284.5,389.58Z"/><path class="cls-32" d="M572.77,242.29l-1.77-.56-7.44-5.17q-.69,5-1.4,10l3.35,1.5C566,243.71,570.34,244.2,572.77,242.29Z"/><path class="cls-32" d="M373.52,431.45c-2.54,5.87.52,15.37,6.71,20.81,0-.93-.07-1.86-.1-2.78C375.92,444.2,374.07,438.06,373.52,431.45Z"/><path class="cls-32" d="M514.32,405.5l-.6-4.95c-5.1,2.22-6.64,5.72-4,9C508.79,405.37,512.72,406.75,514.32,405.5Z"/><path class="cls-32" d="M364.29,277.8c1.2-1.36,3-2.15,4.6-3.21l.42-2.16-12,6-5.17,2.62-.12,2C357.16,283.81,361,281.56,364.29,277.8Z"/><path class="cls-32" d="M547.65,255.18v-1.7l2.91-5.84-10.32,4,.66,7.89Z"/><path class="cls-32" d="M529.87,255.55l-1.22-.81c-1.17,1.79-2,4-3.59,5.28-2.26,1.86-5,3.07-7.62,4.56l13.83,7.29Q530.56,263.71,529.87,255.55Z"/><path class="cls-23" d="M504.63,117.24l-3.88-2.2Z"/><path class="cls-18" d="M330.3,263.45l-4.83,1q-2-5.9-3.94-11.8l5.24-3.15,19.87-10.78,6.14-3.57,6.32-3.25c2.19-.78,5.4-.26,5.18-4.09l5.12-1.31.11.14.7.94,1.13,1.86,1.25,9.24-5.27,3-6,3.6-14.87,8.19-5.93,4Z"/><path class="cls-9" d="M369.4,226.46l-5.12,1.31a11.1,11.1,0,0,1-1.5-2.52q-6.25-23.12-12.4-46.24l-.84-2.08c-.05-.61-.11-1.23-.16-1.84l4.71-2.14q6.66,23.46,13.33,46.91C368.05,222.07,368.74,224.26,369.4,226.46Z"/><path class="cls-9" d="M370.21,227.54l-.7-.94Z"/><path class="cls-9" d="M367.32,241.63l5.27-3c.55,1.85,1.16,3.69,1.64,5.56,1.21,4.75.65,5.45-4.81,6.23Z"/><path class="cls-22" d="M367.32,241.63l2.1,8.8-3,0-2.75-2-2.29-3.2Z"/><path class="cls-4" d="M254,171.9l-21.27,12c1-2.62,2-5.23,3.07-7.85L249,168.88Z"/><path class="cls-1" d="M249,168.88l-13.21,7.21q2.61-6.19,5.2-12.4Z"/><path class="cls-22" d="M298.83,189.9c0,.3,0,.61,0,.92a3.15,3.15,0,0,1-.29-.65C298.54,190.11,298.73,190,298.83,189.9Z"/><path class="cls-1" d="M313.61,195.55q14.38-8.75,28.78-17.43c.5-.3,1.3-.08,2-.1l11.16,41.65Z"/><path class="cls-16" d="M337.33,154.92l6.06,2.21c.12,1,.24,1.94.37,2.91a18.49,18.49,0,0,0-3.89,1.47c-1,.66-2.58,2.24-2.37,2.73,2.4,5.5-2.41,4.8-4.95,6-.95-1.12-1.7-2.58-2.89-3.31q-9.68-5.85-19.55-11.36c-3.54-2-7.23-3.71-10.85-5.55l-5.77-20c5.92,3.25,11.88,6.41,17.74,9.75C320,144.76,328.63,149.86,337.33,154.92Z"/><path class="cls-4" d="M313.61,195.55l41.9,24.12q1.78,6.09,3.59,12.19l-6.32,3.25c-5.24-3.15-10.39-6.46-15.73-9.42-6.33-3.5-12.81-6.71-19.23-10.05l-5.91-18.75Z"/><path class="cls-1" d="M299.26,150.05c3.62,1.84,7.31,3.56,10.85,5.55Q320,161.14,329.66,167c1.19.73,1.94,2.19,2.89,3.31-6.72,3.82-13.42,7.67-20.18,11.43a37.43,37.43,0,0,1-4.47,1.84l-7.08-27.26C300.29,154.21,299.78,152.12,299.26,150.05Z"/><path class="cls-9" d="M311.91,196.89l5.91,18.75q.87,3.51,1.72,7,1.89,6.16,3.77,12.34l1.14,4.59q1.17,4.94,2.32,9.85l-5.24,3.15q-7.41-26.9-14.83-53.79Z"/><path class="cls-22" d="M359.1,231.86q-1.8-6.09-3.59-12.19L344.35,178l5-2.93c.05.61.11,1.23.16,1.84l.84,2.08q6.18,23.13,12.4,46.24a11.1,11.1,0,0,0,1.5,2.52C364.5,231.6,361.29,231.08,359.1,231.86Z"/><path class="cls-16" d="M341.73,165l-.71.1a2.33,2.33,0,0,1,0-.39c.23-.05.48-.07.72-.1C341.71,164.72,341.72,164.85,341.73,165Z"/><path class="cls-12" d="M250.14,141.12a2.57,2.57,0,0,0-.64.5A5.23,5.23,0,0,0,250.14,141.12Z"/><path class="cls-4" d="M361.34,245.23l2.29,3.2c-4,2.42-8,4.93-12.12,7.23-2.49,1.4-4.41.86-5-2.24Z"/><path class="cls-4" d="M330.3,263.45l10.24-6c1.88,2.25,1.9,3.9-1.21,5.15-2.72,1.09-5.27,2.62-7.9,4Z"/><path class="cls-16" d="M319.54,222.68q-.85-3.52-1.72-7c6.42,3.34,12.9,6.55,19.23,10.05,5.34,3,10.49,6.27,15.73,9.42l-6.14,3.57c-5.48-6.16-8.38-6.63-15.18-2.67-2.26,1.33-4.67,2.41-7,3.6L323.31,235l8.25-4.63V228.7Z"/><path class="cls-4" d="M324.45,239.61c2.34-1.19,4.75-2.27,7-3.6,6.8-4,9.7-3.49,15.18,2.67l-19.87,10.78Q325.62,244.54,324.45,239.61Z"/><path class="cls-18" d="M350.38,179l-.84-2.08Z"/><path class="cls-4" d="M319.54,222.68l12,6v1.69L323.31,235Q321.44,228.84,319.54,222.68Z"/></svg>