<?xml version="1.0" encoding="UTF-8"?>
<svg width="86px" height="86px" viewBox="0 0 86 86" version="1.1" xmlns="http://www.w3.org/2000/svg" xmlns:xlink="http://www.w3.org/1999/xlink">
    <!-- Generator: Sketch 55 (78076) - https://sketchapp.com -->
    <title>Logo Copy</title>
    <desc>Created with Sketch.</desc>
    <defs>
        <circle id="path-1" cx="35" cy="35" r="35"></circle>
        <filter x="-16.4%" y="-16.4%" width="135.7%" height="135.7%" filterUnits="objectBoundingBox" id="filter-3">
            <feMorphology radius="1.5" operator="dilate" in="SourceAlpha" result="shadowSpreadOuter1"></feMorphology>
            <feOffset dx="1" dy="1" in="shadowSpreadOuter1" result="shadowOffsetOuter1"></feOffset>
            <feGaussianBlur stdDeviation="2.5" in="shadowOffsetOuter1" result="shadowBlurOuter1"></feGaussianBlur>
            <feColorMatrix values="0 0 0 0 0.196078431   0 0 0 0 0.149019608   0 0 0 0 0.450980392  0 0 0 0.25 0" type="matrix" in="shadowBlurOuter1"></feColorMatrix>
        </filter>
    </defs>
    <g id="Page-1" stroke="none" stroke-width="1" fill="none" fill-rule="evenodd">
        <g id="Strada" transform="translate(-261.000000, -9237.000000)">
            <g id="Logo-Copy" transform="translate(268.000000, 9244.000000)">
                <mask id="mask-2" fill="white">
                    <use xlink:href="#path-1"></use>
                </mask>
                <g id="Oval">
                    <use fill="black" fill-opacity="1" filter="url(#filter-3)" xlink:href="#path-1"></use>
                    <use fill="#FFFFFF" fill-rule="evenodd" xlink:href="#path-1"></use>
                </g>
                <g id="ProtoIO" mask="url(#mask-2)" fill="#36A7C1" fill-rule="nonzero">
                    <path d="M35.0063947,0 C49.1629936,0.0027938815 61.92383,8.53341116 67.3380999,21.6137403 C72.7523698,34.6940694 69.7537263,49.7479239 59.7405369,59.7551891 C49.7273476,69.7624542 34.6717219,72.7521872 21.5946007,67.3301757 C8.51747958,61.9081643 -0.00558253986,49.1422799 2.74342826e-06,34.9856807 C0.0190492127,15.6634302 15.6841377,0.00760980037 35.0063947,0 Z M35.0063947,5.8343991 C23.2095892,5.83439943 12.574503,12.940993 8.06070626,23.8400882 C3.54690953,34.7391835 6.04341649,47.2841506 14.3860051,55.6247648 C22.7285937,63.965379 35.2741507,66.4589158 46.172176,61.9425383 C57.0702014,57.4261607 64.1742762,46.7893914 64.1714834,34.9925853 C64.1714836,27.2581571 61.0985216,19.8406118 55.628808,14.3721926 C50.1590943,8.90377341 42.7408221,5.8325676 35.0063947,5.8343991 Z" id="Shape"></path>
                    <path d="M45.350868,56.1902964 C43.6068795,54.0801641 41.2952158,52.499826 38.6821529,51.6313181 C38.1037795,52.4232857 37.5393428,53.2221399 36.9470327,53.9865607 C36.3494577,54.7593452 35.7073039,55.4974436 35.0237669,56.1971831 C34.3136806,55.533761 33.6717855,54.8025041 33.1074694,54.0141074 C32.508191,53.2427999 31.9437543,52.4508323 31.3514442,51.6450915 L31.1284568,51.7070715 C29.6371576,52.2089138 28.2458633,52.9639909 27.0171278,53.938354 C26.2380552,54.5465343 25.5172748,55.2242869 24.8639063,55.9630362 C24.8073126,56.0354066 24.7329576,56.092297 24.6478873,56.1283164 C24.7106025,55.756436 24.759381,55.3845555 24.8220962,55.0195618 C25.0359166,53.8163585 25.3244878,52.6273058 25.6861721,51.4591513 C26.2678999,49.5113793 27.1291192,47.6560672 28.2435581,45.9498119 C28.3489458,45.8078595 28.3676453,45.6204168 28.2923366,45.4608581 C27.8741881,44.3361286 27.5297042,43.1859734 27.2610202,42.017521 C27.043603,41.1313799 26.8714988,40.234976 26.745362,39.3317181 C26.6338683,38.5672972 26.5572164,37.7959897 26.5014696,37.0177955 C26.4282756,35.776952 26.4282756,34.5329484 26.5014696,33.2921048 C26.5424933,32.4206103 26.6285485,31.5517566 26.7592987,30.688942 C27.1642672,27.8372316 27.9711328,25.0555761 29.1564126,22.424933 C30.5161555,19.4235873 32.3535191,16.6568346 34.5986973,14.2297907 L34.9958935,13.8028169 C34.9958935,13.8028169 35.0307352,13.8028169 35.065577,13.8028169 L35.2258492,13.9612104 C36.6972835,15.5137919 38.0026367,17.2123225 39.1211592,19.0298026 C40.9470455,22.0464393 42.238479,25.3489714 42.9398174,28.7951066 C43.1370535,29.7235306 43.2859078,30.6613537 43.385792,31.6048696 C43.4624439,32.2935371 43.5042541,32.9408844 43.5321275,33.6088918 C43.5321275,34.3939727 43.5878743,35.1859402 43.5321275,35.9710211 C43.4763806,36.7561019 43.4485072,37.3827893 43.3788237,38.08523 C43.3091401,38.7876708 43.2324882,39.2972847 43.1418996,39.903312 C42.9392402,41.1862756 42.6482158,42.454074 42.2708554,43.6978695 C42.0896781,44.3038968 41.8806275,44.9030375 41.6855136,45.4952914 C41.6280166,45.6297374 41.6465586,45.784188 41.7342921,45.9016052 C42.81242,47.5146946 43.6612031,49.2665138 44.2568363,51.1079309 C44.7041096,52.4729731 45.0419569,53.8706943 45.2672477,55.2881421 C45.3305072,55.584626 45.3585701,55.8873884 45.350868,56.1902964 Z M31.1214885,31.2261026 C31.1137556,33.3316501 32.8305723,35.0468187 34.9610517,35.0619801 C36.5305609,35.0759269 37.9535186,34.1526641 38.5645977,32.7238785 C39.1756767,31.295093 38.8541292,29.6431093 37.7503,28.5403397 C36.6464708,27.4375701 34.978474,27.1019193 33.526209,27.6903263 C32.0739439,28.2787334 31.1243749,29.6749304 31.1214885,31.2261026 L31.1214885,31.2261026 Z" id="Shape"></path>
                </g>
            </g>
        </g>
    </g>
</svg>