<?xml version="1.0" encoding="UTF-8"?>
<svg width="1440px" height="1759px" viewBox="0 0 1440 1759" version="1.1" xmlns="http://www.w3.org/2000/svg" xmlns:xlink="http://www.w3.org/1999/xlink">
    <!-- Generator: Sketch 55 (78076) - https://sketchapp.com -->
    <title>Process</title>
    <desc>Created with Sketch.</desc>
    <defs>
        <path d="M0,129.250275 C72.2637529,126.684817 133.250755,109.696164 182.961005,78.2843175 C257.52638,31.1665475 352.203706,-16.9673162 504.146402,71.083459 C656.089098,159.134234 839.79191,82.4955425 905.774953,194.902203 C971.757996,307.308863 1117.98311,307.308863 1175.51309,322.259011 C1233.04307,337.209158 1523.81624,483.995771 1339.66715,828.066674 C1155.51806,1172.13758 1212.24015,1224.51624 1257.49272,1376.18989 C1302.74529,1527.86354 1223.69484,1748 971.757996,1748 C719.821155,1748 327.067612,1714.57286 0,1527.86354 C0,1441.39456 0,975.190136 0,129.250275 Z" id="path-1"></path>
        <filter x="-0.9%" y="-0.7%" width="101.9%" height="101.5%" filterUnits="objectBoundingBox" id="filter-2">
            <feMorphology radius="3.5" operator="dilate" in="SourceAlpha" result="shadowSpreadOuter1"></feMorphology>
            <feOffset dx="1" dy="1" in="shadowSpreadOuter1" result="shadowOffsetOuter1"></feOffset>
            <feGaussianBlur stdDeviation="2" in="shadowOffsetOuter1" result="shadowBlurOuter1"></feGaussianBlur>
            <feComposite in="shadowBlurOuter1" in2="SourceAlpha" operator="out" result="shadowBlurOuter1"></feComposite>
            <feColorMatrix values="0 0 0 0 0.196078431   0 0 0 0 0.149019608   0 0 0 0 0.450980392  0 0 0 0.1 0" type="matrix" in="shadowBlurOuter1"></feColorMatrix>
        </filter>
    </defs>
    <g id="Page-1" stroke="none" stroke-width="1" fill="none" fill-rule="evenodd">
        <g id="Strada" transform="translate(0.000000, -6295.000000)">
            <g id="View-7" transform="translate(0.000000, 6038.000000)">
                <g id="Process" transform="translate(0.000000, 258.000000)">
                    <g id="Stain">
                        <use fill="black" fill-opacity="1" filter="url(#filter-2)" xlink:href="#path-1"></use>
                        <use stroke="#322673" stroke-width="4" fill="#322673" fill-rule="evenodd" xlink:href="#path-1"></use>
                    </g>
                    <g id="Path" transform="translate(0.000000, 14.000000)" stroke="#4D0DB9" stroke-width="4">
                        <path d="M0,113.980751 C70.8456546,113.980751 135.845655,93.6850704 195,53.0937089 C283.731518,-7.79333337 413.478008,-7.79333337 502.193019,53.0937089 C590.90803,113.980751 726.143407,111.340049 800.542041,53.0937089 C874.940675,-5.15263141 1019.90958,-29.2270309 1106.45479,53.0937089" id="Path-3"></path>
                        <path d="M1106,53 C1229.77887,144.928338 1340.79394,144.595004 1439.04521,52" id="Path-5"></path>
                    </g>
                    <g id="1" transform="translate(408.000000, 67.000000)">
                        <path d="M54.8051547,0 C-31.2835726,96.3218061 -15.9502392,144.482709 100.805155,144.482709" id="Path-4" stroke="#FFFFFF" stroke-width="4"></path>
                        <text id="Collect-your-resourc" font-family="Nunito-SemiBold, Nunito" font-size="30" font-weight="400" line-spacing="40" letter-spacing="-0.07089232" fill="#FFFFFF">
                            <tspan x="120.805155" y="141">Collect your</tspan>
                            <tspan x="120.805155" y="181">resources</tspan>
                        </text>
                    </g>
                    <g id="2" transform="translate(1011.000000, 67.000000)">
                        <path d="M54.8051547,0 C-31.2835726,96.3218061 -15.9502392,144.482709 100.805155,144.482709" id="Path-4-Copy" stroke="#4D0DB9" stroke-width="4"></path>
                        <text id="Create-your-design" font-family="Nunito-SemiBold, Nunito" font-size="30" font-weight="400" line-spacing="40" letter-spacing="-0.07089232" fill="#322673">
                            <tspan x="120.805155" y="141">Create your</tspan>
                            <tspan x="120.805155" y="181">design</tspan>
                        </text>
                    </g>
                    <g id="Balls" transform="translate(421.000000, 0.837756)">
                        <g id="1" transform="translate(0.000000, 0.162244)">
                            <circle id="Oval" stroke="#FFFFFF" stroke-width="4" fill="#4D0DB9" cx="50" cy="50" r="50"></circle>
                            <text font-family="Nunito-SemiBold, Nunito" font-size="40" font-weight="bold" line-spacing="50" letter-spacing="-0.07089232" fill="#FFFFFF">
                                <tspan x="38" y="64">1</tspan>
                            </text>
                        </g>
                        <g id="2" transform="translate(603.000000, 0.162244)">
                            <circle id="Oval-Copy-4" stroke="#FFFFFF" stroke-width="4" fill="#4D0DB9" cx="50" cy="50" r="50"></circle>
                            <text font-family="Nunito-SemiBold, Nunito" font-size="40" font-weight="bold" line-spacing="50" letter-spacing="-0.07089232" fill="#FFFFFF">
                                <tspan x="38" y="64">2</tspan>
                            </text>
                        </g>
                    </g>
                </g>
            </g>
        </g>
    </g>
</svg>