<?xml version="1.0" encoding="UTF-8"?>
<svg width="1440px" height="1759px" viewBox="0 0 1440 1759" version="1.1" xmlns="http://www.w3.org/2000/svg" xmlns:xlink="http://www.w3.org/1999/xlink">
    <!-- Generator: Sketch 55.1 (78136) - https://sketchapp.com -->
    <title>Process</title>
    <desc>Created with Sketch.</desc>
    <defs>
        <path d="M0,129.250275 C72.2637529,126.684817 133.250755,109.696164 182.961005,78.2843175 C257.52638,31.1665475 352.203706,-16.9673162 504.146402,71.083459 C656.089098,159.134234 839.79191,82.4955425 905.774953,194.902203 C971.757996,307.308863 1117.98311,307.308863 1175.51309,322.259011 C1233.04307,337.209158 1523.81624,483.995771 1339.66715,828.066674 C1155.51806,1172.13758 1212.24015,1224.51624 1257.49272,1376.18989 C1302.74529,1527.86354 1223.69484,1748 971.757996,1748 C719.821155,1748 327.067612,1714.57286 0,1527.86354 C0,1441.39456 0,975.190136 0,129.250275 Z" id="path-1"></path>
        <filter x="-0.9%" y="-0.7%" width="101.9%" height="101.5%" filterUnits="objectBoundingBox" id="filter-2">
            <feMorphology radius="3.5" operator="dilate" in="SourceAlpha" result="shadowSpreadOuter1"></feMorphology>
            <feOffset dx="1" dy="1" in="shadowSpreadOuter1" result="shadowOffsetOuter1"></feOffset>
            <feGaussianBlur stdDeviation="2" in="shadowOffsetOuter1" result="shadowBlurOuter1"></feGaussianBlur>
            <feComposite in="shadowBlurOuter1" in2="SourceAlpha" operator="out" result="shadowBlurOuter1"></feComposite>
            <feColorMatrix values="0 0 0 0 0.196078431   0 0 0 0 0.149019608   0 0 0 0 0.450980392  0 0 0 0.1 0" type="matrix" in="shadowBlurOuter1"></feColorMatrix>
        </filter>
    </defs>
    <g id="Page-1" stroke="none" stroke-width="1" fill="none" fill-rule="evenodd">
        <g id="Strada" transform="translate(0.000000, -6295.000000)">
            <g id="View-7" transform="translate(0.000000, 6038.000000)">
                <g id="Process" transform="translate(0.000000, 258.000000)">
                    <g id="Stain">
                        <use fill="black" fill-opacity="1" filter="url(#filter-2)" xlink:href="#path-1"></use>
                        <use stroke="#322673" stroke-width="4" fill="#322673" fill-rule="evenodd" xlink:href="#path-1"></use>
                    </g>
                    <g id="Path" transform="translate(0.000000, 14.000000)" stroke="#4D0DB9" stroke-width="4">
                        <path d="M0,113.980751 C70.8456546,113.980751 135.845655,93.6850704 195,53.0937089 C283.731518,-7.79333337 413.478008,-7.79333337 502.193019,53.0937089 C590.90803,113.980751 726.143407,111.340049 800.542041,53.0937089 C874.940675,-5.15263141 1019.90958,-29.2270309 1106.45479,53.0937089" id="Path-3"></path>
                        <path d="M1106,53 C1229.77887,144.928338 1340.79394,144.595004 1439.04521,52" id="Path-5"></path>
                    </g>
                    <g id="1" transform="translate(408.000000, 67.000000)">
                        <path d="M54.8051547,0 C-31.2835726,96.3218061 -15.9502392,144.482709 100.805155,144.482709" id="Path-4" stroke="#FFFFFF" stroke-width="4"></path>
                        <path d="M132.318827,135.322266 C130.385223,135.322266 128.668932,134.860844 127.169901,133.937988 C125.67087,133.015132 124.513655,131.730965 123.698221,130.085449 C122.882787,128.439933 122.475077,126.567393 122.475077,124.467773 C122.475077,122.290028 122.90476,120.363778 123.764139,118.688965 C124.623518,117.014152 125.82712,115.720219 127.374979,114.807129 C128.922838,113.894038 130.687957,113.4375 132.670389,113.4375 C134.555164,113.4375 136.33249,113.876949 138.00242,114.755859 C138.598126,115.058595 138.895975,115.483396 138.895975,116.030273 C138.895975,116.157227 138.878885,116.284179 138.844705,116.411133 C138.810526,116.538087 138.761698,116.655273 138.698221,116.762695 C138.634744,116.870118 138.55662,116.972656 138.463846,117.070312 C138.371072,117.167969 138.273417,117.248535 138.170877,117.312012 C138.068338,117.375489 137.953593,117.426758 137.826639,117.46582 C137.699685,117.504883 137.572733,117.524414 137.44578,117.524414 L137.328592,117.524414 C137.28953,117.524414 137.250467,117.519531 137.211405,117.509766 L137.094217,117.480469 C137.055155,117.470703 137.016092,117.456055 136.97703,117.436523 C136.957498,117.426758 136.752422,117.331544 136.361795,117.150879 C135.971168,116.970214 135.658672,116.838379 135.424295,116.755371 C135.189919,116.672363 134.826153,116.582032 134.332987,116.484375 C133.83982,116.386718 133.334454,116.337891 132.816873,116.337891 C130.717254,116.337891 129.108383,117.06054 127.990213,118.505859 C126.872044,119.951179 126.312967,121.91405 126.312967,124.394531 C126.312967,126.894544 126.879368,128.857415 128.012186,130.283203 C129.145004,131.708992 130.795378,132.421875 132.963358,132.421875 C133.539533,132.421875 134.108375,132.351075 134.669901,132.209473 C135.231427,132.06787 135.673317,131.923829 135.995584,131.777344 C136.317852,131.630859 136.732887,131.4209 137.240702,131.147461 C137.338358,131.098633 137.438455,131.05957 137.540995,131.030273 C137.643534,131.000976 137.743631,130.986328 137.841288,130.986328 C138.202617,130.986328 138.510232,131.132811 138.764139,131.425781 C139.018047,131.718751 139.144998,132.050779 139.144998,132.421875 C139.144998,132.519532 139.135233,132.614746 139.115702,132.70752 C139.09617,132.800293 139.066874,132.890625 139.027811,132.978516 C138.988748,133.066407 138.939921,133.154296 138.881327,133.242188 C138.822733,133.330079 138.751932,133.413086 138.668924,133.491211 C138.585916,133.569336 138.490702,133.642578 138.38328,133.710938 C136.684052,134.785162 134.662588,135.322266 132.318827,135.322266 Z M149.269419,133.022461 C150.636613,133.022461 151.701055,132.553716 152.462778,131.616211 C153.224501,130.678706 153.605356,129.375008 153.605356,127.705078 C153.605356,126.025382 153.222059,124.709477 152.455454,123.757324 C151.688848,122.805171 150.626847,122.329102 149.269419,122.329102 C147.91199,122.329102 146.849989,122.80273 146.083383,123.75 C145.316778,124.69727 144.933481,126.015617 144.933481,127.705078 C144.933481,129.375008 145.316778,130.678706 146.083383,131.616211 C146.849989,132.553716 147.91199,133.022461 149.269419,133.022461 Z M149.269419,135.205078 C148.038944,135.205078 146.935439,134.995119 145.958872,134.575195 C144.982304,134.155271 144.193738,133.591312 143.593149,132.883301 C142.99256,132.175289 142.536022,131.379399 142.22352,130.495605 C141.911019,129.611812 141.75477,128.681646 141.75477,127.705078 C141.75477,126.708979 141.91346,125.764165 142.230844,124.870605 C142.548229,123.977046 143.007209,123.176273 143.607798,122.468262 C144.208386,121.76025 144.996953,121.198733 145.97352,120.783691 C146.950088,120.36865 148.048709,120.161133 149.269419,120.161133 C150.480362,120.161133 151.569218,120.363768 152.53602,120.769043 C153.502822,121.174318 154.291388,121.728512 154.901743,122.431641 C155.512097,123.134769 155.978401,123.935542 156.300669,124.833984 C156.622936,125.732426 156.784067,126.689448 156.784067,127.705078 C156.784067,128.476566 156.688853,129.221188 156.498423,129.938965 C156.307992,130.656742 156.010143,131.337887 155.604868,131.982422 C155.199592,132.626956 154.706433,133.186033 154.125376,133.659668 C153.544318,134.133303 152.838759,134.509276 152.008676,134.787598 C151.178594,135.065919 150.265517,135.205078 149.269419,135.205078 Z M161.576456,135 C161.137001,135 160.763469,134.860841 160.455851,134.58252 C160.148232,134.304198 159.994425,133.911135 159.994425,133.40332 L159.994425,115.576172 C159.994425,115.078123 160.153115,114.687501 160.470499,114.404297 C160.787883,114.121092 161.166298,113.979492 161.605753,113.979492 C162.035443,113.979492 162.411415,114.123534 162.733683,114.411621 C163.05595,114.699708 163.217081,115.087888 163.217081,115.576172 L163.217081,133.40332 C163.217081,133.891604 163.053508,134.279784 162.726358,134.567871 C162.399208,134.855958 162.015911,135 161.576456,135 Z M168.932322,135 C168.492866,135 168.119335,134.860841 167.811716,134.58252 C167.504097,134.304198 167.35029,133.911135 167.35029,133.40332 L167.35029,115.576172 C167.35029,115.078123 167.50898,114.687501 167.826364,114.404297 C168.143749,114.121092 168.522163,113.979492 168.961618,113.979492 C169.391308,113.979492 169.767281,114.123534 170.089548,114.411621 C170.411815,114.699708 170.572947,115.087888 170.572947,115.576172 L170.572947,133.40332 C170.572947,133.891604 170.409374,134.279784 170.082224,134.567871 C169.755074,134.855958 169.371777,135 168.932322,135 Z M181.210062,135.205078 C178.983488,135.185547 177.189073,134.494636 175.826761,133.132324 C174.46445,131.770013 173.783304,129.907238 173.783304,127.543945 C173.783304,126.557612 173.941994,125.622563 174.259378,124.73877 C174.576763,123.854976 175.028418,123.071292 175.614359,122.387695 C176.200299,121.704098 176.947362,121.162111 177.85557,120.761719 C178.763777,120.361326 179.769627,120.161133 180.873148,120.161133 C181.9962,120.161133 182.989843,120.351561 183.854105,120.732422 C184.718367,121.113283 185.41172,121.633297 185.934183,122.29248 C186.456647,122.951663 186.854592,123.693844 187.128031,124.519043 C187.40147,125.344242 187.547953,126.24023 187.567484,127.207031 C187.567484,127.558596 187.491801,127.84912 187.340433,128.078613 C187.189065,128.308107 186.947368,128.422852 186.615335,128.422852 L177.00596,128.422852 C177.07432,129.975594 177.501562,131.120602 178.287699,131.85791 C179.073835,132.595219 180.126071,132.96875 181.444437,132.978516 C182.665146,132.978516 184.022555,132.451177 185.516703,131.396484 C185.70225,131.269531 185.887795,131.206055 186.073343,131.206055 C186.346782,131.206055 186.583596,131.318358 186.783792,131.542969 C186.983989,131.767579 187.084085,132.026366 187.084085,132.319336 C187.084085,132.690432 186.922954,133.007811 186.600687,133.271484 C185.135836,134.560553 183.338979,135.205078 181.210062,135.205078 Z M177.035257,126.489258 L184.798929,126.489258 C184.711038,125.297846 184.354596,124.306645 183.729593,123.515625 C183.10459,122.724605 182.196396,122.329102 181.004984,122.329102 C180.389746,122.329102 179.833111,122.451171 179.335062,122.695312 C178.837013,122.939454 178.431743,123.261717 178.119242,123.662109 C177.80674,124.062502 177.560161,124.501951 177.379496,124.980469 C177.198831,125.458987 177.084086,125.961911 177.035257,126.489258 Z M196.900888,135.205078 C195.465334,135.205078 194.195816,134.863285 193.092295,134.179688 C191.988774,133.49609 191.15138,132.587896 190.580088,131.455078 C190.008796,130.32226 189.723154,129.062507 189.723154,127.675781 C189.723154,126.660151 189.896492,125.695805 190.243174,124.782715 C190.589855,123.869624 191.073249,123.071292 191.693369,122.387695 C192.313489,121.704098 193.080083,121.162111 193.993174,120.761719 C194.906264,120.361326 195.899906,120.161133 196.974131,120.161133 C198.604998,120.161133 199.957524,120.537106 201.031748,121.289062 C201.168467,121.386719 201.283212,121.491699 201.375986,121.604004 C201.46876,121.716309 201.537119,121.826171 201.581064,121.933594 C201.62501,122.041016 201.646982,122.148437 201.646982,122.255859 C201.646982,122.363282 201.629892,122.463378 201.595713,122.556152 C201.561533,122.648926 201.512705,122.734375 201.449228,122.8125 C201.385751,122.890625 201.31251,122.958984 201.229502,123.017578 C201.146493,123.076172 201.05128,123.120117 200.943857,123.149414 C200.836435,123.178711 200.724131,123.193359 200.606943,123.193359 C200.499521,123.193359 200.389659,123.178711 200.277353,123.149414 C200.165048,123.120117 200.055186,123.076172 199.947763,123.017578 C199.088384,122.548826 198.185073,122.314453 197.237802,122.314453 C195.909671,122.314453 194.859877,122.807612 194.088388,123.793945 C193.3169,124.780278 192.931162,126.069328 192.931162,127.661133 C192.931162,129.262703 193.304693,130.556636 194.051767,131.542969 C194.798841,132.529302 195.831546,133.022461 197.149912,133.022461 C198.438981,133.022461 199.469244,132.744143 200.240732,132.1875 C200.35792,132.099609 200.477548,132.036133 200.599619,131.99707 C200.72169,131.958008 200.841318,131.938477 200.958506,131.938477 C201.046397,131.938477 201.131845,131.950683 201.214853,131.975098 C201.297861,131.999512 201.373544,132.03125 201.441904,132.070312 C201.510264,132.109375 201.57374,132.158203 201.632334,132.216797 C201.690928,132.275391 201.742197,132.341308 201.786142,132.414551 C201.830088,132.487793 201.861826,132.565918 201.881357,132.648926 C201.900889,132.731934 201.910654,132.817382 201.910654,132.905273 C201.910654,133.266603 201.734875,133.598631 201.38331,133.901367 C200.377446,134.770512 198.88332,135.205078 196.900888,135.205078 Z M209.779215,135.146484 C208.538974,135.146484 207.55998,134.758305 206.842203,133.981934 C206.124426,133.205563 205.765543,132.119148 205.765543,130.722656 L205.765543,122.592773 L204.139566,122.592773 C203.768471,122.592773 203.480388,122.490235 203.275309,122.285156 C203.070229,122.080077 202.967691,121.831056 202.967691,121.538086 C202.967691,121.245116 203.065347,121.000978 203.26066,120.805664 C203.455974,120.610351 203.739174,120.512695 204.11027,120.512695 L205.765543,120.512695 L206.204996,116.542969 C206.253824,116.123045 206.42228,115.783693 206.710367,115.524902 C206.998455,115.266112 207.357338,115.136719 207.787027,115.136719 C208.138592,115.136719 208.424233,115.236815 208.643961,115.437012 C208.863689,115.637208 208.973551,115.942381 208.973551,116.352539 L208.973551,120.512695 L211.537027,120.512695 C211.908123,120.512695 212.188882,120.612792 212.379313,120.812988 C212.569743,121.013185 212.664957,121.264647 212.664957,121.567383 C212.664957,121.870119 212.572185,122.116698 212.386637,122.307129 C212.201089,122.49756 211.917889,122.592773 211.537027,122.592773 L208.973551,122.592773 L208.973551,129.960938 C208.973551,130.546878 209.022378,131.032713 209.120035,131.418457 C209.217692,131.804201 209.388589,132.106932 209.63273,132.32666 C209.876872,132.546388 210.199135,132.65625 210.599527,132.65625 L210.731363,132.65625 L211.800699,132.583008 L211.903238,132.583008 C212.166911,132.583008 212.39396,132.644042 212.584391,132.766113 C212.774821,132.888184 212.916421,133.041991 213.009195,133.227539 C213.101969,133.413087 213.148355,133.61328 213.148355,133.828125 C213.148355,133.984376 213.128824,134.123535 213.089762,134.245605 C213.050699,134.367676 212.992106,134.472656 212.91398,134.560547 C212.835855,134.648438 212.747965,134.726562 212.650309,134.794922 C212.552652,134.863282 212.433024,134.916992 212.291422,134.956055 C212.14982,134.995117 212.010661,135.029297 211.873941,135.058594 C211.737222,135.087891 211.576091,135.107422 211.390543,135.117188 C211.204995,135.126953 211.038981,135.134277 210.892496,135.13916 C210.746011,135.144043 210.565349,135.146484 210.350504,135.146484 L209.779215,135.146484 Z M228.402079,140.200195 C228.118874,140.77637 227.689191,141.064453 227.113016,141.064453 C226.702858,141.064453 226.334209,140.91797 226.007059,140.625 C225.679909,140.33203 225.516336,139.980471 225.516336,139.570312 C225.516336,139.46289 225.530985,139.355469 225.560282,139.248047 C225.589579,139.140624 225.628641,139.033204 225.677469,138.925781 L228.57786,133.037109 L223.275126,122.651367 C223.157937,122.416991 223.099344,122.187501 223.099344,121.962891 C223.099344,121.689452 223.175027,121.440431 223.326395,121.21582 C223.477763,120.99121 223.675515,120.817872 223.919657,120.695801 C224.163799,120.57373 224.417702,120.512695 224.681376,120.512695 C224.96458,120.512695 225.230691,120.588378 225.479715,120.739746 C225.72874,120.891114 225.931375,121.127928 226.087626,121.450195 L230.17454,129.785156 L234.349344,121.274414 C234.671612,120.639645 235.140357,120.322266 235.755594,120.322266 C236.155987,120.322266 236.51487,120.463866 236.832254,120.74707 C237.149639,121.030275 237.308329,121.372068 237.308329,121.772461 C237.308329,121.997071 237.254618,122.216796 237.147196,122.431641 L228.402079,140.200195 Z M246.334116,133.022461 C247.70131,133.022461 248.765753,132.553716 249.527475,131.616211 C250.289198,130.678706 250.670054,129.375008 250.670054,127.705078 C250.670054,126.025382 250.286757,124.709477 249.520151,123.757324 C248.753546,122.805171 247.691545,122.329102 246.334116,122.329102 C244.976687,122.329102 243.914686,122.80273 243.148081,123.75 C242.381475,124.69727 241.998179,126.015617 241.998179,127.705078 C241.998179,129.375008 242.381475,130.678706 243.148081,131.616211 C243.914686,132.553716 244.976687,133.022461 246.334116,133.022461 Z M246.334116,135.205078 C245.103641,135.205078 244.000137,134.995119 243.023569,134.575195 C242.047002,134.155271 241.258435,133.591312 240.657846,132.883301 C240.057258,132.175289 239.600719,131.379399 239.288218,130.495605 C238.975716,129.611812 238.819468,128.681646 238.819468,127.705078 C238.819468,126.708979 238.978157,125.764165 239.295542,124.870605 C239.612926,123.977046 240.071906,123.176273 240.672495,122.468262 C241.273084,121.76025 242.06165,121.198733 243.038218,120.783691 C244.014785,120.36865 245.113407,120.161133 246.334116,120.161133 C247.54506,120.161133 248.633916,120.363768 249.600718,120.769043 C250.567519,121.174318 251.356086,121.728512 251.96644,122.431641 C252.576795,123.134769 253.043099,123.935542 253.365366,124.833984 C253.687633,125.732426 253.848764,126.689448 253.848764,127.705078 C253.848764,128.476566 253.753551,129.221188 253.56312,129.938965 C253.372689,130.656742 253.074841,131.337887 252.669565,131.982422 C252.26429,132.626956 251.771131,133.186033 251.190073,133.659668 C250.609015,134.133303 249.903456,134.509276 249.073374,134.787598 C248.243292,135.065919 247.330215,135.205078 246.334116,135.205078 Z M262.14213,135.205078 C261.41947,135.205078 260.745649,135.095216 260.120646,134.875488 C259.495642,134.655761 258.936566,134.323733 258.443399,133.879395 C257.950233,133.435056 257.562053,132.846683 257.278849,132.114258 C256.995644,131.381832 256.854044,130.537114 256.854044,129.580078 L256.854044,121.904297 C256.854044,121.416013 257.012734,121.037599 257.330118,120.769043 C257.647503,120.500487 258.025917,120.366211 258.465372,120.366211 C258.895062,120.366211 259.268593,120.500487 259.585978,120.769043 C259.903362,121.037599 260.062052,121.416013 260.062052,121.904297 L260.062052,129.609375 C260.062052,130.722662 260.333045,131.569821 260.87504,132.150879 C261.417035,132.731936 262.137243,133.022461 263.035685,133.022461 C264.080612,133.022461 264.983923,132.61475 265.745646,131.799316 C266.507368,130.983883 266.897989,129.90235 266.917521,128.554688 L266.917521,121.904297 C266.917521,121.425779 267.07621,121.049806 267.393595,120.776367 C267.710979,120.502928 268.089393,120.366211 268.528849,120.366211 C268.968304,120.366211 269.344277,120.500487 269.656778,120.769043 C269.96928,121.037599 270.125528,121.416013 270.125528,121.904297 L270.125528,133.491211 C270.125528,133.969729 269.964397,134.340819 269.64213,134.604492 C269.319863,134.868165 268.939007,135 268.499552,135 C268.069862,135 267.698772,134.873048 267.386271,134.619141 C267.073769,134.365233 266.917521,134.008791 266.917521,133.549805 L266.917521,132.700195 C266.507362,133.510746 265.88481,134.130857 265.049845,134.560547 C264.21488,134.990237 263.245651,135.205078 262.14213,135.205078 Z M275.767527,135 C275.337837,135 274.966747,134.868165 274.654245,134.604492 C274.341744,134.340819 274.185495,133.964846 274.185495,133.476562 L274.185495,121.845703 C274.185495,121.523436 274.266061,121.24756 274.427195,121.018066 C274.588328,120.788573 274.790963,120.622559 275.035105,120.52002 C275.279247,120.41748 275.542916,120.366211 275.82612,120.366211 C276.265576,120.366211 276.641549,120.48828 276.95405,120.732422 C277.266552,120.976564 277.417917,121.313474 277.408152,121.743164 L277.364206,123.55957 C277.618114,122.651363 278.12348,121.889652 278.88032,121.274414 C279.637159,120.659177 280.489202,120.351562 281.436472,120.351562 C281.631785,120.351562 281.807565,120.390625 281.963816,120.46875 C282.120067,120.546875 282.247018,120.651855 282.344675,120.783691 C282.442332,120.915528 282.515573,121.064452 282.564402,121.230469 C282.61323,121.396485 282.637644,121.567382 282.637644,121.743164 C282.637644,122.094728 282.544871,122.39746 282.359324,122.651367 C282.173776,122.905275 281.919872,123.032227 281.597605,123.032227 C280.982367,123.032227 280.437939,123.085937 279.964304,123.193359 C279.490669,123.300782 279.053662,123.483885 278.653269,123.742676 C278.252876,124.001466 277.945262,124.374998 277.730417,124.863281 C277.515572,125.351562 277.408152,125.947262 277.408152,126.650391 L277.408152,133.476562 C277.408152,133.955081 277.244579,134.328612 276.917429,134.597168 C276.590279,134.865724 276.206982,135 275.767527,135 Z M124.467264,175 C124.037574,175 123.666484,174.868165 123.353983,174.604492 C123.041481,174.340819 122.885233,173.964846 122.885233,173.476562 L122.885233,161.845703 C122.885233,161.523436 122.965798,161.24756 123.126932,161.018066 C123.288066,160.788573 123.4907,160.622559 123.734842,160.52002 C123.978984,160.41748 124.242653,160.366211 124.525858,160.366211 C124.965313,160.366211 125.341286,160.48828 125.653788,160.732422 C125.966289,160.976564 126.117655,161.313474 126.107889,161.743164 L126.063944,163.55957 C126.317851,162.651363 126.823217,161.889652 127.580057,161.274414 C128.336897,160.659177 129.188939,160.351562 130.136209,160.351562 C130.331523,160.351562 130.507302,160.390625 130.663553,160.46875 C130.819804,160.546875 130.946756,160.651855 131.044413,160.783691 C131.142069,160.915528 131.215311,161.064452 131.264139,161.230469 C131.312967,161.396485 131.337381,161.567382 131.337381,161.743164 C131.337381,162.094728 131.244609,162.39746 131.059061,162.651367 C130.873513,162.905275 130.619609,163.032227 130.297342,163.032227 C129.682105,163.032227 129.137677,163.085937 128.664041,163.193359 C128.190406,163.300782 127.753399,163.483885 127.353006,163.742676 C126.952614,164.001466 126.645,164.374998 126.430155,164.863281 C126.21531,165.351562 126.107889,165.947262 126.107889,166.650391 L126.107889,173.476562 C126.107889,173.955081 125.944317,174.328612 125.617166,174.597168 C125.290016,174.865724 124.906719,175 124.467264,175 Z M140.407114,175.205078 C138.18054,175.185547 136.386125,174.494636 135.023813,173.132324 C133.661502,171.770013 132.980356,169.907238 132.980356,167.543945 C132.980356,166.557612 133.139046,165.622563 133.45643,164.73877 C133.773815,163.854976 134.22547,163.071292 134.811411,162.387695 C135.397351,161.704098 136.144414,161.162111 137.052622,160.761719 C137.960829,160.361326 138.966679,160.161133 140.0702,160.161133 C141.193252,160.161133 142.186895,160.351561 143.051157,160.732422 C143.915419,161.113283 144.608771,161.633297 145.131235,162.29248 C145.653699,162.951663 146.051644,163.693844 146.325083,164.519043 C146.598522,165.344242 146.745004,166.24023 146.764536,167.207031 C146.764536,167.558596 146.688853,167.84912 146.537485,168.078613 C146.386117,168.308107 146.14442,168.422852 145.812387,168.422852 L136.203012,168.422852 C136.271372,169.975594 136.698614,171.120602 137.484751,171.85791 C138.270887,172.595219 139.323123,172.96875 140.641489,172.978516 C141.862198,172.978516 143.219606,172.451177 144.713755,171.396484 C144.899302,171.269531 145.084847,171.206055 145.270395,171.206055 C145.543834,171.206055 145.780648,171.318358 145.980844,171.542969 C146.181041,171.767579 146.281137,172.026366 146.281137,172.319336 C146.281137,172.690432 146.120006,173.007811 145.797739,173.271484 C144.332888,174.560553 142.536031,175.205078 140.407114,175.205078 Z M136.232309,166.489258 L143.995981,166.489258 C143.90809,165.297846 143.551648,164.306645 142.926645,163.515625 C142.301642,162.724605 141.393448,162.329102 140.202036,162.329102 C139.586798,162.329102 139.030163,162.451171 138.532114,162.695312 C138.034065,162.939454 137.628795,163.261717 137.316294,163.662109 C137.003792,164.062502 136.757213,164.501951 136.576548,164.980469 C136.395883,165.458987 136.281138,165.961911 136.232309,166.489258 Z M149.755167,173.608398 C149.4329,173.374022 149.271769,173.081056 149.271769,172.729492 C149.271769,172.670898 149.276651,172.614746 149.286417,172.561035 C149.296183,172.507324 149.30839,172.456055 149.323038,172.407227 C149.337687,172.358398 149.357218,172.309571 149.381632,172.260742 C149.406046,172.211914 149.432901,172.165528 149.462198,172.121582 C149.491495,172.077636 149.525675,172.036133 149.564737,171.99707 C149.6038,171.958008 149.645303,171.921387 149.689249,171.887207 C149.733195,171.853027 149.779581,171.823731 149.828409,171.799316 C149.877238,171.774902 149.928507,171.75293 149.982218,171.733398 C150.035929,171.713867 150.092081,171.699219 150.150675,171.689453 C150.209269,171.679687 150.267862,171.674805 150.326456,171.674805 C150.560832,171.674805 150.800088,171.743163 151.044229,171.879883 C151.434856,172.114259 151.796181,172.30957 152.128214,172.46582 C152.460247,172.622071 152.904578,172.770995 153.461222,172.912598 C154.017865,173.0542 154.579383,173.125 155.145792,173.125 C155.761029,173.125 156.312782,173.0542 156.801065,172.912598 C157.289349,172.770995 157.694618,172.526857 158.016886,172.180176 C158.339153,171.833494 158.500284,171.406253 158.500284,170.898438 C158.500284,170.410154 158.324505,170.007326 157.97294,169.689941 C157.621376,169.372557 157.064741,169.116212 156.303019,168.920898 L153.886026,168.305664 C153.407508,168.17871 153.012004,168.068848 152.699503,167.976074 C152.387001,167.8833 152.052532,167.768555 151.696085,167.631836 C151.339638,167.495117 151.049113,167.358399 150.824503,167.22168 C150.599892,167.08496 150.377727,166.916505 150.157999,166.716309 C149.938271,166.516112 149.767375,166.296388 149.645304,166.057129 C149.523233,165.81787 149.425577,165.539552 149.352335,165.222168 C149.279092,164.904784 149.242472,164.550783 149.242472,164.160156 C149.242472,163.124995 149.594031,162.260746 150.297159,161.567383 C151.332321,160.58105 152.928984,160.087891 155.087198,160.087891 C156.796191,160.087891 158.373324,160.454098 159.818644,161.186523 C160.287396,161.411134 160.521769,161.752927 160.521769,162.211914 C160.521769,162.377931 160.482706,162.534179 160.404581,162.680664 C160.326456,162.827149 160.211711,162.946777 160.060343,163.039551 C159.908975,163.132325 159.735637,163.178711 159.540323,163.178711 C159.452432,163.178711 159.366984,163.168945 159.283976,163.149414 C159.200967,163.129883 159.110636,163.105469 159.012979,163.076172 C159.003214,163.076172 158.876262,163.029786 158.63212,162.937012 C158.387978,162.844238 158.212199,162.778321 158.104776,162.739258 C157.997354,162.700195 157.806926,162.641602 157.533487,162.563477 C157.260048,162.485351 157.023234,162.426758 156.823038,162.387695 C156.622842,162.348633 156.381145,162.312012 156.09794,162.277832 C155.814736,162.243652 155.536418,162.226562 155.262979,162.226562 C154.69657,162.226562 154.193646,162.282714 153.75419,162.39502 C153.314735,162.507325 152.948528,162.700194 152.655558,162.973633 C152.362587,163.247072 152.216104,163.593748 152.216104,164.013672 C152.216104,164.541018 152.36747,164.919432 152.670206,165.148926 C152.972942,165.378419 153.583287,165.605468 154.501261,165.830078 L156.874308,166.416016 C158.407518,166.796877 159.515906,167.324215 160.199503,167.998047 C160.8831,168.671878 161.224894,169.570307 161.224894,170.693359 C161.224894,171.445316 161.075969,172.116696 160.778116,172.70752 C160.480263,173.298343 160.06767,173.776854 159.540323,174.143066 C159.012977,174.509279 158.395307,174.785155 157.687296,174.970703 C156.979284,175.156251 156.205366,175.249023 155.365519,175.249023 C154.906532,175.249023 154.442669,175.219727 153.973917,175.161133 C152.313752,174.946288 150.907516,174.428715 149.755167,173.608398 Z M171.056345,173.022461 C172.423539,173.022461 173.487982,172.553716 174.249704,171.616211 C175.011427,170.678706 175.392282,169.375008 175.392282,167.705078 C175.392282,166.025382 175.008985,164.709477 174.24238,163.757324 C173.475775,162.805171 172.413774,162.329102 171.056345,162.329102 C169.698916,162.329102 168.636915,162.80273 167.87031,163.75 C167.103704,164.69727 166.720407,166.015617 166.720407,167.705078 C166.720407,169.375008 167.103704,170.678706 167.87031,171.616211 C168.636915,172.553716 169.698916,173.022461 171.056345,173.022461 Z M171.056345,175.205078 C169.82587,175.205078 168.722365,174.995119 167.745798,174.575195 C166.769231,174.155271 165.980664,173.591312 165.380075,172.883301 C164.779486,172.175289 164.322948,171.379399 164.010447,170.495605 C163.697945,169.611812 163.541697,168.681646 163.541697,167.705078 C163.541697,166.708979 163.700386,165.764165 164.017771,164.870605 C164.335155,163.977046 164.794135,163.176273 165.394724,162.468262 C165.995313,161.76025 166.783879,161.198733 167.760447,160.783691 C168.737014,160.36865 169.835636,160.161133 171.056345,160.161133 C172.267288,160.161133 173.356145,160.363768 174.322947,160.769043 C175.289748,161.174318 176.078315,161.728512 176.688669,162.431641 C177.299024,163.134769 177.765328,163.935542 178.087595,164.833984 C178.409862,165.732426 178.570993,166.689448 178.570993,167.705078 C178.570993,168.476566 178.475779,169.221188 178.285349,169.938965 C178.094918,170.656742 177.79707,171.337887 177.391794,171.982422 C176.986519,172.626956 176.49336,173.186033 175.912302,173.659668 C175.331244,174.133303 174.625685,174.509276 173.795603,174.787598 C172.96552,175.065919 172.052444,175.205078 171.056345,175.205078 Z M186.864359,175.205078 C186.141699,175.205078 185.467878,175.095216 184.842874,174.875488 C184.217871,174.655761 183.658795,174.323733 183.165628,173.879395 C182.672462,173.435056 182.284282,172.846683 182.001078,172.114258 C181.717873,171.381832 181.576273,170.537114 181.576273,169.580078 L181.576273,161.904297 C181.576273,161.416013 181.734963,161.037599 182.052347,160.769043 C182.369732,160.500487 182.748146,160.366211 183.187601,160.366211 C183.617291,160.366211 183.990822,160.500487 184.308207,160.769043 C184.625591,161.037599 184.784281,161.416013 184.784281,161.904297 L184.784281,169.609375 C184.784281,170.722662 185.055274,171.569821 185.597269,172.150879 C186.139264,172.731936 186.859472,173.022461 187.757914,173.022461 C188.802841,173.022461 189.706152,172.61475 190.467874,171.799316 C191.229597,170.983883 191.620218,169.90235 191.639749,168.554688 L191.639749,161.904297 C191.639749,161.425779 191.798439,161.049806 192.115824,160.776367 C192.433208,160.502928 192.811622,160.366211 193.251078,160.366211 C193.690533,160.366211 194.066506,160.500487 194.379007,160.769043 C194.691509,161.037599 194.847757,161.416013 194.847757,161.904297 L194.847757,173.491211 C194.847757,173.969729 194.686626,174.340819 194.364359,174.604492 C194.042092,174.868165 193.661236,175 193.221781,175 C192.792091,175 192.421001,174.873048 192.108499,174.619141 C191.795998,174.365233 191.639749,174.008791 191.639749,173.549805 L191.639749,172.700195 C191.229591,173.510746 190.607039,174.130857 189.772074,174.560547 C188.937109,174.990237 187.96788,175.205078 186.864359,175.205078 Z M200.489756,175 C200.060066,175 199.688976,174.868165 199.376474,174.604492 C199.063973,174.340819 198.907724,173.964846 198.907724,173.476562 L198.907724,161.845703 C198.907724,161.523436 198.98829,161.24756 199.149424,161.018066 C199.310557,160.788573 199.513192,160.622559 199.757334,160.52002 C200.001476,160.41748 200.265145,160.366211 200.548349,160.366211 C200.987805,160.366211 201.363777,160.48828 201.676279,160.732422 C201.988781,160.976564 202.140146,161.313474 202.130381,161.743164 L202.086435,163.55957 C202.340343,162.651363 202.845709,161.889652 203.602549,161.274414 C204.359388,160.659177 205.211431,160.351562 206.158701,160.351562 C206.354014,160.351562 206.529794,160.390625 206.686045,160.46875 C206.842295,160.546875 206.969247,160.651855 207.066904,160.783691 C207.164561,160.915528 207.237802,161.064452 207.286631,161.230469 C207.335459,161.396485 207.359873,161.567382 207.359873,161.743164 C207.359873,162.094728 207.2671,162.39746 207.081552,162.651367 C206.896005,162.905275 206.642101,163.032227 206.319834,163.032227 C205.704596,163.032227 205.160168,163.085937 204.686533,163.193359 C204.212898,163.300782 203.77589,163.483885 203.375498,163.742676 C202.975105,164.001466 202.667491,164.374998 202.452646,164.863281 C202.237801,165.351562 202.130381,165.947262 202.130381,166.650391 L202.130381,173.476562 C202.130381,173.955081 201.966808,174.328612 201.639658,174.597168 C201.312508,174.865724 200.929211,175 200.489756,175 Z M216.151285,175.205078 C214.715731,175.205078 213.446213,174.863285 212.342691,174.179688 C211.23917,173.49609 210.401776,172.587896 209.830484,171.455078 C209.259192,170.32226 208.973551,169.062507 208.973551,167.675781 C208.973551,166.660151 209.146889,165.695805 209.49357,164.782715 C209.840252,163.869624 210.323645,163.071292 210.943766,162.387695 C211.563886,161.704098 212.33048,161.162111 213.24357,160.761719 C214.156661,160.361326 215.150303,160.161133 216.224527,160.161133 C217.855395,160.161133 219.20792,160.537106 220.282145,161.289062 C220.418864,161.386719 220.533609,161.491699 220.626383,161.604004 C220.719157,161.716309 220.787515,161.826171 220.831461,161.933594 C220.875406,162.041016 220.897379,162.148437 220.897379,162.255859 C220.897379,162.363282 220.880289,162.463378 220.846109,162.556152 C220.81193,162.648926 220.763102,162.734375 220.699625,162.8125 C220.636148,162.890625 220.562907,162.958984 220.479898,163.017578 C220.39689,163.076172 220.301676,163.120117 220.194254,163.149414 C220.086832,163.178711 219.974528,163.193359 219.85734,163.193359 C219.749917,163.193359 219.640055,163.178711 219.52775,163.149414 C219.415445,163.120117 219.305583,163.076172 219.19816,163.017578 C218.338781,162.548826 217.43547,162.314453 216.488199,162.314453 C215.160068,162.314453 214.110273,162.807612 213.338785,163.793945 C212.567297,164.780278 212.181559,166.069328 212.181559,167.661133 C212.181559,169.262703 212.55509,170.556636 213.302164,171.542969 C214.049238,172.529302 215.081943,173.022461 216.400309,173.022461 C217.689378,173.022461 218.719641,172.744143 219.491129,172.1875 C219.608317,172.099609 219.727945,172.036133 219.850016,171.99707 C219.972087,171.958008 220.091714,171.938477 220.208902,171.938477 C220.296793,171.938477 220.382242,171.950683 220.46525,171.975098 C220.548258,171.999512 220.623941,172.03125 220.692301,172.070312 C220.760661,172.109375 220.824136,172.158203 220.88273,172.216797 C220.941325,172.275391 220.992594,172.341308 221.036539,172.414551 C221.080485,172.487793 221.112223,172.565918 221.131754,172.648926 C221.151285,172.731934 221.161051,172.817382 221.161051,172.905273 C221.161051,173.266603 220.985271,173.598631 220.633707,173.901367 C219.627843,174.770512 218.133717,175.205078 216.151285,175.205078 Z M230.479807,175.205078 C228.253233,175.185547 226.458818,174.494636 225.096506,173.132324 C223.734195,171.770013 223.053049,169.907238 223.053049,167.543945 C223.053049,166.557612 223.211739,165.622563 223.529123,164.73877 C223.846508,163.854976 224.298163,163.071292 224.884104,162.387695 C225.470044,161.704098 226.217107,161.162111 227.125315,160.761719 C228.033522,160.361326 229.039372,160.161133 230.142893,160.161133 C231.265945,160.161133 232.259588,160.351561 233.12385,160.732422 C233.988112,161.113283 234.681464,161.633297 235.203928,162.29248 C235.726392,162.951663 236.124337,163.693844 236.397776,164.519043 C236.671215,165.344242 236.817697,166.24023 236.837229,167.207031 C236.837229,167.558596 236.761546,167.84912 236.610178,168.078613 C236.45881,168.308107 236.217113,168.422852 235.88508,168.422852 L226.275705,168.422852 C226.344065,169.975594 226.771307,171.120602 227.557444,171.85791 C228.34358,172.595219 229.395816,172.96875 230.714182,172.978516 C231.934891,172.978516 233.292299,172.451177 234.786448,171.396484 C234.971995,171.269531 235.15754,171.206055 235.343088,171.206055 C235.616527,171.206055 235.853341,171.318358 236.053537,171.542969 C236.253734,171.767579 236.35383,172.026366 236.35383,172.319336 C236.35383,172.690432 236.192699,173.007811 235.870432,173.271484 C234.405581,174.560553 232.608724,175.205078 230.479807,175.205078 Z M226.305002,166.489258 L234.068674,166.489258 C233.980783,165.297846 233.624341,164.306645 232.999338,163.515625 C232.374335,162.724605 231.466141,162.329102 230.274729,162.329102 C229.659491,162.329102 229.102856,162.451171 228.604807,162.695312 C228.106758,162.939454 227.701488,163.261717 227.388987,163.662109 C227.076485,164.062502 226.829905,164.501951 226.649241,164.980469 C226.468576,165.458987 226.353831,165.961911 226.305002,166.489258 Z M239.82786,173.608398 C239.505593,173.374022 239.344461,173.081056 239.344461,172.729492 C239.344461,172.670898 239.349344,172.614746 239.35911,172.561035 C239.368876,172.507324 239.381082,172.456055 239.395731,172.407227 C239.41038,172.358398 239.429911,172.309571 239.454325,172.260742 C239.478739,172.211914 239.505594,172.165528 239.534891,172.121582 C239.564188,172.077636 239.598368,172.036133 239.63743,171.99707 C239.676493,171.958008 239.717996,171.921387 239.761942,171.887207 C239.805887,171.853027 239.852274,171.823731 239.901102,171.799316 C239.94993,171.774902 240.001199,171.75293 240.054911,171.733398 C240.108622,171.713867 240.164774,171.699219 240.223368,171.689453 C240.281962,171.679687 240.340555,171.674805 240.399149,171.674805 C240.633525,171.674805 240.872781,171.743163 241.116922,171.879883 C241.507549,172.114259 241.868874,172.30957 242.200907,172.46582 C242.53294,172.622071 242.977271,172.770995 243.533915,172.912598 C244.090558,173.0542 244.652076,173.125 245.218485,173.125 C245.833722,173.125 246.385475,173.0542 246.873758,172.912598 C247.362042,172.770995 247.767311,172.526857 248.089579,172.180176 C248.411846,171.833494 248.572977,171.406253 248.572977,170.898438 C248.572977,170.410154 248.397198,170.007326 248.045633,169.689941 C247.694069,169.372557 247.137434,169.116212 246.375711,168.920898 L243.958719,168.305664 C243.480201,168.17871 243.084697,168.068848 242.772196,167.976074 C242.459694,167.8833 242.125225,167.768555 241.768778,167.631836 C241.412331,167.495117 241.121806,167.358399 240.897196,167.22168 C240.672585,167.08496 240.45042,166.916505 240.230692,166.716309 C240.010964,166.516112 239.840068,166.296388 239.717997,166.057129 C239.595926,165.81787 239.49827,165.539552 239.425028,165.222168 C239.351785,164.904784 239.315165,164.550783 239.315165,164.160156 C239.315165,163.124995 239.666724,162.260746 240.369852,161.567383 C241.405014,160.58105 243.001677,160.087891 245.159891,160.087891 C246.868884,160.087891 248.446017,160.454098 249.891336,161.186523 C250.360089,161.411134 250.594461,161.752927 250.594461,162.211914 C250.594461,162.377931 250.555399,162.534179 250.477274,162.680664 C250.399149,162.827149 250.284404,162.946777 250.133036,163.039551 C249.981668,163.132325 249.80833,163.178711 249.613016,163.178711 C249.525125,163.178711 249.439677,163.168945 249.356668,163.149414 C249.27366,163.129883 249.183329,163.105469 249.085672,163.076172 C249.075907,163.076172 248.948955,163.029786 248.704813,162.937012 C248.460671,162.844238 248.284892,162.778321 248.177469,162.739258 C248.070047,162.700195 247.879619,162.641602 247.60618,162.563477 C247.332741,162.485351 247.095927,162.426758 246.895731,162.387695 C246.695535,162.348633 246.453838,162.312012 246.170633,162.277832 C245.887429,162.243652 245.609111,162.226562 245.335672,162.226562 C244.769263,162.226562 244.266339,162.282714 243.826883,162.39502 C243.387428,162.507325 243.021221,162.700194 242.728251,162.973633 C242.43528,163.247072 242.288797,163.593748 242.288797,164.013672 C242.288797,164.541018 242.440163,164.919432 242.742899,165.148926 C243.045635,165.378419 243.65598,165.605468 244.573954,165.830078 L246.947001,166.416016 C248.480211,166.796877 249.588599,167.324215 250.272196,167.998047 C250.955793,168.671878 251.297586,169.570307 251.297586,170.693359 C251.297586,171.445316 251.148662,172.116696 250.850809,172.70752 C250.552956,173.298343 250.140363,173.776854 249.613016,174.143066 C249.08567,174.509279 248.468,174.785155 247.759989,174.970703 C247.051977,175.156251 246.278059,175.249023 245.438211,175.249023 C244.979225,175.249023 244.515362,175.219727 244.04661,175.161133 C242.386445,174.946288 240.980209,174.428715 239.82786,173.608398 Z" id="Collectyourresources" fill="#FFFFFF" fill-rule="nonzero"></path>
                    </g>
                    <g id="2" transform="translate(1011.000000, 67.000000)">
                        <path d="M54.8051547,0 C-31.2835726,96.3218061 -15.9502392,144.482709 100.805155,144.482709" id="Path-4-Copy" stroke="#4D0DB9" stroke-width="4"></path>
                        <path d="M132.318827,135.322266 C130.385223,135.322266 128.668932,134.860844 127.169901,133.937988 C125.67087,133.015132 124.513655,131.730965 123.698221,130.085449 C122.882787,128.439933 122.475077,126.567393 122.475077,124.467773 C122.475077,122.290028 122.90476,120.363778 123.764139,118.688965 C124.623518,117.014152 125.82712,115.720219 127.374979,114.807129 C128.922838,113.894038 130.687957,113.4375 132.670389,113.4375 C134.555164,113.4375 136.33249,113.876949 138.00242,114.755859 C138.598126,115.058595 138.895975,115.483396 138.895975,116.030273 C138.895975,116.157227 138.878885,116.284179 138.844705,116.411133 C138.810526,116.538087 138.761698,116.655273 138.698221,116.762695 C138.634744,116.870118 138.55662,116.972656 138.463846,117.070312 C138.371072,117.167969 138.273417,117.248535 138.170877,117.312012 C138.068338,117.375489 137.953593,117.426758 137.826639,117.46582 C137.699685,117.504883 137.572733,117.524414 137.44578,117.524414 L137.328592,117.524414 C137.28953,117.524414 137.250467,117.519531 137.211405,117.509766 L137.094217,117.480469 C137.055155,117.470703 137.016092,117.456055 136.97703,117.436523 C136.957498,117.426758 136.752422,117.331544 136.361795,117.150879 C135.971168,116.970214 135.658672,116.838379 135.424295,116.755371 C135.189919,116.672363 134.826153,116.582032 134.332987,116.484375 C133.83982,116.386718 133.334454,116.337891 132.816873,116.337891 C130.717254,116.337891 129.108383,117.06054 127.990213,118.505859 C126.872044,119.951179 126.312967,121.91405 126.312967,124.394531 C126.312967,126.894544 126.879368,128.857415 128.012186,130.283203 C129.145004,131.708992 130.795378,132.421875 132.963358,132.421875 C133.539533,132.421875 134.108375,132.351075 134.669901,132.209473 C135.231427,132.06787 135.673317,131.923829 135.995584,131.777344 C136.317852,131.630859 136.732887,131.4209 137.240702,131.147461 C137.338358,131.098633 137.438455,131.05957 137.540995,131.030273 C137.643534,131.000976 137.743631,130.986328 137.841288,130.986328 C138.202617,130.986328 138.510232,131.132811 138.764139,131.425781 C139.018047,131.718751 139.144998,132.050779 139.144998,132.421875 C139.144998,132.519532 139.135233,132.614746 139.115702,132.70752 C139.09617,132.800293 139.066874,132.890625 139.027811,132.978516 C138.988748,133.066407 138.939921,133.154296 138.881327,133.242188 C138.822733,133.330079 138.751932,133.413086 138.668924,133.491211 C138.585916,133.569336 138.490702,133.642578 138.38328,133.710938 C136.684052,134.785162 134.662588,135.322266 132.318827,135.322266 Z M144.230356,135 C143.800666,135 143.429576,134.868165 143.117075,134.604492 C142.804573,134.340819 142.648325,133.964846 142.648325,133.476562 L142.648325,121.845703 C142.648325,121.523436 142.72889,121.24756 142.890024,121.018066 C143.051158,120.788573 143.253792,120.622559 143.497934,120.52002 C143.742076,120.41748 144.005745,120.366211 144.28895,120.366211 C144.728405,120.366211 145.104378,120.48828 145.41688,120.732422 C145.729381,120.976564 145.880747,121.313474 145.870981,121.743164 L145.827036,123.55957 C146.080943,122.651363 146.586309,121.889652 147.343149,121.274414 C148.099989,120.659177 148.952031,120.351562 149.899301,120.351562 C150.094615,120.351562 150.270394,120.390625 150.426645,120.46875 C150.582896,120.546875 150.709848,120.651855 150.807505,120.783691 C150.905161,120.915528 150.978403,121.064452 151.027231,121.230469 C151.07606,121.396485 151.100473,121.567382 151.100473,121.743164 C151.100473,122.094728 151.007701,122.39746 150.822153,122.651367 C150.636605,122.905275 150.382702,123.032227 150.060434,123.032227 C149.445197,123.032227 148.900769,123.085937 148.427133,123.193359 C147.953498,123.300782 147.516491,123.483885 147.116098,123.742676 C146.715706,124.001466 146.408092,124.374998 146.193247,124.863281 C145.978402,125.351562 145.870981,125.947262 145.870981,126.650391 L145.870981,133.476562 C145.870981,133.955081 145.707409,134.328612 145.380258,134.597168 C145.053108,134.865724 144.669811,135 144.230356,135 Z M160.170206,135.205078 C157.943632,135.185547 156.149217,134.494636 154.786905,133.132324 C153.424594,131.770013 152.743448,129.907238 152.743448,127.543945 C152.743448,126.557612 152.902138,125.622563 153.219522,124.73877 C153.536907,123.854976 153.988562,123.071292 154.574503,122.387695 C155.160443,121.704098 155.907506,121.162111 156.815714,120.761719 C157.723921,120.361326 158.729771,120.161133 159.833292,120.161133 C160.956344,120.161133 161.949987,120.351561 162.814249,120.732422 C163.678511,121.113283 164.371864,121.633297 164.894327,122.29248 C165.416791,122.951663 165.814736,123.693844 166.088175,124.519043 C166.361614,125.344242 166.508097,126.24023 166.527628,127.207031 C166.527628,127.558596 166.451945,127.84912 166.300577,128.078613 C166.149209,128.308107 165.907512,128.422852 165.575479,128.422852 L155.966104,128.422852 C156.034464,129.975594 156.461706,131.120602 157.247843,131.85791 C158.033979,132.595219 159.086215,132.96875 160.404581,132.978516 C161.62529,132.978516 162.982699,132.451177 164.476847,131.396484 C164.662394,131.269531 164.847939,131.206055 165.033487,131.206055 C165.306926,131.206055 165.54374,131.318358 165.743936,131.542969 C165.944133,131.767579 166.044229,132.026366 166.044229,132.319336 C166.044229,132.690432 165.883098,133.007811 165.560831,133.271484 C164.09598,134.560553 162.299123,135.205078 160.170206,135.205078 Z M155.995401,126.489258 L163.759073,126.489258 C163.671182,125.297846 163.31474,124.306645 162.689737,123.515625 C162.064734,122.724605 161.15654,122.329102 159.965128,122.329102 C159.34989,122.329102 158.793255,122.451171 158.295206,122.695312 C157.797157,122.939454 157.391887,123.261717 157.079386,123.662109 C156.766884,124.062502 156.520305,124.501951 156.33964,124.980469 C156.158975,125.458987 156.04423,125.961911 155.995401,126.489258 Z M173.678415,135.205078 C172.164736,135.205078 170.924514,134.838871 169.957712,134.106445 C168.99091,133.37402 168.507517,132.333991 168.507517,130.986328 C168.507517,130.468747 168.54902,130.009768 168.632029,129.609375 C168.715037,129.208982 168.856637,128.852541 169.056833,128.540039 C169.25703,128.227538 169.481637,127.961427 169.730661,127.741699 C169.979686,127.521972 170.314155,127.336427 170.734079,127.185059 C171.154003,127.033691 171.581245,126.911622 172.015818,126.818848 C172.45039,126.726074 172.994818,126.652832 173.649118,126.599121 C174.303419,126.54541 174.943061,126.511231 175.568064,126.496582 C176.193067,126.481934 176.954778,126.474609 177.85322,126.474609 L177.85322,125.185547 C177.85322,123.271475 176.925495,122.314453 175.070017,122.314453 C174.523139,122.314453 173.937207,122.385253 173.312204,122.526855 C172.687201,122.668458 172.245311,122.785644 171.986521,122.878418 C171.72773,122.971192 171.324902,123.124999 170.778025,123.339844 C170.738962,123.359375 170.697458,123.374023 170.653513,123.383789 C170.609567,123.393555 170.568064,123.400879 170.529001,123.405762 C170.489938,123.410645 170.450876,123.413086 170.411814,123.413086 C170.099312,123.413086 169.833202,123.286134 169.613474,123.032227 C169.393746,122.778319 169.283884,122.495119 169.283884,122.182617 C169.283884,121.801756 169.464546,121.523438 169.825876,121.347656 C171.407915,120.556637 173.19989,120.161133 175.201853,120.161133 C177.008502,120.161133 178.439152,120.588375 179.493845,121.442871 C180.548538,122.297368 181.075876,123.627921 181.075876,125.43457 L181.075876,133.461914 C181.075876,133.950198 180.919628,134.328612 180.607126,134.597168 C180.294625,134.865724 179.923535,135 179.493845,135 C179.249703,135 179.01533,134.951172 178.79072,134.853516 C178.214545,134.599608 177.926462,134.140628 177.926462,133.476562 L177.926462,132.685547 C177.076849,134.365243 175.660847,135.205078 173.678415,135.205078 Z M173.956736,133.110352 C174.982131,133.110352 175.885443,132.692875 176.666697,131.85791 C177.44795,131.022945 177.838572,129.960944 177.838572,128.671875 L177.838572,128.291016 C177.174506,128.291016 176.610546,128.295898 176.146677,128.305664 C175.682807,128.31543 175.22871,128.337402 174.784372,128.371582 C174.340034,128.405762 173.971385,128.449707 173.678415,128.503418 C173.385445,128.557129 173.109569,128.630371 172.850779,128.723145 C172.591988,128.815918 172.386912,128.923339 172.235544,129.04541 C172.084176,129.167481 171.954783,129.316405 171.847361,129.492188 C171.739938,129.66797 171.664255,129.865722 171.62031,130.085449 C171.576364,130.305177 171.554392,130.556639 171.554392,130.839844 C171.554392,131.621098 171.774116,132.194822 172.213572,132.561035 C172.653027,132.927248 173.234076,133.110352 173.956736,133.110352 Z M190.174906,135.146484 C188.934665,135.146484 187.955671,134.758305 187.237894,133.981934 C186.520117,133.205563 186.161234,132.119148 186.161234,130.722656 L186.161234,122.592773 L184.535257,122.592773 C184.164162,122.592773 183.876079,122.490235 183.670999,122.285156 C183.46592,122.080077 183.363382,121.831056 183.363382,121.538086 C183.363382,121.245116 183.461038,121.000978 183.656351,120.805664 C183.851665,120.610351 184.134865,120.512695 184.50596,120.512695 L186.161234,120.512695 L186.600687,116.542969 C186.649515,116.123045 186.817971,115.783693 187.106058,115.524902 C187.394145,115.266112 187.753029,115.136719 188.182718,115.136719 C188.534283,115.136719 188.819924,115.236815 189.039652,115.437012 C189.259379,115.637208 189.369242,115.942381 189.369242,116.352539 L189.369242,120.512695 L191.932718,120.512695 C192.303814,120.512695 192.584573,120.612792 192.775003,120.812988 C192.965434,121.013185 193.060648,121.264647 193.060648,121.567383 C193.060648,121.870119 192.967875,122.116698 192.782328,122.307129 C192.59678,122.49756 192.31358,122.592773 191.932718,122.592773 L189.369242,122.592773 L189.369242,129.960938 C189.369242,130.546878 189.418069,131.032713 189.515726,131.418457 C189.613383,131.804201 189.78428,132.106932 190.028421,132.32666 C190.272563,132.546388 190.594826,132.65625 190.995218,132.65625 L191.127054,132.65625 L192.19639,132.583008 L192.298929,132.583008 C192.562602,132.583008 192.789651,132.644042 192.980082,132.766113 C193.170512,132.888184 193.312112,133.041991 193.404886,133.227539 C193.49766,133.413087 193.544046,133.61328 193.544046,133.828125 C193.544046,133.984376 193.524515,134.123535 193.485453,134.245605 C193.44639,134.367676 193.387797,134.472656 193.309671,134.560547 C193.231546,134.648438 193.143656,134.726562 193.045999,134.794922 C192.948343,134.863282 192.828715,134.916992 192.687113,134.956055 C192.545511,134.995117 192.406352,135.029297 192.269632,135.058594 C192.132913,135.087891 191.971782,135.107422 191.786234,135.117188 C191.600686,135.126953 191.434672,135.134277 191.288187,135.13916 C191.141702,135.144043 190.96104,135.146484 190.746195,135.146484 L190.174906,135.146484 Z M202.760263,135.205078 C200.53369,135.185547 198.739274,134.494636 197.376963,133.132324 C196.014651,131.770013 195.333506,129.907238 195.333506,127.543945 C195.333506,126.557612 195.492195,125.622563 195.80958,124.73877 C196.126964,123.854976 196.57862,123.071292 197.16456,122.387695 C197.750501,121.704098 198.497564,121.162111 199.405771,120.761719 C200.313979,120.361326 201.319828,120.161133 202.423349,120.161133 C203.546402,120.161133 204.540044,120.351561 205.404306,120.732422 C206.268569,121.113283 206.961921,121.633297 207.484385,122.29248 C208.006848,122.951663 208.404793,123.693844 208.678232,124.519043 C208.951671,125.344242 209.098154,126.24023 209.117685,127.207031 C209.117685,127.558596 209.042002,127.84912 208.890635,128.078613 C208.739267,128.308107 208.49757,128.422852 208.165537,128.422852 L198.556162,128.422852 C198.624522,129.975594 199.051763,131.120602 199.8379,131.85791 C200.624037,132.595219 201.676272,132.96875 202.994638,132.978516 C204.215348,132.978516 205.572756,132.451177 207.066904,131.396484 C207.252452,131.269531 207.437997,131.206055 207.623545,131.206055 C207.896984,131.206055 208.133798,131.318358 208.333994,131.542969 C208.53419,131.767579 208.634287,132.026366 208.634287,132.319336 C208.634287,132.690432 208.473156,133.007811 208.150888,133.271484 C206.686037,134.560553 204.88918,135.205078 202.760263,135.205078 Z M198.585459,126.489258 L206.349131,126.489258 C206.26124,125.297846 205.904798,124.306645 205.279795,123.515625 C204.654792,122.724605 203.746598,122.329102 202.555185,122.329102 C201.939948,122.329102 201.383313,122.451171 200.885263,122.695312 C200.387214,122.939454 199.981945,123.261717 199.669443,123.662109 C199.356942,124.062502 199.110362,124.501951 198.929697,124.980469 C198.749032,125.458987 198.634287,125.961911 198.585459,126.489258 Z M224.766916,140.200195 C224.483712,140.77637 224.054029,141.064453 223.477854,141.064453 C223.067695,141.064453 222.699047,140.91797 222.371897,140.625 C222.044747,140.33203 221.881174,139.980471 221.881174,139.570312 C221.881174,139.46289 221.895822,139.355469 221.925119,139.248047 C221.954416,139.140624 221.993479,139.033204 222.042307,138.925781 L224.942698,133.037109 L219.639963,122.651367 C219.522775,122.416991 219.464182,122.187501 219.464182,121.962891 C219.464182,121.689452 219.539865,121.440431 219.691233,121.21582 C219.842601,120.99121 220.040353,120.817872 220.284494,120.695801 C220.528636,120.57373 220.78254,120.512695 221.046213,120.512695 C221.329418,120.512695 221.595528,120.588378 221.844553,120.739746 C222.093578,120.891114 222.296212,121.127928 222.452463,121.450195 L226.539377,129.785156 L230.714182,121.274414 C231.036449,120.639645 231.505194,120.322266 232.120432,120.322266 C232.520825,120.322266 232.879708,120.463866 233.197092,120.74707 C233.514476,121.030275 233.673166,121.372068 233.673166,121.772461 C233.673166,121.997071 233.619456,122.216796 233.512033,122.431641 L224.766916,140.200195 Z M242.698954,133.022461 C244.066148,133.022461 245.13059,132.553716 245.892313,131.616211 C246.654036,130.678706 247.034891,129.375008 247.034891,127.705078 C247.034891,126.025382 246.651594,124.709477 245.884989,123.757324 C245.118383,122.805171 244.056382,122.329102 242.698954,122.329102 C241.341525,122.329102 240.279524,122.80273 239.512918,123.75 C238.746313,124.69727 238.363016,126.015617 238.363016,127.705078 C238.363016,129.375008 238.746313,130.678706 239.512918,131.616211 C240.279524,132.553716 241.341525,133.022461 242.698954,133.022461 Z M242.698954,135.205078 C241.468479,135.205078 240.364974,134.995119 239.388407,134.575195 C238.411839,134.155271 237.623273,133.591312 237.022684,132.883301 C236.422095,132.175289 235.965557,131.379399 235.653055,130.495605 C235.340554,129.611812 235.184305,128.681646 235.184305,127.705078 C235.184305,126.708979 235.342995,125.764165 235.660379,124.870605 C235.977764,123.977046 236.436744,123.176273 237.037333,122.468262 C237.637921,121.76025 238.426488,121.198733 239.403055,120.783691 C240.379623,120.36865 241.478244,120.161133 242.698954,120.161133 C243.909897,120.161133 244.998754,120.363768 245.965555,120.769043 C246.932357,121.174318 247.720923,121.728512 248.331278,122.431641 C248.941632,123.134769 249.407936,123.935542 249.730204,124.833984 C250.052471,125.732426 250.213602,126.689448 250.213602,127.705078 C250.213602,128.476566 250.118388,129.221188 249.927958,129.938965 C249.737527,130.656742 249.439678,131.337887 249.034403,131.982422 C248.629127,132.626956 248.135968,133.186033 247.554911,133.659668 C246.973853,134.133303 246.268294,134.509276 245.438211,134.787598 C244.608129,135.065919 243.695052,135.205078 242.698954,135.205078 Z M258.506968,135.205078 C257.784308,135.205078 257.110486,135.095216 256.485483,134.875488 C255.86048,134.655761 255.301404,134.323733 254.808237,133.879395 C254.315071,133.435056 253.926891,132.846683 253.643686,132.114258 C253.360482,131.381832 253.218882,130.537114 253.218882,129.580078 L253.218882,121.904297 C253.218882,121.416013 253.377571,121.037599 253.694956,120.769043 C254.01234,120.500487 254.390754,120.366211 254.83021,120.366211 C255.259899,120.366211 255.633431,120.500487 255.950815,120.769043 C256.2682,121.037599 256.426889,121.416013 256.426889,121.904297 L256.426889,129.609375 C256.426889,130.722662 256.697883,131.569821 257.239878,132.150879 C257.781873,132.731936 258.50208,133.022461 259.400522,133.022461 C260.445449,133.022461 261.348761,132.61475 262.110483,131.799316 C262.872206,130.983883 263.262827,129.90235 263.282358,128.554688 L263.282358,121.904297 C263.282358,121.425779 263.441048,121.049806 263.758432,120.776367 C264.075817,120.502928 264.454231,120.366211 264.893686,120.366211 C265.333142,120.366211 265.709114,120.500487 266.021616,120.769043 C266.334118,121.037599 266.490366,121.416013 266.490366,121.904297 L266.490366,133.491211 C266.490366,133.969729 266.329235,134.340819 266.006968,134.604492 C265.6847,134.868165 265.303845,135 264.864389,135 C264.4347,135 264.06361,134.873048 263.751108,134.619141 C263.438607,134.365233 263.282358,134.008791 263.282358,133.549805 L263.282358,132.700195 C262.8722,133.510746 262.249648,134.130857 261.414682,134.560547 C260.579717,134.990237 259.610489,135.205078 258.506968,135.205078 Z M272.132364,135 C271.702675,135 271.331585,134.868165 271.019083,134.604492 C270.706582,134.340819 270.550333,133.964846 270.550333,133.476562 L270.550333,121.845703 C270.550333,121.523436 270.630899,121.24756 270.792032,121.018066 C270.953166,120.788573 271.155801,120.622559 271.399942,120.52002 C271.644084,120.41748 271.907754,120.366211 272.190958,120.366211 C272.630413,120.366211 273.006386,120.48828 273.318888,120.732422 C273.631389,120.976564 273.782755,121.313474 273.772989,121.743164 L273.729044,123.55957 C273.982952,122.651363 274.488318,121.889652 275.245157,121.274414 C276.001997,120.659177 276.854039,120.351562 277.80131,120.351562 C277.996623,120.351562 278.172403,120.390625 278.328653,120.46875 C278.484904,120.546875 278.611856,120.651855 278.709513,120.783691 C278.807169,120.915528 278.880411,121.064452 278.929239,121.230469 C278.978068,121.396485 279.002482,121.567382 279.002482,121.743164 C279.002482,122.094728 278.909709,122.39746 278.724161,122.651367 C278.538613,122.905275 278.28471,123.032227 277.962442,123.032227 C277.347205,123.032227 276.802777,123.085937 276.329142,123.193359 C275.855506,123.300782 275.418499,123.483885 275.018107,123.742676 C274.617714,124.001466 274.3101,124.374998 274.095255,124.863281 C273.88041,125.351562 273.772989,125.947262 273.772989,126.650391 L273.772989,133.476562 C273.772989,133.955081 273.609417,134.328612 273.282267,134.597168 C272.955117,134.865724 272.57182,135 272.132364,135 Z M128.319803,175.205078 C127.313939,175.205078 126.405745,174.997561 125.595194,174.58252 C124.784643,174.167478 124.120587,173.608402 123.603006,172.905273 C123.085426,172.202145 122.68748,171.394048 122.409159,170.480957 C122.130837,169.567867 121.991678,168.603521 121.991678,167.587891 C121.991678,165.371083 122.580051,163.579108 123.756815,162.211914 C124.933579,160.84472 126.527801,160.161133 128.53953,160.161133 C130.687978,160.161133 132.24558,160.966789 133.212381,162.578125 L133.212381,155.473633 C133.212381,155.00488 133.371071,154.638673 133.688455,154.375 C134.00584,154.111327 134.384254,153.979492 134.823709,153.979492 C135.263165,153.979492 135.639138,154.111327 135.951639,154.375 C136.264141,154.638673 136.420389,155.00488 136.420389,155.473633 L136.420389,173.447266 C136.420389,173.925784 136.259258,174.301756 135.936991,174.575195 C135.614723,174.848634 135.233868,174.985352 134.794413,174.985352 C133.73972,174.985352 133.212381,174.472661 133.212381,173.447266 L133.212381,172.641602 C132.255345,174.350594 130.624502,175.205078 128.319803,175.205078 Z M129.052225,173.022461 C130.556139,173.022461 131.623023,172.565923 132.252909,171.652832 C132.882795,170.739742 133.197733,169.399423 133.197733,167.631836 C133.197733,166.938473 133.12205,166.286624 132.970682,165.67627 C132.819314,165.065915 132.589824,164.504397 132.282205,163.991699 C131.974587,163.479001 131.549786,163.073732 131.007791,162.775879 C130.465797,162.478026 129.833479,162.329102 129.110819,162.329102 C128.534644,162.329102 128.019512,162.434081 127.565409,162.644043 C127.111305,162.854005 126.737773,163.132322 126.444803,163.479004 C126.151833,163.825685 125.910136,164.233396 125.719705,164.702148 C125.529275,165.170901 125.394999,165.644529 125.316873,166.123047 C125.238748,166.601565 125.199686,167.094724 125.199686,167.602539 C125.199686,168.100588 125.236307,168.586423 125.309549,169.060059 C125.382792,169.533694 125.512185,170.014646 125.697733,170.50293 C125.883281,170.991213 126.115212,171.418455 126.393534,171.784668 C126.671855,172.150881 127.040504,172.448729 127.499491,172.678223 C127.958477,172.907716 128.47605,173.022461 129.052225,173.022461 Z M147.057505,175.205078 C144.830931,175.185547 143.036515,174.494636 141.674204,173.132324 C140.311892,171.770013 139.630747,169.907238 139.630747,167.543945 C139.630747,166.557612 139.789437,165.622563 140.106821,164.73877 C140.424205,163.854976 140.875861,163.071292 141.461801,162.387695 C142.047742,161.704098 142.794805,161.162111 143.703012,160.761719 C144.61122,160.361326 145.617069,160.161133 146.720591,160.161133 C147.843643,160.161133 148.837285,160.351561 149.701548,160.732422 C150.56581,161.113283 151.259162,161.633297 151.781626,162.29248 C152.304089,162.951663 152.702034,163.693844 152.975473,164.519043 C153.248912,165.344242 153.395395,166.24023 153.414926,167.207031 C153.414926,167.558596 153.339244,167.84912 153.187876,168.078613 C153.036508,168.308107 152.794811,168.422852 152.462778,168.422852 L142.853403,168.422852 C142.921763,169.975594 143.349005,171.120602 144.135141,171.85791 C144.921278,172.595219 145.973514,172.96875 147.29188,172.978516 C148.512589,172.978516 149.869997,172.451177 151.364145,171.396484 C151.549693,171.269531 151.735238,171.206055 151.920786,171.206055 C152.194225,171.206055 152.431039,171.318358 152.631235,171.542969 C152.831431,171.767579 152.931528,172.026366 152.931528,172.319336 C152.931528,172.690432 152.770397,173.007811 152.44813,173.271484 C150.983279,174.560553 149.186421,175.205078 147.057505,175.205078 Z M142.8827,166.489258 L150.646372,166.489258 C150.558481,165.297846 150.202039,164.306645 149.577036,163.515625 C148.952033,162.724605 148.043839,162.329102 146.852426,162.329102 C146.237189,162.329102 145.680554,162.451171 145.182505,162.695312 C144.684455,162.939454 144.279186,163.261717 143.966684,163.662109 C143.654183,164.062502 143.407603,164.501951 143.226938,164.980469 C143.046273,165.458987 142.931528,165.961911 142.8827,166.489258 Z M156.405558,173.608398 C156.08329,173.374022 155.922159,173.081056 155.922159,172.729492 C155.922159,172.670898 155.927042,172.614746 155.936808,172.561035 C155.946573,172.507324 155.95878,172.456055 155.973429,172.407227 C155.988077,172.358398 156.007608,172.309571 156.032022,172.260742 C156.056437,172.211914 156.083292,172.165528 156.112589,172.121582 C156.141886,172.077636 156.176065,172.036133 156.215128,171.99707 C156.254191,171.958008 156.295694,171.921387 156.33964,171.887207 C156.383585,171.853027 156.429971,171.823731 156.4788,171.799316 C156.527628,171.774902 156.578897,171.75293 156.632608,171.733398 C156.68632,171.713867 156.742471,171.699219 156.801065,171.689453 C156.859659,171.679687 156.918253,171.674805 156.976847,171.674805 C157.211223,171.674805 157.450478,171.743163 157.69462,171.879883 C158.085247,172.114259 158.446572,172.30957 158.778604,172.46582 C159.110637,172.622071 159.554969,172.770995 160.111612,172.912598 C160.668256,173.0542 161.229773,173.125 161.796183,173.125 C162.41142,173.125 162.963172,173.0542 163.451456,172.912598 C163.93974,172.770995 164.345009,172.526857 164.667276,172.180176 C164.989544,171.833494 165.150675,171.406253 165.150675,170.898438 C165.150675,170.410154 164.974895,170.007326 164.623331,169.689941 C164.271767,169.372557 163.715132,169.116212 162.953409,168.920898 L160.536417,168.305664 C160.057899,168.17871 159.662395,168.068848 159.349894,167.976074 C159.037392,167.8833 158.702923,167.768555 158.346476,167.631836 C157.990028,167.495117 157.699504,167.358399 157.474894,167.22168 C157.250283,167.08496 157.028117,166.916505 156.80839,166.716309 C156.588662,166.516112 156.417765,166.296388 156.295694,166.057129 C156.173623,165.81787 156.075968,165.539552 156.002726,165.222168 C155.929483,164.904784 155.892862,164.550783 155.892862,164.160156 C155.892862,163.124995 156.244421,162.260746 156.94755,161.567383 C157.982711,160.58105 159.579375,160.087891 161.737589,160.087891 C163.446582,160.087891 165.023714,160.454098 166.469034,161.186523 C166.937786,161.411134 167.172159,161.752927 167.172159,162.211914 C167.172159,162.377931 167.133097,162.534179 167.054972,162.680664 C166.976846,162.827149 166.862101,162.946777 166.710733,163.039551 C166.559365,163.132325 166.386027,163.178711 166.190714,163.178711 C166.102823,163.178711 166.017374,163.168945 165.934366,163.149414 C165.851358,163.129883 165.761027,163.105469 165.66337,163.076172 C165.653604,163.076172 165.526653,163.029786 165.282511,162.937012 C165.038369,162.844238 164.862589,162.778321 164.755167,162.739258 C164.647745,162.700195 164.457317,162.641602 164.183878,162.563477 C163.910439,162.485351 163.673625,162.426758 163.473429,162.387695 C163.273232,162.348633 163.031536,162.312012 162.748331,162.277832 C162.465126,162.243652 162.186809,162.226562 161.91337,162.226562 C161.346961,162.226562 160.844036,162.282714 160.404581,162.39502 C159.965126,162.507325 159.598918,162.700194 159.305948,162.973633 C159.012978,163.247072 158.866495,163.593748 158.866495,164.013672 C158.866495,164.541018 159.017861,164.919432 159.320597,165.148926 C159.623333,165.378419 160.233678,165.605468 161.151651,165.830078 L163.524698,166.416016 C165.057909,166.796877 166.166296,167.324215 166.849894,167.998047 C167.533491,168.671878 167.875284,169.570307 167.875284,170.693359 C167.875284,171.445316 167.72636,172.116696 167.428507,172.70752 C167.130654,173.298343 166.71806,173.776854 166.190714,174.143066 C165.663367,174.509279 165.045698,174.785155 164.337686,174.970703 C163.629675,175.156251 162.855757,175.249023 162.015909,175.249023 C161.556922,175.249023 161.09306,175.219727 160.624308,175.161133 C158.964143,174.946288 157.557907,174.428715 156.405558,173.608398 Z M172.711618,175 C172.272163,175 171.898632,174.860841 171.591013,174.58252 C171.283394,174.304198 171.129587,173.911135 171.129587,173.40332 L171.129587,161.962891 C171.129587,161.464841 171.290718,161.07422 171.612986,160.791016 C171.935253,160.507811 172.316108,160.366211 172.755564,160.366211 C173.185253,160.366211 173.558785,160.507811 173.876169,160.791016 C174.193554,161.07422 174.352243,161.464841 174.352243,161.962891 L174.352243,173.40332 C174.352243,173.891604 174.188671,174.279784 173.861521,174.567871 C173.534371,174.855958 173.151074,175 172.711618,175 Z M172.726267,157.304688 C172.150092,157.304688 171.683788,157.136232 171.327341,156.799316 C170.970894,156.462401 170.792673,156.015628 170.792673,155.458984 C170.792673,154.912107 170.970894,154.467775 171.327341,154.125977 C171.683788,153.784178 172.154975,153.613281 172.740915,153.613281 C173.326856,153.613281 173.795601,153.784178 174.147165,154.125977 C174.49873,154.467775 174.674509,154.912107 174.674509,155.458984 C174.674509,156.015628 174.496288,156.462401 174.139841,156.799316 C173.783394,157.136232 173.312207,157.304688 172.726267,157.304688 Z M184.535257,181.401367 C183.470799,181.401367 182.472274,181.284181 181.539652,181.049805 C180.60703,180.815429 179.872174,180.532228 179.335062,180.200195 C179.149514,180.083007 179.010355,179.938966 178.917582,179.768066 C178.824808,179.597167 178.778421,179.421388 178.778421,179.240723 C178.778421,179.060058 178.819925,178.889161 178.902933,178.728027 C178.985941,178.566894 179.105569,178.435059 179.26182,178.33252 C179.418071,178.22998 179.59385,178.178711 179.789164,178.178711 C179.837992,178.178711 179.884378,178.181152 179.928324,178.186035 C179.972269,178.190918 180.021097,178.200684 180.074808,178.215332 C180.128519,178.229981 180.179788,178.24707 180.228617,178.266602 C180.345805,178.305664 180.611915,178.40332 181.026957,178.55957 C181.441998,178.715821 181.766701,178.830566 182.001078,178.903809 C182.235454,178.977051 182.569923,179.050293 183.004496,179.123535 C183.439068,179.196778 183.871193,179.233398 184.300882,179.233398 C185.677842,179.233398 186.759374,178.862308 187.545511,178.120117 C188.331648,177.377926 188.72471,176.337897 188.72471,175 L188.72471,172.553711 C187.836034,174.184578 186.337026,175 184.22764,175 C182.12802,175 180.458115,174.340827 179.217874,173.022461 C177.977634,171.704095 177.357523,169.956066 177.357523,167.77832 C177.357523,166.313469 177.623634,165.009771 178.155863,163.867188 C178.688092,162.724604 179.471776,161.821292 180.506937,161.157227 C181.542098,160.493161 182.753024,160.161133 184.139749,160.161133 C184.969832,160.161133 185.692481,160.270995 186.307718,160.490723 C186.922956,160.71045 187.408791,160.986326 187.765238,161.318359 C188.121685,161.650392 188.46592,162.075193 188.797953,162.592773 L188.797953,161.611328 C188.846781,161.220701 189.015236,160.915528 189.303324,160.695801 C189.591411,160.476073 189.920998,160.366211 190.292093,160.366211 C190.692486,160.366211 191.044045,160.500487 191.346781,160.769043 C191.649517,161.037599 191.800882,161.41113 191.800882,161.889648 L191.800882,174.765625 C191.800882,176.982433 191.144151,178.642573 189.830667,179.746094 C188.517184,180.849615 186.752065,181.401367 184.535257,181.401367 Z M184.711039,172.905273 C185.902451,172.895508 186.864355,172.465825 187.596781,171.616211 C188.329206,170.766597 188.700296,169.467782 188.710062,167.719727 C188.710062,166.928707 188.641703,166.220706 188.504984,165.595703 C188.368264,164.9707 188.150981,164.406741 187.853128,163.903809 C187.555275,163.400876 187.145123,163.012697 186.62266,162.739258 C186.100196,162.465819 185.477644,162.329102 184.754984,162.329102 C184.032324,162.329102 183.395123,162.473143 182.843363,162.76123 C182.291602,163.049318 181.854595,163.447263 181.532328,163.955078 C181.21006,164.462893 180.968364,165.029294 180.80723,165.654297 C180.646096,166.2793 180.565531,166.958004 180.565531,167.69043 C180.565531,169.389657 180.963476,170.676265 181.759378,171.550293 C182.555281,172.424321 183.539158,172.875976 184.711039,172.905273 Z M197.311045,175 C196.871589,175 196.493175,174.865724 196.175791,174.597168 C195.858406,174.328612 195.699717,173.950198 195.699717,173.461914 L195.699717,161.875 C195.699717,161.406248 195.860848,161.037599 196.183115,160.769043 C196.505382,160.500487 196.886238,160.366211 197.325693,160.366211 C197.765148,160.366211 198.141121,160.495604 198.453623,160.754395 C198.766124,161.013185 198.922373,161.372068 198.922373,161.831055 L198.922373,162.651367 C199.332531,161.840816 199.947759,161.223147 200.768076,160.79834 C201.588393,160.373533 202.55518,160.161133 203.668467,160.161133 C204.391126,160.161133 205.067389,160.270995 205.697275,160.490723 C206.327161,160.71045 206.89112,161.040037 207.38917,161.479492 C207.887219,161.918948 208.27784,162.504879 208.561045,163.237305 C208.844249,163.96973 208.985849,164.814448 208.985849,165.771484 L208.985849,173.461914 C208.985849,173.950198 208.824718,174.328612 208.502451,174.597168 C208.180184,174.865724 207.799328,175 207.359873,175 C206.930183,175 206.559093,174.865724 206.246592,174.597168 C205.93409,174.328612 205.777842,173.950198 205.777842,173.461914 L205.777842,165.742188 C205.777842,164.638666 205.499524,163.793948 204.942881,163.208008 C204.386237,162.622067 203.658705,162.329102 202.760263,162.329102 C201.715336,162.329102 200.816908,162.739254 200.064951,163.55957 C199.312994,164.379887 198.932138,165.458978 198.922373,166.796875 L198.922373,173.461914 C198.922373,173.940432 198.763683,174.316405 198.446299,174.589844 C198.128914,174.863283 197.7505,175 197.311045,175 Z" id="Createyourdesign" fill="#322673" fill-rule="nonzero"></path>
                    </g>
                    <g id="Balls" transform="translate(421.000000, 0.837756)">
                        <g id="1" transform="translate(0.000000, 0.162244)">
                            <circle id="Oval" stroke="#FFFFFF" stroke-width="4" fill="#4D0DB9" cx="50" cy="50" r="50"></circle>
                            <path d="M51.125,64 C50.486976,64 49.9335961,63.7981791 49.4648438,63.3945312 C48.9960914,62.9908834 48.7617188,62.4309932 48.7617188,61.7148438 L48.7421875,40.8359375 L44.7773438,43.375 C44.490884,43.5442717 44.1914078,43.6289062 43.8789062,43.6289062 C43.4231748,43.6289062 43.0292985,43.4531268 42.6972656,43.1015625 C42.3652327,42.7499982 42.1992188,42.3528668 42.1992188,41.9101562 C42.1992188,41.3242158 42.4726535,40.8684912 43.0195312,40.5429688 L49.953125,36.3046875 C50.2656266,36.1354158 50.6887994,36.0247398 51.2226562,35.9726562 C51.8476594,35.9726562 52.3847634,36.1777323 52.8339844,36.5878906 C53.2832054,36.9980489 53.5078125,37.5807254 53.5078125,38.3359375 L53.5273438,61.7148438 C53.5273438,62.4309932 53.2897159,62.9908834 52.8144531,63.3945312 C52.3391903,63.7981791 51.7760449,64 51.125,64 Z" fill="#FFFFFF" fill-rule="nonzero"></path>
                        </g>
                        <g id="2" transform="translate(603.000000, 0.162244)">
                            <circle id="Oval-Copy-4" stroke="#FFFFFF" stroke-width="4" fill="#4D0DB9" cx="50" cy="50" r="50"></circle>
                            <path d="M58.8007812,43.7851562 C58.8007812,45.2695387 58.4329464,46.7115815 57.6972656,48.1113281 C56.9615849,49.5110747 55.7799561,50.9400969 54.1523438,52.3984375 L45.5976562,60.40625 L56.828125,60.40625 C57.3489609,60.40625 57.7526027,60.5820295 58.0390625,60.9335938 C58.3255223,61.285158 58.46875,61.7018205 58.46875,62.1835938 C58.46875,62.665367 58.3255223,63.0885398 58.0390625,63.453125 C57.7526027,63.8177102 57.3489609,64 56.828125,64 L43.1367188,64 C42.3164021,64 41.6621118,63.7721377 41.1738281,63.3164062 C40.6855444,62.8606748 40.4414062,62.3007846 40.4414062,61.6367188 C40.4414062,60.8424439 40.7799445,60.1002639 41.4570312,59.4101562 L51.5742188,49.234375 C53.3971445,47.4114492 54.3085938,45.6992268 54.3085938,44.0976562 C54.3085938,42.7304619 53.849614,41.6171918 52.9316406,40.7578125 C52.0136673,39.8984332 50.8906316,39.46875 49.5625,39.46875 C48.7682252,39.46875 48.0260451,39.5468742 47.3359375,39.703125 C46.6458299,39.8593758 46.1542983,40.0026035 45.8613281,40.1328125 C45.5683579,40.2630215 45.1093781,40.5104148 44.484375,40.875 C43.8593719,41.2395852 43.4882818,41.4544268 43.3710938,41.5195312 C43.1888012,41.6106775 42.9934906,41.65625 42.7851562,41.65625 C42.3164039,41.65625 41.8834655,41.4446636 41.4863281,41.0214844 C41.0891907,40.5983052 40.890625,40.1393254 40.890625,39.6445312 C40.890625,39.5273432 40.9003905,39.4199224 40.9199219,39.3222656 C40.9394532,39.2246089 40.972005,39.1236984 41.0175781,39.0195312 C41.0631513,38.9153641 41.1217444,38.8177088 41.1933594,38.7265625 C41.2649743,38.6354162 41.3496089,38.5475265 41.4472656,38.4628906 C41.5449224,38.3782548 41.6588535,38.296875 41.7890625,38.21875 C43.0911523,37.4374961 44.3671813,36.8385437 45.6171875,36.421875 C46.8671937,36.0052063 48.3190021,35.796875 49.9726562,35.796875 C51.0013072,35.796875 51.9746048,35.9335924 52.8925781,36.2070312 C53.8105515,36.4804701 54.6243454,36.8613257 55.3339844,37.3496094 C56.0436233,37.8378931 56.6621067,38.410804 57.1894531,39.0683594 C57.7167995,39.7259147 58.1171861,40.4583293 58.390625,41.265625 C58.6640639,42.0729207 58.8007812,42.9127561 58.8007812,43.7851562 Z" fill="#FFFFFF" fill-rule="nonzero"></path>
                        </g>
                    </g>
                </g>
            </g>
        </g>
    </g>
</svg>