<?xml version="1.0" encoding="UTF-8"?>
<svg width="40px" height="40px" viewBox="0 0 40 40" version="1.1" xmlns="http://www.w3.org/2000/svg" xmlns:xlink="http://www.w3.org/1999/xlink">
    <!-- Generator: Sketch 55 (78076) - https://sketchapp.com -->
    <title>Star Copy 4</title>
    <desc>Created with Sketch.</desc>
    <g id="Symbols" stroke="none" stroke-width="1" fill="none" fill-rule="evenodd">
        <g id="Rating-3" fill="#4D0DB9">
            <g id="Star-Copy-4">
                <g id="star" fill-rule="nonzero">
                    <path d="M39.0848,18.1091667 C39.8712,17.3108333 40.1488,16.1391667 39.8096,15.05 C39.4696,13.9608333 38.584,13.1833333 37.496,13.0183333 L27.8224,11.5541667 C27.4104,11.4916667 27.0544,11.2225 26.8704,10.8333333 L22.5456,1.7025 C22.06,0.676666667 21.0744,0.0391666667 19.976,0.0391666667 C18.8784,0.0391666667 17.8928,0.676666667 17.4072,1.7025 L13.0816,10.8333333 C12.8976,11.2225 12.5408,11.4916667 12.1288,11.5541667 L2.4552,13.0191667 C1.368,13.1833333 0.4824,13.9608333 0.1424,15.05 C-0.1968,16.1391667 0.0808,17.3108333 0.8672,18.1091667 L7.8664,25.2158333 C8.1648,25.5191667 8.3016,25.9558333 8.2312,26.3825 L6.5792,36.4183333 C6.3936,37.5458333 6.8296,38.6633333 7.7184,39.3366667 C8.6064,40.0108333 9.7624,40.0983333 10.736,39.5641667 L19.3872,34.8258333 C19.756,34.6241667 20.196,34.6241667 20.5648,34.8258333 L29.2168,39.5641667 C29.6392,39.7958333 30.0968,39.91 30.552,39.91 C31.1432,39.91 31.732,39.7175 32.2344,39.3366667 C33.1232,38.6633333 33.5592,37.5458333 33.3736,36.4183333 L31.7208,26.3833333 C31.6504,25.9558333 31.7872,25.52 32.0856,25.2166667 L39.0848,18.1091667 Z M30.1448,26.665 L31.7968,36.7 C31.88,37.205 31.692,37.6875 31.2936,37.9891667 C30.8944,38.29 30.3976,38.3266667 29.9616,38.09 L21.3096,33.3508333 C20.8928,33.1233333 20.4336,33.0083333 19.976,33.0083333 C19.5184,33.0083333 19.06,33.1233333 18.6424,33.3516667 L9.992,38.09 C9.5544,38.3266667 9.0576,38.29 8.6592,37.9891667 C8.2608,37.6875 8.0736,37.2058333 8.156,36.7 L9.808,26.665 C9.9672,25.6966667 9.6592,24.7083333 8.984,24.0233333 L1.984,16.9158333 C1.6312,16.5575 1.5112,16.0525 1.664,15.565 C1.816,15.0766667 2.1976,14.7416667 2.6848,14.6675 L12.3576,13.2033333 C13.2912,13.0625 14.0984,12.4525 14.5152,11.5708333 L18.8408,2.44 C19.0584,1.98 19.4832,1.70583333 19.9752,1.70583333 C20.468,1.70583333 20.892,1.98 21.1104,2.44 L25.436,11.5708333 C25.8528,12.4525 26.6592,13.0625 27.5928,13.2033333 L37.2664,14.6675 C37.7536,14.7416667 38.1352,15.0766667 38.2872,15.565 C38.4392,16.0525 38.32,16.5575 37.9672,16.9158333 L30.968,24.0225 C30.2928,24.7083333 29.9848,25.6958333 30.1448,26.665 Z" id="Shape"></path>
                </g>
                <text id="3" font-family="Nunito-Regular, Nunito" font-size="20" font-weight="normal" line-spacing="30" letter-spacing="-0.03750915">
                    <tspan x="14" y="29">3</tspan>
                </text>
            </g>
        </g>
    </g>
</svg>