<?xml version="1.0" encoding="UTF-8"?>
<svg width="40px" height="40px" viewBox="0 0 40 40" version="1.1" xmlns="http://www.w3.org/2000/svg" xmlns:xlink="http://www.w3.org/1999/xlink">
    <!-- Generator: Sketch 55.1 (78136) - https://sketchapp.com -->
    <title>Rating 5</title>
    <desc>Created with Sketch.</desc>
    <g id="Rating-5" stroke="none" stroke-width="1" fill="none" fill-rule="evenodd">
        <g id="Star-Copy-4" fill="#4D0DB9" fill-rule="nonzero">
            <g id="star">
                <path d="M39.0848,18.1091667 C39.8712,17.3108333 40.1488,16.1391667 39.8096,15.05 C39.4696,13.9608333 38.584,13.1833333 37.496,13.0183333 L27.8224,11.5541667 C27.4104,11.4916667 27.0544,11.2225 26.8704,10.8333333 L22.5456,1.7025 C22.06,0.676666667 21.0744,0.0391666667 19.976,0.0391666667 C18.8784,0.0391666667 17.8928,0.676666667 17.4072,1.7025 L13.0816,10.8333333 C12.8976,11.2225 12.5408,11.4916667 12.1288,11.5541667 L2.4552,13.0191667 C1.368,13.1833333 0.4824,13.9608333 0.1424,15.05 C-0.1968,16.1391667 0.0808,17.3108333 0.8672,18.1091667 L7.8664,25.2158333 C8.1648,25.5191667 8.3016,25.9558333 8.2312,26.3825 L6.5792,36.4183333 C6.3936,37.5458333 6.8296,38.6633333 7.7184,39.3366667 C8.6064,40.0108333 9.7624,40.0983333 10.736,39.5641667 L19.3872,34.8258333 C19.756,34.6241667 20.196,34.6241667 20.5648,34.8258333 L29.2168,39.5641667 C29.6392,39.7958333 30.0968,39.91 30.552,39.91 C31.1432,39.91 31.732,39.7175 32.2344,39.3366667 C33.1232,38.6633333 33.5592,37.5458333 33.3736,36.4183333 L31.7208,26.3833333 C31.6504,25.9558333 31.7872,25.52 32.0856,25.2166667 L39.0848,18.1091667 Z M30.1448,26.665 L31.7968,36.7 C31.88,37.205 31.692,37.6875 31.2936,37.9891667 C30.8944,38.29 30.3976,38.3266667 29.9616,38.09 L21.3096,33.3508333 C20.8928,33.1233333 20.4336,33.0083333 19.976,33.0083333 C19.5184,33.0083333 19.06,33.1233333 18.6424,33.3516667 L9.992,38.09 C9.5544,38.3266667 9.0576,38.29 8.6592,37.9891667 C8.2608,37.6875 8.0736,37.2058333 8.156,36.7 L9.808,26.665 C9.9672,25.6966667 9.6592,24.7083333 8.984,24.0233333 L1.984,16.9158333 C1.6312,16.5575 1.5112,16.0525 1.664,15.565 C1.816,15.0766667 2.1976,14.7416667 2.6848,14.6675 L12.3576,13.2033333 C13.2912,13.0625 14.0984,12.4525 14.5152,11.5708333 L18.8408,2.44 C19.0584,1.98 19.4832,1.70583333 19.9752,1.70583333 C20.468,1.70583333 20.892,1.98 21.1104,2.44 L25.436,11.5708333 C25.8528,12.4525 26.6592,13.0625 27.5928,13.2033333 L37.2664,14.6675 C37.7536,14.7416667 38.1352,15.0766667 38.2872,15.565 C38.4392,16.0525 38.32,16.5575 37.9672,16.9158333 L30.968,24.0225 C30.2928,24.7083333 29.9848,25.6958333 30.1448,26.665 Z" id="Shape"></path>
            </g>
            <path d="M20.2091843,29.2148438 C19.349805,29.2148438 18.591349,29.0846367 17.9337936,28.8242188 C17.2762383,28.5638008 16.6512445,28.1731797 16.0587936,27.6523438 C15.9285847,27.5416661 15.8634811,27.4016936 15.8634811,27.2324219 C15.8634811,27.0175771 15.9513709,26.8141286 16.127153,26.6220703 C16.3029351,26.4300121 16.4917353,26.3339844 16.6935593,26.3339844 C16.8172578,26.3339844 16.931189,26.3763017 17.0353561,26.4609375 C17.9337981,27.2421914 18.968944,27.6328125 20.1408249,27.6328125 C21.1043714,27.6328125 21.8335307,27.3691433 22.3283249,26.8417969 C22.823119,26.3144505 23.0705124,25.5787808 23.0705124,24.6347656 C23.0705124,23.7688759 22.8263742,23.0706407 22.3380905,22.5400391 C21.8498068,22.0094375 21.2020268,21.7441406 20.3947311,21.7441406 C19.8738952,21.7441406 19.3579498,21.8629545 18.8468796,22.1005859 C18.3358093,22.3382173 17.9305399,22.6393211 17.6310593,23.0039062 C17.5594443,23.0820316 17.4324925,23.1210938 17.2501999,23.1210938 C16.9832715,23.1210938 16.7163471,23.0511075 16.4494186,22.9111328 C16.1824902,22.7711582 16.049028,22.6035166 16.049028,22.4082031 L16.049028,16.03125 C16.049028,15.4453096 16.3647801,15.1523438 16.9962936,15.1523438 L23.4025436,15.1523438 C23.6304094,15.1523438 23.8078164,15.2255852 23.9347702,15.3720703 C24.061724,15.5185554 24.1251999,15.6927073 24.1251999,15.8945312 C24.1251999,16.0963552 24.0633515,16.2688795 23.939653,16.4121094 C23.8159545,16.5553393 23.6369198,16.6269531 23.4025436,16.6269531 L17.611528,16.6269531 L17.6017624,21.34375 L17.7189499,21.2265625 C17.7905648,21.1484371 17.9093787,21.054037 18.0753952,20.9433594 C18.2414117,20.8326817 18.4367222,20.7236333 18.6613327,20.6162109 C18.8859432,20.5087885 19.1756538,20.416016 19.5304733,20.3378906 C19.8852928,20.2597652 20.2580104,20.2207031 20.6486374,20.2207031 C21.9507272,20.2207031 22.9923835,20.635738 23.7736374,21.4658203 C24.5548913,22.2959026 24.9455124,23.368483 24.9455124,24.6835938 C24.9455124,26.0507881 24.5044361,27.1477823 23.6222702,27.9746094 C22.7401043,28.8014364 21.6024204,29.2148438 20.2091843,29.2148438 Z" id="5"></path>
        </g>
    </g>
</svg>