<?xml version="1.0" encoding="UTF-8"?>
<svg width="40px" height="40px" viewBox="0 0 40 40" version="1.1" xmlns="http://www.w3.org/2000/svg" xmlns:xlink="http://www.w3.org/1999/xlink">
    <!-- Generator: Sketch 55.1 (78136) - https://sketchapp.com -->
    <title>Rating 3</title>
    <desc>Created with Sketch.</desc>
    <g id="Rating-3" stroke="none" stroke-width="1" fill="none" fill-rule="evenodd">
        <g id="Star-Copy-4" fill="#4D0DB9" fill-rule="nonzero">
            <g id="star">
                <path d="M39.0848,18.1091667 C39.8712,17.3108333 40.1488,16.1391667 39.8096,15.05 C39.4696,13.9608333 38.584,13.1833333 37.496,13.0183333 L27.8224,11.5541667 C27.4104,11.4916667 27.0544,11.2225 26.8704,10.8333333 L22.5456,1.7025 C22.06,0.676666667 21.0744,0.0391666667 19.976,0.0391666667 C18.8784,0.0391666667 17.8928,0.676666667 17.4072,1.7025 L13.0816,10.8333333 C12.8976,11.2225 12.5408,11.4916667 12.1288,11.5541667 L2.4552,13.0191667 C1.368,13.1833333 0.4824,13.9608333 0.1424,15.05 C-0.1968,16.1391667 0.0808,17.3108333 0.8672,18.1091667 L7.8664,25.2158333 C8.1648,25.5191667 8.3016,25.9558333 8.2312,26.3825 L6.5792,36.4183333 C6.3936,37.5458333 6.8296,38.6633333 7.7184,39.3366667 C8.6064,40.0108333 9.7624,40.0983333 10.736,39.5641667 L19.3872,34.8258333 C19.756,34.6241667 20.196,34.6241667 20.5648,34.8258333 L29.2168,39.5641667 C29.6392,39.7958333 30.0968,39.91 30.552,39.91 C31.1432,39.91 31.732,39.7175 32.2344,39.3366667 C33.1232,38.6633333 33.5592,37.5458333 33.3736,36.4183333 L31.7208,26.3833333 C31.6504,25.9558333 31.7872,25.52 32.0856,25.2166667 L39.0848,18.1091667 Z M30.1448,26.665 L31.7968,36.7 C31.88,37.205 31.692,37.6875 31.2936,37.9891667 C30.8944,38.29 30.3976,38.3266667 29.9616,38.09 L21.3096,33.3508333 C20.8928,33.1233333 20.4336,33.0083333 19.976,33.0083333 C19.5184,33.0083333 19.06,33.1233333 18.6424,33.3516667 L9.992,38.09 C9.5544,38.3266667 9.0576,38.29 8.6592,37.9891667 C8.2608,37.6875 8.0736,37.2058333 8.156,36.7 L9.808,26.665 C9.9672,25.6966667 9.6592,24.7083333 8.984,24.0233333 L1.984,16.9158333 C1.6312,16.5575 1.5112,16.0525 1.664,15.565 C1.816,15.0766667 2.1976,14.7416667 2.6848,14.6675 L12.3576,13.2033333 C13.2912,13.0625 14.0984,12.4525 14.5152,11.5708333 L18.8408,2.44 C19.0584,1.98 19.4832,1.70583333 19.9752,1.70583333 C20.468,1.70583333 20.892,1.98 21.1104,2.44 L25.436,11.5708333 C25.8528,12.4525 26.6592,13.0625 27.5928,13.2033333 L37.2664,14.6675 C37.7536,14.7416667 38.1352,15.0766667 38.2872,15.565 C38.4392,16.0525 38.32,16.5575 37.9672,16.9158333 L30.968,24.0225 C30.2928,24.7083333 29.9848,25.6958333 30.1448,26.665 Z" id="Shape"></path>
            </g>
            <path d="M19.7306686,29.2148438 C18.4806624,29.2148438 17.3934337,28.9707056 16.4689499,28.4824219 C16.1304065,28.3066397 15.9611374,28.0625016 15.9611374,27.75 C15.9611374,27.5351552 16.0360064,27.346355 16.1857468,27.1835938 C16.3354871,27.0208325 16.5112666,26.9394531 16.7130905,26.9394531 C16.778195,26.9394531 16.8595744,26.955729 16.9572311,26.9882812 C17.8882254,27.4179709 18.7833987,27.6328125 19.642778,27.6328125 C20.5086678,27.6328125 21.2101581,27.4309916 21.7472702,27.0273438 C22.2843823,26.6236959 22.5529343,26.0540401 22.5529343,25.3183594 C22.5529343,24.4654905 22.2436926,23.7851588 21.6251999,23.2773438 C21.0067072,22.7695287 20.2189547,22.515625 19.2619186,22.515625 L18.549028,22.515625 C18.3276727,22.515625 18.156776,22.4472663 18.0363327,22.3105469 C17.9158894,22.1738274 17.8556686,22.0078135 17.8556686,21.8125 C17.8556686,21.6106761 17.9158894,21.4381518 18.0363327,21.2949219 C18.156776,21.151692 18.3276727,21.0800781 18.549028,21.0800781 L19.1837936,21.0800781 C20.0952565,21.0800781 20.8260435,20.8733745 21.3761765,20.4599609 C21.9263094,20.0465474 22.2013718,19.4459675 22.2013718,18.6582031 C22.2013718,17.9485642 21.9507232,17.3984395 21.4494186,17.0078125 C20.948114,16.6171855 20.3328858,16.421875 19.6037155,16.421875 C18.5880854,16.421875 17.6375741,16.643227 16.752153,17.0859375 C16.6870485,17.1184897 16.6089243,17.1347656 16.517778,17.1347656 C16.3224645,17.1347656 16.1499402,17.0419931 16.0001999,16.8564453 C15.8504596,16.6708975 15.7755905,16.467449 15.7755905,16.2460938 C15.7755905,15.9921862 15.8830113,15.803386 16.0978561,15.6796875 C16.4038473,15.4908845 16.9035167,15.3037119 17.5968796,15.1181641 C18.2902424,14.9326163 18.9689466,14.8398438 19.6330124,14.8398438 C20.4858812,14.8398438 21.2475924,14.973306 21.9181686,15.2402344 C22.5887449,15.5071628 23.1323593,15.9319632 23.549028,16.5146484 C23.9656968,17.0973336 24.174028,17.798824 24.174028,18.6191406 C24.174028,19.4003945 23.9575588,20.0530573 23.524614,20.5771484 C23.0916691,21.1012396 22.5203857,21.4804676 21.8107468,21.7148438 C22.6440843,21.9231781 23.3016298,22.346351 23.783403,22.984375 C24.2651763,23.622399 24.5060593,24.3971309 24.5060593,25.3085938 C24.5060593,25.9661491 24.3742246,26.5520808 24.1105515,27.0664062 C23.8468783,27.5807317 23.4888089,27.9908839 23.0363327,28.296875 C22.5838565,28.6028661 22.0793042,28.832356 21.5226608,28.9853516 C20.9660174,29.1383471 20.3686927,29.2148438 19.7306686,29.2148438 Z" id="3"></path>
        </g>
    </g>
</svg>