<?xml version="1.0" encoding="UTF-8"?>
<svg width="50px" height="44px" viewBox="0 0 50 44" version="1.1" xmlns="http://www.w3.org/2000/svg" xmlns:xlink="http://www.w3.org/1999/xlink">
    <!-- Generator: Sketch 55.1 (78136) - https://sketchapp.com -->
    <title>Rating-4</title>
    <desc>Created with Sketch.</desc>
    <g id="Page-1" stroke="none" stroke-width="1" fill="none" fill-rule="evenodd">
        <g id="iPhone-XS" transform="translate(-132.000000, -720.000000)" fill="#4D0DB9">
            <g id="Rating-4" transform="translate(132.000000, 720.000000)">
                <path d="M25.0000361,42.5 L47.1379814,20.4802472 C49.5321131,15.7203361 47.8535149,13.5405393 42.1021866,13.9408568 C33.4751942,14.5413329 33.4751942,20.4802472 25.0000361,20.4802472 C16.5248779,20.4802472 16.5248779,14.5413329 8.0730283,13.9408568 C2.43846192,13.5405393 0.701482729,15.7203361 2.86209074,20.4802472 L25.0000361,42.5 Z" id="Fill"></path>
                <path d="M45.9613186,4.08488064 C43.3431412,1.46419098 39.8769711,0.0318302387 36.1776031,0.0318302387 C32.478235,0.0318302387 29.001465,1.47480106 26.3832876,4.09549072 L25.0158994,5.46419098 L23.6273114,4.07427056 C21.009134,1.4535809 17.5217642,0 13.8223961,0 C10.1336279,0 6.65685797,1.44297082 4.04928049,4.0530504 C1.4311031,6.67374005 -0.010484456,10.1538462 5.74104168e-05,13.8567639 C5.74104168e-05,17.5596817 1.45230291,21.0291777 4.0704803,23.6498674 L23.9771084,43.5755968 C24.252706,43.8514589 24.6237028,44 24.9840997,44 C25.3444966,44 25.7154934,43.862069 25.991091,43.5862069 L45.9401188,23.6923077 C48.5582962,21.071618 49.9999422,17.5915119 49.9999422,13.8885942 C50.0104836,10.1856764 48.579496,6.70557029 45.9613186,4.08488064 Z M43.9261362,21.6657825 L24.9840997,40.5517241 L6.08446291,21.6339523 C4.00688085,19.5543767 2.86209074,16.795756 2.86209074,13.8567639 C2.86209074,10.9177719 3.99628095,8.15915119 6.07386301,6.09018568 C8.14084516,4.02122016 10.8968214,2.87533156 13.8223961,2.87533156 C16.7585707,2.87533156 19.5251469,4.02122016 21.6027289,6.10079576 L23.9983082,8.49867374 C24.5601034,9.06100796 25.4610956,9.06100796 26.0228907,8.49867374 L28.3972702,6.12201592 C30.4748523,4.04244032 33.2414284,2.89655172 36.1670032,2.89655172 C39.0925779,2.89655172 41.8485541,4.04244032 43.9261362,6.11140584 C46.0037182,8.19098143 47.1379814,10.9496021 47.1379814,13.8885942 C47.1485083,16.8275862 46.0037182,19.5862069 43.9261362,21.6657825 Z" id="Bounds" fill-rule="nonzero"></path>
            </g>
        </g>
    </g>
</svg>