<?xml version="1.0" encoding="UTF-8"?>
<svg width="260px" height="220px" viewBox="0 0 260 220" version="1.1" xmlns="http://www.w3.org/2000/svg" xmlns:xlink="http://www.w3.org/1999/xlink">
    <!-- Generator: Sketch 55.1 (78136) - https://sketchapp.com -->
    <title>Road-Mobile</title>
    <desc>Created with Sketch.</desc>
    <g id="Page-1" stroke="none" stroke-width="1" fill="none" fill-rule="evenodd">
        <g id="iPhone-XS" transform="translate(-51.000000, -414.000000)">
            <g id="Road-Mobile" transform="translate(53.000000, 414.000000)">
                <g id="Path">
                    <path d="M28.4928118,25 C67.7644738,53.5813953 67.7644738,81.9767442 28.4928118,110.186047 C-30.4146812,152.5 18.7137489,188.842383 28.4928118,195.921191" id="Path-6" stroke="#4D0DB9" stroke-width="2"></path>
                    <g id="Balls" transform="translate(2.571875, 0.000000)">
                        <g id="racing-flag" transform="translate(15.000000, 145.000000)" fill="#322673" fill-rule="nonzero">
                            <path d="M2.31556718,4.59755141 C2.20434504,4.17360686 1.75809358,3.91712327 1.31901202,4.02439669 C0.879752684,4.13189895 0.614052044,4.562709 0.725333445,4.98676797 L6.084321,25.4023583 C6.17847763,25.7611379 6.51238109,26 6.87887495,26 C6.94565564,26 7.01344367,25.9920475 7.08111319,25.9755131 C7.5201355,25.8681252 7.78595465,25.4372007 7.67467325,25.0132562 L2.31556718,4.59755141 Z" id="Path"></path>
                            <path d="M20.6800431,10.3466952 C19.8136213,7.15488138 18.9463765,3.96330215 18.0797784,0.771488336 C17.9858411,0.425991483 17.8211863,0.0553931788 17.2021876,0.0183274836 C12.3296748,-0.333737973 9.13028059,4.50738199 4.25770893,4.15525788 C3.87320084,4.10798739 3.62607165,4.30774334 3.71995018,4.65324019 C4.58660708,7.84499536 5.44656257,11.0386859 6.32015602,14.2285057 C6.46035657,14.7404463 6.81323871,14.9343374 7.19786437,14.9816665 C12.0703185,15.3337907 15.2698302,10.4926707 20.1424606,10.8447948 C20.52691,10.891948 20.7739216,10.6922507 20.6800431,10.3466952 Z M16.8563596,1.22325582 C17.0953766,2.10385932 17.3347462,2.98440418 17.5737632,3.86500768 C16.5488002,3.89867178 15.6441686,4.10499633 14.6855731,4.4633958 C14.4466149,3.58279229 14.2072452,2.70218879 13.9682871,1.82164394 C14.926765,1.46336176 15.8313966,1.25686127 16.8563596,1.22325582 Z M6.81576643,11.0961026 C6.54377149,10.095622 6.27224681,9.09490691 6.00054579,8.09436773 C7.0779444,8.0632255 8.03395343,7.83027465 9.03393312,7.4359238 C8.79468103,6.5553203 8.55554651,5.67471679 8.31652955,4.79411329 C9.29405364,4.35818083 10.2160853,3.83627004 11.1394691,3.29723396 C11.3784861,4.17777881 11.6178557,5.05838231 11.8569315,5.93898582 C10.9334889,6.47796325 10.0113984,7.00004999 9.03393312,7.4359238 C9.30569293,8.43646298 9.57733517,9.43711946 9.84903619,10.4376586 C8.84899772,10.8319508 7.89310626,11.0649017 6.81576643,11.0961026 Z M10.5770209,13.1181183 C10.3343006,12.2246709 10.0916978,11.3311061 9.84903619,10.4375413 C10.8197413,10.0048932 11.735248,9.48738101 12.6520479,8.95215706 C12.8947094,9.84572183 13.137371,10.7392279 13.3799738,11.6327927 C12.4632915,12.1680753 11.5476673,12.6854702 10.5770209,13.1181183 Z M12.6718582,8.940662 C12.4003335,7.94006418 12.1285737,6.93946635 11.8569315,5.93886852 C12.7801976,5.40106405 13.7029348,4.88642564 14.6855731,4.46345445 C14.9573917,5.46399362 15.2290927,6.46459145 15.5007349,7.46513063 C14.518273,7.88821912 13.5952419,8.40279888 12.6718582,8.940662 Z M16.2456496,10.1389044 C16.0029292,9.24545697 15.7603264,8.3518922 15.517606,7.45832743 C16.4705583,7.10379875 17.3705459,6.89993743 18.3888075,6.86680116 C18.6315278,7.76036593 18.8741894,8.65387205 19.1169098,9.54731952 C18.0985894,9.58051443 17.1984842,9.78431711 16.2456496,10.1389044 Z" id="Shape"></path>
                        </g>
                        <g id="Prototyping" transform="translate(0.000000, 170.000000)">
                            <circle id="Oval-Copy" fill="#4D0DB9" cx="25" cy="25" r="25"></circle>
                            <g id="settings" transform="translate(13.000000, 13.000000)" fill="#FFFFFF" fill-rule="nonzero">
                                <path d="M23.5403608,10.0620521 L21.8320182,9.77224224 C21.6540658,9.19770694 21.4252699,8.64350917 21.1456305,8.11473332 L22.1523324,6.70635917 C22.5794181,6.10640196 22.5133215,5.28781627 21.9896331,4.76920918 L20.4744959,3.25406299 C20.1897721,2.96933753 19.81353,2.81172165 19.4118661,2.81172165 C19.0966362,2.81172165 18.7966594,2.90832494 18.5424417,3.09136273 L17.1289916,4.0980706 C16.5798815,3.80826076 16.0053496,3.56929475 15.4104803,3.39134134 L15.1257565,1.70332612 C15.003732,0.976259325 14.3783566,0.447483474 13.6411254,0.447483474 L11.5006127,0.447483474 C10.7633815,0.447483474 10.1380061,0.976259325 10.0159816,1.70332612 L9.72108917,3.4320164 C9.15164163,3.60996981 8.59744714,3.84385144 8.06867443,4.1285769 L6.67047733,3.12186903 C6.41625968,2.93883123 6.1111985,2.84222795 5.79596861,2.84222795 C5.39430471,2.84222795 5.01297823,2.99984383 4.73333881,3.28456929 L3.21311725,4.79971548 C2.69451324,5.31832257 2.62333229,6.13690826 3.05041795,6.73686547 L4.06728856,8.16557715 C3.78764914,8.69943738 3.56393761,9.25363515 3.39106961,9.82817045 L1.70306439,10.1128959 C0.976001899,10.2349211 0.44722918,10.8603002 0.44722918,11.5975358 L0.44722918,13.7380611 C0.44722918,14.4752967 0.976001899,15.1006758 1.70306439,15.222701 L3.43174443,15.5175952 C3.60969679,16.0870462 3.84357703,16.6412439 4.1283008,17.1700198 L3.12668325,18.5631408 C2.69959759,19.163098 2.76569418,19.9816837 3.28938254,20.5002908 L4.80451976,22.0154369 C5.08924353,22.3001624 5.46548566,22.4577783 5.86714955,22.4577783 C6.18237944,22.4577783 6.48235627,22.361175 6.73657392,22.1781372 L8.16527713,21.1612606 C8.67879679,21.4307329 9.21773822,21.6493614 9.7719327,21.8222304 L10.0566565,23.5305831 C10.1786809,24.2576499 10.8040564,24.7864258 11.5412876,24.7864258 L13.6868846,24.7864258 C14.4241158,24.7864258 15.0494912,24.2576499 15.1715157,23.5305831 L15.4613238,21.8222304 C16.0358557,21.644277 16.5900502,21.4154797 17.1188229,21.1358387 L18.5271887,22.1425465 C18.7814063,22.3255843 19.0864675,22.4221876 19.4016974,22.4221876 L19.4016974,22.4221876 C19.8033613,22.4221876 20.1796034,22.2645717 20.4643272,21.9798463 L21.9794644,20.4647001 C22.4980684,19.946093 22.5692494,19.1275073 22.1421637,18.5275501 L21.1354618,17.1140916 C21.4151012,16.5802313 21.6489815,16.0260336 21.8218495,15.4565826 L23.5301921,15.1718572 C24.2572546,15.049832 24.7861715,14.4244528 24.7861715,13.6872173 L24.7861715,11.546692 C24.796196,10.8094564 24.2674233,10.1840773 23.5403608,10.0620521 Z M23.5640702,13.6993217 C23.5640702,13.7663254 23.5176831,13.8230208 23.4506794,13.8333291 L21.2859452,14.1941181 C21.0127764,14.2405052 20.796303,14.4415163 20.7292993,14.7043769 C20.5334424,15.4620338 20.2345029,16.188766 19.8324809,16.8639569 C19.6933194,17.1010468 19.7036277,17.3948322 19.8634057,17.6216138 L21.1364755,19.4152507 C21.1725544,19.466792 21.1674003,19.5441039 21.1210131,19.5904911 L19.5850827,21.1264215 C19.5490038,21.1625004 19.5129249,21.1676546 19.4871542,21.1676546 C19.4562295,21.1676546 19.4304588,21.1573463 19.4098423,21.1418839 L17.6213596,19.8688141 C17.399732,19.7090361 17.1007925,19.6987278 16.8637026,19.8378893 C16.1885117,20.2399114 15.4617795,20.5388508 14.7041226,20.7347077 C14.4361079,20.8017114 14.2350968,21.023339 14.1938638,21.2913537 L13.8279206,23.4560878 C13.8176124,23.5230915 13.760917,23.5694787 13.6939133,23.5694787 L11.524025,23.5694787 C11.4570213,23.5694787 11.4003259,23.5230915 11.3900176,23.4560878 L11.0292286,21.2913537 C10.9828415,21.0181848 10.7818304,20.8017114 10.5189698,20.7347077 C9.78192941,20.544005 9.07065961,20.2502196 8.40577697,19.8688141 C8.29754027,19.8069645 8.17384117,19.7760398 8.05529621,19.7760398 C7.91613472,19.7760398 7.77181911,19.8172728 7.65327415,19.904893 L5.84932901,21.1882711 C5.82355837,21.2037335 5.79778772,21.2140417 5.77201708,21.2140417 C5.75140056,21.2140417 5.71016753,21.2088876 5.67408863,21.1728087 L4.1381582,19.6368783 C4.09177104,19.5904911 4.08661691,19.5183333 4.12269581,19.4616379 L5.39061153,17.6834634 C5.55038953,17.4566817 5.56069779,17.1577422 5.42153631,16.9206523 C5.01951425,16.2506155 4.71026651,15.5238834 4.51440961,14.7662264 C4.4422518,14.5033658 4.22577839,14.3023548 3.95776368,14.2559676 L1.77756713,13.8848704 C1.71056346,13.8745621 1.6641763,13.8178667 1.6641763,13.750863 L1.6641763,11.5809747 C1.6641763,11.513971 1.71056346,11.4572756 1.77756713,11.4469674 L3.92683891,11.0861783 C4.20000774,11.0397912 4.42163529,10.8387801 4.48863897,10.5707654 C4.67934174,9.81310847 4.97312709,9.08122216 5.36999502,8.40603127 C5.5091565,8.16894134 5.49369411,7.87515598 5.33391611,7.65352844 L4.050538,5.8495833 C4.0144591,5.79804201 4.01961323,5.72073008 4.06600039,5.67434292 L5.60193082,4.13841249 C5.63800972,4.10233359 5.67408863,4.09717946 5.69985927,4.09717946 C5.73078404,4.09717946 5.75655469,4.10748772 5.77717121,4.1229501 L7.5553457,5.39086583 C7.78212737,5.55064382 8.08106685,5.56095208 8.31815678,5.4217906 C8.98819355,5.01976854 9.71492573,4.7105208 10.4725827,4.5146639 C10.7354433,4.4425061 10.9364543,4.22603268 10.9828415,3.95801798 L11.3539387,1.77782143 C11.364247,1.71081775 11.4209424,1.66443059 11.4879461,1.66443059 L13.6578344,1.66443059 C13.7248381,1.66443059 13.7815335,1.71081775 13.7918417,1.77782143 L14.1526308,3.9270932 C14.1990179,4.20026204 14.400029,4.42188958 14.6680437,4.48889326 C15.4463171,4.68475016 16.1885117,4.98884377 16.879165,5.39601996 C17.1162549,5.53518144 17.4100403,5.52487318 17.6368219,5.36509518 L19.4149964,4.0868712 C19.4407671,4.07140881 19.4665377,4.06110056 19.4923084,4.06110056 C19.5129249,4.06110056 19.5541579,4.06625468 19.5902368,4.10233359 L21.1261672,5.63826402 C21.1725544,5.68465118 21.1777085,5.75680898 21.1416296,5.8135044 L19.8685598,7.60198715 C19.7087818,7.8236147 19.6984735,8.12255417 19.837635,8.35964411 C20.2396571,9.034835 20.5385965,9.76156718 20.7344534,10.5192241 C20.8014571,10.7872388 21.0230847,10.9882499 21.2910994,11.0294829 L23.4558335,11.3954261 C23.5228372,11.4057343 23.5692244,11.4624297 23.5692244,11.5294334 L23.5692244,13.6993217 L23.5640702,13.6993217 L23.5640702,13.6993217 Z" id="Shape"></path>
                                <path d="M12.6167003,7.14069261 C9.59494878,7.14069261 7.14043832,9.59520308 7.14043832,12.6169546 C7.14043832,15.6387062 9.59494878,18.0932166 12.6167003,18.0932166 C15.6384519,18.0932166 18.0929624,15.6387062 18.0929624,12.6169546 C18.0929624,9.59520308 15.6384519,7.14069261 12.6167003,7.14069261 Z M12.9209371,16.8762695 C10.7386463,16.8762695 8.96585899,15.1034822 8.96585899,12.9211914 C8.96585899,10.7389006 10.7386463,8.96611328 12.9209371,8.96611328 C15.1032279,8.96611328 16.8760152,10.7389006 16.8760152,12.9211914 C16.8760152,15.1034822 15.1032279,16.8762695 12.9209371,16.8762695 Z" id="Shape"></path>
                            </g>
                        </g>
                        <g id="Concepting">
                            <circle id="Oval" fill="#4D0DB9" cx="25" cy="25" r="25"></circle>
                            <g id="edit" transform="translate(13.000000, 13.000000)" fill="#FFFFFF" fill-rule="nonzero">
                                <path d="M23.8092114,1.19047619 C22.2209653,-0.396825397 19.6376898,-0.396825397 18.0494438,1.19047619 L1.73168596,17.5078279 C1.7239936,17.5155201 1.71946868,17.5250222 1.71268131,17.5331668 C1.70317898,17.5440264 1.69503413,17.5557908 1.68643679,17.5675553 C1.66245472,17.6010389 1.64390256,17.6367849 1.62987532,17.6756982 C1.62580289,17.6874627 1.6199205,17.6978697 1.61675305,17.7096342 C1.61539558,17.714159 1.61268063,17.7186838 1.61132315,17.7232086 L0.0117647857,24.442544 C0.00452491759,24.4728602 0.00271495055,24.5036289 0.00180996704,24.5339451 C0.00180996704,24.5398273 0,24.5452571 0,24.5511393 C0.000452491759,24.6027221 0.0117647857,24.6529475 0.0294119643,24.7013629 C0.0334843902,24.7126749 0.0380093077,24.7226295 0.0429867171,24.733489 C0.0651588133,24.7819044 0.0927608106,24.8285099 0.131675102,24.8674232 C0.174661819,24.9104089 0.225340896,24.9434399 0.280092399,24.966064 C0.334843902,24.988688 0.393215338,25 0.451586775,25 C0.486428641,25 0.521722998,24.9959277 0.556112372,24.987783 L7.27561499,23.3882645 C7.28783227,23.3855496 7.29869207,23.3787624 7.31045686,23.3746901 C7.32584158,23.3697128 7.34032131,23.3638305 7.35525354,23.3570433 C7.38783295,23.3421115 7.4181499,23.3235598 7.44620438,23.3013882 C7.45706419,23.2927911 7.46837648,23.2864564 7.47878379,23.2769543 C7.48240372,23.2733344 7.48692864,23.2715245 7.49054858,23.2679047 L23.8087589,6.95010045 C25.397005,5.3618939 25.397005,2.77823026 23.8092114,1.19047619 Z M23.169388,1.83028361 C24.2951875,2.95650757 24.3911158,4.72480136 23.4635077,5.96459793 L19.0349708,1.53617129 C20.2752507,0.60858627 22.0435885,0.704512136 23.169388,1.83028361 Z M20.9295538,8.54961901 L16.4498854,4.07006208 L17.0897087,3.43025466 L21.5693772,7.90981159 L20.9295538,8.54961901 Z M2.24481162,22.7543393 C2.06788734,22.5774194 1.78191255,22.5774194 1.60498827,22.7543393 L1.26245201,23.096867 L2.41811596,18.2426562 L4.41903452,18.0204883 L4.16156671,20.3380934 C4.15975674,20.3552877 4.16609162,20.3711245 4.16609162,20.3878663 C4.16609162,20.4050605 4.15975674,20.4204449 4.16156671,20.4376391 C4.16337667,20.452571 4.17106903,20.464788 4.17423648,20.4792673 C4.17966638,20.5055112 4.18735874,20.5294927 4.19686106,20.5539266 C4.20862585,20.5833379 4.22265309,20.6100342 4.23984778,20.6358256 C4.25387503,20.6566397 4.26790227,20.6751914 4.28509696,20.6932906 C4.30681656,20.7163671 4.33034613,20.7358238 4.35613816,20.753923 C4.37650029,20.7679499 4.39595744,20.7810718 4.41858203,20.7919314 C4.44844648,20.8059583 4.47966841,20.8141029 4.51224782,20.8217951 C4.52944251,20.8258674 4.54346975,20.8353695 4.56111693,20.8376319 C4.57740663,20.8394418 4.59369634,20.8403468 4.61043853,20.8403468 C4.61043853,20.8403468 4.61089102,20.8403468 4.61089102,20.8403468 C4.61089102,20.8403468 4.61134351,20.8403468 4.61134351,20.8403468 L4.61179601,20.8403468 C4.61179601,20.8403468 4.6122485,20.8403468 4.6122485,20.8403468 C4.6285382,20.8403468 4.6452804,20.8394418 4.6615701,20.8376319 L6.97923289,20.5801705 L6.75705944,22.5810393 L1.90227535,23.7366744 L2.24481162,23.3941467 C2.4212834,23.2176793 2.4212834,22.9312592 2.24481162,22.7543393 Z M7.92358319,20.2751986 L18.0494438,10.1491376 C18.226368,9.9722177 18.226368,9.68625002 18.0494438,9.50933015 C17.8725195,9.33241027 17.5865447,9.33241027 17.4096204,9.50933015 L7.28375984,19.6353912 L5.12401668,19.8752059 L5.36383731,17.7155165 L15.4906029,7.58990787 C15.6675272,7.412988 15.6675272,7.12702033 15.4906029,6.95010045 C15.3136786,6.77318058 15.0277038,6.77318058 14.8507795,6.95010045 L4.72401396,17.075709 L3.28373269,17.2358871 L15.8100621,4.7098695 L20.2897305,9.18942644 L7.76340111,21.7154441 L7.92358319,20.2751986 Z M22.2092005,7.27000416 L17.7295321,2.79044723 L18.3698079,2.15018733 L22.8494763,6.62974426 L22.2092005,7.27000416 Z" id="Shape"></path>
                            </g>
                        </g>
                        <g id="Inspiration" transform="translate(0.000000, 85.000000)">
                            <circle id="Oval-Copy-2" fill="#4D0DB9" cx="25" cy="25" r="25"></circle>
                            <g id="creative" transform="translate(13.000000, 12.000000)" fill="#FFFFFF" fill-rule="nonzero">
                                <path d="M12.2130601,5.65116279 C8.23054099,5.65387266 5.00281161,8.76480168 5,12.6032072 C5.03559244,15.108727 6.30043397,17.4499302 8.40971728,18.9147373 L8.40971728,23.9353845 C8.41144259,23.9927845 8.42351974,24.0495069 8.44550142,24.1029037 L8.44550142,24.1423199 C8.45431966,24.162644 8.4646076,24.1824137 8.47617354,24.2014443 L10.2756046,26.78321 C10.3708159,26.9190113 10.5298636,27.0002458 10.6999022,27 L13.6750978,27 C13.8451364,27.0002458 14.0041841,26.9190113 14.0993954,26.78321 L15.8988265,24.2014443 C15.9103924,24.1824137 15.9206803,24.162644 15.9294986,24.1423199 L15.9294986,24.1029037 C15.9514803,24.0495069 15.9635574,23.9927845 15.9652827,23.9353845 L15.9652827,18.9147373 C18.0746299,17.4499302 19.3394076,15.108727 19.375,12.6032072 C19.3723162,8.78395553 16.1755784,5.68090976 12.2130601,5.65116279 Z M13.4297208,26.0293738 L10.9963994,26.0293738 L9.88197902,24.4330149 L14.5390292,24.4330149 L13.4297208,26.0293738 Z M9.43723329,23.4476082 L9.43723329,22.1419443 L14.9888869,22.1419443 L14.9939989,23.4476082 L9.43723329,23.4476082 Z M15.2240398,18.2397337 L15.2240398,18.2545148 C15.0796892,18.346096 14.9931682,18.5017903 14.9939989,18.6683856 L14.9939989,21.1713187 L9.43723329,21.1713187 L9.43723329,18.6388234 C9.43806399,18.4722281 9.35154305,18.3165338 9.20719239,18.2249526 C7.25005557,16.9644326 6.06119143,14.856894 6.027516,12.5884261 C6.12573069,9.29451938 8.97587349,6.70099048 12.3934505,6.79565111 C15.673003,6.88649329 18.3094633,9.42754929 18.4037162,12.5884261 C18.3750889,14.8621905 17.1855858,16.9762575 15.2240398,18.2397337 Z" id="Shape"></path>
                                <path d="M12.9748338,7.53488372 C12.7126068,7.53488372 12.5,7.77517889 12.5,8.07155635 C12.5,8.36793381 12.7126068,8.60822898 12.9748338,8.60822898 C14.9484212,8.61118068 16.5477208,10.4187612 16.5503324,12.6493739 C16.5503324,12.9457513 16.7629392,13.1860465 17.0251662,13.1860465 C17.2873932,13.1860465 17.5,12.9457513 17.5,12.6493739 C17.4973884,9.82593918 15.4729345,7.53783542 12.9748338,7.53488372 Z" id="Path"></path>
                                <path d="M3.89945652,11.9302326 L0.475543478,11.9302326 C0.212924592,11.9302326 0,12.2113779 0,12.5581395 C0,12.9049012 0.212924592,13.1860465 0.475543478,13.1860465 L3.89945652,13.1860465 C4.16207541,13.1860465 4.375,12.9049012 4.375,12.5581395 C4.375,12.5581395 4.375,12.5581395 4.375,12.5581395 C4.375,12.2113779 4.16207541,11.9302326 3.89945652,11.9302326 Z" id="Path"></path>
                                <path d="M24.5244565,11.9302326 L21.1005435,11.9302326 C20.8379246,11.9302326 20.625,12.2113779 20.625,12.5581395 C20.625,12.9049012 20.8379246,13.1860465 21.1005435,13.1860465 L24.5244565,13.1860465 C24.7870754,13.1860465 25,12.9049012 25,12.5581395 C25,12.2113779 24.7870754,11.9302326 24.5244565,11.9302326 Z" id="Path"></path>
                                <path d="M6.75008853,17.7638363 C6.56347649,17.5449139 6.23557432,17.5194078 6.01766548,17.7068878 C5.99734204,17.7243703 5.97838215,17.7434183 5.96098061,17.7638363 L5.96098061,17.753399 L3.30659633,20.4305666 C3.08868749,20.6180466 3.06329942,20.9474739 3.24991147,21.1663962 C3.43652351,21.3853186 3.76442568,21.4108248 3.98233452,21.2233448 C4.00265796,21.2058623 4.02161785,21.1868142 4.03901939,21.1663962 L6.69340367,18.499666 C6.91131251,18.312186 6.93670058,17.9827587 6.75008853,17.7638363 Z" id="Path"></path>
                                <path d="M21.0951762,3.87436933 C20.9293778,3.73179937 20.6848597,3.73179937 20.5190612,3.87436933 L18.2560095,6.14659547 C18.0823502,6.31951366 18.0811877,6.60109628 18.2534077,6.77545963 C18.3371649,6.86027903 18.4514247,6.90769118 18.5704453,6.90697674 L18.5660166,6.90252198 C18.6837086,6.90318897 18.7968612,6.85677731 18.8804524,6.77356981 L21.1435041,4.50134367 C21.3026041,4.31480769 21.280959,4.03411439 21.0951762,3.87436933 Z" id="Path"></path>
                                <path d="M21.7738719,20.5231268 C21.7448326,20.4837058 21.7103726,20.4486218 21.6714599,20.4189752 L19.0333987,17.7624309 C18.8479342,17.545195 18.5220484,17.5198853 18.3054796,17.7059211 C18.0889108,17.8919569 18.0636788,18.2188465 18.2491433,18.4360824 C18.2664379,18.4563431 18.2852812,18.4752444 18.3054796,18.4925922 L20.9435408,21.1387796 C21.1130014,21.3687675 21.4363059,21.4173802 21.6655875,21.2473976 C21.8948691,21.077415 21.9433325,20.7531146 21.7738719,20.5231268 Z" id="Path"></path>
                                <path d="M6.76766226,6.16683231 L4.48671774,3.87527903 C4.29946603,3.71417521 4.01769573,3.73609295 3.85733774,3.92421557 C3.71422075,4.09210212 3.71422075,4.33969974 3.85733774,4.50758629 L6.13828226,6.79913958 C6.32553397,6.9602434 6.60730427,6.93832565 6.76766226,6.75020303 C6.91077925,6.58231648 6.91077925,6.33471886 6.76766226,6.16683231 Z" id="Path"></path>
                                <path d="M12.1875722,0 C12.0150339,0 11.8751443,0.212528881 11.8751443,0.474659702 L11.8751443,3.90644934 C11.8699502,4.1684615 12.005583,4.38727962 12.1780431,4.39511151 C12.1812065,4.39523017 12.1843698,4.39534884 12.1875722,4.39534884 C12.3601104,4.39534884 12.5,4.18281996 12.5,3.92068914 L12.5,0.474659702 C12.5,0.212528881 12.3601104,0 12.1875722,0 Z" id="Path"></path>
                            </g>
                        </g>
                    </g>
                </g>
                <g id="Text" transform="translate(82.571875, 15.000000)" fill="#322673" font-family="Nunito-SemiBold, Nunito" font-size="16" font-weight="500" letter-spacing="-0.0160000134" line-spacing="20">
                    <text id="Design-&amp;-Prototype" transform="translate(88.000000, 180.000000) scale(-1, -1) rotate(-180.000000) translate(-88.000000, -180.000000) ">
                        <tspan x="0" y="190">DESIGN &amp; PROTOTYPE</tspan>
                    </text>
                    <text id="Get-Inspired">
                        <tspan x="0" y="105">GET INSPIRED</tspan>
                    </text>
                    <text id="Create-a-concept">
                        <tspan x="0" y="20">CREATE A CONCEPT</tspan>
                    </text>
                </g>
            </g>
        </g>
    </g>
</svg>