<svg xmlns="http://www.w3.org/2000/svg" viewBox="0 0 800 800"><defs><style>.cls-1,.cls-4{fill:#fc5f45;}.cls-2,.cls-3{fill:none;stroke:#fc5f45;stroke-linecap:round;stroke-linejoin:round;stroke-width:5px;}.cls-3{stroke-dasharray:21.04 21.04;}.cls-4{font-size:160px;font-family:Nunito-Light, Nunito;font-weight:300;letter-spacing:-0.04em;}</style></defs><title>Strada-Logo</title><g id="Layer_2" data-name="Layer 2"><g id="Layer_1-2" data-name="Layer 1"><path class="cls-1" d="M0,398.5C-1.19,308.32,26,227.07,80.9,156.8,161.36,53.74,267.65.49,399.84,0,492.69-.34,575.78,27.83,647.5,85.23c100.25,80.24,152.2,185.27,152.5,315,.22,96.76-31,182.43-92.92,255.4C625.54,751.69,520.57,801,393.61,800c-94.28-.73-178-31.86-249.75-92.63C48.59,626.73,1.38,523.11,0,398.5ZM399.51,778.38c209.8.08,378.1-170.39,379.3-377C780.05,189.55,609.07,21.89,400.19,21.16A376.48,376.48,0,0,0,21.42,398.48C21.35,608.83,190.54,779.27,399.51,778.38Z"/><path class="cls-1" d="M336.7,398.66a3.93,3.93,0,0,1-1.32-2.79c0-1.77,1.1-3.43,3.31-5a11.42,11.42,0,0,1,6.69-2.35A4.88,4.88,0,0,1,349.2,390q9.41,8.82,23.82,14.78a82.62,82.62,0,0,0,31.77,6q23.08,0,38.23-10.22t15.15-28.75a46.84,46.84,0,0,0-1.77-13.6,33.87,33.87,0,0,0-4.7-9.93,29.27,29.27,0,0,0-8.75-7.64,87.9,87.9,0,0,0-11.77-6q-6-2.51-15.81-5.74l-34.55-11.76a126.42,126.42,0,0,1-18.24-7.5,73.27,73.27,0,0,1-14.33-9.78,36.85,36.85,0,0,1-10.08-14,49.33,49.33,0,0,1-3.38-18.83q0-23.52,19.71-37.94t49-14.41a97.91,97.91,0,0,1,37.8,7.43q17.94,7.43,26.61,16.1a7.52,7.52,0,0,1,2.36,5.15,5.87,5.87,0,0,1-2.21,4.56,7.84,7.84,0,0,1-5.29,1.91,7.43,7.43,0,0,1-5.45-2.21q-6.46-5.73-20.73-12a77.52,77.52,0,0,0-31.47-6.25q-24.56,0-38.6,10.66t-14,26.54q0,14.27,9.48,22.43t30.51,14.92l35.15,11.62a166.4,166.4,0,0,1,15.59,5.88,80.46,80.46,0,0,1,13.09,7.43,46.24,46.24,0,0,1,10.51,9.78,43.82,43.82,0,0,1,6.54,12.79,52.23,52.23,0,0,1,2.5,16.62q0,28.08-19.78,42.79t-53.89,14.71Q362.74,425.43,336.7,398.66Z"/><path class="cls-2" d="M330.56,381.78s-2.19-2.56-5.45-7.16"/><path class="cls-3" d="M314.07,356.72a153.66,153.66,0,0,1-12-29.11"/><path class="cls-2" d="M299.48,317.4c-.6-2.9-1.1-5.87-1.48-8.88"/><path class="cls-2" d="M475.44,253.17s2.19,2.56,5.45,7.16"/><path class="cls-3" d="M491.93,278.23a153.66,153.66,0,0,1,12,29.11"/><path class="cls-2" d="M506.52,317.55c.6,2.9,1.1,5.87,1.48,8.88"/><text class="cls-4" transform="translate(191.06 600.45) scale(0.7 1)">STRADA</text></g></g></svg>