<svg xmlns="http://www.w3.org/2000/svg" viewBox="0 0 512 512"><defs><style>.cls-1{fill:#fc5f45;}.cls-2,.cls-3{fill:none;stroke:#fc5f45;stroke-linecap:round;stroke-linejoin:round;stroke-width:5px;}.cls-3{stroke-dasharray:16.33 16.33;}</style></defs><title>Strada-Icon</title><g id="Layer_2" data-name="Layer 2"><g id="Layer_1-2" data-name="Layer 1"><path class="cls-1" d="M0,255c-.79-57.72,16.64-109.72,51.74-154.69C103.27,34.4,171.3.31,255.9,0c59.42-.22,112.6,17.81,158.5,54.55,64.16,51.35,97.41,118.57,97.6,201.6.14,61.92-19.83,116.76-59.47,163.46-52.18,61.47-119.37,93-200.62,92.38C191.57,511.52,138,491.6,92.07,452.71,31.09,401.11.88,334.79,0,255ZM255.69,498.16c134.27.06,242-109,242.75-241.3C499.23,121.31,389.81,14,256.12,13.54A241,241,0,0,0,13.71,255C13.66,389.65,122,498.74,255.69,498.16Z"/><path class="cls-1" d="M174.55,355.74a4.8,4.8,0,0,1-1.63-3.43c0-2.17,1.36-4.21,4.07-6.14a14,14,0,0,1,8.22-2.89,6,6,0,0,1,4.69,1.8q11.57,10.85,29.27,18.16a101.17,101.17,0,0,0,39,7.32q28.35,0,47-12.56t18.61-35.32A57.91,57.91,0,0,0,321.61,306a41.65,41.65,0,0,0-5.78-12.19,35.9,35.9,0,0,0-10.75-9.4A109.82,109.82,0,0,0,290.62,277q-7.31-3.06-19.42-7l-42.45-14.45a157.83,157.83,0,0,1-22.41-9.22,90.09,90.09,0,0,1-17.61-12A45.36,45.36,0,0,1,176.35,217a60.41,60.41,0,0,1-4.15-23.12q0-28.91,24.21-46.61t60.16-17.71A120.27,120.27,0,0,1,303,138.68q22,9.12,32.7,19.78a9.25,9.25,0,0,1,2.89,6.32,7.16,7.16,0,0,1-2.71,5.6,9.57,9.57,0,0,1-6.5,2.35,9.09,9.09,0,0,1-6.69-2.71q-7.95-7.05-25.47-14.72a95.27,95.27,0,0,0-38.66-7.68q-30.18,0-47.43,13.1t-17.25,32.61q0,17.52,11.65,27.55T243,239.22l43.18,14.27q11,3.62,19.15,7.22a98.86,98.86,0,0,1,16.08,9.13,56.88,56.88,0,0,1,12.92,12,53.78,53.78,0,0,1,8,15.72A64.21,64.21,0,0,1,345.46,318q0,34.5-24.3,52.57t-66.22,18.06Q206.52,388.62,174.55,355.74Z"/><path class="cls-2" d="M167,335s-2.16-2.53-5.49-7.12"/><path class="cls-3" d="M152.49,314.27c-7.9-13-17.09-31.25-22.32-52.4"/><path class="cls-2" d="M128.41,253.89c-.55-2.92-1-5.88-1.41-8.89"/><path class="cls-2" d="M345,177s2.16,2.53,5.49,7.12"/><path class="cls-3" d="M359.51,197.73c7.9,13,17.09,31.25,22.32,52.4"/><path class="cls-2" d="M383.59,258.11c.55,2.92,1,5.88,1.41,8.89"/></g></g></svg>