<?xml version="1.0" encoding="UTF-8"?>
<svg width="86px" height="86px" viewBox="0 0 86 86" version="1.1" xmlns="http://www.w3.org/2000/svg" xmlns:xlink="http://www.w3.org/1999/xlink">
    <!-- Generator: Sketch 55 (78076) - https://sketchapp.com -->
    <title>Logo</title>
    <desc>Created with Sketch.</desc>
    <defs>
        <circle id="path-1" cx="35" cy="35" r="35"></circle>
        <filter x="-16.4%" y="-16.4%" width="135.7%" height="135.7%" filterUnits="objectBoundingBox" id="filter-3">
            <feMorphology radius="1.5" operator="dilate" in="SourceAlpha" result="shadowSpreadOuter1"></feMorphology>
            <feOffset dx="1" dy="1" in="shadowSpreadOuter1" result="shadowOffsetOuter1"></feOffset>
            <feGaussianBlur stdDeviation="2.5" in="shadowOffsetOuter1" result="shadowBlurOuter1"></feGaussianBlur>
            <feColorMatrix values="0 0 0 0 0.196078431   0 0 0 0 0.149019608   0 0 0 0 0.450980392  0 0 0 0.25 0" type="matrix" in="shadowBlurOuter1"></feColorMatrix>
        </filter>
    </defs>
    <g id="Page-1" stroke="none" stroke-width="1" fill="none" fill-rule="evenodd">
        <g id="Strada" transform="translate(-163.000000, -4739.000000)">
            <g id="View-5" transform="translate(150.000000, 3878.000000)">
                <g id="Table" transform="translate(0.000000, 258.000000)">
                    <g id="List-Items" transform="translate(20.000000, 80.000000)">
                        <g id="UI-Movement" transform="translate(0.000000, 530.000000)">
                            <g id="Logo">
                                <mask id="mask-2" fill="white">
                                    <use xlink:href="#path-1"></use>
                                </mask>
                                <g id="Oval">
                                    <use fill="black" fill-opacity="1" filter="url(#filter-3)" xlink:href="#path-1"></use>
                                    <use fill="#FFFFFF" fill-rule="evenodd" xlink:href="#path-1"></use>
                                </g>
                                <g id="UI-Movement" mask="url(#mask-2)" fill="#3C6DA6" fill-rule="nonzero">
                                    <g transform="translate(-2.000000, -1.000000)" id="Shape">
                                        <path d="M32.5945294,0 L40.1453856,0 C41.0347087,0.486498908 42.0498793,0.385843962 43.0063211,0.561990118 C58.2496201,3.36901879 70.0781409,15.4601545 72.5469486,30.7584741 C72.6644064,31.4546708 72.5469486,32.2263587 73,32.8470642 L73,40.3961852 C72.4882197,40.9078479 72.6476267,41.6124325 72.5469486,42.2163622 C70.0688858,57.8114342 57.8464484,70.0479829 42.2512355,72.5470527 C41.5548787,72.6644835 40.7830134,72.5470527 40.1621653,73 L32.611309,73 C32.0407999,72.521889 31.3108838,72.6309319 30.6648661,72.5302769 C15.6861191,70.076919 3.77679234,58.6341789 0.729916102,43.7681259 C0.503390415,42.6525336 0.578898977,41.4530622 0,40.412961 L0,32.3270137 C0.545339616,31.6475928 0.419492012,30.7920257 0.562119297,30.0119499 C3.26672047,15.3169916 14.616566,3.7308651 29.2553729,0.72136045 C30.3712217,0.503274733 31.562579,0.595541767 32.5945294,0 Z M40.7914033,41.7885787 C40.7914033,38.8947489 40.7914033,36.4622544 40.7914033,34.0297599 C40.7914033,33.3671148 40.5900471,33.0987016 39.8936904,33.1322532 C38.7610619,33.1825807 37.6284335,33.1322532 36.5377543,33.1322532 C35.2792782,33.1322532 35.2708884,33.1322532 35.2708884,34.4239917 C35.2708884,38.3746984 35.2708884,42.3337929 35.2708884,46.2844996 C35.2891886,46.8924749 35.2611413,47.5009607 35.18699,48.1046765 C35.0054412,50.1555041 33.2515388,51.7063932 31.193426,51.6359876 C28.8358809,51.694703 27.3508792,50.5623348 26.8642685,48.3563139 C26.7161071,47.5910837 26.6514066,46.8120435 26.6713021,46.0328622 C26.6713021,42.1240951 26.6713021,38.2069401 26.6713021,34.2897851 C26.6713021,33.1406412 26.6713021,33.1322532 25.5470636,33.1238653 C24.6409608,33.1238653 23.7264682,33.1238653 22.8119756,33.1238653 C21.0249397,33.1238653 21.1843466,32.9057796 21.1759568,34.6924049 C21.1759568,38.5172929 21.1759568,42.3337929 21.1759568,46.1586809 C21.16136,47.1581834 21.2315264,48.1571245 21.3857028,49.1447777 C21.7312388,51.9138912 23.4597275,54.3180549 25.9749454,55.5279789 C28.028058,56.5083337 30.3281755,56.850204 32.5777497,56.5093646 C37.0075853,55.989314 40.4725894,53.0116052 40.7494541,48.2053315 C40.8501322,45.9238194 40.7410642,43.6171435 40.7914033,41.7885787 L40.7914033,41.7885787 Z M36.2524997,21.6575893 L48.6610734,21.6575893 C48.996667,21.6575893 49.4077692,21.7582443 49.5671762,21.3388487 C49.7265832,20.9194531 49.4413286,20.6929794 49.2064131,20.4329542 L48.9127686,20.1309893 L37.8549592,8.38791221 C37.6516408,8.15811517 37.4330058,7.94233277 37.2005517,7.74204297 C36.7324531,7.29037818 35.9906822,7.29037818 35.5225836,7.74204297 C35.2605808,7.96887797 35.0165456,8.21566148 34.7926675,8.48017925 C31.1738497,12.3330269 27.5522354,16.1858746 23.9278244,20.0387223 C23.7061642,20.248786 23.5013795,20.4759607 23.315366,20.7181432 C23.004942,21.2046421 23.1643489,21.5569344 23.7432479,21.6240377 C24.0897108,21.6450076 24.4371252,21.6450076 24.7835881,21.6240377 L36.2524997,21.6575893 Z M45.3806459,44.6404688 C45.3806459,48.1130645 45.3806459,51.5856601 45.3806459,55.0498679 C45.3806459,55.8886591 45.5987817,56.1235206 46.4042064,56.0731932 C47.4864958,56.0060899 48.5687852,56.0731932 49.6594644,56.0731932 C50.9347201,56.0731932 50.94311,56.0731932 50.94311,54.8233942 C50.94311,50.2268183 50.94311,45.6274465 50.94311,41.0252786 C50.94311,38.7186028 50.94311,36.4203148 50.94311,34.1220269 C50.94311,33.3922785 50.7249741,33.1154774 49.9782784,33.1490291 C48.8037007,33.1993565 47.6291231,33.1490291 46.4629353,33.1490291 C45.2967475,33.1490291 45.3890357,33.1490291 45.3890357,34.2226818 C45.3834425,37.6896855 45.3806459,41.1622812 45.3806459,44.6404688 Z"></path>
                                    </g>
                                </g>
                            </g>
                        </g>
                    </g>
                </g>
            </g>
        </g>
    </g>
</svg>