<?xml version="1.0" encoding="UTF-8"?>
<svg width="74px" height="74px" viewBox="0 0 74 74" version="1.1" xmlns="http://www.w3.org/2000/svg" xmlns:xlink="http://www.w3.org/1999/xlink">
    <!-- Generator: Sketch 55.1 (78136) - https://sketchapp.com -->
    <title>3</title>
    <desc>Created with Sketch.</desc>
    <g id="Page-1" stroke="none" stroke-width="1" fill="none" fill-rule="evenodd">
        <g id="Strada" transform="translate(-768.000000, -2095.000000)">
            <g id="View-3" transform="translate(150.000000, 1478.000000)">
                <g id="Paper" transform="translate(0.000000, 258.000000)">
                    <g transform="translate(0.000000, 106.000000)" id="Steps">
                        <g transform="translate(620.000000, 0.000000)">
                            <g id="Balls" transform="translate(0.000000, 5.000000)">
                                <g id="3" transform="translate(0.000000, 250.000000)">
                                    <circle id="Oval" stroke="#4D0DB9" stroke-width="4" fill="#F5F6FA" cx="35" cy="35" r="35"></circle>
                                    <path d="M41.4822852,30.5058594 C41.4822852,31.863288 41.0867813,32.9936478 40.2957617,33.8969727 C39.5047422,34.8002975 38.391472,35.4082016 36.955918,35.7207031 L36.955918,35.8378906 C38.6746766,36.0527354 39.9637262,36.5873981 40.8231055,37.4418945 C41.6824848,38.296391 42.112168,39.4316335 42.112168,40.8476562 C42.112168,42.9082134 41.3846362,44.497553 39.9295508,45.6157227 C38.4744654,46.7338923 36.4041736,47.2929688 33.7186133,47.2929688 C31.3455546,47.2929688 29.3436214,46.9072304 27.7127539,46.1357422 L27.7127539,43.0742188 C28.6209616,43.5234397 29.582866,43.870116 30.5984961,44.1142578 C31.6141262,44.3583997 32.5906789,44.4804688 33.5281836,44.4804688 C35.1883482,44.4804688 36.4285701,44.1728546 37.2488867,43.5576172 C38.0692033,42.9423797 38.4793555,41.9902408 38.4793555,40.7011719 C38.4793555,39.558588 38.0252585,38.7187527 37.1170508,38.1816406 C36.2088431,37.6445286 34.7830761,37.3759766 32.839707,37.3759766 L30.9793555,37.3759766 L30.9793555,34.578125 L32.8690039,34.578125 C36.2869898,34.578125 37.995957,33.3964962 37.995957,31.0332031 C37.995957,30.1152298 37.6981085,29.4072291 37.1024024,28.9091797 C36.5066963,28.4111303 35.6277988,28.1621094 34.4656836,28.1621094 C33.6551327,28.1621094 32.8738905,28.2768543 32.1219336,28.5063477 C31.3699767,28.735841 30.4813137,29.1826139 29.455918,29.8466797 L27.7713477,27.4443359 C29.7342481,25.9990162 32.0144987,25.2763672 34.612168,25.2763672 C36.7703819,25.2763672 38.4549354,25.7402297 39.6658789,26.6679688 C40.8768225,27.5957078 41.4822852,28.8749918 41.4822852,30.5058594 Z" fill="#322673" fill-rule="nonzero"></path>
                                </g>
                            </g>
                        </g>
                    </g>
                </g>
            </g>
        </g>
    </g>
</svg>