<?xml version="1.0" encoding="UTF-8"?>
<svg width="74px" height="74px" viewBox="0 0 74 74" version="1.1" xmlns="http://www.w3.org/2000/svg" xmlns:xlink="http://www.w3.org/1999/xlink">
    <!-- Generator: Sketch 55.1 (78136) - https://sketchapp.com -->
    <title>2</title>
    <desc>Created with Sketch.</desc>
    <g id="Page-1" stroke="none" stroke-width="1" fill="none" fill-rule="evenodd">
        <g id="Strada" transform="translate(-768.000000, -1970.000000)">
            <g id="View-3" transform="translate(150.000000, 1478.000000)">
                <g id="Paper" transform="translate(0.000000, 258.000000)">
                    <g transform="translate(0.000000, 106.000000)" id="Steps">
                        <g transform="translate(620.000000, 0.000000)">
                            <g id="Balls" transform="translate(0.000000, 5.000000)">
                                <g id="2" transform="translate(0.000000, 125.000000)">
                                    <circle id="Oval" stroke="#4D0DB9" stroke-width="4" fill="#F5F6FA" cx="35" cy="35" r="35"></circle>
                                    <path d="M42.2879492,47 L27.7713477,47 L27.7713477,44.3925781 L33.2938086,38.8408203 C34.9246761,37.1708901 36.0062083,35.9868199 36.5384375,35.2885742 C37.0706667,34.5903285 37.4588464,33.9335968 37.7029883,33.3183594 C37.9471301,32.7031219 38.0691992,32.0439488 38.0691992,31.3408203 C38.0691992,30.3740186 37.7786748,29.6123075 37.1976172,29.0556641 C36.6165596,28.4990207 35.813345,28.2207031 34.7879492,28.2207031 C33.9676326,28.2207031 33.1741835,28.3720688 32.4075781,28.6748047 C31.6409727,28.9775406 30.7547511,29.5244101 29.7488867,30.3154297 L27.8885352,28.0449219 C29.0799474,27.0390575 30.2371624,26.326174 31.3602149,25.90625 C32.4832673,25.486326 33.6795444,25.2763672 34.949082,25.2763672 C36.9412795,25.2763672 38.5379432,25.7963815 39.7391211,26.8364258 C40.940299,27.87647 41.5408789,29.2753818 41.5408789,31.0332031 C41.5408789,32.0000048 41.3675408,32.9179644 41.0208594,33.7871094 C40.674178,34.6562543 40.1419567,35.5522415 39.4241797,36.4750977 C38.7064027,37.3979538 37.512567,38.6455 35.8426367,40.2177734 L32.1219336,43.8212891 L32.1219336,43.9677734 L42.2879492,43.9677734 L42.2879492,47 Z" fill="#322673" fill-rule="nonzero"></path>
                                </g>
                            </g>
                        </g>
                    </g>
                </g>
            </g>
        </g>
    </g>
</svg>