<?xml version="1.0" encoding="UTF-8"?>
<svg width="86px" height="86px" viewBox="0 0 86 86" version="1.1" xmlns="http://www.w3.org/2000/svg" xmlns:xlink="http://www.w3.org/1999/xlink">
    <!-- Generator: Sketch 55 (78076) - https://sketchapp.com -->
    <title>Logo</title>
    <desc>Created with Sketch.</desc>
    <defs>
        <circle id="path-1" cx="35" cy="35" r="35"></circle>
        <filter x="-16.4%" y="-16.4%" width="135.7%" height="135.7%" filterUnits="objectBoundingBox" id="filter-3">
            <feMorphology radius="1.5" operator="dilate" in="SourceAlpha" result="shadowSpreadOuter1"></feMorphology>
            <feOffset dx="1" dy="1" in="shadowSpreadOuter1" result="shadowOffsetOuter1"></feOffset>
            <feGaussianBlur stdDeviation="2.5" in="shadowOffsetOuter1" result="shadowBlurOuter1"></feGaussianBlur>
            <feColorMatrix values="0 0 0 0 0.196078431   0 0 0 0 0.149019608   0 0 0 0 0.450980392  0 0 0 0.25 0" type="matrix" in="shadowBlurOuter1"></feColorMatrix>
        </filter>
    </defs>
    <g id="Page-1" stroke="none" stroke-width="1" fill="none" fill-rule="evenodd">
        <g id="Strada" transform="translate(-163.000000, -8488.000000)">
            <g id="View-7" transform="translate(0.000000, 6038.000000)">
                <g id="Design" transform="translate(150.000000, 2106.000000)">
                    <g id="Table" transform="translate(0.000000, 160.000000)">
                        <g id="List-Items" transform="translate(20.000000, 80.000000)">
                            <g id="Adobe-XD" transform="translate(0.000000, 111.000000)">
                                <g id="Logo">
                                    <mask id="mask-2" fill="white">
                                        <use xlink:href="#path-1"></use>
                                    </mask>
                                    <g id="Oval">
                                        <use fill="black" fill-opacity="1" filter="url(#filter-3)" xlink:href="#path-1"></use>
                                        <use fill="#5E7EC2" fill-rule="evenodd" xlink:href="#path-1"></use>
                                    </g>
                                    <g id="adobe-xd" mask="url(#mask-2)" fill-rule="nonzero">
                                        <g transform="translate(-3.000000, -3.000000)">
                                            <polygon id="Path" fill="#2E001E" points="3 3 74 3 74 74 3 74"></polygon>
                                            <path d="M0,0 L0,76 L76,76 L76,0 L0,0 Z M3.16666667,3.24786325 L72.8333333,3.24786325 L72.8333333,72.7521368 L3.16666667,72.7521368 L3.16666667,3.24786325 Z" id="Shape" fill="#FF2BC2"></path>
                                            <path d="M55.08099,31.1357798 C54.6036505,30.9045872 53.9990205,30.8055046 53.2352773,30.8055046 C49.2256254,30.8055046 46.5525241,34.0091743 46.5525241,39.3266055 C46.5525241,45.4036697 49.2892706,47.8477064 52.8534057,47.8477064 C53.6171489,47.8477064 54.4445374,47.7486239 55.0491674,47.4844037 L55.0491674,31.1357798 L55.08099,31.1357798 Z M40.8244499,39.5908257 C40.8244499,31.8954128 45.5978451,25.8844037 53.4262131,25.8844037 C54.0944884,25.8844037 54.4445374,25.8844037 55.08099,25.9504587 L55.08099,17.3633028 C55.08099,17.1651376 55.2401032,17.0330275 55.3992164,17.0330275 L60.5226605,17.0330275 C60.7772416,17.0330275 60.8408868,17.1321101 60.8408868,17.2972477 L60.8408868,47.4844037 C60.8408868,48.3761468 60.8408868,49.4990826 61,50.7211009 C61,50.9522936 61,50.9853211 60.8090642,51.0844037 C58.1359629,52.4055046 55.3355711,53 52.6624699,53 C45.7569582,53 40.8244499,48.5743119 40.8244499,39.5908257 L40.8244499,39.5908257 Z M29.9729317,34.240367 L38.8832693,52.1743119 C39.0423824,52.4385321 38.9469145,52.7027523 38.6923335,52.7027523 L33.1551951,52.7027523 C32.8051461,52.7027523 32.646033,52.6036697 32.4869198,52.2733945 C30.4502712,47.9137615 28.3818,43.3889908 26.2496835,38.6990826 L26.1860382,38.6990826 C24.2766802,43.1247706 22.1763863,47.946789 20.1397378,52.306422 C19.9806246,52.5706422 19.8215114,52.6697248 19.5669303,52.6697248 L14.2843731,52.6697248 C13.9661467,52.6697248 13.9343241,52.4055046 14.0934373,52.2073394 L22.812839,34.8018349 L14.379841,17.4954128 C14.1889052,17.2311927 14.379841,17 14.6025994,17 L20.0760925,17 C20.3943188,17 20.553432,17.066055 20.6488999,17.3633028 C22.6537258,21.7559633 24.6903744,26.0825688 26.5997325,30.5082569 L26.6633778,30.5082569 C28.5090905,26.1486239 30.5457391,21.7559633 32.4869198,17.4293578 C32.646033,17.1651376 32.7415009,17 33.0597272,17 L38.1831713,17 C38.4377524,17 38.5332203,17.1981651 38.3741071,17.4954128 L29.9729317,34.240367 L29.9729317,34.240367 Z" id="Shape" fill="#FF2BC2"></path>
                                        </g>
                                    </g>
                                </g>
                            </g>
                        </g>
                    </g>
                </g>
            </g>
        </g>
    </g>
</svg>